<svg id="svg" version="1.1" xmlns="http://www.w3.org/2000/svg" xmlns:xlink="http://www.w3.org/1999/xlink" width="400" height="120" viewBox="0, 0, 400,120"><g id="svgg"><path id="path0" d="M342.750 34.333 C 342.692 34.428,341.874 34.500,340.865 34.499 C 336.075 34.497,329.763 34.863,329.051 35.184 C 328.666 35.358,328.239 35.500,328.102 35.500 C 327.965 35.500,327.807 35.575,327.750 35.667 C 327.693 35.758,327.506 35.833,327.335 35.833 C 327.163 35.833,326.977 35.976,326.922 36.151 C 326.866 36.326,326.720 36.508,326.597 36.555 C 326.473 36.602,326.281 37.022,326.170 37.487 C 326.058 37.953,325.899 38.333,325.817 38.333 C 325.583 38.333,325.642 40.032,325.892 40.511 C 326.015 40.746,326.169 41.159,326.234 41.428 C 326.653 43.143,327.038 43.428,327.566 42.411 C 328.136 41.313,329.212 40.416,330.260 40.164 C 330.767 40.043,331.221 39.881,331.268 39.805 C 331.315 39.729,331.543 39.667,331.776 39.667 C 332.008 39.667,332.422 39.508,332.695 39.313 C 333.247 38.920,333.949 38.950,334.864 39.407 C 335.150 39.550,335.467 39.667,335.567 39.667 C 335.668 39.667,336.045 39.929,336.405 40.250 C 336.766 40.571,337.156 40.833,337.272 40.833 C 337.388 40.833,337.543 40.929,337.617 41.046 C 337.690 41.162,337.974 41.401,338.247 41.575 C 338.521 41.749,338.932 42.066,339.162 42.279 C 339.392 42.492,339.672 42.667,339.784 42.667 C 339.896 42.667,340.069 42.817,340.167 43.000 C 340.265 43.183,340.441 43.333,340.558 43.333 C 340.865 43.333,341.509 44.075,342.394 45.449 L 343.167 46.649 343.167 49.305 C 343.167 51.338,343.108 52.074,342.918 52.439 C 342.781 52.702,342.668 53.044,342.668 53.200 C 342.664 54.183,341.139 56.151,340.373 56.161 C 340.165 56.164,339.865 56.237,339.706 56.323 C 339.547 56.409,337.993 56.561,336.252 56.662 C 334.512 56.763,333.016 56.918,332.927 57.006 C 332.839 57.094,332.303 57.167,331.736 57.167 C 330.846 57.167,330.694 57.212,330.618 57.500 C 330.463 58.095,323.652 57.905,322.432 57.272 C 322.165 57.134,321.657 56.971,321.302 56.911 C 320.667 56.804,319.191 55.490,316.902 52.993 C 316.105 52.123,315.367 51.485,314.619 51.020 C 314.325 50.836,313.996 50.543,313.890 50.369 C 313.783 50.195,313.446 49.926,313.140 49.771 C 312.549 49.473,312.189 49.262,311.475 48.791 C 310.597 48.214,306.782 46.333,306.487 46.333 C 306.322 46.333,306.144 46.265,306.092 46.181 C 306.041 46.097,305.705 45.979,305.346 45.919 C 304.987 45.858,304.649 45.696,304.597 45.558 C 304.446 45.165,300.495 45.301,299.583 45.730 C 299.217 45.903,298.579 46.190,298.167 46.367 C 297.754 46.545,297.286 46.760,297.127 46.845 C 296.968 46.930,296.729 47.000,296.595 47.000 C 296.461 47.000,296.246 47.152,296.116 47.337 C 295.986 47.523,295.495 47.860,295.025 48.087 C 294.555 48.314,294.076 48.649,293.962 48.833 C 293.847 49.016,293.667 49.167,293.561 49.167 C 293.455 49.167,293.326 49.279,293.273 49.417 C 293.220 49.554,293.069 49.667,292.936 49.667 C 292.803 49.667,292.669 49.723,292.639 49.792 C 292.608 49.860,292.270 50.129,291.887 50.389 C 291.505 50.649,291.151 50.968,291.101 51.097 C 291.051 51.227,290.896 51.333,290.755 51.333 C 290.615 51.333,290.500 51.439,290.500 51.569 C 290.500 51.699,290.125 52.035,289.667 52.317 C 289.208 52.600,288.833 52.888,288.833 52.958 C 288.833 53.028,288.603 53.187,288.321 53.312 C 288.039 53.437,287.472 53.830,287.061 54.186 C 286.650 54.542,286.183 54.833,286.023 54.833 C 285.864 54.833,285.662 54.899,285.575 54.979 C 285.488 55.060,284.968 55.290,284.419 55.492 C 283.870 55.693,283.345 55.921,283.252 55.998 C 283.159 56.074,282.805 56.189,282.464 56.253 C 282.124 56.316,281.758 56.473,281.652 56.601 C 281.546 56.729,281.206 56.833,280.896 56.833 C 280.586 56.833,280.052 56.983,279.710 57.167 C 279.368 57.350,278.975 57.500,278.836 57.501 C 278.697 57.501,278.133 57.727,277.583 58.003 C 277.033 58.278,276.302 58.550,275.958 58.607 C 275.590 58.667,275.333 58.803,275.333 58.938 C 275.333 59.254,274.261 59.238,273.940 58.917 C 273.803 58.779,273.612 58.667,273.516 58.667 C 273.420 58.667,273.232 58.455,273.099 58.196 C 272.965 57.937,272.738 57.628,272.594 57.509 C 272.292 57.258,272.210 54.429,272.500 54.250 C 272.592 54.193,272.667 53.901,272.667 53.601 C 272.667 53.301,272.722 53.000,272.790 52.932 C 272.931 52.791,273.484 51.110,273.415 51.032 C 273.390 51.004,273.080 51.129,272.726 51.312 C 271.429 51.980,270.901 52.192,270.211 52.322 C 269.823 52.396,269.261 52.639,268.961 52.863 C 268.662 53.087,268.154 53.375,267.833 53.502 C 267.512 53.630,266.934 54.057,266.548 54.451 C 266.162 54.844,265.795 55.167,265.733 55.167 C 265.549 55.167,265.178 55.729,265.172 56.016 C 265.169 56.162,265.017 56.417,264.833 56.583 C 264.650 56.749,264.500 56.976,264.500 57.087 C 264.500 57.407,260.794 61.105,260.333 61.244 C 260.104 61.313,259.429 61.592,258.833 61.863 C 257.160 62.625,257.130 62.636,256.347 62.725 C 255.921 62.774,255.548 62.920,255.463 63.071 C 255.306 63.352,253.500 63.465,253.500 63.193 C 253.500 63.116,252.956 62.960,252.292 62.846 C 251.627 62.732,250.971 62.581,250.833 62.510 C 250.695 62.440,250.057 62.253,249.416 62.095 C 248.775 61.937,247.970 61.626,247.629 61.404 C 247.287 61.182,246.945 61.000,246.868 61.000 C 246.663 61.000,243.833 58.210,243.833 58.007 C 243.833 57.912,243.777 57.832,243.708 57.831 C 243.640 57.830,243.441 57.532,243.266 57.168 C 243.092 56.803,242.811 56.380,242.641 56.227 C 242.472 56.074,242.333 55.857,242.333 55.745 C 242.333 55.633,242.226 55.452,242.094 55.342 C 241.963 55.233,241.692 54.830,241.493 54.447 C 241.293 54.064,241.082 53.712,241.023 53.667 C 240.964 53.621,240.692 53.246,240.418 52.833 C 239.537 51.505,236.859 49.006,236.056 48.763 C 235.696 48.654,235.696 48.658,235.629 52.118 C 235.568 55.214,235.524 55.654,235.217 56.250 C 234.610 57.426,234.167 58.475,234.167 58.735 C 234.167 58.874,234.022 59.066,233.845 59.161 C 233.667 59.255,233.479 59.471,233.425 59.640 C 233.237 60.231,230.366 62.333,229.745 62.333 C 229.610 62.333,229.500 62.390,229.500 62.459 C 229.500 62.528,229.031 62.763,228.458 62.981 C 227.885 63.200,227.267 63.508,227.083 63.666 C 226.900 63.824,226.375 64.043,225.917 64.153 C 224.109 64.583,223.833 64.685,223.833 64.923 C 223.833 65.365,221.298 65.253,220.266 64.765 C 219.799 64.544,219.117 64.311,218.750 64.246 C 216.663 63.878,212.707 61.107,212.260 59.700 C 212.197 59.498,212.070 59.333,211.980 59.333 C 211.890 59.333,211.708 59.090,211.575 58.792 C 211.442 58.494,211.165 57.977,210.958 57.644 C 210.752 57.310,210.325 56.598,210.010 56.060 C 209.694 55.523,209.376 55.058,209.301 55.028 C 209.227 54.997,209.167 54.791,209.167 54.569 C 209.167 54.348,209.092 54.167,209.000 54.167 C 208.908 54.167,208.833 54.063,208.833 53.937 C 208.833 53.811,208.721 53.614,208.583 53.500 C 208.446 53.386,208.333 53.163,208.333 53.005 C 208.333 52.848,208.183 52.583,208.000 52.417 C 207.817 52.251,207.667 52.028,207.667 51.921 C 207.667 51.814,207.383 51.347,207.036 50.882 C 206.689 50.417,206.258 49.757,206.078 49.416 C 205.897 49.075,205.334 48.362,204.826 47.832 L 203.903 46.868 203.335 47.106 C 203.022 47.238,202.650 47.457,202.508 47.593 C 202.137 47.950,201.014 48.667,200.826 48.667 C 200.738 48.667,200.667 48.738,200.667 48.824 C 200.667 48.972,200.308 49.206,199.333 49.691 C 199.104 49.806,198.579 50.133,198.167 50.419 C 197.754 50.705,196.592 51.344,195.583 51.840 C 194.575 52.336,193.725 52.800,193.694 52.871 C 193.664 52.942,193.533 53.000,193.403 53.000 C 193.273 53.000,193.167 53.072,193.167 53.159 C 193.167 53.247,192.902 53.368,192.579 53.428 C 192.256 53.489,191.899 53.661,191.784 53.811 C 191.506 54.177,190.265 54.833,189.852 54.833 C 189.669 54.833,189.473 54.908,189.417 55.000 C 189.360 55.092,189.166 55.167,188.985 55.167 C 188.804 55.167,188.613 55.280,188.560 55.417 C 188.507 55.555,188.191 55.788,187.857 55.934 C 187.523 56.080,186.872 56.374,186.410 56.588 C 185.948 56.801,185.372 57.026,185.130 57.086 C 184.889 57.147,184.650 57.302,184.601 57.432 C 184.551 57.561,184.363 57.667,184.182 57.667 C 184.001 57.667,183.807 57.742,183.750 57.833 C 183.693 57.925,183.509 58.000,183.341 58.000 C 183.173 58.000,182.992 58.112,182.940 58.250 C 182.887 58.387,182.722 58.500,182.573 58.500 C 182.423 58.500,182.098 58.645,181.849 58.822 C 181.600 58.999,181.195 59.195,180.948 59.257 C 180.702 59.319,180.500 59.474,180.500 59.601 C 180.500 59.729,180.356 59.833,180.180 59.833 C 179.834 59.833,178.836 60.347,178.834 60.527 C 178.833 60.628,178.387 60.857,176.831 61.550 C 176.509 61.694,176.064 62.004,175.843 62.239 C 175.623 62.474,175.341 62.667,175.218 62.667 C 174.853 62.667,173.698 63.465,173.396 63.924 C 173.226 64.185,172.993 64.331,172.798 64.300 C 172.486 64.251,172.321 63.987,171.161 61.667 C 170.010 59.366,170.052 59.433,169.238 58.604 C 166.854 56.180,166.587 56.143,164.013 57.888 C 162.870 58.663,162.628 58.814,162.167 59.039 C 161.938 59.151,161.375 59.477,160.917 59.764 C 160.458 60.051,159.783 60.381,159.417 60.497 C 158.503 60.788,157.361 61.320,157.244 61.510 C 157.191 61.596,157.014 61.667,156.851 61.667 C 156.689 61.667,156.337 61.890,156.069 62.162 C 155.748 62.490,155.414 62.659,155.082 62.662 C 154.764 62.665,154.504 62.789,154.372 63.000 C 154.258 63.183,154.060 63.333,153.933 63.333 C 153.806 63.333,153.660 63.443,153.608 63.578 C 153.557 63.713,153.255 63.931,152.937 64.064 C 152.619 64.197,152.232 64.499,152.077 64.736 C 151.911 64.989,151.639 65.167,151.418 65.167 C 151.211 65.167,150.949 65.278,150.836 65.413 C 150.594 65.706,149.709 66.167,149.391 66.167 C 149.268 66.167,149.167 66.235,149.167 66.318 C 149.167 66.478,147.855 67.167,147.551 67.167 C 147.454 67.167,147.273 67.288,147.150 67.437 C 146.873 67.770,142.472 67.706,142.130 67.363 C 142.022 67.255,141.701 67.167,141.417 67.167 C 141.132 67.167,140.829 67.104,140.742 67.028 C 140.655 66.952,140.246 66.797,139.833 66.684 C 139.030 66.464,138.383 66.173,137.583 65.671 C 137.308 65.499,136.931 65.352,136.744 65.346 C 136.553 65.339,136.277 65.116,136.110 64.833 C 135.947 64.558,135.752 64.333,135.675 64.333 C 135.599 64.333,135.493 64.165,135.441 63.958 C 135.388 63.752,135.118 63.335,134.839 63.031 C 134.561 62.728,134.333 62.380,134.333 62.258 C 134.333 62.136,134.221 61.992,134.083 61.940 C 133.945 61.887,133.707 61.579,133.552 61.255 C 133.398 60.931,133.173 60.667,133.052 60.667 C 132.932 60.667,132.833 60.582,132.833 60.479 C 132.833 60.375,132.383 59.860,131.833 59.333 C 131.283 58.807,130.833 58.319,130.833 58.250 C 130.833 58.180,130.567 57.815,130.242 57.437 C 129.455 56.523,129.333 56.365,129.333 56.251 C 129.333 56.198,128.996 55.802,128.583 55.372 C 128.171 54.941,127.833 54.503,127.833 54.398 C 127.833 54.293,127.721 54.114,127.583 54.000 C 127.446 53.886,127.333 53.622,127.333 53.414 C 127.333 53.206,127.228 52.995,127.099 52.946 C 126.970 52.896,126.816 52.634,126.756 52.362 C 126.697 52.090,126.502 51.736,126.324 51.575 C 126.146 51.414,126.000 51.148,126.000 50.984 C 126.000 50.820,125.925 50.640,125.833 50.583 C 125.742 50.527,125.662 50.316,125.656 50.115 C 125.646 49.760,125.642 49.759,125.508 50.089 C 125.432 50.276,125.250 50.529,125.102 50.651 C 124.954 50.774,124.833 50.974,124.833 51.095 C 124.833 51.217,124.646 51.518,124.417 51.766 C 124.188 52.013,124.000 52.307,124.000 52.419 C 124.000 52.530,123.861 52.801,123.692 53.019 C 123.522 53.238,123.137 53.867,122.836 54.417 C 122.261 55.469,121.414 56.607,120.633 57.376 C 120.377 57.629,120.167 57.883,120.167 57.939 C 120.167 58.120,117.925 60.158,117.721 60.162 C 117.614 60.165,117.313 60.335,117.054 60.542 C 116.794 60.748,116.403 61.017,116.185 61.141 C 115.966 61.264,115.518 61.516,115.188 61.702 C 114.858 61.887,114.489 62.180,114.368 62.353 C 114.247 62.525,114.040 62.667,113.907 62.667 C 113.775 62.667,113.667 62.727,113.667 62.800 C 113.667 62.873,113.404 63.028,113.083 63.144 C 112.763 63.260,112.428 63.490,112.339 63.655 C 112.244 63.834,111.897 64.000,111.481 64.067 C 111.097 64.128,110.513 64.390,110.183 64.648 C 109.853 64.906,109.278 65.165,108.905 65.223 C 108.532 65.280,107.872 65.516,107.438 65.747 C 107.004 65.978,106.445 66.167,106.195 66.167 C 105.945 66.167,105.588 66.274,105.401 66.405 C 105.213 66.536,104.597 66.696,104.030 66.760 C 103.464 66.824,103.000 66.932,103.000 67.000 C 103.000 67.121,102.183 67.254,100.333 67.433 C 99.829 67.482,99.252 67.603,99.050 67.701 C 98.569 67.937,89.103 67.791,88.797 67.543 C 88.679 67.448,87.946 67.316,87.167 67.251 C 86.388 67.185,85.638 67.034,85.500 66.914 C 85.362 66.795,84.940 66.615,84.561 66.514 C 84.182 66.413,83.774 66.213,83.654 66.068 C 83.534 65.923,83.112 65.653,82.718 65.467 C 82.323 65.282,82.000 65.065,82.000 64.986 C 82.000 64.907,81.771 64.724,81.492 64.579 C 81.212 64.435,80.716 64.020,80.389 63.658 C 80.062 63.296,79.720 63.000,79.628 63.000 C 78.939 63.000,78.180 61.572,78.174 60.262 C 78.167 59.000,78.644 57.333,79.012 57.333 C 79.077 57.333,79.179 57.141,79.238 56.905 C 79.376 56.354,80.248 55.500,80.672 55.500 C 80.853 55.500,81.000 55.433,81.000 55.351 C 81.000 55.269,81.281 55.160,81.625 55.109 C 81.969 55.058,82.737 54.941,83.333 54.850 C 83.929 54.760,85.467 54.634,86.750 54.570 C 88.033 54.507,89.160 54.396,89.253 54.323 C 89.346 54.250,90.096 54.142,90.919 54.083 C 92.279 53.985,92.732 53.884,93.507 53.501 C 93.648 53.431,94.307 53.320,94.971 53.253 C 97.212 53.028,97.153 52.561,94.833 52.162 C 94.146 52.044,93.496 51.880,93.390 51.798 C 93.283 51.717,91.834 51.564,90.170 51.459 C 87.541 51.294,87.123 51.229,86.983 50.968 C 86.738 50.511,78.850 50.509,78.083 50.966 C 77.808 51.130,77.265 51.366,76.875 51.492 C 76.485 51.617,76.167 51.770,76.167 51.832 C 76.167 51.893,75.960 52.050,75.708 52.180 C 75.456 52.310,75.120 52.577,74.961 52.773 C 74.802 52.969,74.488 53.175,74.264 53.232 C 74.039 53.288,73.808 53.484,73.750 53.667 C 73.692 53.850,73.510 54.072,73.346 54.160 C 73.183 54.247,72.744 54.566,72.371 54.868 C 71.999 55.170,71.546 55.529,71.366 55.667 C 71.185 55.804,70.605 56.290,70.077 56.747 C 69.090 57.600,68.634 57.916,68.125 58.100 C 67.965 58.158,67.833 58.264,67.833 58.336 C 67.833 58.466,67.131 58.930,66.000 59.548 C 65.679 59.724,65.225 60.047,64.991 60.267 C 64.757 60.487,64.485 60.667,64.386 60.667 C 64.288 60.667,64.118 60.774,64.009 60.906 C 63.900 61.037,63.497 61.219,63.114 61.310 C 62.730 61.400,62.004 61.592,61.500 61.735 C 60.996 61.879,60.382 61.997,60.135 61.998 C 59.888 61.999,59.640 62.075,59.583 62.167 C 59.527 62.258,59.334 62.333,59.155 62.333 C 58.975 62.333,58.699 62.406,58.539 62.494 C 58.380 62.582,57.425 62.730,56.417 62.823 C 54.159 63.030,52.798 63.329,52.377 63.710 C 52.201 63.870,51.955 64.000,51.829 64.000 C 51.481 64.000,50.333 64.849,50.333 65.106 C 50.333 65.758,48.692 64.905,48.672 64.243 C 48.669 64.148,48.323 63.735,47.903 63.326 C 47.483 62.918,47.031 62.377,46.899 62.125 C 46.602 61.559,44.857 59.768,44.458 59.619 C 44.298 59.559,44.167 59.404,44.167 59.275 C 44.167 59.145,43.848 58.766,43.458 58.432 C 43.069 58.098,42.585 57.678,42.384 57.498 C 41.414 56.635,40.344 56.879,40.330 57.966 C 40.328 58.122,40.179 58.438,40.000 58.667 C 39.821 58.896,39.672 59.200,39.670 59.342 C 39.668 59.484,39.607 59.671,39.534 59.758 C 39.461 59.845,39.301 60.217,39.177 60.583 C 39.054 60.950,38.907 61.288,38.852 61.333 C 38.699 61.459,38.420 61.946,37.659 63.417 C 36.638 65.391,36.669 65.348,35.500 66.405 C 34.904 66.944,34.140 67.634,33.803 67.939 C 33.465 68.243,32.753 68.700,32.220 68.955 C 31.686 69.209,31.190 69.510,31.117 69.625 C 30.968 69.858,22.400 69.907,20.627 69.686 C 19.526 69.548,18.834 69.019,18.314 67.917 C 18.141 67.550,17.867 67.025,17.705 66.750 C 17.543 66.475,17.308 65.950,17.182 65.583 C 17.057 65.217,16.815 64.718,16.644 64.474 C 16.473 64.231,16.333 63.877,16.333 63.687 C 16.333 63.497,16.108 62.850,15.833 62.250 C 15.558 61.650,15.333 61.025,15.333 60.862 C 15.333 60.700,15.269 60.495,15.191 60.408 C 15.113 60.321,14.918 59.762,14.757 59.167 C 14.596 58.571,14.405 58.008,14.333 57.917 C 14.261 57.825,14.036 57.188,13.835 56.500 C 13.633 55.813,13.363 55.006,13.234 54.708 C 12.615 53.276,12.479 53.007,12.329 52.914 C 12.240 52.859,12.164 52.687,12.161 52.532 C 12.151 52.002,11.699 51.553,11.558 51.933 C 11.493 52.107,11.079 52.625,10.639 53.083 C 10.198 53.542,9.837 54.005,9.835 54.112 C 9.834 54.220,9.586 54.632,9.283 55.029 C 8.245 56.390,7.333 57.857,7.333 58.169 C 7.333 58.341,7.202 58.580,7.042 58.702 C 6.757 58.917,6.605 59.166,5.662 60.962 C 5.409 61.445,5.128 61.933,5.038 62.045 C 4.948 62.158,4.817 62.438,4.748 62.667 C 4.678 62.896,4.444 63.295,4.227 63.554 C 4.011 63.814,3.833 64.101,3.833 64.193 C 3.833 64.349,2.820 65.709,2.424 66.083 C 2.328 66.175,1.955 66.681,1.597 67.208 C 1.238 67.735,0.882 68.167,0.806 68.167 C -0.049 68.167,0.000 66.560,0.000 94.417 L 0.000 120.000 200.000 120.000 L 400.000 120.000 400.000 90.623 L 400.000 61.247 399.625 61.003 C 398.623 60.352,397.256 59.667,396.960 59.667 C 396.838 59.667,396.478 59.445,396.160 59.173 C 395.843 58.902,395.487 58.677,395.370 58.673 C 395.252 58.670,395.106 58.535,395.044 58.375 C 394.983 58.215,394.573 57.738,394.133 57.317 C 393.693 56.895,393.333 56.474,393.333 56.382 C 393.333 56.289,393.044 55.884,392.691 55.482 C 392.338 55.079,391.924 54.507,391.772 54.211 C 391.619 53.915,390.997 53.202,390.389 52.628 C 389.323 51.620,387.898 50.199,387.405 49.653 C 387.274 49.507,387.167 49.296,387.167 49.183 C 387.167 48.966,386.341 47.790,386.120 47.693 C 386.048 47.661,385.810 47.282,385.591 46.849 C 385.372 46.416,385.074 45.964,384.930 45.844 C 384.785 45.724,384.667 45.523,384.667 45.396 C 384.667 45.270,384.604 45.167,384.527 45.167 C 384.451 45.167,384.094 44.795,383.736 44.340 C 382.875 43.249,382.900 43.222,382.778 45.359 C 382.703 46.665,382.596 47.301,382.419 47.497 C 382.097 47.853,382.092 48.602,382.411 48.725 C 382.625 48.807,382.625 48.876,382.412 49.284 C 382.278 49.540,382.168 49.832,382.168 49.933 C 382.167 50.033,382.017 50.251,381.833 50.417 C 381.650 50.583,381.500 50.785,381.500 50.865 C 381.500 50.995,380.889 51.618,379.628 52.775 C 379.088 53.271,377.691 54.078,376.950 54.322 C 376.611 54.434,376.333 54.595,376.333 54.680 C 376.333 54.875,374.121 54.883,373.908 54.688 C 373.821 54.608,372.992 54.460,372.065 54.358 C 369.587 54.086,366.208 52.029,366.160 50.763 C 366.156 50.664,365.931 50.324,365.660 50.006 C 365.389 49.689,365.167 49.298,365.167 49.137 C 365.167 48.977,365.017 48.765,364.833 48.667 C 364.650 48.569,364.499 48.397,364.498 48.286 C 364.497 48.174,364.235 47.754,363.915 47.352 C 363.595 46.949,363.333 46.528,363.333 46.417 C 363.333 46.305,363.068 45.959,362.745 45.648 C 362.421 45.338,362.029 44.823,361.875 44.506 C 361.721 44.188,361.461 43.794,361.297 43.631 C 361.134 43.467,361.000 43.272,361.000 43.197 C 361.000 43.039,358.736 41.308,358.296 41.130 C 358.133 41.065,358.000 40.933,358.000 40.839 C 358.000 40.744,357.877 40.667,357.727 40.667 C 357.578 40.667,357.281 40.479,357.069 40.250 C 356.856 40.021,356.611 39.833,356.524 39.833 C 356.438 39.833,355.917 39.496,355.369 39.083 C 354.820 38.671,354.265 38.333,354.135 38.333 C 354.006 38.333,353.816 38.250,353.714 38.147 C 353.487 37.920,352.905 37.573,352.292 37.299 C 352.040 37.186,351.833 37.035,351.833 36.963 C 351.833 36.892,351.689 36.833,351.512 36.833 C 351.335 36.833,351.052 36.665,350.881 36.458 C 350.411 35.888,348.445 34.833,347.853 34.833 C 347.491 34.833,346.670 34.458,346.668 34.292 C 346.666 34.100,342.869 34.141,342.750 34.333 " stroke="none" fill="#5c94e4" fill-rule="evenodd"></path><path id="path1" d="M342.242 33.649 C 342.155 33.732,339.458 33.838,336.250 33.885 C 330.448 33.971,328.188 34.186,328.028 34.667 C 327.997 34.758,327.840 34.833,327.678 34.833 C 327.298 34.833,326.333 35.314,326.333 35.504 C 326.333 35.584,326.146 35.852,325.917 36.099 C 325.688 36.346,325.500 36.722,325.500 36.935 C 325.500 37.147,325.344 37.466,325.153 37.644 C 324.072 38.651,326.324 45.544,327.577 45.063 C 327.796 44.979,327.849 44.801,327.803 44.310 C 327.769 43.956,327.781 43.667,327.829 43.667 C 327.878 43.667,328.103 43.310,328.330 42.875 C 328.919 41.746,329.579 41.220,330.917 40.813 C 331.558 40.619,332.392 40.318,332.768 40.146 C 333.659 39.739,335.039 40.130,336.130 41.100 C 336.966 41.842,337.142 41.970,337.484 42.078 C 337.676 42.139,337.833 42.259,337.833 42.345 C 337.833 42.430,337.927 42.502,338.042 42.505 C 338.156 42.507,338.475 42.740,338.750 43.021 C 339.025 43.303,339.644 43.796,340.125 44.116 C 340.606 44.437,341.000 44.798,341.000 44.919 C 341.000 45.040,341.056 45.164,341.125 45.194 C 341.350 45.294,342.000 46.314,342.000 46.567 C 342.000 46.703,342.075 46.860,342.167 46.917 C 342.265 46.978,342.333 48.002,342.333 49.427 C 342.333 50.920,342.270 51.833,342.167 51.833 C 342.075 51.833,342.000 52.100,342.000 52.425 C 342.000 53.650,340.646 55.500,339.749 55.500 C 339.439 55.500,339.140 55.575,339.083 55.667 C 339.022 55.766,337.974 55.833,336.500 55.833 C 335.026 55.833,333.978 55.901,333.917 56.000 C 333.860 56.092,333.560 56.167,333.250 56.167 C 332.940 56.167,332.640 56.242,332.583 56.333 C 332.527 56.425,331.922 56.500,331.240 56.500 C 330.197 56.500,330.000 56.544,330.000 56.776 C 330.000 57.096,323.662 57.009,323.270 56.683 C 323.158 56.590,322.759 56.465,322.383 56.405 C 321.457 56.257,320.640 55.667,319.169 54.083 C 318.488 53.350,317.758 52.639,317.548 52.503 C 317.338 52.367,317.167 52.202,317.167 52.136 C 317.167 51.936,315.441 50.334,315.223 50.332 C 315.146 50.331,314.782 50.042,314.415 49.690 C 314.047 49.338,313.465 48.949,313.123 48.825 C 312.780 48.701,312.500 48.540,312.500 48.467 C 312.500 48.393,312.397 48.333,312.270 48.333 C 312.144 48.333,311.944 48.217,311.825 48.074 C 311.707 47.931,311.358 47.709,311.049 47.580 C 310.741 47.451,310.373 47.230,310.232 47.089 C 310.091 46.949,309.836 46.833,309.665 46.833 C 309.493 46.833,309.311 46.766,309.261 46.684 C 309.094 46.414,307.832 45.833,307.412 45.833 C 307.185 45.833,307.000 45.764,307.000 45.678 C 307.000 45.593,306.587 45.438,306.083 45.333 C 305.483 45.209,305.106 45.032,304.994 44.821 C 304.800 44.459,300.000 44.310,300.000 44.667 C 300.000 44.758,299.773 44.833,299.495 44.833 C 299.215 44.833,298.950 44.938,298.900 45.067 C 298.815 45.289,298.383 45.491,297.833 45.566 C 297.393 45.627,296.500 46.028,296.500 46.165 C 296.500 46.238,296.306 46.346,296.069 46.405 C 295.832 46.465,295.476 46.688,295.277 46.900 C 295.079 47.113,294.765 47.335,294.580 47.393 C 294.394 47.451,293.998 47.722,293.699 47.995 C 292.816 48.801,292.068 49.333,291.818 49.334 C 291.689 49.334,291.301 49.634,290.956 50.000 C 290.611 50.367,290.253 50.667,290.159 50.667 C 290.066 50.667,289.939 50.798,289.878 50.958 C 289.740 51.318,289.158 51.820,288.870 51.828 C 288.752 51.831,288.614 51.944,288.562 52.080 C 288.510 52.215,288.130 52.495,287.717 52.701 C 287.305 52.907,286.786 53.243,286.565 53.448 C 286.161 53.823,284.233 54.833,283.922 54.833 C 283.764 54.833,282.491 55.306,281.417 55.762 C 281.142 55.879,280.560 56.065,280.125 56.174 C 279.690 56.283,279.333 56.443,279.333 56.530 C 279.333 56.616,279.264 56.643,279.178 56.590 C 279.093 56.538,278.976 56.571,278.918 56.664 C 278.861 56.757,278.630 56.833,278.406 56.833 C 278.182 56.833,277.719 56.983,277.377 57.167 C 277.035 57.350,276.660 57.500,276.544 57.500 C 276.428 57.500,276.333 57.575,276.333 57.667 C 276.333 57.758,276.127 57.834,275.875 57.834 C 275.623 57.835,275.219 57.939,274.977 58.065 C 274.510 58.309,274.263 58.166,273.458 57.185 C 272.984 56.607,273.143 53.823,273.670 53.498 C 273.776 53.432,273.841 53.200,273.815 52.981 C 273.789 52.762,273.857 52.420,273.967 52.219 C 274.077 52.019,274.167 51.738,274.167 51.596 C 274.167 51.453,274.317 51.242,274.500 51.128 C 274.940 50.853,274.950 50.059,274.514 49.921 C 274.059 49.777,273.429 49.967,272.000 50.678 C 271.313 51.021,270.300 51.426,269.750 51.578 C 269.200 51.731,268.675 51.950,268.583 52.064 C 268.492 52.179,267.967 52.491,267.417 52.758 C 266.104 53.396,263.755 55.867,264.118 56.229 C 264.175 56.286,264.135 56.333,264.028 56.333 C 263.921 56.333,263.833 56.438,263.833 56.566 C 263.833 56.693,263.721 56.841,263.583 56.894 C 263.446 56.946,263.333 57.064,263.333 57.154 C 263.333 57.843,259.373 61.000,258.509 61.000 C 258.428 61.000,258.336 61.064,258.306 61.142 C 258.217 61.367,256.223 62.000,255.601 62.000 C 255.237 62.000,254.999 62.095,254.934 62.266 C 254.824 62.553,253.256 62.462,252.925 62.150 C 252.838 62.067,252.575 61.997,252.342 61.993 C 251.826 61.984,250.396 61.618,250.230 61.453 C 250.165 61.387,249.899 61.333,249.639 61.333 C 249.379 61.333,249.167 61.258,249.167 61.167 C 249.167 61.075,249.058 61.000,248.925 61.000 C 248.526 61.000,247.137 60.193,246.507 59.596 C 245.687 58.817,244.086 57.093,244.134 57.040 C 244.213 56.953,243.682 56.054,243.428 55.842 C 243.284 55.723,243.167 55.499,243.167 55.344 C 243.167 55.190,243.032 54.917,242.867 54.740 C 242.702 54.562,242.255 53.956,241.873 53.393 C 241.491 52.830,241.077 52.267,240.953 52.143 C 240.829 52.018,240.508 51.613,240.239 51.241 C 239.970 50.870,239.487 50.332,239.167 50.046 C 238.846 49.760,238.324 49.296,238.007 49.015 C 236.298 47.500,234.500 47.108,234.500 48.250 C 234.500 48.663,234.575 49.000,234.667 49.000 C 234.881 49.000,234.894 55.276,234.679 55.409 C 234.595 55.461,234.472 55.746,234.407 56.042 C 234.342 56.338,234.112 56.813,233.895 57.097 C 233.678 57.382,233.500 57.729,233.500 57.868 C 233.500 58.008,233.350 58.312,233.167 58.545 C 232.983 58.779,232.833 59.025,232.833 59.093 C 232.833 59.304,231.447 60.481,230.875 60.756 C 230.577 60.899,230.333 61.075,230.333 61.148 C 230.333 61.221,230.033 61.370,229.667 61.480 C 229.300 61.590,229.000 61.752,229.000 61.840 C 229.000 61.928,228.886 62.000,228.748 62.000 C 228.609 62.000,228.365 62.069,228.206 62.153 C 228.047 62.237,227.560 62.463,227.125 62.654 C 226.690 62.845,226.333 63.076,226.333 63.168 C 226.333 63.259,226.143 63.333,225.911 63.333 C 225.679 63.333,225.220 63.446,224.891 63.583 C 224.562 63.721,224.152 63.833,223.980 63.833 C 223.808 63.833,223.509 63.991,223.317 64.183 C 222.961 64.539,221.910 64.534,221.184 64.173 C 220.752 63.959,219.301 63.523,218.625 63.405 C 218.281 63.345,218.000 63.230,218.000 63.148 C 218.000 63.067,217.884 63.000,217.741 63.000 C 217.500 63.000,216.187 62.364,216.000 62.157 C 215.954 62.106,215.746 61.947,215.537 61.804 C 214.727 61.252,213.180 59.780,213.264 59.644 C 213.313 59.565,213.274 59.500,213.177 59.500 C 213.079 59.500,213.000 59.412,213.000 59.305 C 213.000 59.197,212.881 58.978,212.736 58.818 C 212.422 58.471,211.899 57.597,211.624 56.958 C 211.516 56.706,211.368 56.500,211.297 56.500 C 211.225 56.500,211.167 56.421,211.167 56.324 C 211.167 56.227,210.867 55.707,210.500 55.167 C 210.133 54.627,209.833 54.135,209.833 54.075 C 209.833 53.756,208.775 51.812,208.495 51.615 C 208.316 51.490,208.208 51.348,208.255 51.300 C 208.303 51.253,208.227 51.119,208.087 51.003 C 207.948 50.887,207.833 50.715,207.833 50.620 C 207.833 50.526,207.646 50.202,207.417 49.902 C 207.188 49.601,207.000 49.308,207.000 49.249 C 207.000 49.002,205.931 47.619,205.203 46.925 C 204.145 45.915,203.117 45.946,201.869 47.026 C 201.568 47.287,201.219 47.500,201.092 47.500 C 200.966 47.500,200.684 47.712,200.466 47.972 C 200.248 48.231,199.566 48.681,198.951 48.971 C 198.336 49.262,197.833 49.567,197.833 49.648 C 197.833 49.730,197.646 49.844,197.417 49.902 C 197.188 49.959,197.000 50.080,197.000 50.170 C 197.000 50.260,196.887 50.333,196.750 50.333 C 196.612 50.333,196.500 50.408,196.500 50.500 C 196.500 50.592,196.444 50.659,196.375 50.649 C 196.137 50.614,195.500 50.873,195.500 51.004 C 195.500 51.076,195.357 51.098,195.183 51.052 C 194.967 50.996,194.832 51.076,194.760 51.301 C 194.687 51.530,194.554 51.606,194.328 51.547 C 194.146 51.499,194.000 51.544,194.000 51.647 C 194.000 51.750,193.891 51.833,193.758 51.833 C 193.625 51.833,193.457 51.927,193.383 52.042 C 193.227 52.285,192.097 52.833,191.750 52.833 C 191.619 52.833,191.441 52.965,191.354 53.125 C 191.268 53.285,190.721 53.599,190.140 53.821 C 189.559 54.044,189.012 54.287,188.925 54.363 C 188.838 54.438,188.636 54.500,188.476 54.500 C 188.316 54.500,188.088 54.631,187.968 54.792 C 187.848 54.952,187.525 55.186,187.250 55.311 C 186.975 55.436,186.620 55.605,186.461 55.686 C 186.301 55.767,186.055 55.833,185.914 55.833 C 185.772 55.833,185.616 55.937,185.567 56.065 C 185.495 56.253,184.797 56.508,184.409 56.487 C 184.359 56.485,184.091 56.674,183.813 56.908 C 183.535 57.142,183.173 57.333,183.008 57.333 C 182.843 57.333,182.614 57.446,182.500 57.583 C 182.386 57.721,182.151 57.833,181.978 57.833 C 181.805 57.833,181.535 57.983,181.378 58.167 C 181.203 58.372,180.886 58.500,180.558 58.500 C 180.169 58.500,179.994 58.591,179.917 58.833 C 179.858 59.017,179.713 59.167,179.593 59.167 C 179.472 59.167,179.284 59.275,179.175 59.407 C 179.065 59.539,178.864 59.604,178.727 59.552 C 178.586 59.497,178.380 59.596,178.251 59.781 C 178.126 59.959,177.700 60.246,177.304 60.417 C 176.908 60.589,176.452 60.839,176.292 60.974 C 176.131 61.108,176.000 61.161,176.000 61.092 C 176.000 61.022,175.735 61.198,175.411 61.483 C 175.087 61.767,174.723 62.000,174.603 62.000 C 174.291 62.000,173.333 62.498,173.333 62.661 C 173.333 63.240,172.786 62.881,172.379 62.036 C 172.127 61.512,171.870 61.045,171.807 60.998 C 171.744 60.952,171.643 60.713,171.582 60.469 C 171.520 60.224,171.364 59.984,171.235 59.934 C 171.106 59.884,171.000 59.689,171.000 59.500 C 171.000 59.311,170.887 59.113,170.750 59.060 C 170.612 59.008,170.500 58.864,170.500 58.740 C 170.500 58.617,170.398 58.457,170.274 58.383 C 170.150 58.310,169.960 58.081,169.852 57.875 C 169.744 57.669,169.560 57.500,169.445 57.500 C 169.329 57.500,169.050 57.278,168.826 57.007 C 168.601 56.736,168.357 56.511,168.285 56.507 C 168.132 56.499,167.764 56.212,167.368 55.792 C 167.087 55.494,166.000 55.379,166.000 55.647 C 166.000 55.728,165.869 55.842,165.708 55.900 C 165.168 56.095,163.856 56.913,163.350 57.370 C 163.073 57.619,162.662 57.870,162.436 57.927 C 162.209 57.984,161.984 58.136,161.934 58.265 C 161.884 58.394,161.740 58.500,161.614 58.500 C 161.276 58.500,160.333 59.000,160.333 59.179 C 160.333 59.264,160.221 59.333,160.083 59.333 C 159.945 59.333,159.552 59.483,159.210 59.667 C 158.868 59.850,158.456 60.000,158.294 60.000 C 158.132 60.000,158.000 60.075,158.000 60.167 C 158.000 60.258,157.867 60.333,157.704 60.333 C 157.541 60.333,157.260 60.436,157.079 60.561 C 156.898 60.686,156.563 60.845,156.333 60.913 C 156.104 60.982,155.715 61.255,155.468 61.519 C 155.178 61.829,154.852 62.000,154.549 62.000 C 154.261 62.000,154.000 62.128,153.872 62.333 C 153.758 62.517,153.553 62.667,153.417 62.667 C 153.281 62.667,153.076 62.817,152.961 63.000 C 152.847 63.183,152.600 63.333,152.414 63.333 C 152.227 63.333,151.889 63.540,151.662 63.793 C 151.435 64.046,151.044 64.344,150.792 64.456 C 150.540 64.568,150.333 64.736,150.333 64.830 C 150.333 64.923,150.146 65.000,149.917 65.000 C 149.688 65.000,149.500 65.058,149.500 65.129 C 149.500 65.200,149.219 65.395,148.875 65.564 C 148.531 65.732,148.137 65.939,148.000 66.024 C 147.862 66.109,147.544 66.267,147.292 66.376 C 147.040 66.484,146.833 66.632,146.833 66.703 C 146.833 66.775,145.858 66.833,144.667 66.833 C 143.333 66.833,142.500 66.769,142.500 66.667 C 142.500 66.575,142.329 66.500,142.120 66.500 C 141.912 66.500,141.593 66.397,141.412 66.271 C 141.231 66.145,140.749 65.986,140.340 65.917 C 139.654 65.802,139.335 65.685,138.667 65.306 C 138.529 65.228,138.304 65.121,138.167 65.067 C 137.483 64.801,137.060 64.560,136.833 64.307 C 136.188 63.587,136.000 63.311,136.000 63.081 C 136.000 62.945,135.887 62.833,135.750 62.833 C 135.612 62.833,135.500 62.702,135.500 62.541 C 135.500 62.379,135.256 62.019,134.958 61.740 C 134.660 61.461,134.274 60.955,134.099 60.616 C 133.924 60.277,133.689 60.000,133.577 60.000 C 133.464 60.000,133.332 59.844,133.282 59.654 C 133.232 59.464,133.036 59.268,132.846 59.218 C 132.656 59.168,132.500 59.057,132.500 58.970 C 132.500 58.883,132.313 58.611,132.085 58.364 C 131.856 58.118,131.413 57.641,131.100 57.304 C 130.787 56.968,130.481 56.536,130.421 56.346 C 130.360 56.156,130.241 56.000,130.155 56.000 C 130.070 56.000,130.000 55.919,130.000 55.819 C 130.000 55.720,129.738 55.406,129.418 55.123 C 129.097 54.839,128.582 54.114,128.272 53.512 C 127.273 51.569,126.941 51.000,126.808 51.000 C 126.736 51.000,126.717 50.895,126.767 50.767 C 126.816 50.639,126.779 50.486,126.686 50.428 C 126.592 50.371,126.465 49.878,126.403 49.333 C 126.235 47.845,124.833 47.929,124.833 49.426 C 124.833 49.650,124.758 49.833,124.667 49.833 C 124.575 49.833,124.500 49.920,124.500 50.026 C 124.500 50.132,124.294 50.488,124.042 50.818 C 123.790 51.147,123.418 51.773,123.216 52.208 C 123.014 52.644,122.789 53.001,122.716 53.001 C 122.643 53.002,122.499 53.171,122.397 53.376 C 121.841 54.490,121.572 54.948,121.306 55.234 C 121.144 55.408,121.051 55.614,121.099 55.692 C 121.147 55.770,121.113 55.833,121.024 55.833 C 120.935 55.833,120.642 56.132,120.373 56.498 C 120.105 56.863,119.842 57.119,119.789 57.067 C 119.737 57.014,119.600 57.147,119.486 57.361 C 119.279 57.747,118.333 58.717,118.333 58.543 C 118.333 58.492,118.146 58.654,117.917 58.901 C 117.688 59.148,117.234 59.461,116.910 59.597 C 116.585 59.733,116.277 59.954,116.225 60.089 C 116.173 60.223,115.998 60.333,115.836 60.333 C 115.674 60.333,115.450 60.443,115.339 60.577 C 115.228 60.711,114.975 60.872,114.777 60.934 C 114.579 60.997,114.147 61.325,113.817 61.665 C 113.479 62.012,112.981 62.329,112.675 62.390 C 112.377 62.450,111.991 62.678,111.819 62.897 C 111.641 63.124,111.239 63.345,110.885 63.412 C 110.544 63.476,110.141 63.670,109.991 63.844 C 109.840 64.018,109.672 64.117,109.619 64.063 C 109.565 64.010,109.350 64.086,109.140 64.233 C 108.931 64.380,108.621 64.500,108.452 64.500 C 108.283 64.500,107.756 64.678,107.281 64.895 C 106.806 65.112,106.154 65.341,105.833 65.404 C 105.513 65.468,105.100 65.582,104.917 65.659 C 104.733 65.736,104.153 65.887,103.628 65.994 C 103.102 66.102,102.629 66.259,102.576 66.345 C 102.524 66.430,102.077 66.500,101.583 66.500 C 101.090 66.500,100.640 66.575,100.583 66.667 C 100.527 66.758,100.041 66.833,99.504 66.833 C 98.900 66.833,98.503 66.909,98.462 67.031 C 98.378 67.283,89.319 66.913,89.157 66.650 C 89.099 66.557,88.646 66.485,88.151 66.490 C 86.919 66.502,86.049 66.344,85.819 66.066 C 85.713 65.938,85.421 65.833,85.171 65.833 C 84.920 65.833,84.524 65.656,84.289 65.438 C 84.055 65.221,83.682 64.998,83.460 64.943 C 83.239 64.887,82.859 64.658,82.617 64.434 C 82.375 64.209,82.025 63.977,81.839 63.918 C 81.652 63.859,81.500 63.746,81.500 63.667 C 81.500 63.429,80.394 62.334,80.147 62.327 C 79.304 62.303,78.584 60.232,79.084 59.273 C 79.221 59.010,79.333 58.663,79.333 58.501 C 79.333 58.340,79.443 58.117,79.577 58.005 C 79.711 57.894,79.871 57.643,79.934 57.447 C 80.202 56.601,80.685 56.195,81.564 56.077 C 82.033 56.014,82.492 55.905,82.583 55.834 C 82.836 55.640,83.952 55.503,85.222 55.511 C 85.848 55.515,86.448 55.449,86.555 55.365 C 86.662 55.280,87.604 55.168,88.648 55.116 C 89.692 55.064,90.626 54.941,90.723 54.844 C 90.820 54.746,91.410 54.667,92.033 54.667 C 92.720 54.667,93.167 54.597,93.167 54.490 C 93.167 54.393,93.245 54.362,93.341 54.421 C 93.436 54.480,93.605 54.455,93.716 54.365 C 93.826 54.275,94.292 54.165,94.750 54.121 C 95.610 54.039,97.686 53.499,97.833 53.319 C 97.879 53.264,98.123 53.168,98.375 53.106 C 98.947 52.966,98.972 52.541,98.417 52.402 C 98.187 52.344,98.000 52.239,98.000 52.168 C 98.000 52.096,97.644 51.986,97.208 51.923 C 96.773 51.859,96.251 51.701,96.048 51.570 C 95.845 51.440,95.353 51.333,94.956 51.333 C 94.558 51.333,94.155 51.255,94.060 51.160 C 93.964 51.064,92.972 50.940,91.854 50.884 C 90.736 50.828,89.782 50.718,89.734 50.641 C 89.686 50.563,89.162 50.500,88.568 50.500 C 87.763 50.500,87.465 50.437,87.394 50.250 C 87.242 49.854,78.265 49.881,77.472 50.279 C 77.166 50.432,76.718 50.657,76.474 50.779 C 76.231 50.901,75.956 51.000,75.863 51.000 C 75.709 51.000,75.220 51.365,74.522 52.002 C 74.370 52.141,73.984 52.440,73.664 52.667 C 73.345 52.893,72.895 53.267,72.664 53.498 C 72.433 53.728,71.815 54.238,71.289 54.630 C 70.763 55.023,70.333 55.429,70.333 55.533 C 70.333 55.637,70.285 55.674,70.226 55.615 C 70.168 55.557,69.832 55.805,69.481 56.167 C 69.129 56.529,68.658 56.871,68.433 56.927 C 68.208 56.984,67.984 57.136,67.934 57.265 C 67.884 57.394,67.729 57.500,67.589 57.500 C 67.448 57.500,67.333 57.566,67.333 57.648 C 67.333 57.729,67.081 57.915,66.773 58.061 C 66.465 58.208,66.119 58.440,66.005 58.578 C 65.890 58.715,65.458 58.997,65.045 59.204 C 64.631 59.411,64.256 59.674,64.212 59.790 C 64.167 59.905,63.989 60.000,63.816 60.000 C 63.642 60.000,63.500 60.066,63.500 60.146 C 63.500 60.337,62.814 60.593,61.667 60.833 C 61.163 60.938,60.600 61.088,60.417 61.167 C 60.233 61.246,59.729 61.357,59.296 61.415 C 58.862 61.472,58.469 61.582,58.422 61.658 C 58.375 61.734,57.492 61.851,56.460 61.917 C 55.428 61.983,54.508 62.094,54.417 62.163 C 54.325 62.233,53.951 62.344,53.585 62.410 C 53.000 62.516,51.348 63.244,50.184 63.910 C 49.733 64.168,49.333 64.081,49.333 63.726 C 49.333 63.594,48.977 63.133,48.542 62.701 C 48.106 62.269,47.637 61.690,47.500 61.416 C 47.362 61.141,47.137 60.831,47.000 60.726 C 46.486 60.335,45.500 59.312,45.500 59.170 C 45.500 59.089,45.350 58.975,45.167 58.917 C 44.983 58.858,44.833 58.749,44.833 58.674 C 44.833 58.457,43.615 57.333,43.380 57.333 C 43.263 57.333,43.167 57.266,43.167 57.183 C 43.167 56.998,42.065 56.333,41.758 56.333 C 41.636 56.333,41.492 56.221,41.440 56.083 C 41.100 55.197,40.162 56.022,39.497 57.792 C 39.385 58.090,39.227 58.333,39.146 58.333 C 39.066 58.333,39.000 58.449,39.000 58.590 C 39.000 58.731,38.850 59.141,38.667 59.500 C 38.483 59.859,38.333 60.306,38.333 60.493 C 38.333 60.680,38.258 60.833,38.167 60.833 C 38.075 60.833,38.000 60.929,38.000 61.046 C 38.000 61.163,37.850 61.388,37.667 61.545 C 37.483 61.702,37.333 61.955,37.333 62.107 C 37.333 62.979,35.803 64.973,33.563 67.022 C 32.802 67.717,31.419 68.500,30.951 68.500 C 30.669 68.500,30.486 68.614,30.417 68.833 C 30.297 69.210,21.978 69.370,21.750 69.000 C 21.693 68.908,21.308 68.833,20.894 68.833 C 20.155 68.833,19.167 68.181,19.167 67.694 C 19.167 67.603,18.867 66.962,18.500 66.270 C 18.133 65.578,17.833 64.927,17.833 64.823 C 17.833 64.720,17.686 64.428,17.506 64.175 C 17.326 63.923,17.103 63.386,17.010 62.983 C 16.917 62.580,16.620 61.810,16.350 61.272 C 16.080 60.735,15.898 60.191,15.947 60.064 C 15.996 59.937,15.948 59.833,15.841 59.833 C 15.734 59.833,15.692 59.761,15.746 59.672 C 15.801 59.584,15.706 59.228,15.536 58.881 C 15.365 58.534,15.255 58.120,15.291 57.961 C 15.327 57.803,15.239 57.505,15.095 57.299 C 14.951 57.094,14.833 56.793,14.833 56.630 C 14.833 56.467,14.765 56.333,14.681 56.333 C 14.598 56.333,14.476 56.015,14.411 55.625 C 14.346 55.235,14.163 54.729,14.003 54.500 C 13.844 54.271,13.744 54.000,13.780 53.899 C 13.840 53.730,13.067 52.118,12.491 51.208 C 12.152 50.675,11.549 50.731,11.022 51.347 C 10.781 51.629,10.267 52.200,9.881 52.614 C 9.495 53.029,9.017 53.704,8.818 54.114 C 8.620 54.525,8.354 54.900,8.229 54.948 C 8.103 54.996,8.000 55.131,8.000 55.247 C 8.000 55.364,7.887 55.553,7.748 55.668 C 7.610 55.783,7.224 56.430,6.890 57.105 C 6.556 57.781,6.207 58.333,6.114 58.333 C 6.021 58.333,5.994 58.383,6.055 58.444 C 6.115 58.504,5.978 58.799,5.749 59.099 C 5.520 59.399,5.333 59.718,5.333 59.808 C 5.333 59.898,5.276 59.997,5.207 60.028 C 5.137 60.058,4.786 60.683,4.426 61.417 C 4.066 62.150,3.561 63.064,3.302 63.447 C 3.044 63.830,2.833 64.186,2.833 64.237 C 2.833 64.289,2.665 64.527,2.458 64.766 C 2.252 65.005,1.913 65.399,1.705 65.642 C 1.497 65.885,1.216 66.202,1.080 66.347 C 0.944 66.493,0.833 66.671,0.833 66.745 C 0.833 66.818,0.646 67.052,0.417 67.265 C 0.148 67.514,-0.000 67.831,-0.000 68.159 C 0.000 68.689,0.274 68.849,0.440 68.417 C 0.492 68.279,0.628 68.167,0.740 68.167 C 0.853 68.167,1.238 67.735,1.597 67.208 C 1.955 66.681,2.328 66.175,2.424 66.083 C 2.820 65.709,3.833 64.349,3.833 64.193 C 3.833 64.101,4.011 63.814,4.227 63.554 C 4.444 63.295,4.678 62.896,4.748 62.667 C 4.817 62.438,4.948 62.158,5.038 62.045 C 5.128 61.933,5.409 61.445,5.662 60.962 C 6.605 59.166,6.757 58.917,7.042 58.702 C 7.202 58.580,7.333 58.341,7.333 58.169 C 7.333 57.857,8.245 56.390,9.283 55.029 C 9.586 54.632,9.834 54.220,9.835 54.112 C 9.837 54.005,10.198 53.542,10.639 53.083 C 11.079 52.625,11.493 52.107,11.558 51.933 C 11.699 51.553,12.151 52.002,12.161 52.532 C 12.164 52.687,12.240 52.859,12.329 52.914 C 12.479 53.007,12.615 53.276,13.234 54.708 C 13.363 55.006,13.633 55.813,13.835 56.500 C 14.036 57.188,14.261 57.825,14.333 57.917 C 14.405 58.008,14.596 58.571,14.757 59.167 C 14.918 59.762,15.113 60.321,15.191 60.408 C 15.269 60.495,15.333 60.700,15.333 60.862 C 15.333 61.025,15.558 61.650,15.833 62.250 C 16.108 62.850,16.333 63.497,16.333 63.687 C 16.333 63.877,16.473 64.231,16.644 64.474 C 16.815 64.718,17.057 65.217,17.182 65.583 C 17.308 65.950,17.543 66.475,17.705 66.750 C 17.867 67.025,18.141 67.550,18.314 67.917 C 18.834 69.019,19.526 69.548,20.627 69.686 C 22.400 69.907,30.968 69.858,31.117 69.625 C 31.190 69.510,31.686 69.209,32.220 68.955 C 32.753 68.700,33.465 68.243,33.803 67.939 C 34.140 67.634,34.904 66.944,35.500 66.405 C 36.669 65.348,36.638 65.391,37.659 63.417 C 38.420 61.946,38.699 61.459,38.852 61.333 C 38.907 61.288,39.054 60.950,39.177 60.583 C 39.301 60.217,39.461 59.845,39.534 59.758 C 39.607 59.671,39.668 59.484,39.670 59.342 C 39.672 59.200,39.821 58.896,40.000 58.667 C 40.179 58.438,40.328 58.122,40.330 57.966 C 40.344 56.879,41.414 56.635,42.384 57.498 C 42.585 57.678,43.069 58.098,43.458 58.432 C 43.848 58.766,44.167 59.145,44.167 59.275 C 44.167 59.404,44.298 59.559,44.458 59.619 C 44.857 59.768,46.602 61.559,46.899 62.125 C 47.031 62.377,47.483 62.918,47.903 63.326 C 48.323 63.735,48.669 64.148,48.672 64.243 C 48.692 64.905,50.333 65.758,50.333 65.106 C 50.333 64.849,51.481 64.000,51.829 64.000 C 51.955 64.000,52.201 63.870,52.377 63.710 C 52.798 63.329,54.159 63.030,56.417 62.823 C 57.425 62.730,58.380 62.582,58.539 62.494 C 58.699 62.406,58.975 62.333,59.155 62.333 C 59.334 62.333,59.527 62.258,59.583 62.167 C 59.640 62.075,59.888 61.999,60.135 61.998 C 60.382 61.997,60.996 61.879,61.500 61.735 C 62.004 61.592,62.730 61.400,63.114 61.310 C 63.497 61.219,63.900 61.037,64.009 60.906 C 64.118 60.774,64.288 60.667,64.386 60.667 C 64.485 60.667,64.757 60.487,64.991 60.267 C 65.225 60.047,65.679 59.724,66.000 59.548 C 67.131 58.930,67.833 58.466,67.833 58.336 C 67.833 58.264,67.965 58.158,68.125 58.100 C 68.634 57.916,69.090 57.600,70.077 56.747 C 70.605 56.290,71.185 55.804,71.366 55.667 C 71.546 55.529,71.999 55.170,72.371 54.868 C 72.744 54.566,73.183 54.247,73.346 54.160 C 73.510 54.072,73.692 53.850,73.750 53.667 C 73.808 53.484,74.039 53.288,74.264 53.232 C 74.488 53.175,74.802 52.969,74.961 52.773 C 75.120 52.577,75.456 52.310,75.708 52.180 C 75.960 52.050,76.167 51.893,76.167 51.832 C 76.167 51.770,76.485 51.617,76.875 51.492 C 77.265 51.366,77.808 51.130,78.083 50.966 C 78.850 50.509,86.738 50.511,86.983 50.968 C 87.123 51.229,87.541 51.294,90.170 51.459 C 91.834 51.564,93.283 51.717,93.390 51.798 C 93.496 51.880,94.146 52.044,94.833 52.162 C 97.153 52.561,97.212 53.028,94.971 53.253 C 94.307 53.320,93.648 53.431,93.507 53.501 C 92.732 53.884,92.279 53.985,90.919 54.083 C 90.096 54.142,89.346 54.250,89.253 54.323 C 89.160 54.396,88.033 54.507,86.750 54.570 C 85.467 54.634,83.929 54.760,83.333 54.850 C 82.737 54.941,81.969 55.058,81.625 55.109 C 81.281 55.160,81.000 55.269,81.000 55.351 C 81.000 55.433,80.853 55.500,80.672 55.500 C 80.248 55.500,79.376 56.354,79.238 56.905 C 79.179 57.141,79.077 57.333,79.012 57.333 C 78.644 57.333,78.167 59.000,78.174 60.262 C 78.180 61.572,78.939 63.000,79.628 63.000 C 79.720 63.000,80.062 63.296,80.389 63.658 C 80.716 64.020,81.212 64.435,81.492 64.579 C 81.771 64.724,82.000 64.907,82.000 64.986 C 82.000 65.065,82.323 65.282,82.718 65.467 C 83.112 65.653,83.534 65.923,83.654 66.068 C 83.774 66.213,84.182 66.413,84.561 66.514 C 84.940 66.615,85.362 66.795,85.500 66.914 C 85.638 67.034,86.388 67.185,87.167 67.251 C 87.946 67.316,88.679 67.448,88.797 67.543 C 89.103 67.791,98.569 67.937,99.050 67.701 C 99.252 67.603,99.829 67.482,100.333 67.433 C 102.183 67.254,103.000 67.121,103.000 67.000 C 103.000 66.932,103.464 66.824,104.030 66.760 C 104.597 66.696,105.213 66.536,105.401 66.405 C 105.588 66.274,105.945 66.167,106.195 66.167 C 106.445 66.167,107.004 65.978,107.438 65.747 C 107.872 65.516,108.532 65.280,108.905 65.223 C 109.278 65.165,109.853 64.906,110.183 64.648 C 110.513 64.390,111.097 64.128,111.481 64.067 C 111.897 64.000,112.244 63.834,112.339 63.655 C 112.428 63.490,112.763 63.260,113.083 63.144 C 113.404 63.028,113.667 62.873,113.667 62.800 C 113.667 62.727,113.775 62.667,113.907 62.667 C 114.040 62.667,114.247 62.525,114.368 62.353 C 114.489 62.180,114.858 61.887,115.188 61.702 C 115.518 61.516,115.966 61.264,116.185 61.141 C 116.403 61.017,116.794 60.748,117.054 60.542 C 117.313 60.335,117.614 60.165,117.721 60.162 C 117.925 60.158,120.167 58.120,120.167 57.939 C 120.167 57.883,120.377 57.629,120.633 57.376 C 121.414 56.607,122.261 55.469,122.836 54.417 C 123.137 53.867,123.522 53.238,123.692 53.019 C 123.861 52.801,124.000 52.530,124.000 52.419 C 124.000 52.307,124.187 52.013,124.417 51.766 C 124.646 51.518,124.833 51.217,124.833 51.095 C 124.833 50.974,124.954 50.774,125.102 50.651 C 125.250 50.529,125.432 50.276,125.508 50.089 C 125.642 49.759,125.646 49.760,125.656 50.115 C 125.662 50.316,125.742 50.527,125.833 50.583 C 125.925 50.640,126.000 50.820,126.000 50.984 C 126.000 51.148,126.146 51.414,126.324 51.575 C 126.502 51.736,126.697 52.090,126.756 52.362 C 126.816 52.634,126.970 52.896,127.099 52.946 C 127.228 52.995,127.333 53.206,127.333 53.414 C 127.333 53.622,127.446 53.886,127.583 54.000 C 127.721 54.114,127.833 54.293,127.833 54.398 C 127.833 54.503,128.171 54.941,128.583 55.372 C 128.996 55.802,129.333 56.198,129.333 56.251 C 129.333 56.365,129.455 56.523,130.242 57.437 C 130.567 57.815,130.833 58.180,130.833 58.250 C 130.833 58.319,131.283 58.807,131.833 59.333 C 132.383 59.860,132.833 60.375,132.833 60.479 C 132.833 60.582,132.932 60.667,133.052 60.667 C 133.173 60.667,133.398 60.931,133.552 61.255 C 133.707 61.579,133.945 61.887,134.083 61.940 C 134.221 61.992,134.333 62.136,134.333 62.258 C 134.333 62.380,134.561 62.728,134.839 63.031 C 135.118 63.335,135.388 63.752,135.441 63.958 C 135.493 64.165,135.599 64.333,135.675 64.333 C 135.752 64.333,135.947 64.558,136.110 64.833 C 136.277 65.116,136.553 65.339,136.744 65.346 C 136.931 65.352,137.308 65.499,137.583 65.671 C 138.383 66.173,139.030 66.464,139.833 66.684 C 140.246 66.797,140.655 66.952,140.742 67.028 C 140.829 67.104,141.132 67.167,141.417 67.167 C 141.701 67.167,142.022 67.255,142.130 67.363 C 142.472 67.706,146.873 67.770,147.150 67.437 C 147.273 67.288,147.454 67.167,147.551 67.167 C 147.855 67.167,149.167 66.478,149.167 66.318 C 149.167 66.235,149.268 66.167,149.391 66.167 C 149.709 66.167,150.594 65.706,150.836 65.413 C 150.949 65.278,151.211 65.167,151.418 65.167 C 151.639 65.167,151.911 64.989,152.077 64.736 C 152.232 64.499,152.619 64.197,152.937 64.064 C 153.255 63.931,153.557 63.713,153.608 63.578 C 153.660 63.443,153.806 63.333,153.933 63.333 C 154.060 63.333,154.258 63.183,154.372 63.000 C 154.504 62.789,154.764 62.665,155.082 62.662 C 155.414 62.659,155.748 62.490,156.069 62.162 C 156.337 61.890,156.689 61.667,156.851 61.667 C 157.014 61.667,157.191 61.596,157.244 61.510 C 157.361 61.320,158.503 60.788,159.417 60.497 C 159.783 60.381,160.458 60.051,160.917 59.764 C 161.375 59.477,161.938 59.151,162.167 59.039 C 162.628 58.814,162.870 58.663,164.013 57.888 C 166.587 56.143,166.854 56.180,169.238 58.604 C 170.052 59.433,170.010 59.366,171.161 61.667 C 172.321 63.987,172.486 64.251,172.798 64.300 C 172.993 64.331,173.226 64.185,173.396 63.924 C 173.698 63.465,174.853 62.667,175.218 62.667 C 175.341 62.667,175.623 62.474,175.843 62.239 C 176.064 62.004,176.509 61.694,176.831 61.550 C 178.387 60.857,178.833 60.628,178.834 60.527 C 178.836 60.347,179.834 59.833,180.180 59.833 C 180.356 59.833,180.500 59.729,180.500 59.601 C 180.500 59.474,180.702 59.319,180.948 59.257 C 181.195 59.195,181.600 58.999,181.849 58.822 C 182.098 58.645,182.423 58.500,182.573 58.500 C 182.722 58.500,182.887 58.387,182.940 58.250 C 182.992 58.112,183.173 58.000,183.341 58.000 C 183.509 58.000,183.693 57.925,183.750 57.833 C 183.807 57.742,184.001 57.667,184.182 57.667 C 184.363 57.667,184.551 57.561,184.601 57.432 C 184.650 57.302,184.889 57.147,185.130 57.086 C 185.372 57.026,185.948 56.801,186.410 56.588 C 186.872 56.374,187.523 56.080,187.857 55.934 C 188.191 55.788,188.507 55.555,188.560 55.417 C 188.613 55.280,188.804 55.167,188.985 55.167 C 189.166 55.167,189.360 55.092,189.417 55.000 C 189.473 54.908,189.669 54.833,189.852 54.833 C 190.265 54.833,191.506 54.177,191.784 53.811 C 191.899 53.661,192.256 53.489,192.579 53.428 C 192.902 53.368,193.167 53.247,193.167 53.159 C 193.167 53.072,193.273 53.000,193.403 53.000 C 193.533 53.000,193.664 52.942,193.694 52.871 C 193.725 52.800,194.575 52.336,195.583 51.840 C 196.592 51.344,197.754 50.705,198.167 50.419 C 198.579 50.133,199.104 49.806,199.333 49.691 C 200.308 49.206,200.667 48.972,200.667 48.824 C 200.667 48.738,200.738 48.667,200.826 48.667 C 201.014 48.667,202.137 47.950,202.508 47.593 C 202.650 47.457,203.022 47.238,203.335 47.106 L 203.903 46.868 204.826 47.832 C 205.334 48.362,205.897 49.075,206.078 49.416 C 206.258 49.757,206.689 50.417,207.036 50.882 C 207.383 51.347,207.667 51.814,207.667 51.921 C 207.667 52.028,207.817 52.251,208.000 52.417 C 208.183 52.583,208.333 52.848,208.333 53.005 C 208.333 53.163,208.446 53.386,208.583 53.500 C 208.721 53.614,208.833 53.811,208.833 53.937 C 208.833 54.063,208.908 54.167,209.000 54.167 C 209.092 54.167,209.167 54.348,209.167 54.569 C 209.167 54.791,209.227 54.997,209.301 55.028 C 209.376 55.058,209.694 55.523,210.010 56.060 C 210.325 56.598,210.752 57.310,210.958 57.644 C 211.165 57.977,211.442 58.494,211.575 58.792 C 211.708 59.090,211.890 59.333,211.980 59.333 C 212.070 59.333,212.197 59.498,212.260 59.700 C 212.707 61.107,216.663 63.878,218.750 64.246 C 219.117 64.311,219.799 64.544,220.266 64.765 C 221.298 65.253,223.833 65.365,223.833 64.923 C 223.833 64.685,224.109 64.583,225.917 64.153 C 226.375 64.043,226.900 63.824,227.083 63.666 C 227.267 63.508,227.885 63.200,228.458 62.981 C 229.031 62.763,229.500 62.528,229.500 62.459 C 229.500 62.390,229.610 62.333,229.745 62.333 C 230.366 62.333,233.237 60.231,233.425 59.640 C 233.479 59.471,233.667 59.255,233.845 59.161 C 234.022 59.066,234.167 58.874,234.167 58.735 C 234.167 58.475,234.610 57.426,235.217 56.250 C 235.524 55.654,235.568 55.214,235.629 52.118 C 235.696 48.658,235.696 48.654,236.056 48.763 C 236.859 49.006,239.537 51.505,240.418 52.833 C 240.692 53.246,240.964 53.621,241.023 53.667 C 241.082 53.712,241.293 54.064,241.493 54.447 C 241.692 54.830,241.963 55.233,242.094 55.342 C 242.226 55.452,242.333 55.633,242.333 55.745 C 242.333 55.857,242.472 56.074,242.641 56.227 C 242.811 56.380,243.092 56.803,243.266 57.168 C 243.441 57.532,243.640 57.830,243.708 57.831 C 243.777 57.832,243.833 57.912,243.833 58.007 C 243.833 58.210,246.663 61.000,246.868 61.000 C 246.945 61.000,247.287 61.182,247.629 61.404 C 247.970 61.626,248.775 61.937,249.416 62.095 C 250.057 62.253,250.695 62.440,250.833 62.510 C 250.971 62.581,251.627 62.732,252.292 62.846 C 252.956 62.960,253.500 63.116,253.500 63.193 C 253.500 63.465,255.306 63.352,255.463 63.071 C 255.548 62.920,255.921 62.774,256.347 62.725 C 257.130 62.636,257.160 62.625,258.833 61.863 C 259.429 61.592,260.104 61.313,260.333 61.244 C 260.794 61.105,264.500 57.407,264.500 57.087 C 264.500 56.976,264.650 56.749,264.833 56.583 C 265.017 56.417,265.169 56.162,265.172 56.016 C 265.178 55.729,265.549 55.167,265.733 55.167 C 265.795 55.167,266.162 54.844,266.548 54.451 C 266.934 54.057,267.512 53.630,267.833 53.502 C 268.154 53.375,268.662 53.087,268.961 52.863 C 269.261 52.639,269.836 52.394,270.240 52.319 C 270.644 52.243,271.261 52.034,271.612 51.853 C 272.617 51.335,273.381 50.992,273.422 51.039 C 273.486 51.113,272.922 52.800,272.790 52.932 C 272.722 53.000,272.667 53.301,272.667 53.601 C 272.667 53.901,272.592 54.193,272.500 54.250 C 272.210 54.429,272.292 57.258,272.594 57.509 C 272.738 57.628,272.965 57.937,273.099 58.196 C 273.232 58.455,273.420 58.667,273.516 58.667 C 273.612 58.667,273.803 58.779,273.940 58.917 C 274.261 59.238,275.333 59.254,275.333 58.938 C 275.333 58.803,275.590 58.667,275.958 58.607 C 276.302 58.550,277.033 58.278,277.583 58.003 C 278.133 57.727,278.697 57.501,278.836 57.501 C 278.975 57.500,279.368 57.350,279.710 57.167 C 280.052 56.983,280.586 56.833,280.896 56.833 C 281.206 56.833,281.546 56.729,281.652 56.601 C 281.758 56.473,282.124 56.316,282.464 56.253 C 282.805 56.189,283.159 56.074,283.252 55.998 C 283.345 55.921,283.870 55.693,284.419 55.492 C 284.968 55.290,285.488 55.060,285.575 54.979 C 285.662 54.899,285.864 54.833,286.023 54.833 C 286.183 54.833,286.650 54.542,287.061 54.186 C 287.472 53.830,288.039 53.437,288.321 53.312 C 288.603 53.187,288.833 53.028,288.833 52.958 C 288.833 52.888,289.208 52.600,289.667 52.317 C 290.125 52.035,290.500 51.699,290.500 51.569 C 290.500 51.439,290.615 51.333,290.755 51.333 C 290.896 51.333,291.051 51.227,291.101 51.097 C 291.151 50.968,291.505 50.649,291.887 50.389 C 292.270 50.129,292.608 49.860,292.639 49.792 C 292.669 49.723,292.803 49.667,292.936 49.667 C 293.069 49.667,293.220 49.554,293.273 49.417 C 293.326 49.279,293.455 49.167,293.561 49.167 C 293.667 49.167,293.847 49.016,293.962 48.833 C 294.076 48.649,294.555 48.314,295.025 48.087 C 295.495 47.860,295.986 47.523,296.116 47.337 C 296.246 47.152,296.461 47.000,296.595 47.000 C 296.729 47.000,296.968 46.930,297.127 46.845 C 297.286 46.760,297.754 46.545,298.167 46.367 C 298.579 46.190,299.217 45.903,299.583 45.730 C 300.495 45.301,304.446 45.165,304.597 45.558 C 304.649 45.696,304.987 45.858,305.346 45.919 C 305.705 45.979,306.041 46.097,306.092 46.181 C 306.144 46.265,306.322 46.333,306.487 46.333 C 306.782 46.333,310.597 48.214,311.475 48.791 C 312.189 49.262,312.549 49.473,313.140 49.771 C 313.446 49.926,313.783 50.195,313.890 50.369 C 313.996 50.543,314.325 50.836,314.619 51.020 C 315.367 51.485,316.105 52.123,316.902 52.993 C 319.191 55.490,320.667 56.804,321.302 56.911 C 321.657 56.971,322.165 57.134,322.432 57.272 C 323.652 57.905,330.463 58.095,330.618 57.500 C 330.694 57.212,330.846 57.167,331.736 57.167 C 332.303 57.167,332.839 57.094,332.927 57.006 C 333.016 56.918,334.512 56.763,336.252 56.662 C 337.993 56.561,339.547 56.409,339.706 56.323 C 339.865 56.237,340.165 56.164,340.373 56.161 C 341.139 56.151,342.664 54.183,342.668 53.200 C 342.668 53.044,342.781 52.702,342.918 52.439 C 343.108 52.074,343.167 51.338,343.167 49.305 L 343.167 46.649 342.394 45.449 C 341.509 44.075,340.865 43.333,340.558 43.333 C 340.441 43.333,340.265 43.183,340.167 43.000 C 340.069 42.817,339.896 42.667,339.784 42.667 C 339.672 42.667,339.392 42.492,339.162 42.279 C 338.932 42.066,338.521 41.749,338.247 41.575 C 337.974 41.401,337.690 41.162,337.617 41.046 C 337.543 40.929,337.388 40.833,337.272 40.833 C 337.156 40.833,336.766 40.571,336.405 40.250 C 336.045 39.929,335.668 39.667,335.567 39.667 C 335.467 39.667,335.150 39.550,334.864 39.407 C 333.949 38.950,333.247 38.920,332.695 39.313 C 332.422 39.508,332.008 39.667,331.776 39.667 C 331.543 39.667,331.315 39.729,331.268 39.805 C 331.221 39.881,330.767 40.043,330.260 40.164 C 329.212 40.416,328.136 41.313,327.566 42.411 C 327.038 43.428,326.653 43.143,326.234 41.428 C 326.169 41.159,326.015 40.746,325.892 40.511 C 325.642 40.032,325.583 38.333,325.817 38.333 C 325.899 38.333,326.058 37.953,326.170 37.487 C 326.281 37.022,326.473 36.602,326.597 36.555 C 326.720 36.508,326.866 36.326,326.922 36.151 C 326.977 35.976,327.163 35.833,327.335 35.833 C 327.506 35.833,327.693 35.758,327.750 35.667 C 327.807 35.575,327.965 35.500,328.102 35.500 C 328.239 35.500,328.666 35.358,329.051 35.184 C 329.763 34.863,336.075 34.497,340.865 34.499 C 341.874 34.500,342.692 34.428,342.750 34.333 C 342.869 34.141,346.666 34.100,346.668 34.292 C 346.670 34.458,347.491 34.833,347.853 34.833 C 348.445 34.833,350.411 35.888,350.881 36.458 C 351.052 36.665,351.335 36.833,351.512 36.833 C 351.689 36.833,351.833 36.892,351.833 36.963 C 351.833 37.035,352.040 37.186,352.292 37.299 C 352.905 37.573,353.487 37.920,353.714 38.147 C 353.816 38.250,354.006 38.333,354.135 38.333 C 354.265 38.333,354.820 38.671,355.369 39.083 C 355.917 39.496,356.438 39.833,356.524 39.833 C 356.611 39.833,356.856 40.021,357.069 40.250 C 357.281 40.479,357.578 40.667,357.727 40.667 C 357.877 40.667,358.000 40.744,358.000 40.839 C 358.000 40.933,358.133 41.065,358.296 41.130 C 358.736 41.308,361.000 43.039,361.000 43.197 C 361.000 43.272,361.134 43.467,361.297 43.631 C 361.461 43.794,361.721 44.188,361.875 44.506 C 362.029 44.823,362.421 45.338,362.745 45.648 C 363.068 45.959,363.333 46.305,363.333 46.417 C 363.333 46.528,363.595 46.949,363.915 47.352 C 364.235 47.754,364.497 48.174,364.498 48.286 C 364.499 48.397,364.650 48.569,364.833 48.667 C 365.017 48.765,365.167 48.977,365.167 49.137 C 365.167 49.298,365.389 49.689,365.660 50.006 C 365.931 50.324,366.156 50.664,366.160 50.763 C 366.208 52.029,369.587 54.086,372.065 54.358 C 372.992 54.460,373.821 54.608,373.908 54.688 C 374.121 54.883,376.333 54.875,376.333 54.680 C 376.333 54.595,376.611 54.434,376.950 54.322 C 377.691 54.078,379.088 53.271,379.628 52.775 C 380.889 51.618,381.500 50.995,381.500 50.865 C 381.500 50.785,381.650 50.583,381.833 50.417 C 382.017 50.251,382.167 50.033,382.168 49.933 C 382.168 49.832,382.278 49.540,382.412 49.284 C 382.625 48.876,382.625 48.807,382.411 48.725 C 382.092 48.602,382.097 47.853,382.419 47.497 C 382.596 47.301,382.703 46.665,382.778 45.359 C 382.900 43.222,382.875 43.249,383.736 44.340 C 384.094 44.795,384.451 45.167,384.527 45.167 C 384.604 45.167,384.667 45.270,384.667 45.396 C 384.667 45.523,384.785 45.724,384.930 45.844 C 385.074 45.964,385.372 46.416,385.591 46.849 C 385.810 47.282,386.048 47.661,386.120 47.693 C 386.341 47.790,387.167 48.966,387.167 49.183 C 387.167 49.296,387.274 49.507,387.405 49.653 C 387.898 50.199,389.323 51.620,390.389 52.628 C 390.997 53.202,391.619 53.915,391.772 54.211 C 391.924 54.507,392.338 55.079,392.691 55.482 C 393.044 55.884,393.333 56.289,393.333 56.382 C 393.333 56.474,393.693 56.895,394.133 57.317 C 394.573 57.738,394.983 58.215,395.044 58.375 C 395.106 58.535,395.238 58.667,395.338 58.667 C 395.438 58.667,395.796 58.878,396.135 59.136 C 396.473 59.394,397.050 59.704,397.417 59.825 C 397.783 59.946,398.282 60.185,398.526 60.356 C 398.769 60.527,399.041 60.667,399.130 60.667 C 399.220 60.667,399.386 60.779,399.500 60.917 C 399.814 61.295,400.000 61.218,400.000 60.708 C 399.999 60.228,398.876 59.333,398.274 59.333 C 398.123 59.333,398.000 59.276,398.000 59.206 C 398.000 59.136,397.614 58.896,397.143 58.672 C 396.339 58.290,394.000 56.168,394.000 55.821 C 394.000 55.672,393.857 55.486,393.042 54.572 C 392.835 54.341,392.667 54.091,392.667 54.017 C 392.667 53.943,392.441 53.628,392.166 53.316 C 391.285 52.320,391.165 52.167,391.263 52.167 C 391.316 52.167,391.109 51.960,390.804 51.708 C 390.500 51.456,390.223 51.189,390.191 51.114 C 390.158 51.040,389.945 50.907,389.716 50.821 C 389.488 50.734,389.264 50.520,389.218 50.347 C 389.173 50.173,388.993 49.993,388.818 49.948 C 388.636 49.900,388.500 49.719,388.500 49.524 C 388.500 49.337,388.399 49.123,388.276 49.050 C 388.153 48.977,387.909 48.692,387.735 48.417 C 387.560 48.142,387.249 47.759,387.044 47.567 C 386.840 47.374,386.721 47.168,386.780 47.108 C 386.840 47.049,386.801 47.000,386.694 47.000 C 386.587 47.000,386.500 46.850,386.500 46.667 C 386.500 46.483,386.434 46.333,386.354 46.333 C 386.273 46.333,386.115 46.112,386.003 45.842 C 385.891 45.571,385.564 45.102,385.275 44.800 C 384.986 44.497,384.310 43.744,383.771 43.125 C 383.100 42.354,382.674 42.000,382.414 42.000 C 381.993 42.000,381.727 42.461,381.995 42.728 C 382.216 42.949,382.220 45.281,382.000 45.417 C 381.908 45.473,381.833 45.811,381.833 46.167 C 381.833 46.523,381.758 46.860,381.667 46.917 C 381.575 46.973,381.500 47.573,381.500 48.248 C 381.500 49.581,381.134 50.429,380.378 50.847 C 380.173 50.961,379.962 51.191,379.908 51.360 C 379.855 51.529,379.760 51.668,379.697 51.669 C 379.635 51.671,379.321 51.904,379.000 52.189 C 377.167 53.812,375.472 54.165,372.013 53.645 C 370.127 53.362,367.470 51.686,367.093 50.541 C 367.040 50.381,366.773 49.996,366.498 49.686 C 366.224 49.375,366.000 49.062,366.000 48.990 C 366.000 48.918,365.794 48.614,365.542 48.314 C 365.290 48.015,365.121 47.743,365.167 47.711 C 365.259 47.646,364.418 46.414,363.458 45.208 C 363.115 44.776,362.833 44.356,362.833 44.275 C 362.833 44.194,362.608 43.871,362.333 43.558 C 362.058 43.245,361.831 42.897,361.828 42.786 C 361.825 42.674,361.473 42.321,361.046 42.000 C 360.618 41.679,360.053 41.221,359.790 40.983 C 359.527 40.744,358.991 40.388,358.598 40.192 C 358.205 39.996,357.677 39.644,357.425 39.410 C 357.172 39.175,356.886 39.010,356.789 39.042 C 356.693 39.075,356.344 38.846,356.015 38.535 C 355.686 38.223,354.892 37.707,354.250 37.387 C 352.675 36.603,351.445 35.848,351.283 35.566 C 351.210 35.438,351.077 35.333,350.988 35.333 C 350.899 35.333,350.547 35.160,350.205 34.948 C 349.863 34.736,349.096 34.391,348.500 34.180 C 347.904 33.969,347.345 33.730,347.258 33.648 C 347.051 33.454,342.447 33.455,342.242 33.649 " stroke="none" fill="#2d1505" fill-rule="evenodd"></path></g></svg>