<svg id="svg" version="1.1" xmlns="http://www.w3.org/2000/svg" xmlns:xlink="http://www.w3.org/1999/xlink" width="400" height="120" viewBox="0, 0, 400,120"><g id="svgg"><path id="path0" d="M223.269 10.909 C 222.935 11.234,222.606 11.503,222.539 11.507 C 222.472 11.511,222.229 11.749,222.000 12.036 C 221.493 12.672,219.723 14.582,218.572 15.736 C 218.107 16.202,217.550 16.846,217.334 17.167 C 216.939 17.752,216.333 18.417,216.333 18.265 C 216.333 18.183,216.963 17.189,217.835 15.895 C 218.089 15.517,218.348 14.979,218.409 14.701 C 218.470 14.422,218.628 14.153,218.760 14.102 C 218.892 14.052,219.000 13.896,219.000 13.755 C 219.000 13.615,219.079 13.500,219.176 13.500 C 219.281 13.500,219.332 13.211,219.301 12.792 C 219.237 11.897,218.706 11.729,218.081 12.404 C 217.862 12.640,217.638 12.833,217.584 12.833 C 217.530 12.833,217.320 12.990,217.118 13.182 C 216.599 13.675,215.389 14.500,215.187 14.500 C 215.093 14.500,214.957 14.594,214.883 14.709 C 214.810 14.824,214.473 15.125,214.135 15.377 L 213.520 15.835 213.468 15.209 C 213.350 13.780,211.461 14.995,210.515 17.109 C 210.426 17.306,210.274 17.517,210.177 17.577 C 210.080 17.637,210.000 17.834,210.000 18.015 C 210.000 18.196,209.871 18.393,209.713 18.454 C 209.555 18.514,209.230 18.765,208.989 19.011 C 208.749 19.257,208.334 19.598,208.068 19.769 C 207.455 20.162,205.889 21.380,205.302 21.921 C 205.056 22.148,204.779 22.333,204.686 22.333 C 204.593 22.333,204.457 22.435,204.383 22.559 C 204.310 22.683,204.073 22.878,203.856 22.992 L 203.462 23.199 203.751 22.710 C 203.909 22.442,204.255 21.974,204.520 21.672 C 204.784 21.369,205.000 21.028,205.000 20.914 C 205.000 20.801,205.112 20.614,205.250 20.500 C 205.531 20.266,205.599 18.914,205.337 18.752 C 205.102 18.607,203.874 18.968,203.776 19.211 C 203.730 19.324,203.687 19.217,203.680 18.972 C 203.637 17.527,202.774 17.871,201.083 20.008 C 200.900 20.240,200.443 20.652,200.069 20.923 C 199.694 21.195,199.078 21.642,198.700 21.917 C 198.322 22.192,198.009 22.492,198.003 22.583 C 197.989 22.842,197.171 23.560,197.040 23.428 C 196.975 23.364,197.053 23.086,197.211 22.809 C 197.370 22.533,197.500 22.159,197.500 21.980 C 197.500 21.800,197.650 21.492,197.833 21.295 C 198.372 20.717,198.287 18.500,197.727 18.500 C 197.420 18.500,196.500 19.438,196.500 19.751 C 196.500 19.882,196.285 20.149,196.023 20.342 C 195.761 20.536,195.292 21.186,194.982 21.785 C 194.671 22.385,194.323 22.912,194.208 22.956 C 194.094 23.000,194.000 23.168,194.000 23.329 C 194.000 23.490,193.861 23.801,193.692 24.019 C 193.522 24.238,193.340 24.529,193.288 24.667 C 193.223 24.837,193.189 24.800,193.180 24.552 C 193.173 24.351,193.242 24.140,193.333 24.083 C 193.752 23.824,193.530 20.333,193.095 20.333 C 192.614 20.333,192.412 20.518,191.751 21.567 C 191.404 22.115,191.109 22.387,190.787 22.451 C 190.503 22.508,190.148 22.791,189.870 23.183 C 189.621 23.535,189.323 23.860,189.208 23.906 C 188.956 24.007,188.931 23.635,189.174 23.393 C 189.605 22.962,189.288 20.588,188.792 20.531 C 188.423 20.488,188.333 20.545,188.333 20.822 C 188.333 21.218,187.833 21.777,187.404 21.860 C 187.243 21.891,187.043 22.142,186.960 22.417 C 186.877 22.692,186.744 23.067,186.664 23.250 C 186.584 23.433,186.387 24.046,186.227 24.611 C 185.975 25.497,185.872 25.651,185.481 25.729 C 185.222 25.781,184.980 25.966,184.919 26.160 C 184.859 26.347,184.741 26.500,184.655 26.500 C 184.570 26.500,184.500 26.578,184.500 26.673 C 184.500 27.101,182.909 29.000,182.551 29.000 C 182.431 29.000,182.333 29.058,182.333 29.129 C 182.333 29.323,181.181 29.904,181.052 29.774 C 180.990 29.712,181.028 29.572,181.136 29.464 C 181.245 29.355,181.333 29.060,181.333 28.808 C 181.333 28.545,181.457 28.281,181.625 28.187 C 181.879 28.045,181.917 27.750,181.917 25.902 L 181.917 23.780 181.441 23.620 C 180.743 23.386,180.485 23.760,179.745 26.083 C 179.394 27.183,178.840 28.608,178.514 29.250 C 178.188 29.892,177.871 30.567,177.810 30.750 C 177.642 31.257,177.651 30.684,177.823 29.946 C 177.904 29.595,178.092 29.220,178.240 29.111 C 178.471 28.943,178.503 28.574,178.463 26.582 L 178.417 24.250 177.961 24.198 C 177.451 24.139,177.108 24.690,176.918 25.875 C 176.863 26.219,176.747 26.500,176.659 26.500 C 176.572 26.500,176.500 26.663,176.500 26.863 C 176.500 27.063,176.428 27.457,176.341 27.738 C 176.253 28.020,176.092 28.831,175.984 29.542 C 175.875 30.252,175.722 30.833,175.643 30.833 C 175.564 30.833,175.500 31.091,175.500 31.407 C 175.500 31.722,175.425 32.027,175.333 32.083 C 175.242 32.140,175.164 32.912,175.160 33.802 L 175.154 35.417 174.417 35.958 C 174.012 36.256,173.641 36.500,173.592 36.500 C 173.485 36.500,172.941 36.955,171.699 38.083 C 170.141 39.498,169.815 39.866,169.868 40.146 C 169.925 40.447,170.818 40.625,170.982 40.368 C 171.114 40.161,172.353 39.500,172.609 39.500 C 172.717 39.500,172.843 39.406,172.890 39.292 C 172.946 39.152,172.978 39.168,172.987 39.340 C 172.994 39.481,172.850 39.890,172.667 40.250 C 172.483 40.610,172.333 41.071,172.333 41.275 C 172.333 41.480,172.258 41.693,172.167 41.750 C 172.075 41.807,172.000 42.172,172.000 42.561 C 172.000 42.951,171.890 43.415,171.755 43.593 C 171.437 44.013,171.435 44.439,171.750 44.560 C 171.898 44.617,172.000 44.867,172.000 45.171 C 172.000 45.501,172.065 45.646,172.182 45.574 C 172.311 45.494,172.330 45.782,172.246 46.562 C 172.073 48.180,173.054 48.283,173.444 46.687 C 173.503 46.447,173.600 46.212,173.659 46.167 C 173.719 46.121,173.901 45.821,174.064 45.500 C 174.907 43.842,174.869 43.890,175.024 44.311 C 175.212 44.817,175.894 44.743,175.970 44.208 C 176.041 43.708,176.833 43.664,176.833 44.161 C 176.833 44.341,176.983 44.569,177.167 44.667 C 177.350 44.765,177.500 44.984,177.500 45.155 C 177.500 46.058,179.749 45.621,181.018 44.472 C 181.253 44.258,181.683 43.948,181.973 43.782 L 182.500 43.481 182.500 44.006 C 182.500 44.391,182.589 44.554,182.833 44.618 C 183.211 44.717,183.248 44.998,182.983 45.738 C 182.768 46.337,183.358 47.702,183.875 47.802 C 184.250 47.874,185.420 47.036,185.693 46.500 L 185.906 46.083 185.963 46.625 C 186.044 47.377,187.007 47.434,187.374 46.708 C 187.939 45.589,188.046 45.500,188.832 45.494 C 189.648 45.488,191.918 44.911,193.250 44.372 C 193.708 44.187,194.515 43.902,195.042 43.740 C 195.569 43.578,196.000 43.383,196.000 43.306 C 196.000 43.229,196.206 43.165,196.458 43.163 C 196.710 43.161,197.244 43.011,197.643 42.830 C 198.043 42.648,198.512 42.500,198.685 42.500 C 198.858 42.500,199.000 42.425,199.000 42.333 C 199.000 42.242,199.220 42.167,199.488 42.167 C 199.757 42.167,200.087 42.056,200.223 41.920 C 200.542 41.600,203.045 41.167,204.570 41.167 C 206.522 41.167,209.747 40.015,210.970 38.881 C 211.197 38.672,211.433 38.500,211.496 38.500 C 211.559 38.500,211.706 38.322,211.822 38.104 C 211.999 37.773,213.213 37.000,213.555 37.000 C 213.727 37.000,215.242 35.930,215.383 35.708 C 215.457 35.594,215.625 35.500,215.758 35.500 C 215.891 35.500,216.000 35.443,216.000 35.373 C 216.000 35.303,216.300 35.060,216.667 34.833 C 217.033 34.607,217.333 34.372,217.333 34.312 C 217.333 34.252,217.502 34.157,217.708 34.100 C 218.538 33.873,219.333 32.816,219.333 31.940 C 219.333 31.232,219.178 31.167,217.507 31.167 C 215.948 31.167,215.868 31.096,215.801 29.660 L 215.750 28.583 214.694 28.533 C 214.113 28.506,213.548 28.557,213.440 28.648 C 213.331 28.738,212.850 28.864,212.371 28.927 C 211.892 28.991,211.500 29.108,211.500 29.188 C 211.500 29.268,211.397 29.333,211.272 29.333 C 211.146 29.333,210.574 29.483,210.000 29.667 C 208.643 30.100,208.493 30.087,209.036 29.583 C 209.283 29.354,209.539 29.167,209.605 29.167 C 209.670 29.167,210.041 28.836,210.428 28.432 C 210.815 28.028,211.286 27.615,211.474 27.514 C 211.662 27.413,212.162 27.032,212.585 26.666 C 213.008 26.299,213.450 26.000,213.567 26.000 C 213.684 26.000,213.866 25.810,213.972 25.579 C 214.077 25.347,214.286 25.110,214.435 25.053 C 214.584 24.996,214.947 24.717,215.242 24.433 C 215.536 24.149,215.921 23.791,216.097 23.638 C 216.273 23.485,216.668 23.053,216.976 22.680 C 217.283 22.306,217.639 22.000,217.767 22.000 C 217.895 22.000,218.000 21.941,218.000 21.869 C 218.000 21.739,218.437 21.178,219.458 20.001 C 219.756 19.657,220.000 19.310,220.000 19.228 C 220.000 19.147,220.286 18.781,220.635 18.415 C 220.984 18.049,221.425 17.450,221.615 17.083 C 222.355 15.651,222.597 15.260,222.958 14.909 C 223.164 14.709,223.380 14.311,223.437 14.023 C 223.495 13.735,223.599 13.500,223.669 13.500 C 223.740 13.500,223.849 13.295,223.912 13.043 C 223.975 12.792,224.112 12.534,224.217 12.469 C 224.323 12.403,224.409 11.926,224.412 11.388 C 224.418 10.186,224.136 10.068,223.269 10.909 M222.398 13.625 C 222.338 13.877,222.139 14.249,221.955 14.452 C 221.578 14.867,221.267 15.367,220.965 16.042 C 220.853 16.294,220.702 16.500,220.630 16.500 C 220.559 16.500,220.500 16.601,220.500 16.725 C 220.500 16.848,220.164 17.317,219.754 17.766 C 219.343 18.216,219.006 18.672,219.004 18.780 C 219.002 18.888,218.662 19.328,218.250 19.759 C 217.838 20.189,217.500 20.596,217.500 20.662 C 217.500 20.972,216.822 21.389,216.629 21.196 C 216.353 20.920,215.690 20.953,215.385 21.258 C 215.243 21.400,215.094 21.483,215.053 21.442 C 215.012 21.401,215.621 20.734,216.406 19.960 C 217.191 19.186,217.833 18.482,217.833 18.397 C 217.833 18.231,218.386 17.571,219.591 16.299 C 219.999 15.867,220.333 15.465,220.333 15.406 C 220.333 15.208,221.079 14.506,221.292 14.503 C 221.406 14.501,221.500 14.441,221.500 14.369 C 221.500 14.248,222.361 13.172,222.462 13.168 C 222.486 13.167,222.458 13.373,222.398 13.625 M216.709 15.529 C 216.349 16.017,215.874 16.754,215.652 17.167 C 215.431 17.579,215.194 17.942,215.125 17.972 C 215.056 18.003,215.000 18.125,215.000 18.243 C 215.000 18.362,214.882 18.557,214.738 18.677 C 214.594 18.796,214.328 19.183,214.148 19.537 C 213.789 20.240,213.484 20.628,212.292 21.897 C 211.856 22.360,211.500 22.798,211.500 22.870 C 211.500 22.941,211.387 23.000,211.250 23.000 C 211.112 23.000,211.000 23.075,211.000 23.167 C 211.000 23.258,210.905 23.333,210.788 23.333 C 210.671 23.333,210.308 23.554,209.981 23.823 C 209.149 24.509,208.354 24.714,208.719 24.148 C 208.859 23.929,209.082 23.332,209.214 22.821 C 209.372 22.207,209.645 21.690,210.018 21.300 C 210.842 20.438,211.543 19.506,211.920 18.772 C 212.101 18.418,212.419 18.005,212.625 17.856 C 212.832 17.706,213.234 17.382,213.519 17.135 C 213.804 16.889,214.273 16.573,214.560 16.435 C 214.848 16.296,215.296 15.954,215.556 15.674 C 215.816 15.395,216.104 15.167,216.196 15.167 C 216.289 15.167,216.556 15.016,216.791 14.831 C 217.453 14.310,217.424 14.558,216.709 15.529 M203.824 20.889 C 203.512 21.123,202.500 22.581,202.500 22.796 C 202.500 22.880,202.350 23.084,202.167 23.250 C 201.843 23.543,201.685 23.394,201.980 23.075 C 202.060 22.988,202.219 22.627,202.332 22.272 C 202.519 21.688,203.022 21.000,203.262 21.000 C 203.314 21.000,203.473 20.884,203.615 20.742 C 203.757 20.600,203.920 20.531,203.978 20.589 C 204.036 20.647,203.966 20.782,203.824 20.889 M208.507 21.143 C 208.381 21.583,206.991 23.046,206.358 23.406 C 206.207 23.492,205.999 23.642,205.895 23.739 C 205.792 23.837,205.567 24.010,205.395 24.124 C 205.224 24.238,204.709 24.594,204.251 24.916 C 203.792 25.237,203.332 25.500,203.227 25.500 C 203.122 25.500,202.999 25.594,202.953 25.708 C 202.852 25.962,201.833 26.574,201.833 26.381 C 201.833 26.199,203.769 24.333,203.958 24.333 C 204.038 24.333,204.325 24.102,204.594 23.818 C 204.863 23.535,205.282 23.200,205.526 23.072 C 205.769 22.945,206.095 22.715,206.249 22.560 C 206.501 22.308,208.540 20.678,208.613 20.670 C 208.630 20.668,208.582 20.881,208.507 21.143 M196.258 22.257 C 196.087 22.574,195.875 22.833,195.787 22.833 C 195.698 22.833,195.750 22.665,195.902 22.458 C 196.055 22.252,196.223 21.949,196.277 21.785 C 196.331 21.621,196.419 21.530,196.472 21.583 C 196.525 21.636,196.429 21.939,196.258 22.257 M199.792 22.721 C 199.540 22.927,199.333 23.209,199.333 23.348 C 199.333 23.487,199.243 23.690,199.133 23.800 C 198.918 24.016,198.333 24.076,198.333 23.882 C 198.333 23.697,199.870 22.333,200.071 22.339 C 200.169 22.343,200.044 22.514,199.792 22.721 M192.347 23.386 C 192.248 23.485,192.167 23.781,192.167 24.043 C 192.167 24.621,191.870 25.975,191.656 26.373 C 191.570 26.532,191.500 26.798,191.500 26.964 C 191.500 27.350,191.185 27.667,190.800 27.667 C 190.542 27.667,190.500 27.515,190.500 26.583 C 190.500 25.988,190.569 25.500,190.653 25.500 C 190.738 25.500,190.860 25.257,190.925 24.960 C 190.991 24.663,191.222 24.187,191.439 23.903 C 191.656 23.618,191.833 23.323,191.833 23.247 C 191.833 22.834,192.416 22.456,192.472 22.833 C 192.503 23.038,192.447 23.286,192.347 23.386 M213.833 23.570 C 213.833 23.717,212.518 25.000,212.367 25.000 C 212.279 25.000,212.108 25.119,211.988 25.265 C 211.787 25.506,211.748 25.504,211.553 25.237 C 211.295 24.884,211.538 24.500,212.020 24.500 C 212.193 24.500,212.333 24.425,212.333 24.333 C 212.333 24.242,212.427 24.165,212.542 24.163 C 212.656 24.161,212.938 24.013,213.167 23.833 C 213.562 23.524,213.833 23.417,213.833 23.570 M207.267 24.648 C 207.120 24.810,206.999 25.050,206.999 25.180 C 206.998 25.310,206.829 25.502,206.624 25.606 C 203.074 27.409,202.247 27.756,202.647 27.274 C 202.772 27.123,202.936 27.000,203.012 27.000 C 203.088 27.000,203.352 26.813,203.599 26.583 C 203.846 26.354,204.139 26.167,204.249 26.167 C 204.358 26.167,204.584 26.017,204.750 25.833 C 204.916 25.650,205.119 25.500,205.202 25.500 C 205.337 25.500,206.627 24.565,206.833 24.317 C 206.992 24.127,207.417 24.050,207.475 24.201 C 207.508 24.285,207.414 24.485,207.267 24.648 M210.000 26.585 C 210.000 26.728,208.276 27.774,207.875 27.875 C 207.050 28.082,207.483 27.709,209.224 26.711 C 209.593 26.499,210.000 26.434,210.000 26.585 M206.333 27.452 C 206.196 27.502,205.511 28.096,204.811 28.772 C 204.046 29.510,203.398 30.000,203.186 30.000 C 202.992 30.000,202.833 30.075,202.833 30.167 C 202.833 30.258,202.709 30.333,202.558 30.333 C 202.308 30.333,202.310 30.302,202.579 30.005 C 202.791 29.770,202.848 29.529,202.775 29.166 C 202.682 28.702,202.718 28.648,203.173 28.557 C 203.448 28.502,203.714 28.392,203.763 28.312 C 203.813 28.232,203.993 28.167,204.165 28.167 C 204.336 28.167,204.575 28.069,204.696 27.951 C 204.929 27.722,205.911 27.370,206.333 27.364 C 206.556 27.360,206.556 27.370,206.333 27.452 M196.304 28.607 C 196.253 28.865,194.858 29.414,194.687 29.243 C 194.645 29.201,194.688 29.167,194.781 29.167 C 194.875 29.167,195.154 28.979,195.401 28.750 C 195.915 28.273,196.384 28.199,196.304 28.607 M186.333 28.982 C 186.333 29.156,186.212 29.344,186.065 29.401 C 185.868 29.476,185.824 29.433,185.898 29.238 C 185.954 29.092,186.000 28.904,186.000 28.820 C 186.000 28.736,186.075 28.667,186.167 28.667 C 186.258 28.667,186.333 28.809,186.333 28.982 M190.811 29.041 C 190.672 29.302,190.588 29.347,190.535 29.189 C 190.493 29.064,190.562 28.896,190.688 28.817 C 191.021 28.606,191.033 28.627,190.811 29.041 M189.500 29.755 C 189.500 30.125,189.407 30.380,189.250 30.440 C 189.107 30.494,189.000 30.743,189.000 31.018 C 189.000 31.323,188.913 31.500,188.764 31.500 C 188.634 31.500,188.409 31.546,188.264 31.601 C 187.869 31.753,187.937 31.395,188.528 30.218 C 189.125 29.030,189.500 28.852,189.500 29.755 M214.833 30.147 L 214.833 30.794 213.417 30.912 C 212.637 30.977,212.000 31.098,212.000 31.182 C 212.000 31.265,211.723 31.333,211.385 31.333 L 210.770 31.333 211.135 30.994 C 211.336 30.807,211.500 30.553,211.500 30.430 C 211.500 30.173,212.006 30.006,212.792 30.002 C 213.090 30.001,213.333 29.930,213.333 29.844 C 213.333 29.759,213.540 29.658,213.792 29.619 C 214.835 29.461,214.833 29.460,214.833 30.147 M209.083 31.333 C 209.027 31.425,208.779 31.499,208.532 31.497 C 208.181 31.495,208.138 31.460,208.333 31.333 C 208.663 31.121,209.215 31.121,209.083 31.333 M213.833 33.202 C 213.833 33.450,212.498 34.833,212.257 34.834 C 212.161 34.835,211.858 34.953,211.583 35.098 C 211.308 35.242,210.633 35.513,210.083 35.700 C 209.533 35.888,209.012 36.107,208.925 36.187 C 208.838 36.268,208.654 36.333,208.516 36.333 C 208.378 36.333,208.671 35.958,209.167 35.500 C 209.663 35.042,210.165 34.667,210.284 34.667 C 210.403 34.667,210.500 34.480,210.500 34.250 C 210.500 33.916,210.583 33.833,210.918 33.833 C 211.149 33.833,211.655 33.688,212.043 33.510 C 212.432 33.332,212.938 33.155,213.167 33.116 C 213.396 33.077,213.640 33.035,213.708 33.023 C 213.777 33.010,213.833 33.091,213.833 33.202 M197.667 34.167 C 197.338 34.379,196.952 34.379,197.083 34.167 C 197.140 34.075,197.351 34.001,197.552 34.003 C 197.848 34.005,197.870 34.035,197.667 34.167 M199.750 35.167 C 199.693 35.258,199.504 35.333,199.329 35.333 C 199.154 35.333,198.727 35.478,198.380 35.655 C 198.034 35.832,197.375 36.021,196.917 36.075 L 196.083 36.173 196.750 35.851 C 197.117 35.673,197.679 35.411,198.000 35.268 C 198.654 34.976,199.913 34.903,199.750 35.167 M205.762 36.647 C 205.713 36.727,205.502 36.836,205.294 36.888 C 204.930 36.980,204.928 36.975,205.240 36.742 C 205.598 36.474,205.903 36.418,205.762 36.647 M211.426 36.755 C 211.099 37.003,210.833 37.073,210.833 36.911 C 210.833 36.830,211.470 36.528,211.667 36.516 C 211.713 36.513,211.604 36.621,211.426 36.755 M189.099 39.018 C 188.517 39.476,188.201 39.412,188.655 38.929 C 188.864 38.706,189.140 38.564,189.268 38.613 C 189.441 38.680,189.399 38.782,189.099 39.018 M208.583 39.022 C 207.028 39.813,204.398 40.441,204.833 39.917 C 205.075 39.626,206.998 39.000,207.651 39.000 C 207.898 39.000,208.171 38.932,208.258 38.850 C 208.345 38.767,208.567 38.663,208.750 38.619 C 209.564 38.423,209.512 38.550,208.583 39.022 M198.653 40.228 C 198.492 40.370,197.000 40.446,197.000 40.313 C 197.000 40.232,197.387 40.167,197.861 40.167 C 198.335 40.167,198.691 40.194,198.653 40.228 M179.570 44.083 C 178.698 44.525,178.500 44.578,178.500 44.370 C 178.500 44.234,179.741 43.722,180.153 43.687 C 180.283 43.676,180.021 43.854,179.570 44.083 M114.306 51.063 C 114.073 51.233,114.122 51.318,114.686 51.723 C 115.420 52.250,115.509 52.136,114.953 51.383 C 114.639 50.957,114.527 50.902,114.306 51.063 M106.917 51.621 C 106.010 51.750,106.077 51.972,107.181 52.495 C 108.032 52.899,108.261 52.952,108.302 52.759 C 108.355 52.516,107.688 51.478,107.510 51.525 C 107.459 51.539,107.192 51.582,106.917 51.621 " stroke="none" fill="#dcf985" fill-rule="evenodd"></path><path id="path1" d="M160.158 40.761 C 159.986 40.967,159.982 41.136,160.137 41.564 C 160.683 43.074,159.690 45.874,158.968 44.862 C 158.848 44.694,158.525 44.414,158.250 44.239 C 157.609 43.831,157.333 43.566,157.333 43.356 C 157.333 43.129,156.777 42.968,156.440 43.097 C 156.000 43.266,156.120 43.590,156.846 44.189 C 158.614 45.651,159.203 46.319,158.797 46.403 C 158.078 46.552,157.248 46.682,156.083 46.829 C 153.249 47.186,153.077 47.227,152.942 47.577 C 152.785 47.988,153.296 48.254,153.845 48.047 C 154.112 47.946,154.486 47.904,154.676 47.954 C 154.866 48.004,155.186 47.963,155.386 47.863 C 155.736 47.689,157.171 47.514,158.279 47.510 C 158.570 47.509,159.076 47.358,159.404 47.174 C 159.732 46.990,160.000 46.888,160.000 46.949 C 160.000 47.009,160.184 46.885,160.408 46.674 L 160.817 46.291 161.556 46.937 C 161.963 47.292,162.928 47.907,163.700 48.303 C 165.093 49.017,166.337 50.106,167.373 51.518 C 167.972 52.334,169.601 53.910,170.417 54.463 C 171.418 55.142,172.646 56.114,173.318 56.760 C 173.647 57.077,174.404 57.717,175.000 58.183 C 175.596 58.648,176.587 59.548,177.203 60.181 C 178.271 61.281,178.667 61.545,178.667 61.157 C 178.667 61.060,178.742 61.027,178.834 61.084 C 178.937 61.147,178.944 61.294,178.851 61.468 C 178.687 61.778,177.896 66.409,177.851 67.322 C 177.836 67.637,177.747 67.986,177.654 68.099 C 177.561 68.211,177.493 68.628,177.502 69.026 C 177.512 69.424,177.468 71.418,177.405 73.457 C 177.327 75.959,177.347 77.232,177.464 77.373 C 177.601 77.538,177.445 77.578,176.736 77.557 C 176.240 77.543,175.792 77.599,175.740 77.682 C 175.688 77.767,173.574 77.833,170.935 77.833 C 168.343 77.833,166.178 77.878,166.124 77.932 C 166.070 77.986,165.602 78.060,165.083 78.096 C 164.565 78.133,164.064 78.211,163.970 78.269 C 163.876 78.327,163.450 78.398,163.024 78.426 C 162.598 78.454,161.275 78.550,160.083 78.640 C 158.198 78.781,154.116 78.869,150.917 78.839 L 149.917 78.829 148.833 77.387 C 148.237 76.593,147.675 75.784,147.583 75.588 C 147.492 75.393,147.245 75.016,147.035 74.752 C 146.622 74.232,145.253 71.497,145.303 71.292 C 145.320 71.223,145.269 71.167,145.189 71.167 C 145.041 71.167,144.167 69.344,144.167 69.035 C 144.167 68.939,144.110 68.836,144.040 68.806 C 143.971 68.775,143.653 68.412,143.334 68.000 C 142.006 66.285,141.305 65.803,140.212 65.854 C 138.470 65.936,137.539 67.017,138.191 68.201 C 138.449 68.670,138.558 69.328,138.381 69.347 C 137.440 69.444,134.835 70.043,134.530 70.232 C 134.411 70.305,132.725 70.351,130.782 70.335 C 127.252 70.305,126.461 70.271,124.583 70.073 C 124.033 70.015,122.983 69.934,122.250 69.894 C 121.517 69.853,120.804 69.773,120.667 69.716 C 120.529 69.659,119.983 69.585,119.454 69.551 C 118.924 69.516,118.287 69.402,118.037 69.297 C 117.788 69.192,117.471 69.091,117.333 69.072 C 116.971 69.022,115.511 68.520,114.847 68.217 C 114.277 67.957,113.667 68.263,113.925 68.680 C 114.047 68.878,115.871 69.685,115.970 69.585 C 116.018 69.538,116.231 69.613,116.445 69.753 C 116.659 69.893,116.833 69.970,116.833 69.923 C 116.833 69.876,117.239 69.990,117.735 70.175 C 118.230 70.361,118.887 70.505,119.193 70.496 C 119.499 70.487,120.650 70.563,121.750 70.665 C 122.850 70.767,124.087 70.878,124.500 70.911 C 124.912 70.944,125.287 70.988,125.333 71.008 C 125.379 71.029,126.242 71.071,127.250 71.103 C 128.258 71.134,130.256 71.206,131.689 71.262 C 133.680 71.341,134.389 71.314,134.689 71.148 C 134.906 71.028,135.183 70.950,135.304 70.975 C 135.425 71.000,135.613 70.948,135.721 70.859 C 135.920 70.695,136.465 70.576,137.863 70.392 L 138.643 70.290 138.753 70.936 C 138.909 71.859,140.347 74.502,141.212 75.459 C 141.371 75.633,141.500 75.828,141.500 75.892 C 141.500 76.036,142.330 77.320,142.667 77.696 C 143.314 78.420,143.545 79.000,143.186 79.000 C 143.003 79.000,142.800 79.085,142.736 79.189 C 142.620 79.378,132.136 79.274,129.750 79.062 C 127.896 78.896,125.934 78.822,122.208 78.777 C 119.606 78.745,118.439 78.673,118.299 78.533 C 118.169 78.402,117.462 78.333,116.243 78.333 L 114.387 78.333 114.178 77.875 C 114.041 77.575,113.976 76.680,113.990 75.285 C 114.002 74.112,113.963 73.074,113.903 72.978 C 113.844 72.883,113.808 71.918,113.823 70.834 C 113.838 69.715,113.781 68.820,113.689 68.764 C 113.601 68.709,113.477 68.084,113.413 67.374 C 113.350 66.664,113.157 65.564,112.985 64.928 C 112.812 64.293,112.707 63.737,112.751 63.694 C 112.795 63.650,112.753 63.521,112.659 63.407 C 112.351 63.036,112.329 62.500,112.621 62.500 C 112.769 62.500,113.015 62.388,113.167 62.250 C 113.318 62.113,113.680 61.973,113.969 61.939 C 114.259 61.905,114.616 61.778,114.762 61.657 C 114.908 61.535,115.153 61.425,115.306 61.412 C 115.699 61.377,118.167 60.325,118.167 60.192 C 118.167 60.131,118.398 59.979,118.680 59.854 C 119.596 59.449,121.858 56.747,121.544 56.433 C 121.489 56.378,121.544 56.333,121.667 56.333 C 121.789 56.333,121.848 56.292,121.797 56.241 C 121.747 56.191,121.847 55.778,122.019 55.323 C 122.222 54.789,122.333 54.068,122.333 53.285 C 122.333 52.029,122.217 51.734,121.370 50.833 C 121.155 50.604,120.873 50.219,120.744 49.977 C 120.451 49.425,116.836 46.836,116.355 46.833 C 116.297 46.832,115.987 46.668,115.667 46.468 C 115.346 46.267,115.000 46.088,114.898 46.070 C 114.796 46.051,113.596 45.588,112.231 45.039 C 110.867 44.491,109.638 44.038,109.500 44.033 C 109.080 44.018,107.288 43.485,106.791 43.228 C 106.534 43.095,106.255 43.029,106.172 43.080 C 106.089 43.132,105.958 43.063,105.882 42.927 C 105.807 42.791,105.421 42.640,105.026 42.590 C 104.630 42.540,104.141 42.458,103.938 42.407 C 103.503 42.298,103.081 42.696,102.912 43.373 C 102.762 43.976,103.278 44.231,103.616 43.721 C 103.878 43.328,104.980 43.350,105.567 43.761 C 105.754 43.893,106.063 44.000,106.254 44.000 C 106.444 44.000,106.681 44.081,106.779 44.179 C 106.878 44.278,107.136 44.385,107.354 44.417 C 108.267 44.554,110.092 45.079,110.199 45.235 C 110.262 45.329,110.487 45.413,110.699 45.423 C 110.910 45.433,111.271 45.547,111.500 45.678 C 111.729 45.808,111.992 45.923,112.083 45.932 C 112.175 45.941,112.475 46.047,112.750 46.168 C 113.025 46.290,113.287 46.401,113.333 46.417 C 113.379 46.432,113.642 46.540,113.917 46.656 C 114.192 46.772,114.503 46.881,114.608 46.899 C 114.714 46.917,114.901 47.011,115.025 47.108 C 115.149 47.205,115.662 47.486,116.167 47.732 C 116.671 47.977,117.278 48.307,117.515 48.464 C 117.753 48.621,118.241 48.946,118.600 49.185 C 119.209 49.591,120.404 50.879,121.052 51.829 C 121.875 53.034,120.982 56.675,119.499 58.163 C 118.914 58.750,116.634 60.198,116.383 60.142 C 116.310 60.126,116.034 60.202,115.769 60.311 C 115.504 60.420,115.167 60.529,115.019 60.554 C 114.871 60.579,114.575 60.696,114.360 60.814 C 114.146 60.931,113.773 61.063,113.532 61.107 C 113.291 61.151,113.009 61.257,112.904 61.343 C 112.478 61.698,110.710 61.556,109.583 61.077 C 108.389 60.570,108.085 60.445,108.000 60.429 C 107.794 60.389,106.741 59.926,106.667 59.841 C 106.621 59.790,106.044 59.390,105.385 58.953 C 103.877 57.954,101.981 55.902,101.302 54.535 C 100.148 52.213,100.716 50.619,103.390 48.667 C 103.830 48.346,104.428 47.887,104.720 47.646 C 105.279 47.185,107.606 46.000,107.952 46.000 C 108.302 46.000,108.526 45.396,108.258 45.174 C 108.077 45.023,107.907 45.039,107.512 45.244 C 107.230 45.389,107.000 45.468,107.000 45.419 C 107.000 45.148,104.341 46.799,103.088 47.849 C 102.694 48.179,102.111 48.610,101.792 48.808 C 99.182 50.420,99.196 53.514,101.827 56.825 C 102.682 57.900,104.801 59.745,105.833 60.312 C 107.748 61.365,110.101 62.337,110.917 62.411 C 111.122 62.430,111.314 62.630,111.417 62.929 C 111.508 63.197,111.653 63.525,111.739 63.658 C 111.824 63.791,111.912 64.054,111.933 64.242 C 111.954 64.430,112.020 64.808,112.079 65.083 C 112.138 65.358,112.260 66.221,112.350 67.000 C 112.440 67.779,112.581 68.567,112.664 68.750 C 112.781 69.009,112.961 72.824,113.077 77.515 C 113.080 77.660,113.178 77.894,113.294 78.034 C 113.481 78.261,112.966 78.302,108.544 78.407 C 102.128 78.560,101.783 78.575,101.559 78.714 C 101.232 78.915,96.951 79.018,85.333 79.101 C 79.146 79.145,73.333 79.215,72.417 79.256 C 68.639 79.426,67.031 79.510,66.083 79.584 C 65.533 79.628,62.421 79.712,59.167 79.771 C 55.913 79.830,53.174 79.938,53.080 80.011 C 52.628 80.364,41.858 80.008,41.375 79.625 C 40.486 78.919,39.648 79.572,40.039 80.667 C 40.088 80.804,40.219 81.250,40.331 81.657 C 40.442 82.064,40.612 82.589,40.710 82.823 C 40.807 83.058,40.871 83.317,40.852 83.400 C 40.833 83.482,40.870 83.670,40.936 83.817 C 41.074 84.127,41.051 84.057,41.306 84.944 C 41.416 85.326,41.631 85.926,41.784 86.278 C 41.938 86.629,42.069 86.954,42.076 87.000 C 42.083 87.046,42.160 87.196,42.248 87.333 C 42.336 87.471,42.421 87.672,42.437 87.781 C 42.454 87.890,42.625 88.148,42.817 88.354 C 43.009 88.561,43.167 88.794,43.167 88.872 C 43.167 88.950,43.453 89.405,43.803 89.882 C 44.153 90.359,44.481 90.862,44.533 91.000 C 44.697 91.439,46.123 93.542,47.133 94.833 C 47.671 95.521,48.289 96.383,48.508 96.750 C 48.877 97.370,49.227 97.840,51.008 100.112 C 51.379 100.587,51.809 101.299,51.961 101.696 C 52.493 103.076,53.331 104.261,55.004 106.000 C 55.930 106.962,56.798 107.956,56.932 108.208 C 57.066 108.460,57.240 108.667,57.318 108.667 C 57.397 108.667,57.877 109.008,58.384 109.426 C 59.176 110.078,59.635 110.679,60.794 112.583 C 61.332 113.465,61.995 114.841,62.062 115.213 C 62.104 115.440,62.321 115.917,62.544 116.272 C 62.768 116.626,62.956 116.954,62.960 117.000 C 63.013 117.502,64.420 119.813,64.749 119.939 C 65.585 120.260,65.724 119.930,65.097 119.110 C 64.458 118.275,63.419 116.215,62.486 113.932 C 62.189 113.207,61.827 112.488,61.682 112.336 C 61.536 112.183,61.229 111.689,61.000 111.237 C 60.548 110.347,58.745 108.433,58.192 108.258 C 58.004 108.198,57.800 107.989,57.737 107.793 C 57.675 107.598,56.803 106.601,55.800 105.578 C 53.994 103.739,53.183 102.596,52.722 101.243 C 52.591 100.859,52.169 100.168,51.784 99.709 C 50.640 98.344,49.611 96.977,49.167 96.232 C 48.762 95.553,48.210 94.817,47.315 93.763 C 47.075 93.481,46.746 92.987,46.583 92.667 C 46.420 92.346,46.233 92.046,46.167 92.000 C 46.102 91.954,45.749 91.429,45.383 90.833 C 45.017 90.237,44.408 89.263,44.029 88.667 C 43.150 87.284,42.626 86.175,42.258 84.917 C 41.674 82.920,41.456 82.240,41.230 81.703 C 40.771 80.612,40.853 80.527,42.105 80.784 C 43.458 81.062,54.639 80.889,64.917 80.431 C 65.925 80.386,67.468 80.321,68.345 80.286 C 69.222 80.252,70.047 80.157,70.178 80.075 C 70.310 79.994,77.378 79.874,85.917 79.809 C 95.623 79.735,101.759 79.626,102.333 79.515 C 102.837 79.418,105.575 79.289,108.417 79.228 L 113.584 79.118 113.777 79.517 C 113.883 79.737,114.014 80.053,114.067 80.220 C 114.264 80.829,114.917 80.500,114.917 79.792 L 114.917 79.166 116.375 79.167 C 117.177 79.167,117.833 79.237,117.833 79.322 C 117.833 79.412,119.481 79.514,121.708 79.563 C 123.840 79.610,126.221 79.695,127.000 79.751 C 134.790 80.315,142.670 80.481,142.996 80.088 C 143.643 79.308,144.333 79.854,145.415 82.002 C 145.669 82.505,145.941 82.942,146.021 82.972 C 146.101 83.003,146.167 83.117,146.167 83.225 C 146.167 83.334,146.350 83.693,146.575 84.023 C 146.799 84.354,147.037 84.840,147.103 85.104 C 147.169 85.367,147.387 85.958,147.588 86.417 C 147.788 86.875,148.004 87.528,148.066 87.868 C 148.128 88.208,148.288 88.695,148.422 88.951 C 148.556 89.207,148.711 89.661,148.768 89.960 C 148.825 90.259,148.938 90.545,149.019 90.595 C 149.100 90.645,149.167 90.823,149.167 90.991 C 149.167 91.158,149.279 91.510,149.416 91.773 C 149.553 92.035,149.665 92.364,149.666 92.502 C 149.666 92.641,149.822 93.166,150.012 93.669 C 150.203 94.172,150.417 94.771,150.490 95.000 C 150.562 95.229,150.969 96.150,151.394 97.046 C 151.819 97.943,152.167 98.723,152.167 98.781 C 152.167 98.838,152.344 99.118,152.562 99.403 C 152.779 99.688,153.129 100.333,153.340 100.836 C 153.550 101.339,153.814 101.862,153.925 102.000 C 154.036 102.138,154.177 102.412,154.237 102.610 C 154.297 102.808,154.456 103.061,154.590 103.172 C 154.724 103.283,154.833 103.484,154.833 103.619 C 154.833 103.754,154.987 104.063,155.174 104.307 C 155.361 104.551,155.786 105.162,156.117 105.667 C 156.449 106.171,156.767 106.621,156.824 106.667 C 157.018 106.823,158.167 108.461,158.167 108.582 C 158.167 108.648,158.335 108.909,158.542 109.161 C 158.748 109.414,159.029 109.790,159.167 109.996 C 159.304 110.203,159.609 110.645,159.844 110.978 C 160.079 111.311,160.444 111.958,160.655 112.417 C 160.867 112.875,161.107 113.362,161.190 113.500 C 161.272 113.638,161.450 113.989,161.584 114.280 C 161.718 114.572,161.890 114.849,161.965 114.895 C 162.040 114.942,162.317 115.415,162.580 115.948 C 162.842 116.481,163.191 117.068,163.355 117.253 C 163.518 117.438,163.938 118.113,164.288 118.753 L 164.924 119.917 168.546 119.962 L 172.168 120.007 171.554 118.878 C 170.537 117.007,170.217 116.381,170.023 115.888 C 169.921 115.629,169.764 115.304,169.674 115.167 C 169.584 115.029,169.256 114.392,168.945 113.750 C 167.900 111.594,166.814 109.586,166.510 109.250 C 166.345 109.067,165.994 108.579,165.731 108.167 C 165.468 107.754,165.211 107.379,165.160 107.333 C 165.108 107.287,164.931 106.959,164.765 106.604 C 164.600 106.249,164.079 105.530,163.607 105.005 C 161.948 103.160,161.052 101.657,160.079 99.083 C 159.871 98.532,159.569 97.782,159.409 97.416 C 158.912 96.277,158.710 95.786,158.282 94.667 C 158.053 94.071,157.821 93.471,157.766 93.333 C 157.710 93.196,157.299 92.408,156.852 91.583 C 156.405 90.758,155.491 88.996,154.821 87.667 C 154.151 86.337,153.280 84.782,152.885 84.209 C 152.490 83.637,152.167 83.132,152.167 83.087 C 152.167 83.042,151.883 82.536,151.537 81.961 C 150.851 80.823,150.453 79.992,150.548 79.896 C 150.581 79.863,152.253 79.806,154.263 79.770 C 158.514 79.693,163.164 79.412,164.000 79.182 C 165.172 78.860,168.912 78.673,176.083 78.575 C 182.015 78.495,184.219 78.399,187.616 78.071 C 189.926 77.849,192.905 77.667,194.235 77.667 C 195.565 77.667,197.388 77.590,198.285 77.495 C 200.651 77.247,226.476 77.033,228.583 77.245 C 231.626 77.550,236.670 77.549,237.009 77.242 C 237.679 76.635,248.667 76.093,248.667 76.667 C 248.667 76.952,253.041 76.879,253.606 76.584 C 253.961 76.399,254.668 76.335,256.373 76.334 C 257.632 76.334,258.998 76.243,259.409 76.134 C 260.556 75.827,260.554 75.835,258.598 79.058 C 258.423 79.347,258.023 80.071,257.709 80.667 C 256.751 82.489,254.497 85.654,253.876 86.050 C 253.761 86.123,253.667 86.261,253.667 86.357 C 253.667 86.452,253.339 86.917,252.939 87.390 C 252.539 87.863,252.022 88.550,251.791 88.917 C 251.559 89.283,251.094 89.883,250.757 90.250 C 249.964 91.113,249.450 91.860,248.175 94.000 C 247.146 95.727,246.074 97.255,245.419 97.929 C 245.235 98.119,244.783 98.625,244.417 99.053 C 244.050 99.482,243.581 100.024,243.375 100.258 C 243.169 100.492,243.000 100.752,243.000 100.835 C 243.000 101.127,242.084 102.500,241.889 102.500 C 241.623 102.500,241.456 103.345,241.585 104.036 C 241.764 104.990,239.633 108.983,238.670 109.498 C 238.485 109.597,238.333 109.783,238.333 109.911 C 238.333 110.040,237.977 110.593,237.542 111.142 C 236.582 112.350,235.429 113.878,234.377 115.333 C 233.946 115.929,233.547 116.454,233.491 116.500 C 233.372 116.597,231.667 119.789,231.667 119.915 C 231.667 120.116,232.645 119.977,232.833 119.750 C 232.947 119.613,232.988 119.500,232.923 119.500 C 232.601 119.500,235.396 115.114,236.155 114.427 C 236.345 114.255,236.500 114.022,236.500 113.909 C 236.500 113.795,236.607 113.661,236.737 113.611 C 236.868 113.561,237.094 113.272,237.239 112.968 C 237.385 112.665,237.784 112.109,238.127 111.733 C 238.470 111.357,238.862 110.860,239.000 110.629 C 239.137 110.399,239.605 109.731,240.038 109.147 C 240.472 108.562,241.069 107.756,241.365 107.355 C 241.661 106.954,241.919 106.542,241.940 106.438 C 241.960 106.335,242.132 105.821,242.321 105.296 C 242.511 104.771,242.667 104.108,242.667 103.823 C 242.667 102.870,243.914 100.899,245.979 98.586 C 246.817 97.648,248.020 96.008,248.426 95.250 C 249.100 93.994,250.438 91.927,250.974 91.314 C 251.325 90.912,251.901 90.171,252.253 89.667 C 252.605 89.162,253.235 88.328,253.655 87.812 C 254.888 86.294,256.381 84.334,257.256 83.083 C 257.705 82.442,258.137 81.871,258.217 81.815 C 258.297 81.759,258.356 81.646,258.350 81.565 C 258.325 81.269,258.526 80.833,258.688 80.833 C 258.779 80.833,258.812 80.768,258.763 80.688 C 258.679 80.551,260.010 78.277,261.257 76.427 C 262.062 75.233,261.867 74.939,260.369 75.083 C 259.761 75.142,259.198 75.231,259.117 75.280 C 259.037 75.330,258.114 75.359,257.066 75.344 C 255.217 75.319,253.248 75.562,252.925 75.856 C 252.653 76.103,249.235 76.033,249.021 75.776 C 248.799 75.508,240.352 75.389,239.870 75.647 C 239.712 75.731,239.058 75.850,238.417 75.911 C 237.775 75.972,237.038 76.126,236.779 76.254 C 236.109 76.585,228.360 76.538,227.726 76.199 C 227.307 75.974,220.117 75.947,218.000 76.162 C 217.129 76.251,212.479 76.363,207.667 76.411 C 202.854 76.460,198.467 76.572,197.917 76.661 C 197.367 76.750,195.182 76.829,193.061 76.836 C 190.941 76.844,189.158 76.898,189.099 76.956 C 189.041 77.015,188.863 77.077,188.705 77.096 C 183.667 77.683,178.969 77.743,178.581 77.225 C 178.198 76.716,178.274 68.732,178.666 68.250 C 178.741 68.158,178.802 67.821,178.802 67.500 C 178.802 67.179,178.887 66.447,178.992 65.872 C 179.097 65.297,179.140 64.759,179.089 64.675 C 179.037 64.591,179.066 64.479,179.153 64.425 C 179.241 64.371,179.321 64.197,179.331 64.038 C 179.463 62.077,179.488 62.012,180.067 62.123 C 180.429 62.192,182.486 60.964,182.841 60.467 C 182.891 60.397,183.304 60.078,183.758 59.758 C 184.212 59.438,184.733 59.061,184.917 58.919 C 185.622 58.376,188.254 56.667,188.385 56.667 C 188.460 56.667,189.211 56.342,190.053 55.944 C 191.958 55.045,192.822 54.679,193.250 54.589 C 193.433 54.551,193.846 54.429,194.167 54.318 C 194.898 54.065,195.250 53.967,195.250 54.017 C 195.250 54.039,195.438 53.953,195.667 53.827 C 195.896 53.700,196.171 53.614,196.279 53.636 C 196.387 53.658,196.520 53.602,196.576 53.512 C 196.632 53.422,196.773 53.385,196.890 53.430 C 197.008 53.475,197.961 53.203,199.010 52.826 C 200.747 52.202,201.777 51.853,201.878 51.856 C 201.899 51.856,202.142 51.768,202.417 51.660 C 202.692 51.551,203.029 51.449,203.167 51.432 C 203.508 51.390,205.940 50.586,206.708 50.260 C 207.560 49.900,207.634 50.569,206.812 51.190 C 205.664 52.056,204.453 53.289,204.568 53.475 C 204.786 53.828,205.245 53.670,205.917 53.007 C 206.283 52.645,206.658 52.346,206.750 52.341 C 206.842 52.337,207.141 52.121,207.416 51.862 C 208.000 51.310,208.718 51.421,209.983 52.259 C 210.685 52.723,211.339 52.611,211.040 52.077 C 210.893 51.817,209.721 51.000,209.493 51.000 C 209.405 51.000,209.333 50.891,209.333 50.757 C 209.333 50.624,209.146 50.239,208.917 49.901 C 208.507 49.298,208.365 48.667,208.639 48.667 C 208.789 48.667,208.786 48.680,208.922 47.333 C 209.030 46.262,208.835 45.818,208.380 46.102 C 208.179 46.227,208.078 46.510,208.065 46.981 C 208.043 47.828,207.908 47.993,207.582 47.571 C 207.337 47.254,207.330 47.254,207.083 47.574 C 206.742 48.015,206.770 48.391,207.170 48.753 C 207.505 49.056,207.163 49.309,206.083 49.555 C 205.992 49.576,205.842 49.637,205.750 49.691 C 205.658 49.745,205.021 49.952,204.333 50.151 C 203.646 50.350,202.722 50.656,202.280 50.830 C 201.839 51.005,201.367 51.105,201.232 51.054 C 201.098 51.002,200.840 51.093,200.660 51.256 C 200.481 51.418,200.333 51.493,200.333 51.422 C 200.333 51.351,200.240 51.361,200.125 51.444 C 200.010 51.528,199.279 51.797,198.500 52.042 C 192.760 53.847,191.026 54.434,190.625 54.709 C 190.373 54.881,190.167 54.984,190.167 54.937 C 190.167 54.767,187.011 56.463,185.783 57.293 C 185.343 57.590,184.933 57.833,184.873 57.833 C 184.812 57.833,184.609 57.983,184.423 58.167 C 183.983 58.599,182.451 59.788,181.517 60.420 C 181.114 60.693,180.538 61.083,180.237 61.287 L 179.689 61.657 179.784 61.037 C 179.837 60.696,179.936 60.304,180.005 60.167 C 180.187 59.802,180.203 56.053,180.026 55.122 C 179.852 54.206,179.859 54.198,180.938 54.094 C 182.184 53.974,182.594 53.898,182.849 53.739 C 182.978 53.658,183.158 53.576,183.250 53.556 C 183.342 53.536,183.595 53.480,183.812 53.432 C 185.813 52.990,188.273 47.273,186.477 47.243 C 186.063 47.235,186.041 47.274,186.111 47.881 C 186.152 48.236,186.114 48.615,186.028 48.722 C 185.942 48.829,185.820 49.225,185.758 49.601 C 185.608 50.514,184.466 52.246,183.875 52.456 C 181.275 53.385,179.290 53.571,177.982 53.008 C 177.505 52.803,176.845 52.605,176.516 52.568 C 174.792 52.376,174.411 52.286,173.575 51.876 C 172.576 51.386,172.427 51.128,172.484 49.988 C 172.525 49.164,172.245 48.750,171.771 48.932 C 171.389 49.078,171.403 50.725,171.792 51.488 C 172.228 52.344,174.992 53.632,176.062 53.478 C 176.483 53.418,177.673 53.723,177.851 53.937 C 177.955 54.064,178.215 54.167,178.427 54.167 C 179.077 54.167,179.109 54.316,179.165 57.667 C 179.187 58.980,179.127 59.908,179.004 60.177 L 178.809 60.603 177.529 59.280 C 176.826 58.552,176.041 57.827,175.787 57.668 C 175.224 57.319,173.037 55.487,172.154 54.625 C 171.802 54.281,171.447 54.000,171.365 54.000 C 171.035 54.000,168.695 51.821,167.917 50.788 C 167.458 50.180,167.029 49.678,166.962 49.674 C 166.895 49.670,166.527 49.327,166.145 48.912 C 165.686 48.415,164.933 47.898,163.933 47.396 C 162.087 46.469,161.152 45.666,161.806 45.566 C 162.341 45.485,163.009 45.087,162.967 44.874 C 162.860 44.331,162.387 44.243,161.635 44.625 C 160.743 45.078,160.448 44.878,160.968 44.175 C 161.830 43.008,161.044 39.693,160.158 40.761 M171.999 46.000 C 171.058 47.658,170.940 48.333,171.590 48.333 C 171.851 48.333,172.180 47.563,172.057 47.241 C 172.001 47.096,172.048 46.805,172.161 46.594 C 172.472 46.014,172.316 45.442,171.999 46.000 M175.542 46.362 C 174.867 46.780,174.866 46.768,175.662 47.625 C 176.519 48.547,177.000 48.443,177.000 47.336 C 177.000 46.234,176.398 45.833,175.542 46.362 M180.958 46.619 C 180.405 46.703,180.366 47.054,180.870 47.407 C 181.311 47.716,182.021 47.746,182.299 47.468 C 182.518 47.249,181.942 46.477,181.596 46.525 C 181.497 46.539,181.210 46.581,180.958 46.619 M211.208 47.942 C 211.094 47.989,211.000 48.159,211.000 48.319 C 211.000 48.480,210.736 48.875,210.413 49.198 C 209.902 49.709,209.858 49.813,210.077 49.995 C 210.486 50.335,211.051 50.050,211.554 49.250 C 212.183 48.251,212.014 47.609,211.208 47.942 M182.834 49.025 C 180.826 50.839,176.374 50.820,174.859 48.991 C 174.416 48.457,173.926 48.351,173.771 48.756 C 173.197 50.251,178.703 51.802,181.583 50.957 C 181.767 50.903,181.969 50.853,182.032 50.846 C 182.096 50.839,182.434 50.571,182.782 50.251 C 183.131 49.930,183.471 49.668,183.537 49.667 C 183.807 49.666,184.154 48.721,183.958 48.525 C 183.691 48.258,183.673 48.266,182.834 49.025 M113.167 50.748 C 112.571 51.241,112.091 51.725,112.100 51.822 C 112.142 52.273,112.186 52.333,112.467 52.333 C 112.632 52.333,112.843 52.257,112.937 52.163 C 113.217 51.883,114.217 52.409,115.173 53.340 C 116.495 54.627,116.818 54.808,117.104 54.417 C 117.394 54.020,117.394 53.752,117.105 53.462 C 116.980 53.337,116.821 53.050,116.752 52.826 C 116.684 52.601,116.512 52.285,116.371 52.125 C 116.230 51.965,116.173 51.833,116.244 51.833 C 116.315 51.833,116.176 51.576,115.936 51.261 C 115.696 50.946,115.500 50.613,115.500 50.521 C 115.500 50.294,114.821 49.831,114.505 49.842 C 114.365 49.847,113.763 50.255,113.167 50.748 M106.432 50.583 C 106.185 50.813,105.855 51.009,105.700 51.019 C 105.544 51.030,105.314 51.049,105.188 51.061 C 104.302 51.148,104.481 51.790,105.618 52.604 C 106.241 53.049,106.787 53.418,106.833 53.422 C 106.879 53.427,107.291 53.600,107.748 53.807 C 109.031 54.387,109.723 53.993,109.404 52.863 C 109.335 52.618,109.291 52.360,109.306 52.292 C 109.321 52.223,109.258 52.167,109.167 52.167 C 109.075 52.167,109.000 52.055,109.000 51.920 C 109.000 51.543,107.602 50.167,107.220 50.167 C 107.034 50.167,106.680 50.354,106.432 50.583 M114.888 51.179 C 115.650 52.069,115.546 52.348,114.659 51.797 C 113.912 51.332,113.863 51.265,114.126 51.064 C 114.511 50.772,114.544 50.777,114.888 51.179 M108.056 52.082 C 108.745 53.173,108.572 53.272,107.204 52.568 C 105.934 51.915,105.889 51.665,107.005 51.456 C 107.231 51.413,107.454 51.369,107.500 51.356 C 107.546 51.344,107.796 51.671,108.056 52.082 M106.684 55.063 C 106.472 55.318,107.149 56.006,108.411 56.820 C 108.781 57.058,109.663 57.686,110.371 58.214 C 113.529 60.568,115.346 60.431,117.458 57.680 C 118.234 56.669,118.096 55.115,117.258 55.437 C 116.969 55.548,116.799 55.959,116.993 56.079 C 117.864 56.617,115.139 59.094,113.728 59.046 C 113.145 59.026,112.339 58.658,112.009 58.261 C 111.890 58.117,111.721 58.000,111.634 58.000 C 111.547 58.000,110.937 57.601,110.279 57.112 C 109.621 56.624,108.821 56.047,108.500 55.829 C 108.179 55.611,107.856 55.334,107.781 55.213 C 107.707 55.092,107.581 55.033,107.501 55.083 C 107.422 55.132,107.309 55.096,107.252 55.003 C 107.108 54.770,106.910 54.791,106.684 55.063 M141.141 66.941 C 141.706 67.291,142.696 68.421,142.727 68.750 C 142.746 68.955,142.459 69.010,141.163 69.048 L 139.575 69.095 139.220 68.308 C 138.840 67.467,138.898 67.234,139.583 66.859 C 140.064 66.596,140.633 66.626,141.141 66.941 M144.176 71.208 C 144.556 71.965,144.944 72.677,145.037 72.792 C 145.131 72.906,145.157 73.000,145.094 73.000 C 144.968 73.000,145.427 73.870,145.876 74.482 C 146.296 75.054,146.033 75.269,144.528 75.584 C 143.825 75.731,143.127 75.918,142.976 75.999 C 142.503 76.255,139.962 72.216,139.601 70.635 C 139.486 70.130,139.768 70.049,142.000 69.947 C 142.596 69.920,143.174 69.883,143.284 69.865 C 143.394 69.848,143.795 70.452,144.176 71.208 M224.801 78.453 C 224.157 79.187,223.831 80.209,224.174 80.421 C 224.658 80.721,225.722 78.818,225.304 78.400 C 225.091 78.186,225.029 78.193,224.801 78.453 M210.041 80.042 C 209.493 80.726,209.167 81.717,209.166 82.702 L 209.164 83.750 208.833 83.250 C 208.651 82.975,208.502 82.624,208.501 82.470 C 208.500 82.316,208.398 82.089,208.274 81.964 C 208.149 81.840,207.945 81.455,207.820 81.108 C 207.383 79.902,206.689 79.872,206.343 81.045 C 206.229 81.433,206.027 81.982,205.895 82.265 C 205.495 83.120,205.642 86.083,206.083 86.083 C 206.389 86.083,206.424 85.943,206.504 84.417 C 206.552 83.486,206.701 82.501,206.841 82.187 L 207.091 81.623 207.552 82.603 C 207.806 83.142,208.087 83.696,208.177 83.833 C 208.267 83.971,208.458 84.346,208.603 84.667 C 209.484 86.617,210.000 86.309,210.000 83.832 C 210.000 81.970,210.032 81.772,210.454 80.990 C 210.840 80.275,210.871 80.126,210.662 79.994 C 210.335 79.787,210.239 79.795,210.041 80.042 M217.968 80.458 C 217.614 80.869,217.166 82.896,217.166 84.080 L 217.167 85.076 216.768 84.663 C 216.527 84.413,216.164 83.580,215.850 82.552 C 214.996 79.763,214.346 79.940,213.905 83.083 C 213.458 86.271,213.452 86.352,213.649 86.549 C 214.018 86.918,214.309 86.256,214.624 84.333 L 214.938 82.417 215.306 83.594 C 215.781 85.109,217.044 86.499,217.586 86.102 C 217.850 85.909,217.925 85.578,218.011 84.225 C 218.069 83.322,218.243 82.138,218.397 81.594 C 218.769 80.288,218.569 79.759,217.968 80.458 M200.046 80.521 C 199.906 80.660,199.991 80.963,200.373 81.692 C 200.908 82.711,200.881 83.923,200.309 84.612 C 199.845 85.172,198.959 84.385,198.663 83.150 C 198.461 82.311,198.149 82.036,197.831 82.419 C 197.526 82.787,198.059 84.362,198.730 85.073 C 200.108 86.535,201.667 85.160,201.667 82.482 C 201.667 82.062,201.580 81.789,201.427 81.731 C 201.295 81.680,201.139 81.419,201.080 81.151 C 201.021 80.883,200.834 80.590,200.664 80.499 C 200.279 80.293,200.274 80.293,200.046 80.521 M225.717 80.890 C 225.643 81.014,225.358 81.255,225.083 81.426 C 224.808 81.598,224.363 81.947,224.093 82.202 C 223.501 82.764,223.228 82.788,223.071 82.295 C 222.877 81.684,222.292 81.000,221.963 81.000 C 221.495 81.000,221.413 81.470,221.809 81.891 C 222.277 82.389,222.457 82.975,222.661 84.657 C 222.880 86.464,223.815 88.403,224.317 88.093 C 224.615 87.909,224.528 87.356,224.079 86.591 C 223.819 86.147,223.608 85.452,223.526 84.768 C 223.386 83.608,223.409 83.500,223.793 83.500 C 223.924 83.500,224.487 83.087,225.044 82.583 C 225.601 82.079,226.111 81.667,226.177 81.667 C 226.364 81.667,226.500 81.195,226.394 80.917 C 226.274 80.606,225.895 80.591,225.717 80.890 M194.409 81.042 C 194.360 81.171,194.398 81.481,194.493 81.732 C 194.919 82.851,194.622 83.215,193.083 83.458 C 192.397 83.567,192.241 83.656,192.197 83.962 C 192.131 84.418,192.828 84.469,194.057 84.100 L 194.833 83.866 194.868 84.391 C 194.888 84.680,194.906 85.329,194.910 85.833 C 194.916 86.698,194.940 86.750,195.333 86.750 C 195.749 86.750,195.750 86.745,195.750 85.157 C 195.750 83.863,195.805 83.509,196.042 83.270 C 196.414 82.895,196.420 82.189,196.052 82.048 C 195.883 81.983,195.740 82.031,195.695 82.166 C 195.653 82.291,195.497 82.061,195.347 81.656 C 195.074 80.917,194.581 80.595,194.409 81.042 M190.223 82.095 C 190.167 82.238,190.206 82.520,190.308 82.720 C 190.410 82.920,190.825 84.021,191.231 85.167 C 192.210 87.937,192.161 87.833,192.500 87.833 C 193.096 87.833,192.953 87.001,192.001 84.917 C 191.917 84.733,191.739 84.199,191.606 83.730 C 191.144 82.100,190.509 81.349,190.223 82.095 " stroke="none" fill="#080707" fill-rule="evenodd"></path><path id="path2" d="M165.667 48.385 C 165.667 48.414,165.910 48.658,166.208 48.927 L 166.750 49.417 166.260 48.875 C 165.804 48.370,165.667 48.257,165.667 48.385 M127.544 70.286 C 127.797 70.325,128.172 70.324,128.377 70.284 C 128.582 70.244,128.375 70.213,127.917 70.214 C 127.458 70.216,127.291 70.248,127.544 70.286 M140.483 72.750 C 140.764 73.294,140.995 73.595,140.994 73.417 C 140.993 73.325,140.839 73.063,140.652 72.833 C 140.425 72.557,140.369 72.529,140.483 72.750 M147.433 75.317 C 147.575 75.601,147.716 75.833,147.747 75.833 C 147.882 75.833,147.608 75.159,147.403 74.989 C 147.231 74.846,147.238 74.926,147.433 75.317 M71.542 79.282 C 71.702 79.323,71.965 79.323,72.125 79.282 C 72.285 79.240,72.154 79.205,71.833 79.205 C 71.512 79.205,71.381 79.240,71.542 79.282 M73.042 79.282 C 73.202 79.323,73.465 79.323,73.625 79.282 C 73.785 79.240,73.654 79.205,73.333 79.205 C 73.012 79.205,72.881 79.240,73.042 79.282 M62.125 79.618 C 62.331 79.657,62.669 79.657,62.875 79.618 C 63.081 79.578,62.913 79.545,62.500 79.545 C 62.087 79.545,61.919 79.578,62.125 79.618 M63.792 79.621 C 64.090 79.658,64.577 79.658,64.875 79.621 C 65.173 79.584,64.929 79.553,64.333 79.553 C 63.737 79.553,63.494 79.584,63.792 79.621 M52.042 80.115 C 52.202 80.157,52.465 80.157,52.625 80.115 C 52.785 80.073,52.654 80.039,52.333 80.039 C 52.012 80.039,51.881 80.073,52.042 80.115 M250.499 91.875 C 250.254 92.210,250.214 92.327,250.394 92.180 C 250.667 91.958,251.080 91.333,250.954 91.333 C 250.922 91.333,250.718 91.577,250.499 91.875 " stroke="none" fill="#6c6c6c" fill-rule="evenodd"></path><path id="path3" d="M256.626 76.334 C 254.370 76.425,253.777 76.499,253.530 76.723 C 253.082 77.128,248.759 77.136,248.533 76.732 C 248.165 76.073,237.594 76.642,237.160 77.344 C 236.997 77.609,227.739 77.434,227.409 77.160 C 227.274 77.048,225.762 77.015,223.059 77.064 C 198.093 77.515,190.365 77.726,189.167 77.988 C 188.754 78.078,187.877 78.155,187.218 78.159 C 186.559 78.163,185.980 78.230,185.932 78.308 C 185.884 78.386,181.961 78.502,177.214 78.565 C 168.874 78.677,167.111 78.777,163.417 79.352 C 161.804 79.604,157.680 79.808,153.954 79.821 L 150.492 79.833 151.109 80.958 C 151.449 81.577,151.846 82.308,151.993 82.583 C 152.139 82.858,152.565 83.533,152.940 84.083 C 153.314 84.633,154.156 86.165,154.811 87.488 C 155.466 88.810,156.099 90.010,156.217 90.155 C 156.336 90.299,156.614 90.829,156.836 91.333 C 157.058 91.837,157.410 92.511,157.620 92.830 C 157.829 93.150,158.000 93.496,158.000 93.600 C 158.000 93.704,158.160 94.193,158.356 94.686 C 158.686 95.517,158.858 95.925,159.543 97.500 C 159.682 97.821,159.849 98.271,159.913 98.500 C 160.031 98.919,161.395 101.922,161.626 102.270 C 162.220 103.165,163.275 104.551,163.832 105.167 C 164.205 105.579,164.665 106.235,164.854 106.625 C 165.042 107.015,165.265 107.333,165.348 107.333 C 165.432 107.333,165.500 107.427,165.501 107.542 C 165.501 107.656,165.816 108.162,166.201 108.667 C 166.586 109.171,167.212 110.183,167.592 110.917 C 167.972 111.650,168.482 112.617,168.725 113.066 C 168.968 113.516,169.167 113.984,169.167 114.108 C 169.167 114.232,169.236 114.333,169.320 114.333 C 169.404 114.333,169.523 114.558,169.583 114.833 C 169.644 115.108,169.752 115.333,169.824 115.333 C 169.896 115.333,170.087 115.690,170.249 116.125 C 170.411 116.560,170.864 117.451,171.256 118.104 C 171.647 118.757,171.995 119.432,172.028 119.604 C 172.086 119.908,172.898 119.918,201.775 119.959 L 231.461 120.001 232.006 118.959 C 232.306 118.386,232.729 117.571,232.946 117.147 C 233.163 116.724,233.489 116.244,233.670 116.080 C 233.852 115.916,234.000 115.681,234.000 115.558 C 234.000 115.434,234.060 115.333,234.133 115.333 C 234.207 115.333,234.488 114.981,234.758 114.551 C 235.029 114.121,235.459 113.539,235.714 113.259 C 235.969 112.979,236.381 112.451,236.630 112.086 C 236.879 111.720,237.271 111.210,237.500 110.952 C 237.729 110.693,238.033 110.271,238.175 110.014 C 238.317 109.756,238.617 109.367,238.842 109.148 C 239.319 108.683,240.000 107.740,240.000 107.545 C 240.000 107.470,240.213 107.148,240.473 106.830 C 241.114 106.045,241.500 104.820,241.500 103.573 C 241.500 102.656,241.547 102.508,241.913 102.268 C 242.140 102.119,242.488 101.641,242.686 101.207 C 242.884 100.772,243.186 100.295,243.356 100.147 C 243.527 99.999,243.667 99.820,243.667 99.750 C 243.667 99.680,243.948 99.324,244.292 98.960 C 245.181 98.017,245.889 97.232,246.085 96.973 C 246.607 96.284,247.500 94.988,247.500 94.922 C 247.500 94.880,247.912 94.165,248.417 93.333 C 248.921 92.502,249.333 91.766,249.333 91.698 C 249.333 91.630,249.465 91.456,249.625 91.311 C 250.101 90.882,251.393 89.323,251.726 88.776 C 251.896 88.497,252.362 87.852,252.763 87.343 C 253.164 86.833,253.775 86.052,254.121 85.606 C 254.467 85.160,254.862 84.671,255.000 84.520 C 255.529 83.937,256.333 82.863,256.333 82.739 C 256.333 82.668,256.442 82.489,256.576 82.342 C 256.709 82.195,257.068 81.589,257.374 80.995 C 257.680 80.402,258.071 79.692,258.244 79.417 C 258.417 79.142,258.796 78.542,259.086 78.083 C 260.065 76.538,260.203 76.162,259.779 76.194 C 259.580 76.209,258.161 76.272,256.626 76.334 M225.610 78.426 C 225.805 78.935,224.818 80.500,224.302 80.500 C 223.816 80.500,223.777 80.105,224.176 79.225 C 224.658 78.163,225.359 77.772,225.610 78.426 M105.766 79.307 C 105.719 79.384,104.431 79.494,102.905 79.552 C 101.379 79.609,100.045 79.726,99.940 79.812 C 99.827 79.904,93.827 80.004,85.167 80.057 C 77.146 80.105,69.571 80.220,68.333 80.312 C 67.096 80.404,63.308 80.527,59.917 80.586 C 56.525 80.644,53.600 80.764,53.417 80.851 C 53.022 81.040,42.138 80.959,41.469 80.763 C 41.020 80.631,40.951 81.029,41.328 81.583 C 41.390 81.675,41.576 82.237,41.740 82.833 C 42.374 85.139,43.127 87.125,43.611 87.766 C 43.825 88.049,44.000 88.325,44.000 88.377 C 44.000 88.430,44.375 89.018,44.833 89.683 C 45.292 90.348,45.667 90.982,45.667 91.090 C 45.667 91.199,45.844 91.467,46.061 91.686 C 46.278 91.904,46.508 92.252,46.572 92.458 C 46.636 92.665,46.759 92.833,46.845 92.833 C 46.930 92.833,47.000 92.914,47.000 93.014 C 47.000 93.181,47.841 94.298,48.556 95.082 C 48.724 95.266,49.058 95.754,49.298 96.167 C 49.820 97.065,50.669 98.198,50.958 98.383 C 51.073 98.457,51.167 98.611,51.167 98.727 C 51.167 98.843,51.400 99.158,51.685 99.427 C 51.970 99.696,52.580 100.701,53.039 101.659 C 53.872 103.393,54.124 103.719,56.435 106.054 C 56.995 106.620,57.585 107.290,57.746 107.543 C 57.908 107.795,58.397 108.233,58.833 108.516 C 59.269 108.799,59.723 109.211,59.841 109.432 C 59.960 109.653,60.111 109.833,60.178 109.833 C 60.299 109.833,60.753 110.523,61.386 111.667 C 61.563 111.987,61.760 112.287,61.824 112.333 C 61.888 112.379,62.109 112.792,62.315 113.250 C 62.522 113.708,62.760 114.214,62.845 114.373 C 62.930 114.532,63.000 114.738,63.000 114.830 C 63.000 115.177,64.639 118.286,65.264 119.125 L 65.917 120.000 115.361 120.000 L 164.805 120.000 164.310 118.979 C 164.038 118.418,163.726 117.858,163.616 117.735 C 163.156 117.219,162.732 116.571,162.495 116.020 C 162.402 115.802,162.177 115.415,161.996 115.161 C 161.815 114.907,161.667 114.593,161.667 114.464 C 161.667 114.335,161.517 114.069,161.333 113.872 C 161.150 113.675,161.000 113.463,161.000 113.400 C 161.000 113.203,160.256 111.753,160.125 111.694 C 160.056 111.664,160.000 111.561,160.000 111.466 C 160.000 111.299,158.554 109.171,158.325 109.000 C 158.263 108.954,158.080 108.654,157.917 108.333 C 157.754 108.013,157.571 107.712,157.512 107.667 C 157.304 107.506,155.915 105.579,155.682 105.128 C 155.552 104.877,155.309 104.524,155.140 104.343 C 154.971 104.162,154.833 103.867,154.833 103.688 C 154.833 103.508,154.770 103.336,154.692 103.306 C 154.472 103.219,153.769 102.028,153.240 100.844 C 152.976 100.254,152.589 99.587,152.380 99.361 C 152.171 99.136,152.000 98.873,152.000 98.778 C 152.000 98.595,151.417 97.256,151.154 96.833 C 151.068 96.696,150.954 96.471,150.900 96.333 C 150.552 95.440,150.355 94.880,149.741 93.043 C 149.519 92.378,149.267 91.703,149.180 91.543 C 149.094 91.382,148.949 90.950,148.860 90.583 C 148.580 89.442,147.643 86.766,147.235 85.945 C 147.106 85.685,147.000 85.296,147.000 85.080 C 147.000 84.863,146.917 84.635,146.814 84.572 C 146.712 84.509,146.482 84.148,146.303 83.770 C 146.123 83.392,145.643 82.521,145.235 81.833 C 144.827 81.146,144.449 80.452,144.394 80.292 C 144.279 79.955,143.349 79.884,143.043 80.190 C 142.818 80.415,132.184 80.270,129.750 80.009 C 128.925 79.920,125.899 79.795,123.026 79.730 C 118.898 79.638,117.784 79.566,117.717 79.390 C 117.655 79.229,117.261 79.167,116.316 79.167 L 115.000 79.167 115.000 79.823 C 115.000 80.938,114.289 80.942,113.778 79.830 L 113.473 79.167 109.663 79.167 C 107.567 79.167,105.814 79.230,105.766 79.307 M210.934 80.068 C 210.983 80.197,210.833 80.604,210.600 80.973 C 210.212 81.588,210.173 81.823,210.130 83.780 C 210.061 86.918,209.611 86.899,207.988 83.692 C 206.936 81.615,206.793 81.684,206.667 84.333 C 206.583 86.086,206.231 86.697,205.674 86.056 C 205.453 85.802,205.747 82.121,206.038 81.500 C 206.188 81.179,206.335 80.767,206.365 80.583 C 206.488 79.827,207.422 80.056,207.858 80.949 C 208.074 81.390,208.294 81.787,208.349 81.833 C 208.404 81.879,208.494 82.104,208.550 82.333 C 208.825 83.457,209.156 83.465,209.161 82.348 C 209.170 80.645,210.499 78.935,210.934 80.068 M218.748 80.327 C 218.805 80.506,218.697 81.170,218.509 81.803 C 218.302 82.498,218.167 83.426,218.167 84.151 C 218.167 85.468,217.848 86.333,217.364 86.333 C 216.905 86.333,215.482 84.787,215.351 84.143 C 215.168 83.249,214.759 83.422,214.705 84.417 C 214.680 84.875,214.590 85.400,214.505 85.583 C 214.420 85.767,214.327 86.067,214.298 86.250 C 214.262 86.480,214.117 86.583,213.831 86.583 C 213.373 86.583,213.120 85.374,213.486 84.933 C 213.692 84.685,213.992 82.743,213.997 81.628 C 214.001 80.490,215.220 80.191,215.540 81.250 C 215.623 81.525,215.750 81.900,215.822 82.083 C 215.894 82.267,216.088 82.847,216.253 83.373 C 216.760 84.991,217.165 85.150,217.173 83.734 C 217.185 81.307,218.296 78.904,218.748 80.327 M200.967 80.533 C 201.077 80.643,201.167 80.898,201.167 81.099 C 201.167 81.300,201.288 81.511,201.437 81.568 C 201.955 81.767,201.683 84.540,201.084 85.166 C 200.457 85.821,199.257 85.885,198.717 85.292 C 197.982 84.485,197.320 82.552,197.695 82.309 C 198.103 82.044,198.580 82.226,198.635 82.667 C 198.781 83.853,199.708 84.995,200.180 84.570 C 200.620 84.174,200.893 82.675,200.586 82.337 C 200.447 82.183,200.333 81.941,200.333 81.799 C 200.333 81.657,200.221 81.447,200.083 81.333 C 199.630 80.957,199.765 80.333,200.300 80.333 C 200.557 80.333,200.857 80.423,200.967 80.533 M226.471 81.060 C 226.511 81.407,226.421 81.606,226.138 81.802 C 225.924 81.949,225.368 82.429,224.901 82.868 C 224.433 83.307,223.920 83.667,223.759 83.667 C 223.287 83.667,223.566 85.528,224.193 86.559 C 224.777 87.520,224.772 88.083,224.178 88.083 C 223.383 88.083,222.698 86.353,222.409 83.616 C 222.330 82.866,222.195 82.520,221.807 82.079 C 221.178 81.362,221.232 80.935,221.960 80.864 C 222.405 80.821,222.528 80.885,222.656 81.223 C 222.742 81.449,222.892 81.683,222.990 81.744 C 223.087 81.804,223.167 82.042,223.167 82.274 C 223.167 82.863,223.127 82.886,225.383 80.961 C 226.037 80.402,226.399 80.435,226.471 81.060 M195.241 81.037 C 195.383 81.241,195.500 81.534,195.500 81.688 C 195.500 81.877,195.599 81.943,195.803 81.889 C 196.540 81.697,196.679 82.821,196.001 83.499 C 195.700 83.800,195.691 83.914,195.871 85.147 C 196.079 86.577,195.954 87.000,195.321 87.000 C 194.836 87.000,194.691 86.518,194.788 85.232 L 194.879 84.035 194.064 84.209 C 192.706 84.499,192.101 84.465,192.027 84.094 C 191.946 83.683,192.421 83.333,193.062 83.333 C 193.336 83.333,193.794 83.249,194.081 83.145 L 194.602 82.956 194.443 82.079 C 194.201 80.744,194.637 80.175,195.241 81.037 M191.200 82.336 C 191.356 82.655,191.607 83.329,191.758 83.833 C 191.908 84.337,192.175 85.065,192.349 85.449 C 192.524 85.834,192.667 86.250,192.667 86.374 C 192.667 86.498,192.748 86.681,192.846 86.780 C 192.945 86.879,193.001 87.175,192.971 87.438 C 192.893 88.128,192.232 88.206,192.000 87.553 C 191.908 87.295,191.758 86.953,191.667 86.794 C 191.575 86.635,191.500 86.410,191.499 86.294 C 191.498 86.178,191.401 85.896,191.281 85.667 C 191.162 85.438,190.965 84.892,190.843 84.454 C 190.721 84.016,190.556 83.618,190.477 83.569 C 190.398 83.520,190.333 83.297,190.333 83.073 C 190.333 82.850,190.258 82.667,190.167 82.667 C 189.925 82.667,189.962 81.877,190.208 81.775 C 190.628 81.602,190.922 81.768,191.200 82.336 " stroke="none" fill="#fb0404" fill-rule="evenodd"></path><path id="path4" d="M156.500 44.083 C 156.811 44.404,157.103 44.667,157.149 44.667 C 157.195 44.667,156.978 44.404,156.667 44.083 C 156.356 43.762,156.064 43.500,156.018 43.500 C 155.972 43.500,156.189 43.762,156.500 44.083 M185.790 46.482 C 185.745 46.655,185.772 46.898,185.851 47.023 C 185.949 47.177,185.996 47.077,185.997 46.708 C 186.000 46.102,185.914 46.007,185.790 46.482 M167.667 50.471 C 167.667 50.547,167.866 50.790,168.110 51.013 L 168.553 51.417 168.162 50.875 C 167.755 50.312,167.667 50.240,167.667 50.471 M169.000 52.083 C 169.593 52.695,169.869 52.868,169.479 52.382 C 169.086 51.894,168.672 51.500,168.551 51.500 C 168.487 51.500,168.689 51.762,169.000 52.083 M104.667 58.379 C 104.667 58.411,104.910 58.616,105.208 58.834 C 105.544 59.079,105.660 59.119,105.514 58.939 C 105.292 58.666,104.667 58.253,104.667 58.379 M251.586 90.620 L 251.293 91.083 251.679 90.713 C 251.891 90.509,252.023 90.301,251.972 90.249 C 251.920 90.198,251.747 90.365,251.586 90.620 " stroke="none" fill="#7c7c7c" fill-rule="evenodd"></path><path id="path5" d="M250.049 76.957 C 250.671 76.989,251.646 76.989,252.215 76.957 C 252.784 76.924,252.275 76.898,251.083 76.898 C 249.892 76.898,249.426 76.925,250.049 76.957 M217.875 77.115 C 218.035 77.157,218.298 77.157,218.458 77.115 C 218.619 77.073,218.487 77.039,218.167 77.039 C 217.846 77.039,217.715 77.073,217.875 77.115 M199.708 77.448 C 199.869 77.490,200.131 77.490,200.292 77.448 C 200.452 77.406,200.321 77.372,200.000 77.372 C 199.679 77.372,199.548 77.406,199.708 77.448 M201.044 77.453 C 201.297 77.491,201.672 77.490,201.877 77.451 C 202.082 77.411,201.875 77.380,201.417 77.381 C 200.958 77.382,200.791 77.415,201.044 77.453 M197.792 77.618 C 197.998 77.657,198.335 77.657,198.542 77.618 C 198.748 77.578,198.579 77.545,198.167 77.545 C 197.754 77.545,197.585 77.578,197.792 77.618 M184.625 78.451 C 184.831 78.491,185.169 78.491,185.375 78.451 C 185.581 78.411,185.412 78.379,185.000 78.379 C 184.588 78.379,184.419 78.411,184.625 78.451 M103.958 79.454 C 104.256 79.491,104.744 79.491,105.042 79.454 C 105.340 79.417,105.096 79.387,104.500 79.387 C 103.904 79.387,103.660 79.417,103.958 79.454 M118.708 79.621 C 119.052 79.657,119.615 79.657,119.958 79.621 C 120.302 79.585,120.021 79.556,119.333 79.556 C 118.646 79.556,118.365 79.585,118.708 79.621 M121.208 79.621 C 121.552 79.657,122.115 79.657,122.458 79.621 C 122.802 79.585,122.521 79.556,121.833 79.556 C 121.146 79.556,120.865 79.585,121.208 79.621 M123.625 79.621 C 123.923 79.658,124.410 79.658,124.708 79.621 C 125.006 79.584,124.763 79.553,124.167 79.553 C 123.571 79.553,123.327 79.584,123.625 79.621 M159.125 79.623 C 159.606 79.657,160.394 79.657,160.875 79.623 C 161.356 79.589,160.962 79.562,160.000 79.562 C 159.037 79.562,158.644 79.589,159.125 79.623 M80.708 79.948 C 80.869 79.990,81.131 79.990,81.292 79.948 C 81.452 79.906,81.321 79.872,81.000 79.872 C 80.679 79.872,80.548 79.906,80.708 79.948 M83.544 79.953 C 83.797 79.991,84.172 79.990,84.377 79.951 C 84.582 79.911,84.375 79.880,83.917 79.881 C 83.458 79.882,83.291 79.915,83.544 79.953 M88.052 79.958 C 89.593 79.986,92.068 79.986,93.552 79.958 C 95.036 79.930,93.775 79.908,90.750 79.908 C 87.725 79.908,86.511 79.931,88.052 79.958 M97.297 79.956 C 97.782 79.990,98.532 79.990,98.964 79.956 C 99.396 79.921,99.000 79.894,98.083 79.894 C 97.167 79.895,96.813 79.923,97.297 79.956 M143.375 79.948 C 143.535 79.990,143.798 79.990,143.958 79.948 C 144.119 79.906,143.987 79.872,143.667 79.872 C 143.346 79.872,143.215 79.906,143.375 79.948 M131.621 80.120 C 131.917 80.157,132.442 80.158,132.788 80.122 C 133.134 80.086,132.892 80.055,132.250 80.055 C 131.608 80.054,131.325 80.083,131.621 80.120 M210.064 83.667 C 210.064 84.813,210.091 85.281,210.123 84.708 C 210.156 84.135,210.156 83.198,210.123 82.625 C 210.091 82.052,210.064 82.521,210.064 83.667 M206.560 84.333 C 206.560 85.204,206.588 85.560,206.623 85.125 C 206.657 84.690,206.657 83.977,206.623 83.542 C 206.588 83.106,206.560 83.462,206.560 84.333 M218.057 84.083 C 218.058 84.817,218.087 85.096,218.122 84.704 C 218.157 84.312,218.157 83.712,218.121 83.371 C 218.085 83.029,218.057 83.350,218.057 84.083 M194.872 85.333 C 194.872 85.654,194.906 85.785,194.948 85.625 C 194.990 85.465,194.990 85.202,194.948 85.042 C 194.906 84.881,194.872 85.012,194.872 85.333 M213.372 85.833 C 213.372 86.154,213.406 86.285,213.448 86.125 C 213.490 85.965,213.490 85.702,213.448 85.542 C 213.406 85.381,213.372 85.513,213.372 85.833 " stroke="none" fill="#9a0404" fill-rule="evenodd"></path><path id="path6" d="" stroke="none" fill="#d40404" fill-rule="evenodd"></path><path id="path7" d="M200.906 85.208 L 200.417 85.750 200.958 85.260 C 201.256 84.991,201.500 84.748,201.500 84.719 C 201.500 84.590,201.362 84.703,200.906 85.208 M241.917 102.271 C 241.617 102.526,241.556 102.627,241.764 102.524 C 242.069 102.372,242.642 101.824,242.479 101.839 C 242.445 101.843,242.192 102.037,241.917 102.271 " stroke="none" fill="#dc443c" fill-rule="evenodd"></path><path id="path8" d="" stroke="none" fill="#dc0440" fill-rule="evenodd"></path></g></svg>