<svg id="svg" version="1.1" xmlns="http://www.w3.org/2000/svg" xmlns:xlink="http://www.w3.org/1999/xlink" width="400" height="120" viewBox="0, 0, 400,120"><g id="svgg"><path id="path0" d="M342.750 34.333 C 342.692 34.428,341.874 34.500,340.865 34.499 C 336.215 34.498,329.592 34.867,328.917 35.165 C 328.550 35.327,327.973 35.557,327.634 35.676 C 326.909 35.932,326.430 36.521,326.175 37.469 C 326.074 37.845,325.918 38.198,325.829 38.253 C 325.580 38.407,325.638 40.025,325.911 40.549 C 326.045 40.805,326.206 41.288,326.268 41.622 C 326.331 41.957,326.531 42.483,326.713 42.791 L 327.043 43.351 327.355 42.838 C 327.526 42.556,327.667 42.267,327.667 42.195 C 327.667 42.007,329.510 40.288,329.607 40.385 C 329.652 40.430,330.148 40.287,330.709 40.067 C 331.271 39.847,331.847 39.665,331.990 39.663 C 332.133 39.661,332.438 39.513,332.667 39.333 C 333.217 38.903,334.581 39.026,335.108 39.552 C 335.171 39.615,335.332 39.667,335.466 39.667 C 335.600 39.667,336.000 39.929,336.355 40.250 C 336.710 40.571,337.110 40.833,337.242 40.833 C 337.375 40.833,337.543 40.930,337.617 41.048 C 337.781 41.313,340.468 43.333,340.656 43.333 C 340.844 43.333,341.999 44.708,341.999 44.933 C 342.000 45.033,342.150 45.251,342.333 45.417 C 342.517 45.583,342.667 45.810,342.667 45.922 C 342.667 46.034,342.779 46.219,342.917 46.333 C 343.204 46.571,343.294 51.901,343.015 52.074 C 342.931 52.126,342.812 52.467,342.750 52.833 C 342.617 53.622,342.059 54.833,341.829 54.833 C 341.740 54.833,341.667 54.909,341.667 55.001 C 341.667 55.348,340.768 56.167,340.387 56.167 C 340.172 56.167,339.865 56.236,339.706 56.321 C 339.547 56.407,337.954 56.559,336.167 56.659 C 334.379 56.760,332.892 56.915,332.861 57.004 C 332.831 57.094,332.333 57.167,331.756 57.167 C 330.846 57.167,330.694 57.211,330.618 57.500 C 330.465 58.086,323.627 57.897,322.432 57.273 C 322.165 57.134,321.667 56.973,321.326 56.915 C 320.818 56.830,320.404 56.503,319.061 55.128 C 316.294 52.295,315.609 51.649,314.917 51.210 C 314.550 50.978,314.038 50.536,313.780 50.227 C 313.521 49.919,313.165 49.667,312.988 49.667 C 312.811 49.667,312.667 49.605,312.667 49.530 C 312.667 49.454,312.348 49.226,311.958 49.023 C 311.136 48.595,310.746 48.370,310.163 47.988 C 309.933 47.837,309.558 47.657,309.330 47.587 C 309.103 47.517,308.804 47.369,308.667 47.257 C 308.529 47.145,307.967 46.885,307.417 46.680 C 306.867 46.475,306.295 46.243,306.146 46.165 C 305.996 46.087,305.608 45.973,305.282 45.912 C 304.956 45.851,304.649 45.695,304.600 45.567 C 304.530 45.385,304.079 45.334,302.547 45.336 C 300.618 45.338,300.242 45.410,298.797 46.056 C 298.456 46.209,298.100 46.333,298.005 46.333 C 297.911 46.333,297.833 46.392,297.833 46.464 C 297.833 46.535,297.501 46.692,297.096 46.812 C 296.690 46.931,296.222 47.181,296.054 47.366 C 295.887 47.552,295.319 47.921,294.792 48.187 C 294.265 48.454,293.833 48.783,293.833 48.919 C 293.833 49.055,293.737 49.167,293.619 49.167 C 293.501 49.167,293.144 49.389,292.827 49.660 C 292.510 49.931,292.164 50.156,292.059 50.160 C 291.955 50.164,291.824 50.284,291.769 50.427 C 291.714 50.571,291.604 50.648,291.526 50.599 C 291.447 50.550,291.298 50.696,291.195 50.922 C 291.092 51.148,290.893 51.333,290.754 51.333 C 290.614 51.333,290.500 51.435,290.500 51.558 C 290.500 51.682,290.144 52.015,289.708 52.297 C 288.270 53.230,287.074 54.092,286.701 54.466 C 286.499 54.668,286.196 54.833,286.028 54.833 C 285.860 54.833,285.666 54.890,285.597 54.958 C 285.528 55.027,285.422 55.090,285.361 55.097 C 285.300 55.105,285.039 55.199,284.781 55.306 C 284.523 55.413,284.278 55.500,284.237 55.500 C 284.196 55.500,283.845 55.643,283.457 55.819 C 283.068 55.994,282.470 56.225,282.127 56.331 C 281.785 56.437,281.462 56.594,281.409 56.679 C 281.357 56.764,281.072 56.833,280.777 56.833 C 280.482 56.833,280.093 56.936,279.912 57.062 C 279.731 57.188,279.337 57.344,279.037 57.410 C 278.736 57.475,278.061 57.747,277.537 58.015 C 277.012 58.282,276.302 58.548,275.958 58.605 C 275.590 58.666,275.333 58.803,275.333 58.938 C 275.333 59.254,274.266 59.237,274.000 58.917 C 273.886 58.779,273.687 58.667,273.559 58.667 C 273.430 58.667,273.248 58.465,273.155 58.219 C 273.061 57.972,272.838 57.668,272.659 57.542 C 272.297 57.289,272.161 54.460,272.500 54.250 C 272.592 54.193,272.667 53.941,272.667 53.688 C 272.667 53.436,272.828 52.896,273.026 52.490 C 273.224 52.083,273.385 51.637,273.385 51.500 C 273.384 51.362,273.464 51.198,273.562 51.134 C 274.261 50.680,272.937 51.043,272.167 51.517 C 271.520 51.915,270.430 52.333,270.041 52.333 C 269.804 52.333,269.491 52.436,269.346 52.562 C 269.202 52.688,268.633 53.033,268.083 53.330 C 267.533 53.627,267.000 53.974,266.898 54.102 C 266.797 54.229,266.633 54.333,266.535 54.333 C 266.436 54.333,266.307 54.488,266.247 54.676 C 266.187 54.865,265.959 55.087,265.740 55.170 C 265.511 55.258,265.294 55.515,265.228 55.780 C 265.164 56.032,264.975 56.387,264.806 56.568 C 264.638 56.748,264.500 56.964,264.500 57.046 C 264.500 57.347,260.759 61.167,260.465 61.167 C 260.384 61.167,259.757 61.429,259.072 61.750 C 258.387 62.071,257.715 62.333,257.580 62.333 C 257.444 62.333,257.333 62.399,257.333 62.479 C 257.333 62.559,256.948 62.661,256.477 62.706 C 255.924 62.760,255.568 62.885,255.469 63.061 C 255.306 63.352,253.766 63.463,253.601 63.195 C 253.554 63.119,252.968 62.961,252.299 62.845 C 251.630 62.729,250.933 62.568,250.750 62.487 C 250.567 62.407,249.878 62.196,249.219 62.018 C 247.784 61.630,246.438 60.758,244.970 59.266 C 243.938 58.217,243.661 57.855,243.221 56.985 C 243.101 56.748,242.852 56.418,242.668 56.251 C 242.484 56.085,242.333 55.872,242.333 55.778 C 242.333 55.570,241.403 54.175,240.148 52.500 C 238.768 50.658,236.532 48.667,235.846 48.667 C 235.758 48.667,235.666 50.115,235.632 52.042 C 235.572 55.467,235.322 56.761,234.642 57.182 C 234.548 57.240,234.481 57.336,234.492 57.395 C 234.561 57.761,234.024 58.986,233.632 59.359 C 233.376 59.602,233.167 59.867,233.167 59.949 C 233.167 60.031,232.773 60.395,232.292 60.757 C 231.810 61.120,231.392 61.473,231.361 61.543 C 231.330 61.612,231.236 61.626,231.152 61.575 C 231.069 61.523,231.000 61.556,231.000 61.649 C 231.000 61.742,230.719 61.942,230.375 62.093 C 230.031 62.244,229.430 62.523,229.039 62.712 C 228.647 62.901,228.216 63.056,228.080 63.056 C 227.944 63.056,227.833 63.118,227.833 63.194 C 227.833 63.271,227.695 63.333,227.526 63.333 C 227.357 63.333,227.090 63.475,226.934 63.648 C 226.778 63.820,226.426 64.006,226.153 64.061 C 224.872 64.317,223.833 64.706,223.833 64.928 C 223.833 65.115,223.548 65.167,222.526 65.167 C 221.312 65.167,220.834 65.049,219.799 64.492 C 219.643 64.408,219.193 64.289,218.799 64.228 C 216.721 63.904,213.163 61.432,212.260 59.686 C 212.112 59.400,211.935 59.167,211.866 59.167 C 211.796 59.167,211.651 58.960,211.542 58.708 C 211.341 58.241,211.066 57.765,210.315 56.583 C 209.910 55.944,209.572 55.318,208.900 53.958 C 208.730 53.615,208.533 53.333,208.462 53.333 C 208.391 53.333,208.333 53.225,208.333 53.093 C 208.333 52.822,207.212 50.961,206.376 49.844 C 206.071 49.437,205.860 49.005,205.906 48.885 C 205.952 48.765,205.901 48.667,205.793 48.667 C 205.685 48.667,205.209 48.251,204.736 47.743 L 203.876 46.818 203.239 47.118 C 202.888 47.282,202.418 47.585,202.193 47.792 C 201.969 47.998,201.700 48.167,201.596 48.167 C 201.492 48.167,201.176 48.373,200.893 48.625 C 200.251 49.196,199.934 49.407,199.050 49.847 C 198.665 50.039,198.263 50.301,198.156 50.429 C 198.050 50.558,197.896 50.622,197.814 50.572 C 197.733 50.521,197.667 50.552,197.667 50.640 C 197.667 50.728,196.654 51.298,195.417 51.908 C 194.179 52.517,193.167 53.078,193.167 53.156 C 193.167 53.233,192.912 53.344,192.600 53.403 C 192.288 53.461,191.945 53.616,191.836 53.747 C 191.493 54.160,190.208 54.833,189.762 54.833 C 189.526 54.833,189.333 54.908,189.333 55.000 C 189.333 55.092,189.186 55.167,189.006 55.167 C 188.826 55.167,188.598 55.317,188.500 55.500 C 188.402 55.683,188.226 55.833,188.109 55.833 C 187.992 55.833,187.376 56.090,186.740 56.403 C 186.104 56.716,185.383 57.023,185.137 57.085 C 184.892 57.146,184.647 57.310,184.594 57.449 C 184.541 57.588,184.391 57.660,184.261 57.611 C 184.131 57.561,183.935 57.628,183.825 57.760 C 183.716 57.892,183.493 58.000,183.331 58.000 C 183.168 58.000,182.992 58.112,182.940 58.250 C 182.887 58.387,182.702 58.500,182.528 58.500 C 182.354 58.500,182.027 58.645,181.801 58.823 C 181.575 59.001,181.195 59.195,180.957 59.255 C 180.719 59.314,180.484 59.469,180.434 59.598 C 180.384 59.728,180.226 59.833,180.083 59.833 C 179.774 59.833,178.973 60.319,178.783 60.621 C 178.710 60.738,178.513 60.833,178.345 60.833 C 178.178 60.833,177.947 60.946,177.833 61.083 C 177.719 61.221,177.448 61.333,177.230 61.333 C 177.012 61.333,176.833 61.408,176.833 61.500 C 176.833 61.592,176.717 61.667,176.576 61.667 C 176.434 61.667,176.115 61.873,175.867 62.125 C 175.620 62.377,175.342 62.587,175.250 62.591 C 174.926 62.605,173.671 63.505,173.402 63.916 C 172.868 64.731,172.606 64.483,171.336 61.958 C 170.679 60.652,170.035 59.465,169.904 59.320 C 169.774 59.175,169.667 58.969,169.667 58.862 C 169.667 58.755,169.604 58.667,169.528 58.667 C 169.452 58.667,168.946 58.271,168.403 57.787 C 166.742 56.306,166.761 56.313,165.652 56.867 C 165.128 57.129,164.608 57.453,164.496 57.588 C 164.384 57.723,164.201 57.833,164.089 57.833 C 163.977 57.833,163.749 57.983,163.583 58.167 C 163.417 58.350,163.143 58.500,162.974 58.500 C 162.805 58.500,162.667 58.578,162.667 58.673 C 162.667 58.768,162.348 58.993,161.958 59.173 C 161.569 59.354,161.025 59.651,160.750 59.832 C 160.475 60.014,160.137 60.207,160.000 60.260 C 159.862 60.314,159.620 60.427,159.461 60.512 C 159.301 60.597,159.050 60.667,158.903 60.667 C 158.666 60.667,158.104 60.914,157.333 61.358 C 157.196 61.437,156.971 61.546,156.833 61.600 C 156.143 61.869,155.855 62.066,155.789 62.317 C 155.743 62.493,155.514 62.606,155.150 62.631 C 154.805 62.655,154.494 62.800,154.355 63.002 C 154.229 63.184,154.025 63.333,153.902 63.333 C 153.779 63.333,153.601 63.477,153.507 63.653 C 153.413 63.829,153.103 64.024,152.817 64.087 C 152.491 64.158,152.196 64.380,152.024 64.683 C 151.828 65.027,151.621 65.165,151.300 65.166 C 151.052 65.166,150.790 65.262,150.717 65.379 C 150.528 65.679,149.727 66.167,149.423 66.167 C 149.282 66.167,149.167 66.241,149.167 66.331 C 149.167 66.496,148.088 67.052,147.723 67.075 C 147.617 67.082,147.375 67.228,147.186 67.399 C 146.780 67.767,142.502 67.736,142.129 67.362 C 142.021 67.255,141.738 67.167,141.500 67.167 C 141.262 67.167,140.995 67.105,140.908 67.030 C 140.821 66.955,140.351 66.797,139.864 66.679 C 138.987 66.466,138.551 66.273,137.583 65.670 C 137.308 65.498,136.962 65.352,136.814 65.346 C 136.523 65.332,135.333 63.909,135.333 63.574 C 135.333 63.461,135.221 63.326,135.083 63.273 C 134.946 63.220,134.833 63.070,134.833 62.940 C 134.833 62.809,134.721 62.659,134.583 62.606 C 134.446 62.554,134.333 62.404,134.333 62.273 C 134.333 62.142,134.220 61.992,134.081 61.939 C 133.838 61.846,133.417 61.051,133.473 60.792 C 133.488 60.723,133.423 60.667,133.330 60.667 C 133.128 60.667,130.833 58.388,130.833 58.188 C 130.833 58.111,130.628 57.831,130.376 57.566 C 129.876 57.038,129.563 56.576,129.400 56.125 C 129.342 55.965,129.209 55.833,129.106 55.833 C 128.891 55.833,128.035 54.813,127.963 54.474 C 127.938 54.351,127.779 54.147,127.611 54.022 C 127.429 53.887,127.338 53.666,127.387 53.479 C 127.436 53.290,127.347 53.078,127.163 52.950 C 126.995 52.832,126.804 52.513,126.740 52.243 C 126.676 51.972,126.502 51.600,126.353 51.417 C 125.934 50.899,125.667 50.366,125.665 50.044 C 125.663 49.882,125.251 50.384,124.748 51.159 C 124.245 51.935,123.833 52.633,123.833 52.712 C 123.833 52.791,123.658 53.094,123.443 53.386 C 123.229 53.678,122.890 54.240,122.690 54.636 C 121.975 56.054,118.294 60.057,117.530 60.248 C 117.284 60.310,116.949 60.504,116.785 60.680 C 116.621 60.856,116.389 61.000,116.269 61.000 C 116.150 61.000,115.916 61.150,115.750 61.333 C 115.584 61.517,115.373 61.667,115.281 61.667 C 115.189 61.667,114.732 61.956,114.265 62.310 C 113.799 62.663,113.177 63.055,112.885 63.179 C 112.593 63.304,112.320 63.531,112.280 63.684 C 112.230 63.877,111.945 63.999,111.353 64.081 C 110.883 64.145,110.443 64.293,110.374 64.408 C 110.241 64.632,109.526 65.071,109.250 65.098 C 108.818 65.139,108.063 65.415,107.369 65.784 C 106.949 66.007,106.481 66.157,106.329 66.117 C 106.177 66.077,105.772 66.181,105.430 66.347 C 105.088 66.514,104.457 66.696,104.029 66.753 C 103.601 66.810,103.100 66.917,102.917 66.991 C 102.360 67.216,100.611 67.500,99.782 67.500 C 99.308 67.500,99.000 67.575,99.000 67.690 C 99.000 67.942,89.116 67.801,88.799 67.545 C 88.680 67.449,87.946 67.315,87.168 67.248 C 86.201 67.164,85.673 67.039,85.501 66.854 C 85.363 66.705,85.071 66.564,84.851 66.539 C 84.632 66.515,84.291 66.403,84.093 66.289 C 83.042 65.687,82.566 65.373,82.078 64.958 C 81.782 64.706,81.471 64.500,81.388 64.500 C 81.304 64.500,80.905 64.162,80.500 63.750 C 80.095 63.337,79.681 63.000,79.580 63.000 C 79.479 63.000,79.219 62.756,79.002 62.458 C 78.785 62.160,78.509 61.857,78.387 61.783 C 77.963 61.527,78.097 59.009,78.581 58.151 C 78.808 57.747,79.069 57.247,79.161 57.039 C 79.490 56.291,80.061 55.680,80.524 55.578 C 80.784 55.521,81.039 55.405,81.091 55.321 C 81.144 55.236,81.440 55.167,81.750 55.167 C 82.060 55.167,82.362 55.089,82.420 54.994 C 82.479 54.899,82.840 54.825,83.222 54.830 C 83.604 54.835,84.554 54.768,85.333 54.682 C 86.112 54.597,87.279 54.521,87.925 54.513 C 88.571 54.506,89.172 54.428,89.261 54.339 C 89.349 54.251,90.170 54.127,91.086 54.062 C 92.153 53.988,92.931 53.844,93.256 53.663 C 93.534 53.507,94.336 53.325,95.038 53.260 C 97.257 53.052,97.234 52.633,94.978 52.149 C 92.363 51.588,92.001 51.539,89.520 51.411 C 87.380 51.302,87.115 51.255,87.042 50.978 C 86.914 50.487,78.630 50.507,78.000 51.000 C 77.771 51.179,77.464 51.328,77.317 51.330 C 76.961 51.335,76.084 51.781,75.830 52.087 C 75.718 52.222,75.525 52.333,75.402 52.333 C 75.279 52.333,75.104 52.473,75.012 52.644 C 74.921 52.815,74.621 53.048,74.345 53.162 C 74.070 53.276,73.799 53.512,73.744 53.686 C 73.688 53.861,73.435 54.111,73.181 54.242 C 72.928 54.374,72.539 54.671,72.318 54.904 C 72.097 55.137,71.842 55.330,71.750 55.333 C 71.658 55.336,71.225 55.675,70.787 56.086 C 70.349 56.497,69.917 56.833,69.828 56.833 C 69.739 56.833,69.667 56.903,69.667 56.988 C 69.667 57.137,68.255 58.167,68.050 58.167 C 67.996 58.167,67.643 58.412,67.267 58.713 C 66.891 59.013,66.298 59.406,65.949 59.588 C 65.600 59.769,64.938 60.201,64.478 60.548 C 64.019 60.896,63.404 61.220,63.113 61.270 C 62.822 61.320,62.433 61.421,62.250 61.495 C 61.632 61.745,60.548 62.000,60.103 62.000 C 59.861 62.000,59.532 62.066,59.373 62.147 C 58.550 62.566,58.100 62.668,56.417 62.816 C 54.181 63.013,52.490 63.392,52.295 63.740 C 52.215 63.883,52.027 64.000,51.876 64.000 C 51.492 64.000,50.333 64.831,50.333 65.106 C 50.333 65.506,49.597 65.349,49.124 64.848 C 48.873 64.582,48.667 64.297,48.667 64.215 C 48.667 64.134,48.360 63.771,47.986 63.409 C 47.611 63.046,47.162 62.473,46.987 62.134 C 46.812 61.795,46.370 61.277,46.004 60.983 C 45.639 60.690,45.294 60.306,45.239 60.132 C 45.183 59.957,44.950 59.743,44.720 59.655 C 44.489 59.568,44.265 59.366,44.220 59.206 C 44.175 59.047,43.842 58.692,43.479 58.417 C 43.117 58.142,42.654 57.754,42.452 57.556 C 41.520 56.644,40.357 56.796,40.335 57.833 C 40.330 58.063,40.179 58.438,40.000 58.667 C 39.821 58.896,39.672 59.178,39.670 59.294 C 39.668 59.410,39.597 59.635,39.512 59.794 C 39.427 59.953,39.188 60.458,38.982 60.917 C 38.775 61.375,38.553 61.788,38.487 61.833 C 38.422 61.879,38.192 62.268,37.976 62.697 C 36.683 65.268,36.451 65.660,36.172 65.748 C 36.003 65.802,35.825 65.947,35.778 66.071 C 35.629 66.460,32.955 68.588,32.083 69.012 C 31.625 69.234,31.171 69.518,31.074 69.641 C 30.931 69.823,29.893 69.854,25.574 69.804 C 19.096 69.730,19.349 69.809,18.153 67.500 C 17.844 66.904,17.545 66.379,17.488 66.333 C 17.431 66.287,17.331 66.025,17.266 65.750 C 17.200 65.475,16.963 64.970,16.740 64.629 C 16.516 64.287,16.333 63.817,16.333 63.585 C 16.333 63.352,16.267 63.032,16.185 62.873 C 15.728 61.983,15.313 60.916,14.904 59.583 C 14.650 58.758,14.391 58.008,14.328 57.917 C 14.265 57.825,14.051 57.188,13.854 56.500 C 13.531 55.374,13.252 54.647,12.815 53.794 C 12.733 53.635,12.667 53.399,12.667 53.270 C 12.667 53.141,12.554 52.992,12.417 52.940 C 12.279 52.887,12.164 52.710,12.161 52.547 C 12.148 51.820,11.756 51.654,11.323 52.191 C 11.099 52.468,10.706 52.932,10.449 53.222 C 10.192 53.513,9.908 53.900,9.817 54.083 C 9.566 54.592,9.272 55.069,9.044 55.339 C 8.370 56.139,8.032 56.625,7.933 56.943 C 7.871 57.141,7.711 57.394,7.577 57.505 C 7.443 57.617,7.333 57.837,7.333 57.995 C 7.333 58.152,7.183 58.417,7.000 58.583 C 6.817 58.749,6.667 58.941,6.667 59.009 C 6.667 59.077,6.367 59.626,6.000 60.230 C 5.633 60.833,5.333 61.432,5.333 61.560 C 5.333 61.688,5.221 61.886,5.083 62.000 C 4.946 62.114,4.833 62.300,4.833 62.412 C 4.833 62.525,4.627 62.909,4.374 63.267 C 4.121 63.624,3.809 64.123,3.679 64.375 C 3.550 64.627,3.381 64.833,3.305 64.833 C 3.229 64.833,3.167 64.942,3.167 65.074 C 3.167 65.206,3.000 65.431,2.796 65.574 C 2.593 65.717,2.494 65.833,2.578 65.833 C 2.661 65.833,2.574 65.978,2.384 66.155 C 2.194 66.332,1.793 66.857,1.491 67.322 C 1.190 67.786,0.861 68.167,0.759 68.167 C -0.036 68.167,0.000 66.908,0.000 94.419 L 0.000 120.000 200.000 120.000 L 400.000 120.000 400.000 90.625 L 399.999 61.250 399.208 60.727 C 398.203 60.063,397.368 59.667,396.974 59.667 C 396.805 59.667,396.667 59.592,396.667 59.500 C 396.667 59.408,396.571 59.333,396.454 59.333 C 396.337 59.333,396.112 59.183,395.955 59.000 C 395.798 58.817,395.557 58.667,395.418 58.667 C 395.280 58.667,395.167 58.593,395.167 58.504 C 395.167 58.414,394.754 57.934,394.250 57.438 C 393.746 56.942,393.333 56.460,393.333 56.367 C 393.333 56.273,392.992 55.778,392.574 55.265 C 392.157 54.753,391.856 54.333,391.906 54.333 C 392.145 54.333,389.759 51.861,388.530 50.835 C 388.147 50.515,387.833 50.168,387.833 50.063 C 387.833 49.959,387.717 49.777,387.574 49.659 C 387.431 49.540,387.217 49.212,387.098 48.930 C 386.980 48.648,386.665 48.182,386.400 47.895 C 386.134 47.609,385.775 47.106,385.603 46.778 C 385.430 46.450,385.149 46.032,384.978 45.848 C 384.807 45.664,384.667 45.473,384.667 45.424 C 384.667 45.374,384.535 45.197,384.375 45.030 C 384.215 44.863,383.859 44.450,383.584 44.113 C 382.897 43.269,382.898 43.268,382.770 45.367 C 382.693 46.644,382.579 47.321,382.412 47.506 C 382.096 47.854,382.095 48.604,382.411 48.725 C 382.625 48.807,382.625 48.876,382.412 49.284 C 382.278 49.540,382.168 49.832,382.168 49.933 C 382.167 50.033,382.017 50.251,381.833 50.417 C 381.650 50.583,381.500 50.785,381.500 50.865 C 381.500 51.007,380.515 51.993,379.551 52.816 C 378.954 53.326,377.096 54.333,376.752 54.333 C 376.608 54.333,376.446 54.446,376.394 54.583 C 376.286 54.864,374.196 54.952,373.908 54.688 C 373.821 54.608,372.984 54.459,372.049 54.356 C 369.125 54.035,366.140 51.779,365.210 49.187 C 365.156 49.038,365.012 48.804,364.890 48.667 C 364.382 48.095,363.529 46.855,363.430 46.544 C 363.372 46.359,363.065 45.942,362.749 45.616 C 362.433 45.290,362.015 44.718,361.820 44.345 C 361.626 43.972,361.407 43.667,361.335 43.667 C 361.262 43.667,361.160 43.498,361.108 43.292 C 361.056 43.085,360.710 42.730,360.340 42.502 C 359.970 42.274,359.667 42.031,359.667 41.961 C 359.667 41.891,359.566 41.833,359.442 41.833 C 359.319 41.833,359.083 41.683,358.917 41.500 C 358.751 41.317,358.514 41.167,358.391 41.167 C 358.268 41.167,358.167 41.095,358.167 41.008 C 358.167 40.920,357.897 40.721,357.568 40.565 C 357.239 40.409,356.931 40.180,356.884 40.057 C 356.836 39.934,356.696 39.833,356.571 39.833 C 356.447 39.833,356.098 39.617,355.797 39.352 C 355.495 39.087,354.949 38.708,354.583 38.510 C 353.871 38.125,353.872 38.125,352.539 37.346 C 352.057 37.064,351.556 36.833,351.426 36.833 C 351.297 36.833,351.039 36.640,350.854 36.405 C 350.495 35.949,348.445 34.835,347.963 34.834 C 347.806 34.834,347.410 34.683,347.083 34.500 C 346.426 34.131,342.957 33.998,342.750 34.333 M349.954 34.846 C 350.157 35.058,350.366 35.190,350.417 35.138 C 350.468 35.087,350.302 34.913,350.047 34.752 L 349.583 34.460 349.954 34.846 M326.166 35.708 C 325.921 36.044,325.881 36.160,326.061 36.014 C 326.334 35.792,326.747 35.167,326.621 35.167 C 326.589 35.167,326.384 35.410,326.166 35.708 M355.417 38.133 C 355.692 38.421,355.977 38.659,356.052 38.662 C 356.281 38.670,356.015 38.366,355.453 37.978 L 354.917 37.608 355.417 38.133 M340.714 44.717 C 340.917 44.928,341.114 45.078,341.152 45.051 C 341.249 44.981,340.643 44.333,340.480 44.333 C 340.406 44.333,340.511 44.506,340.714 44.717 M363.167 44.891 C 363.167 44.941,363.354 45.185,363.583 45.432 C 363.813 45.680,363.999 45.815,363.997 45.733 C 363.994 45.574,363.167 44.735,363.167 44.891 M364.833 47.250 C 365.049 47.479,365.253 47.667,365.287 47.667 C 365.425 47.667,364.738 46.843,364.596 46.839 C 364.511 46.836,364.618 47.021,364.833 47.250 M386.500 47.052 C 386.500 47.081,386.725 47.320,387.000 47.583 C 387.601 48.160,387.665 48.060,387.091 47.441 C 386.728 47.049,386.500 46.899,386.500 47.052 M293.667 47.951 L 293.250 48.382 293.792 48.013 C 294.323 47.651,294.456 47.490,294.208 47.510 C 294.140 47.516,293.896 47.714,293.667 47.951 M388.333 49.542 C 388.333 49.570,388.596 49.841,388.917 50.143 C 389.237 50.446,389.459 50.586,389.409 50.456 C 389.329 50.249,388.333 49.402,388.333 49.542 M380.740 50.445 C 380.483 50.782,380.358 51.004,380.462 50.940 C 380.675 50.808,381.397 49.833,381.281 49.833 C 381.240 49.833,380.996 50.109,380.740 50.445 M87.341 50.348 C 87.443 50.539,87.560 50.662,87.601 50.621 C 87.717 50.505,87.481 50.000,87.310 50.000 C 87.224 50.000,87.239 50.156,87.341 50.348 M239.167 50.052 C 239.167 50.081,239.410 50.325,239.708 50.594 L 240.250 51.083 239.760 50.542 C 239.304 50.037,239.167 49.923,239.167 50.052 M367.004 50.583 C 367.387 51.123,368.501 52.337,368.492 52.205 C 368.488 52.138,368.099 51.671,367.626 51.167 C 367.154 50.663,366.874 50.400,367.004 50.583 M390.126 51.083 C 390.225 51.267,390.628 51.717,391.021 52.083 C 391.828 52.838,391.580 52.455,390.597 51.430 C 390.238 51.056,390.026 50.900,390.126 51.083 M316.662 51.579 C 317.321 52.358,318.334 53.334,318.332 53.186 C 318.331 53.130,317.829 52.596,317.216 52.000 C 316.604 51.404,316.354 51.215,316.662 51.579 M240.417 51.591 C 241.367 52.593,241.514 52.700,240.923 51.958 C 240.577 51.523,240.231 51.167,240.154 51.167 C 240.078 51.167,240.196 51.357,240.417 51.591 M74.718 51.736 C 74.460 51.957,74.287 52.165,74.333 52.197 C 74.379 52.230,74.632 52.049,74.896 51.795 C 75.486 51.227,75.358 51.185,74.718 51.736 M378.851 52.175 C 378.545 52.455,378.327 52.716,378.367 52.756 C 378.407 52.796,378.693 52.567,379.002 52.248 C 379.697 51.531,379.604 51.487,378.851 52.175 M73.439 52.764 C 73.176 52.995,72.994 53.217,73.035 53.257 C 73.075 53.297,73.322 53.106,73.585 52.832 C 74.165 52.226,74.090 52.191,73.439 52.764 M122.614 53.014 C 122.356 53.373,122.179 53.667,122.219 53.667 C 122.334 53.667,123.208 52.486,123.142 52.420 C 123.110 52.388,122.872 52.655,122.614 53.014 M127.750 52.667 C 127.916 52.850,128.080 53.000,128.115 53.000 C 128.150 53.000,128.098 52.850,128.000 52.667 C 127.902 52.483,127.738 52.333,127.635 52.333 C 127.532 52.333,127.584 52.483,127.750 52.667 M191.234 53.192 L 190.917 53.552 191.375 53.257 C 191.848 52.952,191.937 52.833,191.692 52.833 C 191.615 52.833,191.409 52.995,191.234 53.192 M71.718 54.262 L 71.250 54.691 71.792 54.314 C 72.090 54.107,72.333 53.914,72.333 53.885 C 72.333 53.754,72.149 53.867,71.718 54.262 M209.833 54.294 C 209.833 54.485,210.286 55.000,210.454 55.000 C 210.508 55.000,210.410 54.831,210.236 54.625 C 210.062 54.419,209.901 54.219,209.877 54.181 C 209.853 54.142,209.833 54.193,209.833 54.294 M8.396 54.708 C 7.904 55.270,7.617 55.667,7.702 55.667 C 7.743 55.667,8.019 55.367,8.313 55.000 C 8.885 54.288,8.943 54.084,8.396 54.708 M320.167 55.227 C 320.167 55.273,320.392 55.471,320.667 55.667 C 320.942 55.862,321.167 55.985,321.167 55.939 C 321.167 55.894,320.942 55.696,320.667 55.500 C 320.392 55.304,320.167 55.181,320.167 55.227 M69.833 55.718 C 69.696 55.833,69.397 56.149,69.169 56.421 C 68.866 56.784,68.954 56.738,69.500 56.250 C 69.910 55.883,70.277 55.565,70.317 55.542 C 70.356 55.519,70.320 55.502,70.236 55.505 C 70.152 55.508,69.971 55.604,69.833 55.718 M120.833 55.827 C 120.256 56.452,120.147 56.709,120.669 56.214 C 120.979 55.919,121.199 55.650,121.158 55.616 C 121.117 55.583,120.971 55.678,120.833 55.827 M243.293 55.856 C 244.087 56.829,244.294 57.004,243.809 56.292 C 243.512 55.856,243.209 55.500,243.136 55.500 C 243.063 55.500,243.134 55.660,243.293 55.856 M130.916 57.213 C 131.171 57.559,131.422 57.800,131.473 57.749 C 131.524 57.698,131.316 57.415,131.009 57.120 L 130.452 56.583 130.916 57.213 M117.681 59.064 L 117.279 59.583 117.755 59.130 C 118.018 58.881,118.199 58.647,118.158 58.610 C 118.117 58.574,117.902 58.778,117.681 59.064 M245.667 58.777 C 245.667 58.867,245.873 59.124,246.125 59.346 L 246.583 59.750 246.167 59.250 C 245.938 58.975,245.731 58.719,245.708 58.681 C 245.685 58.642,245.667 58.686,245.667 58.777 M260.690 59.839 C 260.173 60.269,260.406 60.264,260.955 59.833 C 261.188 59.650,261.312 59.502,261.231 59.506 C 261.150 59.509,260.906 59.659,260.690 59.839 M213.839 60.446 C 213.844 60.600,214.662 61.232,214.739 61.141 C 214.767 61.109,214.574 60.909,214.311 60.696 C 214.048 60.482,213.836 60.370,213.839 60.446 M215.417 61.833 C 215.763 62.108,216.092 62.331,216.148 62.329 C 216.303 62.322,215.105 61.343,214.935 61.338 C 214.854 61.335,215.071 61.558,215.417 61.833 M48.667 62.943 C 48.667 63.037,48.817 63.251,49.000 63.417 C 49.183 63.583,49.333 63.666,49.333 63.602 C 49.333 63.538,49.183 63.325,49.000 63.128 C 48.817 62.931,48.667 62.848,48.667 62.943 M2.784 64.208 C 2.644 64.415,2.302 64.827,2.024 65.125 C 1.746 65.423,1.574 65.667,1.641 65.667 C 1.758 65.667,2.806 64.468,3.062 64.042 C 3.279 63.679,3.050 63.817,2.784 64.208 M49.511 64.096 C 49.610 64.216,49.798 64.272,49.929 64.222 C 50.260 64.095,50.229 64.051,49.749 63.959 C 49.419 63.896,49.369 63.925,49.511 64.096 M82.256 64.207 C 82.352 64.457,83.003 64.900,82.995 64.710 C 82.992 64.640,82.806 64.450,82.581 64.286 C 82.324 64.099,82.204 64.070,82.256 64.207 M150.583 64.461 C 150.492 64.528,150.306 64.733,150.172 64.917 C 149.991 65.163,150.045 65.144,150.380 64.846 C 150.788 64.482,150.912 64.329,150.792 64.336 C 150.769 64.337,150.675 64.394,150.583 64.461 M0.810 66.708 C 0.540 67.093,0.515 67.181,0.724 67.014 C 1.021 66.775,1.411 66.167,1.267 66.167 C 1.224 66.167,1.018 66.410,0.810 66.708 M33.289 67.167 C 33.132 67.350,33.066 67.500,33.142 67.500 C 33.219 67.500,33.417 67.350,33.583 67.167 C 33.749 66.983,33.815 66.833,33.730 66.833 C 33.644 66.833,33.446 66.983,33.289 67.167 " stroke="none" fill="#9c4c3c" fill-rule="evenodd"></path><path id="path1" d="M342.231 33.669 C 342.125 33.775,340.294 33.838,337.306 33.839 C 334.689 33.839,332.499 33.890,332.437 33.952 C 332.376 34.013,331.962 34.044,331.518 34.020 C 330.506 33.967,328.702 34.281,328.214 34.595 C 328.011 34.726,327.692 34.833,327.506 34.833 C 327.319 34.833,327.167 34.908,327.167 35.000 C 327.167 35.092,327.083 35.167,326.981 35.167 C 326.673 35.167,325.514 36.558,325.507 36.936 C 325.503 37.130,325.350 37.479,325.167 37.712 C 324.705 38.300,324.707 39.921,325.172 40.883 C 325.358 41.268,325.549 41.806,325.597 42.079 C 325.645 42.352,325.738 42.614,325.804 42.662 C 325.870 42.711,326.029 42.975,326.158 43.250 C 326.395 43.754,326.441 43.883,326.479 44.142 C 326.631 45.182,327.919 45.255,327.798 44.218 C 327.763 43.915,327.798 43.667,327.877 43.667 C 327.955 43.667,327.973 43.592,327.917 43.500 C 327.860 43.408,327.884 43.333,327.971 43.333 C 328.104 43.333,328.228 43.058,328.327 42.538 C 328.457 41.862,330.845 40.500,331.902 40.500 C 332.061 40.500,332.504 40.319,332.887 40.098 L 333.583 39.695 334.792 40.259 C 335.456 40.569,336.000 40.887,336.000 40.967 C 336.000 41.102,338.051 42.500,338.247 42.500 C 338.295 42.500,338.578 42.747,338.875 43.049 C 339.173 43.351,339.724 43.803,340.099 44.054 C 340.804 44.525,341.500 45.231,341.500 45.476 C 341.500 45.553,341.645 45.783,341.823 45.988 C 342.001 46.193,342.105 46.467,342.055 46.597 C 342.005 46.727,342.047 46.833,342.149 46.833 C 342.376 46.833,342.410 51.766,342.183 51.906 C 342.101 51.957,342.033 52.261,342.033 52.581 C 342.033 53.649,340.689 55.500,339.914 55.500 C 339.674 55.500,339.331 55.579,339.152 55.675 C 338.967 55.773,337.815 55.847,336.504 55.844 C 335.156 55.841,334.141 55.907,334.082 56.003 C 334.026 56.093,333.689 56.167,333.333 56.167 C 332.977 56.167,332.640 56.242,332.583 56.333 C 332.527 56.425,331.963 56.500,331.332 56.500 C 330.504 56.500,330.146 56.567,330.049 56.740 C 329.899 57.008,325.333 57.207,325.333 56.946 C 325.333 56.871,324.940 56.827,324.458 56.850 C 323.977 56.872,323.433 56.811,323.250 56.715 C 323.067 56.618,322.654 56.484,322.333 56.416 C 321.312 56.201,320.939 55.907,318.109 53.091 C 316.584 51.574,315.223 50.333,315.085 50.333 C 314.947 50.333,314.833 50.254,314.833 50.157 C 314.833 50.060,314.758 50.027,314.667 50.083 C 314.575 50.140,314.500 50.082,314.500 49.955 C 314.500 49.751,313.040 48.667,312.765 48.667 C 312.707 48.667,312.343 48.463,311.955 48.214 C 311.095 47.662,310.162 47.131,309.167 46.629 C 308.754 46.421,308.362 46.175,308.294 46.083 C 308.227 45.992,308.171 45.982,308.169 46.062 C 308.168 46.142,308.052 46.113,307.913 45.997 C 307.773 45.881,307.611 45.833,307.554 45.891 C 307.496 45.948,307.217 45.855,306.933 45.682 C 306.649 45.510,306.101 45.317,305.715 45.254 C 305.233 45.176,304.982 45.040,304.912 44.820 C 304.798 44.459,300.300 44.316,300.083 44.667 C 300.027 44.758,299.802 44.833,299.583 44.833 C 299.365 44.833,299.137 44.913,299.077 45.010 C 298.927 45.253,298.147 45.560,297.792 45.516 C 297.631 45.495,297.500 45.559,297.500 45.656 C 297.500 45.754,297.424 45.833,297.330 45.833 C 297.237 45.833,296.870 46.017,296.515 46.241 C 296.160 46.464,295.837 46.615,295.798 46.576 C 295.758 46.536,295.511 46.728,295.248 47.002 C 294.986 47.276,294.707 47.500,294.629 47.500 C 294.454 47.500,292.270 49.157,292.198 49.345 C 292.169 49.420,292.036 49.440,291.904 49.389 C 291.757 49.332,291.416 49.565,291.036 49.981 C 290.691 50.358,290.321 50.667,290.214 50.667 C 290.106 50.667,289.920 50.872,289.799 51.123 C 289.679 51.375,289.356 51.686,289.082 51.815 C 288.808 51.945,288.523 52.151,288.450 52.275 C 288.377 52.399,288.242 52.500,288.152 52.500 C 287.953 52.500,287.092 53.086,286.458 53.653 C 286.206 53.879,285.835 54.088,285.633 54.119 C 285.432 54.149,285.146 54.284,284.998 54.419 C 284.849 54.553,284.471 54.714,284.156 54.776 C 283.841 54.838,283.252 55.057,282.846 55.262 C 282.441 55.467,282.010 55.596,281.888 55.549 C 281.766 55.503,281.667 55.533,281.667 55.617 C 281.667 55.701,281.273 55.869,280.792 55.990 C 280.310 56.111,279.767 56.291,279.583 56.391 C 279.400 56.490,279.200 56.574,279.139 56.577 C 279.078 56.581,278.972 56.640,278.903 56.708 C 278.834 56.777,278.574 56.833,278.326 56.833 C 278.077 56.833,277.781 56.946,277.667 57.083 C 277.553 57.221,277.349 57.333,277.214 57.333 C 277.079 57.333,276.769 57.441,276.526 57.573 C 276.282 57.705,275.798 57.859,275.450 57.916 C 275.101 57.972,274.776 58.122,274.728 58.248 C 274.469 58.922,273.166 56.977,273.174 55.929 C 273.183 54.658,273.402 53.497,273.662 53.336 C 273.772 53.268,273.838 53.071,273.809 52.898 C 273.742 52.493,274.129 51.519,274.542 51.057 C 275.084 50.449,274.609 49.608,273.898 49.916 C 273.725 49.991,273.490 50.037,273.375 50.019 C 273.260 50.001,273.167 50.064,273.167 50.159 C 273.167 50.255,273.056 50.333,272.922 50.333 C 272.627 50.333,271.273 51.014,271.194 51.201 C 271.164 51.274,271.000 51.333,270.829 51.333 C 270.659 51.333,270.473 51.410,270.415 51.503 C 270.357 51.596,270.235 51.625,270.142 51.568 C 269.911 51.425,268.475 51.992,268.592 52.181 C 268.644 52.265,268.573 52.333,268.434 52.333 C 268.295 52.333,267.907 52.520,267.571 52.748 C 267.235 52.975,266.904 53.127,266.834 53.084 C 266.676 52.986,264.688 55.104,264.453 55.620 C 264.358 55.829,264.212 56.000,264.130 56.000 C 264.048 56.000,264.020 56.064,264.068 56.141 C 264.116 56.219,263.989 56.461,263.786 56.679 C 263.583 56.897,263.407 57.134,263.396 57.204 C 263.384 57.275,263.366 57.413,263.354 57.510 C 263.343 57.607,263.277 57.660,263.208 57.627 C 263.140 57.594,262.837 57.815,262.536 58.117 C 262.236 58.419,262.031 58.667,262.081 58.667 C 262.132 58.667,261.893 58.938,261.552 59.270 C 260.832 59.969,259.777 60.667,259.440 60.667 C 259.312 60.667,259.116 60.777,259.004 60.911 C 258.893 61.046,258.752 61.143,258.692 61.126 C 258.632 61.110,258.321 61.218,258.000 61.367 C 257.105 61.782,256.148 62.050,255.614 62.035 C 255.288 62.026,255.105 62.115,255.055 62.309 C 254.974 62.617,253.047 62.455,252.816 62.120 C 252.760 62.040,252.610 61.997,252.482 62.024 C 252.215 62.082,250.723 61.716,250.294 61.487 C 250.135 61.403,249.816 61.333,249.586 61.333 C 249.355 61.333,249.167 61.254,249.167 61.156 C 249.167 61.059,249.034 61.001,248.873 61.029 C 248.711 61.056,248.343 60.911,248.055 60.706 C 247.767 60.501,247.442 60.333,247.331 60.333 C 247.110 60.333,244.160 57.355,244.215 57.188 C 244.254 57.067,243.312 55.778,243.124 55.694 C 243.055 55.663,243.041 55.569,243.093 55.485 C 243.187 55.333,242.551 54.302,242.298 54.194 C 242.226 54.164,242.167 54.044,242.167 53.927 C 242.167 53.811,241.987 53.522,241.767 53.285 C 241.548 53.048,241.394 52.828,241.425 52.797 C 241.456 52.766,241.158 52.389,240.763 51.959 C 240.369 51.529,240.073 51.149,240.107 51.115 C 240.538 50.685,235.957 47.493,235.000 47.556 C 234.541 47.586,234.296 48.529,234.655 48.888 C 234.769 49.003,234.833 50.196,234.833 52.216 C 234.833 55.419,234.818 55.517,234.138 56.667 C 234.057 56.804,233.946 57.048,233.892 57.208 C 233.839 57.369,233.725 57.500,233.640 57.500 C 233.555 57.500,233.501 57.594,233.519 57.708 C 233.590 58.142,233.144 58.863,232.254 59.753 C 231.748 60.259,231.333 60.626,231.333 60.567 C 231.333 60.508,231.090 60.644,230.792 60.867 C 230.310 61.229,229.738 61.519,229.500 61.523 C 229.454 61.523,229.292 61.637,229.140 61.774 C 228.987 61.912,228.762 62.043,228.640 62.065 C 228.517 62.086,228.079 62.257,227.667 62.444 C 227.254 62.631,226.785 62.830,226.625 62.887 C 226.465 62.943,226.333 63.067,226.333 63.161 C 226.333 63.256,226.214 63.333,226.068 63.333 C 225.540 63.333,223.412 64.046,223.219 64.287 C 223.004 64.556,221.424 64.448,221.240 64.151 C 221.189 64.068,221.003 64.000,220.827 64.000 C 219.777 64.000,216.026 62.390,215.000 61.498 C 213.776 60.435,213.022 59.612,212.928 59.235 C 212.874 59.019,212.683 58.765,212.504 58.669 C 212.313 58.567,212.218 58.393,212.274 58.247 C 212.326 58.111,212.286 58.000,212.184 58.000 C 212.083 58.000,212.000 57.912,212.000 57.805 C 212.000 57.697,211.894 57.491,211.765 57.346 C 211.636 57.202,211.287 56.633,210.990 56.083 C 210.693 55.533,210.312 54.949,210.142 54.785 C 209.972 54.621,209.833 54.317,209.833 54.108 C 209.833 53.900,209.683 53.569,209.500 53.372 C 209.317 53.175,209.167 52.867,209.167 52.686 C 209.167 52.506,208.936 52.128,208.654 51.846 C 208.372 51.564,208.187 51.333,208.244 51.333 C 208.300 51.333,208.196 51.172,208.012 50.975 C 207.829 50.778,207.718 50.552,207.766 50.474 C 207.815 50.395,207.738 50.286,207.595 50.231 C 207.452 50.177,207.374 50.069,207.421 49.993 C 207.468 49.916,207.408 49.793,207.286 49.719 C 207.165 49.644,206.936 49.305,206.778 48.964 C 206.496 48.357,204.672 46.325,204.662 46.606 C 204.659 46.685,204.580 46.619,204.487 46.458 C 204.175 45.923,202.739 46.322,201.636 47.251 C 201.362 47.481,201.077 47.631,201.001 47.584 C 200.926 47.537,200.681 47.717,200.457 47.982 C 200.234 48.248,199.552 48.706,198.942 49.000 C 198.328 49.296,197.833 49.643,197.833 49.777 C 197.833 49.911,197.759 49.974,197.668 49.917 C 197.577 49.861,197.251 50.006,196.945 50.240 C 196.638 50.474,196.338 50.615,196.277 50.555 C 196.216 50.494,196.167 50.527,196.167 50.628 C 196.167 50.825,195.542 51.089,195.221 51.028 C 195.113 51.008,194.926 51.124,194.804 51.287 C 194.683 51.450,194.508 51.588,194.417 51.593 C 194.091 51.611,193.333 51.994,193.333 52.140 C 193.333 52.222,192.977 52.449,192.542 52.644 C 191.835 52.961,190.875 53.476,190.167 53.918 C 190.029 54.004,189.768 54.097,189.587 54.125 C 189.091 54.202,188.000 54.712,188.000 54.866 C 188.000 54.941,187.625 55.165,187.167 55.365 C 186.708 55.565,186.333 55.788,186.333 55.859 C 186.333 55.931,186.217 55.945,186.075 55.891 C 185.933 55.836,185.727 55.904,185.617 56.042 C 185.430 56.276,184.575 56.589,184.292 56.527 C 184.223 56.512,184.167 56.568,184.167 56.652 C 184.167 56.736,183.585 57.086,182.875 57.431 C 182.165 57.776,181.455 58.167,181.297 58.300 C 181.140 58.433,180.819 58.542,180.584 58.542 C 180.349 58.542,180.065 58.670,179.953 58.828 C 179.706 59.176,178.989 59.585,178.721 59.531 C 178.613 59.509,178.426 59.628,178.304 59.795 C 178.183 59.962,177.783 60.236,177.417 60.405 C 177.050 60.574,176.416 60.934,176.008 61.206 C 175.601 61.478,174.888 61.869,174.425 62.076 C 173.962 62.283,173.440 62.613,173.266 62.809 C 173.091 63.006,172.872 63.167,172.780 63.167 C 172.687 63.167,172.661 63.117,172.723 63.055 C 172.784 62.994,172.710 62.806,172.558 62.639 C 172.406 62.471,172.332 62.333,172.394 62.333 C 172.533 62.333,171.553 60.400,171.138 59.855 C 170.973 59.638,170.874 59.402,170.918 59.331 C 170.962 59.260,170.886 59.159,170.749 59.106 C 170.612 59.053,170.500 58.898,170.500 58.761 C 170.500 58.624,170.350 58.431,170.167 58.333 C 169.983 58.235,169.833 58.045,169.833 57.911 C 169.833 57.777,169.764 57.667,169.680 57.667 C 169.596 57.667,169.093 57.297,168.563 56.844 C 168.033 56.392,167.540 56.059,167.466 56.104 C 167.393 56.149,167.333 56.077,167.333 55.944 C 167.333 55.695,166.993 55.500,166.558 55.500 C 166.422 55.500,165.972 55.732,165.559 56.017 C 165.146 56.301,164.718 56.546,164.607 56.563 C 164.497 56.579,164.100 56.839,163.725 57.140 C 163.041 57.689,162.524 58.001,161.208 58.656 C 160.819 58.850,160.500 59.081,160.500 59.171 C 160.500 59.260,160.367 59.333,160.204 59.333 C 160.041 59.333,159.760 59.436,159.579 59.562 C 159.398 59.688,159.011 59.843,158.720 59.906 C 158.428 59.970,158.104 60.125,157.999 60.251 C 157.895 60.377,157.714 60.444,157.598 60.399 C 157.482 60.355,157.291 60.434,157.173 60.576 C 157.055 60.717,156.818 60.833,156.646 60.833 C 156.474 60.833,156.333 60.916,156.333 61.018 C 156.333 61.119,156.224 61.160,156.089 61.109 C 155.940 61.051,155.709 61.206,155.495 61.508 C 155.302 61.778,154.992 62.000,154.807 62.000 C 154.621 62.000,154.279 62.150,154.045 62.333 C 153.812 62.517,153.522 62.667,153.400 62.667 C 153.278 62.667,153.098 62.817,153.000 63.000 C 152.902 63.183,152.653 63.333,152.448 63.333 C 152.085 63.333,151.383 63.956,151.461 64.208 C 151.483 64.277,151.363 64.333,151.196 64.333 C 151.028 64.333,150.717 64.519,150.505 64.745 C 150.292 64.971,150.057 65.119,149.982 65.072 C 149.907 65.026,149.544 65.178,149.176 65.411 C 148.808 65.643,148.471 65.833,148.427 65.833 C 148.384 65.833,147.970 66.056,147.507 66.329 C 146.615 66.855,143.197 67.108,142.397 66.707 C 141.199 66.106,140.821 65.969,140.592 66.057 C 140.450 66.111,140.333 66.084,140.333 65.995 C 140.333 65.906,140.165 65.831,139.958 65.828 C 139.752 65.825,139.208 65.638,138.750 65.413 C 138.292 65.188,137.822 65.002,137.706 65.002 C 137.427 65.000,136.000 63.505,136.000 63.215 C 136.000 63.091,135.888 62.946,135.750 62.894 C 135.613 62.841,135.500 62.702,135.500 62.586 C 135.500 62.470,135.200 62.056,134.833 61.667 C 134.467 61.277,134.167 60.874,134.167 60.770 C 134.167 60.666,133.754 60.183,133.250 59.696 C 132.746 59.210,132.333 58.737,132.333 58.646 C 132.333 58.555,132.259 58.526,132.167 58.583 C 132.076 58.639,131.914 58.494,131.807 58.259 C 131.701 58.025,131.559 57.833,131.493 57.833 C 131.336 57.833,130.000 56.062,130.000 55.853 C 130.000 55.765,129.700 55.436,129.333 55.122 C 128.967 54.808,128.667 54.436,128.667 54.296 C 128.667 54.156,128.554 53.947,128.417 53.833 C 128.279 53.719,128.167 53.497,128.167 53.339 C 128.167 53.181,128.020 52.919,127.840 52.756 C 127.660 52.593,127.522 52.413,127.534 52.355 C 127.574 52.146,127.196 51.398,126.944 51.189 C 126.802 51.072,126.724 50.878,126.769 50.759 C 126.815 50.640,126.737 50.499,126.596 50.444 C 126.452 50.389,126.381 50.237,126.434 50.098 C 126.487 49.961,126.470 49.753,126.397 49.635 C 126.325 49.518,126.286 49.183,126.311 48.892 C 126.417 47.656,125.216 48.108,124.848 49.442 C 124.759 49.762,124.415 50.356,124.082 50.762 C 123.750 51.168,123.524 51.500,123.582 51.500 C 123.722 51.500,123.187 52.445,122.625 53.191 C 122.373 53.525,122.167 53.881,122.167 53.982 C 122.167 54.084,122.098 54.167,122.013 54.167 C 121.929 54.167,121.810 54.392,121.750 54.667 C 121.690 54.942,121.569 55.167,121.482 55.167 C 121.394 55.167,121.275 55.298,121.217 55.458 C 121.076 55.846,119.958 57.094,119.798 57.043 C 119.729 57.020,119.626 57.189,119.568 57.418 C 119.511 57.646,119.393 57.833,119.307 57.833 C 119.221 57.833,118.967 58.032,118.742 58.274 C 118.517 58.517,118.333 58.674,118.333 58.624 C 118.333 58.574,118.078 58.788,117.767 59.100 C 117.455 59.412,117.092 59.667,116.959 59.667 C 116.827 59.667,116.583 59.817,116.417 60.000 C 116.251 60.183,115.988 60.333,115.833 60.333 C 115.678 60.333,115.416 60.483,115.250 60.667 C 115.084 60.850,114.851 61.000,114.732 61.000 C 114.614 61.000,114.440 61.131,114.347 61.292 C 114.253 61.452,114.175 61.510,114.172 61.421 C 114.169 61.332,113.940 61.508,113.662 61.811 C 113.385 62.115,112.964 62.385,112.728 62.411 C 112.492 62.437,112.119 62.652,111.899 62.888 C 111.680 63.125,111.243 63.366,110.928 63.426 C 110.613 63.485,110.228 63.674,110.072 63.846 C 109.916 64.018,109.726 64.120,109.649 64.072 C 109.572 64.025,109.339 64.096,109.130 64.231 C 108.921 64.365,108.471 64.526,108.131 64.588 C 107.790 64.651,107.426 64.805,107.320 64.932 C 107.215 65.059,107.068 65.125,106.993 65.079 C 106.918 65.032,106.809 65.071,106.752 65.164 C 106.694 65.257,106.510 65.333,106.343 65.333 C 106.086 65.333,104.948 65.636,104.000 65.955 C 103.862 66.002,103.537 66.060,103.277 66.085 C 103.016 66.110,102.720 66.213,102.618 66.315 C 102.517 66.417,102.036 66.500,101.550 66.500 C 101.064 66.500,100.667 66.575,100.667 66.667 C 100.667 66.759,100.226 66.833,99.677 66.833 C 99.132 66.833,98.636 66.914,98.575 67.013 C 98.448 67.220,91.337 67.166,91.335 66.958 C 91.334 66.890,90.846 66.833,90.250 66.833 C 89.615 66.833,89.167 66.762,89.167 66.661 C 89.167 66.559,88.740 66.494,88.125 66.502 C 86.966 66.517,85.787 66.278,85.697 66.009 C 85.665 65.912,85.426 65.833,85.166 65.833 C 84.905 65.833,84.480 65.657,84.221 65.442 C 83.962 65.227,83.555 65.003,83.318 64.945 C 83.080 64.887,82.705 64.662,82.484 64.445 C 82.264 64.227,81.915 63.960,81.708 63.852 C 81.502 63.744,81.333 63.582,81.333 63.492 C 81.333 63.283,80.307 62.345,80.072 62.338 C 79.883 62.333,79.093 61.500,79.277 61.500 C 79.336 61.500,79.250 61.351,79.086 61.169 C 78.748 60.796,78.821 59.213,79.187 58.988 C 79.294 58.921,79.336 58.747,79.280 58.601 C 79.222 58.449,79.310 58.210,79.485 58.043 C 79.654 57.882,79.841 57.600,79.901 57.417 C 80.156 56.640,80.738 56.173,81.588 56.065 C 82.044 56.007,82.492 55.875,82.583 55.772 C 82.759 55.573,83.328 55.519,85.277 55.518 C 85.933 55.517,86.519 55.438,86.578 55.342 C 86.639 55.244,87.257 55.167,87.982 55.167 C 88.695 55.167,89.332 55.113,89.398 55.047 C 89.464 54.981,89.769 54.948,90.075 54.975 C 90.382 55.001,90.683 54.943,90.743 54.845 C 90.804 54.747,91.332 54.667,91.917 54.667 C 92.502 54.667,93.025 54.595,93.079 54.507 C 93.133 54.420,93.287 54.390,93.421 54.441 C 93.554 54.493,93.703 54.433,93.751 54.308 C 93.811 54.150,94.066 54.099,94.590 54.141 C 95.003 54.174,95.433 54.131,95.546 54.045 C 95.658 53.959,96.181 53.790,96.708 53.668 C 97.235 53.546,97.667 53.384,97.667 53.307 C 97.667 53.230,97.845 53.167,98.063 53.167 C 99.539 53.167,98.615 52.254,96.708 51.829 C 96.227 51.721,95.833 51.562,95.833 51.476 C 95.833 51.389,95.515 51.334,95.125 51.354 C 94.735 51.374,94.250 51.301,94.046 51.192 C 93.842 51.082,92.829 50.947,91.796 50.890 C 90.762 50.834,89.827 50.718,89.718 50.632 C 89.609 50.546,89.057 50.494,88.492 50.518 C 87.666 50.551,87.432 50.503,87.304 50.275 C 87.056 49.832,78.151 49.872,77.511 50.320 C 77.276 50.484,77.001 50.590,76.900 50.554 C 76.799 50.518,76.621 50.604,76.505 50.744 C 76.388 50.885,76.170 51.000,76.021 51.000 C 75.872 51.000,75.422 51.300,75.021 51.667 C 74.619 52.033,74.254 52.333,74.207 52.333 C 74.161 52.333,73.845 52.577,73.504 52.875 C 72.234 53.986,71.735 54.389,71.167 54.765 C 70.846 54.978,70.209 55.530,69.751 55.992 C 69.293 56.455,68.832 56.833,68.727 56.833 C 68.622 56.833,68.173 57.133,67.730 57.500 C 67.286 57.867,66.861 58.167,66.785 58.167 C 66.709 58.167,66.172 58.499,65.590 58.906 C 65.009 59.312,64.488 59.599,64.433 59.544 C 64.378 59.489,64.333 59.528,64.333 59.631 C 64.333 59.734,64.071 59.942,63.750 60.095 C 63.429 60.247,63.167 60.438,63.167 60.519 C 63.167 60.600,63.110 60.652,63.042 60.635 C 62.766 60.565,60.500 61.063,60.500 61.193 C 60.500 61.270,60.242 61.333,59.927 61.333 C 59.611 61.333,59.309 61.405,59.254 61.493 C 59.200 61.580,59.035 61.606,58.887 61.549 C 58.739 61.492,58.536 61.552,58.434 61.681 C 58.302 61.851,57.759 61.932,56.500 61.970 C 55.538 61.999,54.679 62.093,54.592 62.178 C 54.505 62.264,54.265 62.333,54.060 62.333 C 53.854 62.333,53.639 62.410,53.582 62.503 C 53.524 62.596,53.409 62.630,53.327 62.579 C 53.132 62.459,51.500 63.159,51.500 63.364 C 51.500 63.449,51.423 63.472,51.330 63.415 C 51.236 63.357,50.843 63.543,50.455 63.829 L 49.750 64.348 49.250 63.723 C 48.975 63.379,48.545 62.887,48.294 62.629 C 48.044 62.372,47.720 61.930,47.574 61.648 C 47.428 61.367,46.500 60.337,45.511 59.360 C 43.105 56.984,42.983 56.881,42.099 56.490 C 41.678 56.303,41.333 56.075,41.333 55.981 C 41.333 55.888,41.127 55.835,40.875 55.864 C 40.427 55.916,39.218 57.845,39.424 58.179 C 39.465 58.245,39.386 58.341,39.249 58.394 C 39.112 58.447,39.000 58.670,39.000 58.891 C 39.000 59.112,38.888 59.385,38.752 59.498 C 38.615 59.612,38.542 59.766,38.588 59.841 C 38.634 59.916,38.606 60.018,38.524 60.068 C 38.443 60.119,38.334 60.368,38.283 60.622 C 38.232 60.876,38.016 61.269,37.803 61.497 C 37.591 61.724,37.412 61.987,37.407 62.080 C 37.402 62.174,37.218 62.587,36.998 63.000 C 36.778 63.413,36.595 63.810,36.591 63.884 C 36.587 63.957,36.409 64.199,36.196 64.421 C 35.982 64.642,35.855 64.901,35.914 64.995 C 35.972 65.089,35.939 65.167,35.841 65.167 C 35.660 65.167,34.465 66.213,33.701 67.042 C 33.468 67.294,33.190 67.500,33.082 67.500 C 32.973 67.500,32.751 67.648,32.587 67.829 C 32.423 68.011,32.232 68.124,32.163 68.081 C 32.094 68.039,31.945 68.115,31.832 68.252 C 31.719 68.388,31.411 68.500,31.148 68.500 C 30.850 68.500,30.591 68.626,30.461 68.833 C 30.227 69.209,21.667 69.372,21.667 69.000 C 21.667 68.908,21.310 68.831,20.875 68.828 C 19.961 68.821,19.418 68.461,19.146 67.678 C 19.048 67.397,18.895 67.167,18.807 67.167 C 18.719 67.167,18.699 67.083,18.762 66.981 C 18.825 66.879,18.810 66.748,18.730 66.690 C 18.510 66.530,17.825 65.224,17.746 64.813 C 17.708 64.616,17.571 64.333,17.440 64.186 C 17.242 63.960,16.918 62.940,17.000 62.794 C 17.013 62.770,16.794 62.286,16.513 61.719 C 16.231 61.152,15.969 60.514,15.930 60.302 C 15.890 60.090,15.844 59.879,15.826 59.833 C 15.808 59.788,15.805 59.686,15.819 59.607 C 15.834 59.529,15.752 59.353,15.638 59.216 C 15.390 58.917,15.304 58.573,15.324 57.958 C 15.332 57.706,15.262 57.500,15.169 57.500 C 15.076 57.500,15.000 57.421,15.000 57.324 C 15.000 57.227,14.839 56.796,14.643 56.366 C 14.446 55.935,14.272 55.471,14.256 55.333 C 14.240 55.196,14.129 54.858,14.008 54.583 C 13.887 54.308,13.765 53.903,13.736 53.682 C 13.707 53.461,13.619 53.236,13.541 53.182 C 13.462 53.128,13.230 52.720,13.024 52.276 C 12.435 51.005,12.123 50.742,11.508 50.997 C 11.228 51.113,10.999 51.254,10.998 51.312 C 10.997 51.370,10.552 51.939,10.010 52.577 C 9.467 53.214,9.050 53.779,9.082 53.832 C 9.115 53.884,8.776 54.397,8.329 54.972 C 7.882 55.547,7.471 56.164,7.414 56.342 C 7.357 56.521,7.228 56.667,7.128 56.667 C 7.027 56.667,6.987 56.710,7.040 56.762 C 7.093 56.815,6.805 57.417,6.401 58.100 C 5.997 58.784,5.667 59.407,5.667 59.484 C 5.667 59.562,5.555 59.718,5.419 59.831 C 5.283 59.945,4.922 60.535,4.617 61.144 C 3.583 63.211,2.845 64.415,2.157 65.163 C 1.779 65.573,1.371 66.098,1.250 66.329 C 1.129 66.561,0.798 66.970,0.515 67.240 C 0.178 67.560,0.000 67.891,0.000 68.198 C 0.000 68.699,0.235 68.830,0.394 68.417 C 0.446 68.279,0.592 68.167,0.717 68.167 C 0.842 68.167,1.190 67.786,1.491 67.322 C 1.793 66.857,2.194 66.332,2.384 66.155 C 2.574 65.978,2.661 65.833,2.578 65.833 C 2.494 65.833,2.593 65.717,2.796 65.574 C 3.000 65.431,3.167 65.206,3.167 65.074 C 3.167 64.942,3.229 64.833,3.305 64.833 C 3.381 64.833,3.550 64.627,3.679 64.375 C 3.809 64.123,4.121 63.624,4.374 63.267 C 4.627 62.909,4.833 62.525,4.833 62.412 C 4.833 62.300,4.946 62.114,5.083 62.000 C 5.221 61.886,5.333 61.688,5.333 61.560 C 5.333 61.432,5.633 60.833,6.000 60.230 C 6.367 59.626,6.667 59.077,6.667 59.009 C 6.667 58.941,6.817 58.749,7.000 58.583 C 7.183 58.417,7.333 58.152,7.333 57.995 C 7.333 57.837,7.443 57.617,7.577 57.505 C 7.711 57.394,7.871 57.141,7.933 56.943 C 8.032 56.625,8.370 56.139,9.044 55.339 C 9.272 55.069,9.566 54.592,9.817 54.083 C 9.908 53.900,10.192 53.513,10.449 53.222 C 10.706 52.932,11.099 52.468,11.323 52.191 C 11.756 51.654,12.148 51.820,12.161 52.547 C 12.164 52.710,12.279 52.887,12.417 52.940 C 12.554 52.992,12.667 53.141,12.667 53.270 C 12.667 53.399,12.733 53.635,12.815 53.794 C 13.252 54.647,13.531 55.374,13.854 56.500 C 14.051 57.188,14.265 57.825,14.328 57.917 C 14.391 58.008,14.650 58.758,14.904 59.583 C 15.313 60.916,15.728 61.983,16.185 62.873 C 16.267 63.032,16.333 63.352,16.333 63.585 C 16.333 63.817,16.516 64.287,16.740 64.629 C 16.963 64.970,17.200 65.475,17.266 65.750 C 17.331 66.025,17.431 66.287,17.488 66.333 C 17.545 66.379,17.844 66.904,18.153 67.500 C 19.349 69.809,19.096 69.730,25.574 69.804 C 29.893 69.854,30.931 69.823,31.074 69.641 C 31.171 69.518,31.625 69.234,32.083 69.012 C 32.955 68.588,35.629 66.460,35.778 66.071 C 35.825 65.947,36.003 65.802,36.172 65.748 C 36.451 65.660,36.683 65.268,37.976 62.697 C 38.192 62.268,38.422 61.879,38.487 61.833 C 38.553 61.788,38.775 61.375,38.982 60.917 C 39.188 60.458,39.427 59.953,39.512 59.794 C 39.597 59.635,39.668 59.410,39.670 59.294 C 39.672 59.178,39.821 58.896,40.000 58.667 C 40.179 58.438,40.330 58.063,40.335 57.833 C 40.357 56.796,41.520 56.644,42.452 57.556 C 42.654 57.754,43.117 58.142,43.479 58.417 C 43.842 58.692,44.175 59.047,44.220 59.206 C 44.265 59.366,44.489 59.568,44.720 59.655 C 44.950 59.743,45.183 59.957,45.239 60.132 C 45.294 60.306,45.639 60.690,46.004 60.983 C 46.370 61.277,46.812 61.795,46.987 62.134 C 47.162 62.473,47.611 63.046,47.986 63.409 C 48.360 63.771,48.667 64.134,48.667 64.215 C 48.667 64.297,48.873 64.582,49.124 64.848 C 49.597 65.349,50.333 65.506,50.333 65.106 C 50.333 64.831,51.492 64.000,51.876 64.000 C 52.027 64.000,52.215 63.883,52.295 63.740 C 52.490 63.392,54.181 63.013,56.417 62.816 C 58.100 62.668,58.550 62.566,59.373 62.147 C 59.532 62.066,59.861 62.000,60.103 62.000 C 60.548 62.000,61.632 61.745,62.250 61.495 C 62.433 61.421,62.822 61.320,63.113 61.270 C 63.404 61.220,64.019 60.896,64.478 60.548 C 64.938 60.201,65.600 59.769,65.949 59.588 C 66.298 59.406,66.891 59.013,67.267 58.713 C 67.643 58.412,67.996 58.167,68.050 58.167 C 68.255 58.167,69.667 57.137,69.667 56.988 C 69.667 56.903,69.739 56.833,69.828 56.833 C 69.917 56.833,70.349 56.497,70.787 56.086 C 71.225 55.675,71.658 55.336,71.750 55.333 C 71.842 55.330,72.097 55.137,72.318 54.904 C 72.539 54.671,72.928 54.374,73.181 54.242 C 73.435 54.111,73.688 53.861,73.744 53.686 C 73.799 53.512,74.070 53.276,74.345 53.162 C 74.621 53.048,74.921 52.815,75.012 52.644 C 75.104 52.473,75.279 52.333,75.402 52.333 C 75.525 52.333,75.718 52.222,75.830 52.087 C 76.084 51.781,76.961 51.335,77.317 51.330 C 77.464 51.328,77.771 51.179,78.000 51.000 C 78.630 50.507,86.914 50.487,87.042 50.978 C 87.115 51.255,87.380 51.302,89.520 51.411 C 92.001 51.539,92.363 51.588,94.978 52.149 C 97.234 52.633,97.257 53.052,95.038 53.260 C 94.336 53.325,93.534 53.507,93.256 53.663 C 92.931 53.844,92.153 53.988,91.086 54.062 C 90.170 54.127,89.349 54.251,89.261 54.339 C 89.172 54.428,88.571 54.506,87.925 54.513 C 87.279 54.521,86.112 54.597,85.333 54.682 C 84.554 54.768,83.604 54.835,83.222 54.830 C 82.840 54.825,82.479 54.899,82.420 54.994 C 82.362 55.089,82.060 55.167,81.750 55.167 C 81.440 55.167,81.144 55.236,81.091 55.321 C 81.039 55.405,80.784 55.521,80.524 55.578 C 80.061 55.680,79.490 56.291,79.161 57.039 C 79.069 57.247,78.808 57.747,78.581 58.151 C 78.097 59.009,77.963 61.527,78.387 61.783 C 78.509 61.857,78.785 62.160,79.002 62.458 C 79.219 62.756,79.479 63.000,79.580 63.000 C 79.681 63.000,80.095 63.338,80.500 63.750 C 80.905 64.163,81.304 64.500,81.388 64.500 C 81.471 64.500,81.782 64.706,82.078 64.958 C 82.566 65.373,83.042 65.687,84.093 66.289 C 84.291 66.403,84.632 66.515,84.851 66.539 C 85.071 66.564,85.363 66.705,85.501 66.854 C 85.673 67.039,86.201 67.164,87.168 67.248 C 87.946 67.315,88.680 67.449,88.799 67.545 C 89.116 67.801,99.000 67.942,99.000 67.690 C 99.000 67.575,99.308 67.500,99.782 67.500 C 100.611 67.500,102.360 67.216,102.917 66.991 C 103.100 66.917,103.601 66.810,104.029 66.753 C 104.457 66.696,105.088 66.514,105.430 66.347 C 105.772 66.181,106.177 66.077,106.329 66.117 C 106.481 66.157,106.949 66.007,107.369 65.784 C 108.063 65.415,108.818 65.139,109.250 65.098 C 109.526 65.071,110.241 64.632,110.374 64.408 C 110.443 64.293,110.883 64.145,111.353 64.081 C 111.945 63.999,112.230 63.877,112.280 63.684 C 112.320 63.531,112.593 63.304,112.885 63.179 C 113.177 63.055,113.799 62.663,114.265 62.310 C 114.732 61.956,115.189 61.667,115.281 61.667 C 115.373 61.667,115.584 61.517,115.750 61.333 C 115.916 61.150,116.150 61.000,116.269 61.000 C 116.389 61.000,116.621 60.856,116.785 60.680 C 116.949 60.504,117.284 60.310,117.530 60.248 C 118.294 60.057,121.975 56.054,122.690 54.636 C 122.890 54.240,123.229 53.678,123.443 53.386 C 123.658 53.094,123.833 52.791,123.833 52.712 C 123.833 52.633,124.245 51.935,124.748 51.159 C 125.251 50.384,125.663 49.882,125.665 50.044 C 125.667 50.366,125.934 50.899,126.353 51.417 C 126.502 51.600,126.676 51.972,126.740 52.243 C 126.804 52.513,126.995 52.832,127.163 52.950 C 127.347 53.078,127.436 53.290,127.387 53.479 C 127.338 53.666,127.429 53.887,127.611 54.022 C 127.779 54.147,127.938 54.351,127.963 54.474 C 128.035 54.813,128.891 55.833,129.106 55.833 C 129.209 55.833,129.342 55.965,129.400 56.125 C 129.563 56.576,129.876 57.038,130.376 57.566 C 130.628 57.831,130.833 58.111,130.833 58.188 C 130.833 58.388,133.128 60.667,133.330 60.667 C 133.423 60.667,133.488 60.723,133.473 60.792 C 133.417 61.051,133.838 61.846,134.081 61.939 C 134.220 61.992,134.333 62.142,134.333 62.273 C 134.333 62.404,134.446 62.554,134.583 62.606 C 134.721 62.659,134.833 62.809,134.833 62.940 C 134.833 63.070,134.946 63.220,135.083 63.273 C 135.221 63.326,135.333 63.461,135.333 63.574 C 135.333 63.909,136.523 65.332,136.814 65.346 C 136.962 65.352,137.308 65.498,137.583 65.670 C 138.551 66.273,138.987 66.466,139.864 66.679 C 140.351 66.797,140.821 66.955,140.908 67.030 C 140.995 67.105,141.262 67.167,141.500 67.167 C 141.738 67.167,142.021 67.255,142.129 67.362 C 142.502 67.736,146.780 67.767,147.186 67.399 C 147.375 67.228,147.617 67.082,147.723 67.075 C 148.088 67.052,149.167 66.496,149.167 66.331 C 149.167 66.241,149.282 66.167,149.423 66.167 C 149.727 66.167,150.528 65.679,150.717 65.379 C 150.790 65.262,151.052 65.166,151.300 65.166 C 151.621 65.165,151.828 65.027,152.024 64.683 C 152.196 64.380,152.491 64.158,152.817 64.087 C 153.103 64.024,153.413 63.829,153.507 63.653 C 153.601 63.477,153.779 63.333,153.902 63.333 C 154.025 63.333,154.229 63.184,154.355 63.002 C 154.494 62.800,154.805 62.655,155.150 62.631 C 155.514 62.606,155.743 62.493,155.789 62.317 C 155.829 62.165,156.061 61.948,156.306 61.835 C 156.550 61.721,156.862 61.561,157.000 61.480 C 157.137 61.398,157.362 61.288,157.500 61.236 C 157.637 61.183,157.949 61.034,158.192 60.904 C 158.436 60.773,158.755 60.667,158.903 60.667 C 159.050 60.667,159.301 60.597,159.461 60.512 C 159.620 60.427,159.862 60.314,160.000 60.260 C 160.137 60.207,160.475 60.014,160.750 59.832 C 161.025 59.651,161.569 59.354,161.958 59.173 C 162.348 58.993,162.667 58.768,162.667 58.673 C 162.667 58.578,162.805 58.500,162.974 58.500 C 163.143 58.500,163.417 58.350,163.583 58.167 C 163.749 57.983,163.977 57.833,164.089 57.833 C 164.201 57.833,164.384 57.723,164.496 57.588 C 164.608 57.453,165.128 57.129,165.652 56.867 C 166.761 56.313,166.742 56.306,168.403 57.787 C 168.946 58.271,169.452 58.667,169.528 58.667 C 169.604 58.667,169.667 58.755,169.667 58.862 C 169.667 58.969,169.774 59.175,169.904 59.320 C 170.035 59.465,170.679 60.652,171.336 61.958 C 172.606 64.483,172.868 64.731,173.402 63.916 C 173.671 63.505,174.926 62.605,175.250 62.591 C 175.342 62.587,175.620 62.377,175.867 62.125 C 176.115 61.873,176.434 61.667,176.576 61.667 C 176.717 61.667,176.833 61.592,176.833 61.500 C 176.833 61.408,177.012 61.333,177.230 61.333 C 177.448 61.333,177.719 61.221,177.833 61.083 C 177.947 60.946,178.178 60.833,178.345 60.833 C 178.513 60.833,178.710 60.738,178.783 60.621 C 178.973 60.319,179.774 59.833,180.083 59.833 C 180.226 59.833,180.384 59.728,180.434 59.598 C 180.484 59.469,180.719 59.314,180.957 59.255 C 181.195 59.195,181.575 59.001,181.801 58.823 C 182.027 58.645,182.354 58.500,182.528 58.500 C 182.702 58.500,182.887 58.387,182.940 58.250 C 182.992 58.112,183.168 58.000,183.331 58.000 C 183.493 58.000,183.716 57.892,183.825 57.760 C 183.935 57.628,184.131 57.561,184.261 57.611 C 184.391 57.660,184.541 57.588,184.594 57.449 C 184.647 57.310,184.892 57.146,185.137 57.085 C 185.383 57.023,186.104 56.716,186.740 56.403 C 187.376 56.090,187.992 55.833,188.109 55.833 C 188.226 55.833,188.402 55.683,188.500 55.500 C 188.598 55.317,188.826 55.167,189.006 55.167 C 189.186 55.167,189.333 55.092,189.333 55.000 C 189.333 54.908,189.526 54.833,189.762 54.833 C 190.208 54.833,191.493 54.160,191.836 53.747 C 191.945 53.616,192.288 53.461,192.600 53.403 C 192.912 53.344,193.167 53.233,193.167 53.156 C 193.167 53.078,194.179 52.517,195.417 51.908 C 196.654 51.298,197.667 50.728,197.667 50.640 C 197.667 50.552,197.733 50.521,197.814 50.572 C 197.896 50.622,198.050 50.558,198.156 50.429 C 198.263 50.301,198.665 50.039,199.050 49.847 C 199.934 49.407,200.251 49.196,200.893 48.625 C 201.176 48.373,201.492 48.167,201.596 48.167 C 201.700 48.167,201.969 47.998,202.193 47.792 C 202.418 47.585,202.888 47.282,203.239 47.118 L 203.876 46.818 204.736 47.743 C 205.209 48.251,205.685 48.667,205.793 48.667 C 205.901 48.667,205.952 48.765,205.906 48.885 C 205.860 49.005,206.071 49.437,206.376 49.844 C 207.212 50.961,208.333 52.822,208.333 53.093 C 208.333 53.225,208.391 53.333,208.462 53.333 C 208.533 53.333,208.730 53.615,208.900 53.958 C 209.572 55.318,209.910 55.944,210.315 56.583 C 211.066 57.765,211.341 58.241,211.542 58.708 C 211.651 58.960,211.796 59.167,211.866 59.167 C 211.935 59.167,212.112 59.400,212.260 59.686 C 213.154 61.415,216.721 63.904,218.760 64.222 C 219.371 64.317,220.069 64.578,220.873 65.011 C 221.368 65.277,223.833 65.209,223.833 64.928 C 223.833 64.706,224.872 64.317,226.153 64.061 C 226.426 64.006,226.778 63.820,226.934 63.648 C 227.090 63.475,227.357 63.333,227.526 63.333 C 227.695 63.333,227.833 63.271,227.833 63.194 C 227.833 63.118,227.944 63.056,228.080 63.056 C 228.216 63.056,228.647 62.901,229.039 62.712 C 229.430 62.523,230.031 62.244,230.375 62.093 C 230.719 61.942,231.000 61.742,231.000 61.649 C 231.000 61.556,231.069 61.523,231.152 61.575 C 231.236 61.626,231.330 61.612,231.361 61.543 C 231.392 61.473,231.810 61.120,232.292 60.757 C 232.773 60.395,233.167 60.031,233.167 59.949 C 233.167 59.867,233.376 59.602,233.632 59.359 C 234.032 58.978,234.507 57.902,234.480 57.435 C 234.475 57.354,234.548 57.240,234.642 57.182 C 235.322 56.761,235.572 55.467,235.632 52.042 C 235.666 50.115,235.758 48.667,235.846 48.667 C 236.532 48.667,238.768 50.658,240.148 52.500 C 241.403 54.175,242.333 55.570,242.333 55.778 C 242.333 55.872,242.484 56.085,242.668 56.251 C 242.852 56.418,243.101 56.748,243.221 56.985 C 244.301 59.122,247.056 61.433,249.219 62.018 C 249.878 62.196,250.567 62.407,250.750 62.487 C 250.933 62.568,251.630 62.729,252.299 62.845 C 252.968 62.961,253.554 63.119,253.601 63.195 C 253.766 63.463,255.306 63.352,255.469 63.061 C 255.568 62.885,255.924 62.760,256.477 62.706 C 256.948 62.661,257.333 62.559,257.333 62.479 C 257.333 62.399,257.444 62.333,257.580 62.333 C 257.715 62.333,258.387 62.071,259.072 61.750 C 259.757 61.429,260.384 61.167,260.465 61.167 C 260.759 61.167,264.500 57.347,264.500 57.046 C 264.500 56.964,264.638 56.748,264.806 56.568 C 264.975 56.387,265.164 56.032,265.228 55.780 C 265.294 55.515,265.511 55.258,265.740 55.170 C 265.959 55.087,266.187 54.865,266.247 54.676 C 266.307 54.488,266.436 54.333,266.535 54.333 C 266.633 54.333,266.797 54.229,266.898 54.102 C 267.000 53.974,267.533 53.627,268.083 53.330 C 268.633 53.033,269.202 52.688,269.346 52.562 C 269.491 52.436,269.804 52.333,270.041 52.333 C 270.430 52.333,271.520 51.915,272.167 51.517 C 272.937 51.043,274.261 50.680,273.562 51.134 C 273.464 51.198,273.384 51.362,273.385 51.500 C 273.385 51.637,273.224 52.083,273.026 52.490 C 272.828 52.896,272.667 53.436,272.667 53.688 C 272.667 53.941,272.592 54.193,272.500 54.250 C 272.161 54.460,272.297 57.289,272.659 57.542 C 272.838 57.668,273.061 57.972,273.155 58.219 C 273.248 58.465,273.430 58.667,273.559 58.667 C 273.687 58.667,273.886 58.779,274.000 58.917 C 274.266 59.237,275.333 59.254,275.333 58.938 C 275.333 58.803,275.590 58.666,275.958 58.605 C 276.302 58.548,277.012 58.282,277.537 58.015 C 278.061 57.747,278.736 57.475,279.037 57.410 C 279.337 57.344,279.731 57.188,279.912 57.062 C 280.093 56.936,280.482 56.833,280.777 56.833 C 281.072 56.833,281.357 56.764,281.409 56.679 C 281.462 56.594,281.785 56.437,282.127 56.331 C 282.470 56.225,283.068 55.994,283.457 55.819 C 283.845 55.643,284.196 55.500,284.237 55.500 C 284.278 55.500,284.523 55.413,284.781 55.306 C 285.039 55.199,285.300 55.105,285.361 55.097 C 285.422 55.090,285.528 55.027,285.597 54.958 C 285.666 54.890,285.860 54.833,286.028 54.833 C 286.196 54.833,286.499 54.668,286.701 54.466 C 287.074 54.092,288.270 53.230,289.708 52.297 C 290.144 52.015,290.500 51.682,290.500 51.558 C 290.500 51.435,290.614 51.333,290.754 51.333 C 290.893 51.333,291.092 51.148,291.195 50.922 C 291.298 50.696,291.447 50.550,291.526 50.599 C 291.604 50.648,291.714 50.571,291.769 50.427 C 291.824 50.284,291.955 50.164,292.059 50.160 C 292.164 50.156,292.510 49.931,292.827 49.660 C 293.144 49.389,293.501 49.167,293.619 49.167 C 293.737 49.167,293.833 49.055,293.833 48.919 C 293.833 48.783,294.265 48.454,294.792 48.187 C 295.319 47.921,295.887 47.552,296.054 47.366 C 296.222 47.181,296.690 46.931,297.096 46.812 C 297.501 46.692,297.833 46.535,297.833 46.464 C 297.833 46.392,297.911 46.333,298.005 46.333 C 298.100 46.333,298.456 46.209,298.797 46.056 C 300.242 45.410,300.618 45.338,302.547 45.336 C 304.079 45.334,304.530 45.385,304.600 45.567 C 304.649 45.695,304.956 45.851,305.282 45.912 C 305.608 45.973,305.996 46.087,306.146 46.165 C 306.295 46.243,306.867 46.475,307.417 46.680 C 307.967 46.885,308.529 47.145,308.667 47.257 C 308.804 47.369,309.103 47.517,309.330 47.587 C 309.558 47.657,309.933 47.837,310.163 47.988 C 310.746 48.370,311.136 48.595,311.958 49.023 C 312.348 49.226,312.667 49.454,312.667 49.530 C 312.667 49.605,312.811 49.667,312.988 49.667 C 313.165 49.667,313.521 49.919,313.780 50.227 C 314.038 50.536,314.550 50.978,314.917 51.210 C 315.609 51.649,316.294 52.295,319.061 55.128 C 320.404 56.503,320.818 56.830,321.326 56.915 C 321.667 56.973,322.165 57.134,322.432 57.273 C 323.627 57.897,330.465 58.086,330.618 57.500 C 330.694 57.211,330.846 57.167,331.756 57.167 C 332.333 57.167,332.831 57.094,332.861 57.004 C 332.892 56.915,334.379 56.760,336.167 56.659 C 337.954 56.559,339.547 56.407,339.706 56.321 C 339.865 56.236,340.172 56.167,340.387 56.167 C 340.768 56.167,341.667 55.348,341.667 55.001 C 341.667 54.909,341.740 54.833,341.829 54.833 C 342.059 54.833,342.617 53.622,342.750 52.833 C 342.812 52.467,342.931 52.126,343.015 52.074 C 343.294 51.901,343.204 46.571,342.917 46.333 C 342.779 46.219,342.667 46.034,342.667 45.922 C 342.667 45.810,342.517 45.583,342.333 45.417 C 342.150 45.251,342.000 45.033,341.999 44.933 C 341.999 44.708,340.844 43.333,340.656 43.333 C 340.468 43.333,337.781 41.313,337.617 41.048 C 337.543 40.930,337.375 40.833,337.242 40.833 C 337.110 40.833,336.710 40.571,336.355 40.250 C 336.000 39.929,335.600 39.667,335.466 39.667 C 335.332 39.667,335.171 39.615,335.108 39.552 C 334.581 39.026,333.217 38.903,332.667 39.333 C 332.438 39.513,332.133 39.661,331.990 39.663 C 331.847 39.665,331.271 39.847,330.709 40.067 C 330.148 40.287,329.652 40.430,329.607 40.385 C 329.510 40.288,327.667 42.007,327.667 42.195 C 327.667 42.267,327.526 42.556,327.355 42.838 L 327.043 43.351 326.713 42.791 C 326.531 42.483,326.331 41.957,326.268 41.622 C 326.206 41.288,326.045 40.805,325.911 40.549 C 325.638 40.025,325.580 38.407,325.829 38.253 C 325.918 38.198,326.074 37.845,326.175 37.469 C 326.430 36.521,326.909 35.932,327.634 35.676 C 327.973 35.557,328.550 35.327,328.917 35.165 C 329.592 34.867,336.215 34.498,340.865 34.499 C 341.874 34.500,342.692 34.428,342.750 34.333 C 342.957 33.998,346.426 34.131,347.083 34.500 C 347.410 34.683,347.806 34.834,347.963 34.834 C 348.445 34.835,350.495 35.949,350.854 36.405 C 351.039 36.640,351.297 36.833,351.426 36.833 C 351.556 36.833,352.057 37.064,352.539 37.346 C 353.872 38.125,353.871 38.125,354.583 38.510 C 354.949 38.708,355.495 39.087,355.797 39.352 C 356.098 39.617,356.447 39.833,356.571 39.833 C 356.696 39.833,356.836 39.934,356.884 40.057 C 356.931 40.180,357.239 40.409,357.568 40.565 C 357.897 40.721,358.167 40.920,358.167 41.008 C 358.167 41.095,358.268 41.167,358.391 41.167 C 358.514 41.167,358.751 41.317,358.917 41.500 C 359.083 41.683,359.319 41.833,359.442 41.833 C 359.566 41.833,359.667 41.891,359.667 41.961 C 359.667 42.031,359.970 42.274,360.340 42.502 C 360.710 42.730,361.056 43.085,361.108 43.292 C 361.160 43.498,361.262 43.667,361.335 43.667 C 361.407 43.667,361.626 43.972,361.820 44.345 C 362.015 44.718,362.433 45.290,362.749 45.616 C 363.065 45.942,363.372 46.359,363.430 46.544 C 363.529 46.855,364.382 48.095,364.890 48.667 C 365.012 48.804,365.156 49.038,365.210 49.187 C 366.140 51.779,369.125 54.035,372.049 54.356 C 372.984 54.459,373.821 54.608,373.908 54.688 C 374.196 54.952,376.286 54.864,376.394 54.583 C 376.446 54.446,376.608 54.333,376.752 54.333 C 377.096 54.333,378.954 53.326,379.551 52.816 C 380.515 51.993,381.500 51.007,381.500 50.865 C 381.500 50.785,381.650 50.583,381.833 50.417 C 382.017 50.251,382.167 50.033,382.168 49.933 C 382.168 49.832,382.278 49.540,382.412 49.284 C 382.625 48.876,382.625 48.807,382.411 48.725 C 382.095 48.604,382.096 47.854,382.412 47.506 C 382.579 47.321,382.693 46.644,382.770 45.367 C 382.898 43.268,382.897 43.269,383.584 44.113 C 383.859 44.450,384.215 44.863,384.375 45.030 C 384.535 45.197,384.667 45.374,384.667 45.424 C 384.667 45.473,384.807 45.664,384.978 45.848 C 385.149 46.032,385.430 46.450,385.603 46.778 C 385.775 47.106,386.134 47.609,386.400 47.895 C 386.665 48.182,386.980 48.648,387.098 48.930 C 387.217 49.212,387.431 49.540,387.574 49.659 C 387.717 49.777,387.833 49.959,387.833 50.063 C 387.833 50.168,388.147 50.515,388.530 50.835 C 389.759 51.861,392.145 54.333,391.906 54.333 C 391.856 54.333,392.157 54.753,392.574 55.265 C 392.992 55.778,393.333 56.273,393.333 56.367 C 393.333 56.460,393.746 56.942,394.250 57.438 C 394.754 57.934,395.167 58.414,395.167 58.504 C 395.167 58.593,395.280 58.667,395.418 58.667 C 395.557 58.667,395.798 58.817,395.955 59.000 C 396.112 59.183,396.337 59.333,396.454 59.333 C 396.571 59.333,396.667 59.408,396.667 59.500 C 396.667 59.592,396.803 59.667,396.969 59.667 C 397.358 59.667,398.601 60.259,399.281 60.769 C 399.941 61.264,400.000 61.264,400.000 60.761 C 400.000 60.420,399.234 59.638,398.833 59.570 C 398.715 59.549,397.964 59.195,397.667 59.020 C 397.529 58.938,397.195 58.770,396.924 58.644 C 396.134 58.280,393.333 55.363,393.333 54.906 C 393.333 54.842,393.200 54.668,393.037 54.520 C 392.875 54.371,392.620 54.058,392.471 53.823 C 392.123 53.274,389.992 50.937,389.760 50.850 C 389.376 50.706,388.369 49.600,388.444 49.405 C 388.488 49.290,388.368 49.147,388.176 49.086 C 387.985 49.026,387.862 48.922,387.903 48.855 C 387.944 48.788,387.608 48.300,387.155 47.769 C 386.702 47.238,386.371 46.741,386.419 46.664 C 386.466 46.586,386.422 46.471,386.319 46.408 C 386.217 46.344,386.027 46.039,385.897 45.730 C 385.768 45.420,385.588 45.167,385.498 45.167 C 385.407 45.167,385.333 45.090,385.333 44.997 C 385.333 44.903,384.940 44.404,384.458 43.886 C 383.977 43.369,383.388 42.732,383.149 42.473 C 382.654 41.935,382.309 41.877,381.979 42.277 C 381.800 42.493,381.796 42.570,381.958 42.624 C 382.204 42.707,382.256 45.172,382.017 45.425 C 381.847 45.605,381.705 46.486,381.534 48.417 C 381.398 49.959,381.313 50.107,379.689 51.609 C 378.444 52.760,377.657 53.247,376.238 53.747 C 375.209 54.109,371.234 53.770,370.444 53.253 C 370.209 53.099,369.957 52.969,369.884 52.964 C 369.170 52.916,366.917 50.942,366.917 50.365 C 366.917 50.274,366.692 49.945,366.417 49.633 C 366.142 49.322,365.892 48.958,365.863 48.825 C 365.833 48.692,365.651 48.415,365.458 48.208 C 365.266 48.002,365.167 47.833,365.238 47.833 C 365.310 47.833,365.154 47.588,364.892 47.287 C 364.631 46.987,364.268 46.462,364.087 46.121 C 363.906 45.779,363.707 45.500,363.645 45.500 C 363.582 45.500,363.344 45.181,363.114 44.792 C 362.884 44.402,362.466 43.829,362.186 43.517 C 361.906 43.206,361.714 42.892,361.759 42.819 C 361.804 42.746,361.564 42.476,361.227 42.218 C 360.889 41.961,360.447 41.581,360.246 41.375 C 360.044 41.169,359.805 41.000,359.715 41.000 C 359.625 41.000,359.422 40.857,359.264 40.682 C 359.105 40.507,358.738 40.268,358.446 40.150 C 358.155 40.032,357.856 39.837,357.781 39.715 C 357.707 39.593,357.581 39.533,357.502 39.582 C 357.422 39.631,357.307 39.514,357.246 39.321 C 357.171 39.083,357.035 38.995,356.828 39.050 C 356.658 39.094,356.482 39.027,356.433 38.898 C 356.384 38.771,356.248 38.665,356.130 38.664 C 356.013 38.662,355.729 38.463,355.500 38.222 C 355.271 37.980,354.633 37.573,354.083 37.317 C 352.681 36.664,351.805 36.142,351.417 35.727 C 351.233 35.531,350.896 35.316,350.667 35.249 C 350.438 35.183,350.075 34.968,349.862 34.773 C 349.648 34.577,349.423 34.426,349.362 34.437 C 349.226 34.462,349.031 34.395,347.763 33.892 C 346.688 33.465,342.600 33.300,342.231 33.669 " stroke="none" fill="#2c1404" fill-rule="evenodd"></path></g></svg>