<svg id="svg" version="1.1" xmlns="http://www.w3.org/2000/svg" xmlns:xlink="http://www.w3.org/1999/xlink" width="400" height="120" viewBox="0, 0, 400,120"><g id="svgg"><path id="path0" d="M342.750 34.333 C 342.692 34.428,341.874 34.500,340.865 34.499 C 336.189 34.498,329.590 34.859,329.000 35.148 C 328.679 35.305,328.090 35.539,327.691 35.666 C 327.291 35.794,326.921 36.015,326.868 36.158 C 326.814 36.300,326.678 36.492,326.564 36.583 C 326.450 36.675,326.275 37.066,326.174 37.451 C 326.073 37.837,325.918 38.198,325.829 38.253 C 325.580 38.407,325.638 40.025,325.911 40.549 C 326.045 40.805,326.206 41.288,326.268 41.622 C 326.331 41.957,326.531 42.483,326.713 42.791 L 327.043 43.351 327.355 42.838 C 327.526 42.556,327.667 42.256,327.667 42.172 C 327.667 41.939,329.356 40.326,329.566 40.358 C 329.667 40.374,329.961 40.300,330.219 40.193 C 330.477 40.087,330.792 40.000,330.918 40.000 C 331.044 40.000,331.193 39.925,331.250 39.833 C 331.307 39.742,331.555 39.665,331.802 39.663 C 332.048 39.661,332.438 39.513,332.667 39.333 C 333.217 38.903,334.581 39.026,335.108 39.552 C 335.171 39.615,335.341 39.668,335.486 39.671 C 335.631 39.673,336.040 39.935,336.393 40.254 C 336.747 40.573,337.122 40.835,337.227 40.838 C 337.331 40.841,337.635 41.066,337.903 41.338 C 338.170 41.610,338.483 41.833,338.597 41.833 C 338.712 41.833,338.831 41.890,338.861 41.958 C 338.949 42.156,340.457 43.333,340.622 43.333 C 340.928 43.333,342.667 45.591,342.667 45.988 C 342.667 46.064,342.779 46.219,342.917 46.333 C 343.201 46.569,343.296 51.901,343.019 52.072 C 342.938 52.122,342.822 52.445,342.762 52.790 C 342.478 54.426,341.257 56.149,340.373 56.161 C 340.165 56.164,339.865 56.237,339.706 56.324 C 339.547 56.410,337.996 56.560,336.259 56.657 C 334.522 56.753,333.026 56.908,332.934 57.000 C 332.842 57.091,332.303 57.167,331.736 57.167 C 330.846 57.167,330.694 57.212,330.618 57.500 C 330.465 58.086,323.627 57.897,322.432 57.273 C 322.165 57.134,321.660 56.972,321.311 56.913 C 320.680 56.806,319.632 55.871,316.991 53.059 C 316.107 52.118,315.449 51.543,314.750 51.101 C 314.475 50.927,314.038 50.533,313.780 50.226 C 313.521 49.918,313.174 49.667,313.008 49.667 C 312.843 49.667,312.614 49.554,312.500 49.417 C 312.386 49.279,312.189 49.167,312.063 49.167 C 311.937 49.167,311.833 49.100,311.833 49.019 C 311.833 48.938,311.702 48.826,311.542 48.770 C 311.381 48.714,310.950 48.484,310.583 48.259 C 310.217 48.034,309.738 47.770,309.520 47.671 C 309.303 47.573,308.582 47.231,307.920 46.913 C 307.257 46.594,306.596 46.333,306.451 46.333 C 306.305 46.333,306.144 46.265,306.092 46.181 C 306.041 46.097,305.705 45.979,305.346 45.919 C 304.987 45.858,304.652 45.702,304.602 45.571 C 304.414 45.082,299.333 45.368,299.333 45.868 C 299.333 45.941,299.245 46.000,299.136 46.000 C 298.953 46.000,297.802 46.484,297.127 46.845 C 296.968 46.930,296.729 47.000,296.595 47.000 C 296.461 47.000,296.246 47.152,296.116 47.337 C 295.986 47.523,295.495 47.860,295.025 48.087 C 294.555 48.314,294.076 48.649,293.962 48.833 C 293.847 49.016,293.688 49.167,293.609 49.167 C 293.530 49.167,293.181 49.392,292.833 49.667 C 292.486 49.942,292.152 50.167,292.090 50.167 C 292.028 50.167,291.730 50.429,291.427 50.750 C 291.125 51.071,290.792 51.333,290.689 51.333 C 290.585 51.333,290.500 51.439,290.500 51.569 C 290.500 51.699,290.144 52.032,289.708 52.311 C 288.324 53.195,287.081 54.086,286.701 54.466 C 286.499 54.668,286.196 54.833,286.028 54.833 C 285.860 54.833,285.666 54.890,285.597 54.958 C 285.528 55.027,285.422 55.090,285.361 55.098 C 285.224 55.116,284.804 55.282,283.833 55.705 C 283.421 55.884,282.730 56.138,282.299 56.270 C 281.867 56.401,281.469 56.582,281.414 56.671 C 281.359 56.760,281.072 56.833,280.777 56.833 C 280.482 56.833,280.093 56.936,279.912 57.062 C 279.731 57.188,279.354 57.341,279.074 57.402 C 278.793 57.463,278.118 57.736,277.574 58.008 C 277.029 58.281,276.302 58.550,275.958 58.607 C 275.590 58.667,275.333 58.803,275.333 58.938 C 275.333 59.213,274.243 59.258,274.077 58.990 C 274.017 58.892,273.787 58.744,273.567 58.661 C 273.347 58.577,273.167 58.407,273.167 58.283 C 273.167 58.159,272.979 57.882,272.750 57.667 C 272.305 57.249,272.104 54.495,272.500 54.250 C 272.592 54.193,272.667 53.904,272.667 53.607 C 272.667 53.310,272.735 52.995,272.818 52.908 C 273.033 52.684,273.508 51.000,273.356 51.000 C 273.287 51.000,272.635 51.299,271.907 51.664 C 271.179 52.029,270.344 52.329,270.052 52.331 C 269.759 52.332,269.473 52.409,269.416 52.502 C 269.358 52.594,268.754 52.976,268.072 53.350 C 267.391 53.724,266.833 54.098,266.833 54.182 C 266.833 54.265,266.733 54.333,266.610 54.333 C 266.487 54.333,266.301 54.521,266.197 54.750 C 266.093 54.979,265.920 55.167,265.814 55.167 C 265.563 55.167,265.179 55.675,265.172 56.016 C 265.169 56.162,265.017 56.417,264.833 56.583 C 264.650 56.749,264.500 56.955,264.500 57.041 C 264.500 57.419,260.802 61.105,260.261 61.267 C 260.071 61.324,259.429 61.592,258.833 61.863 C 257.160 62.625,257.130 62.636,256.347 62.725 C 255.921 62.774,255.548 62.920,255.463 63.071 C 255.306 63.353,253.762 63.456,253.601 63.195 C 253.554 63.119,252.968 62.961,252.299 62.845 C 251.630 62.729,250.933 62.568,250.750 62.487 C 250.567 62.407,249.889 62.199,249.243 62.024 C 247.781 61.629,246.502 60.821,245.048 59.372 C 243.988 58.316,243.790 58.056,243.229 56.985 C 243.104 56.748,242.852 56.418,242.668 56.251 C 242.484 56.085,242.333 55.872,242.333 55.778 C 242.333 55.633,241.246 53.912,241.000 53.667 C 240.953 53.621,240.692 53.246,240.418 52.833 C 239.441 51.360,236.499 48.667,235.868 48.667 C 235.751 48.667,235.672 49.814,235.635 52.042 L 235.579 55.417 234.873 56.939 C 234.484 57.776,234.167 58.573,234.167 58.711 C 234.167 58.849,233.979 59.085,233.750 59.235 C 233.521 59.385,233.333 59.608,233.333 59.730 C 233.333 60.016,231.171 61.742,230.366 62.100 C 230.027 62.250,229.375 62.545,228.917 62.756 C 228.458 62.966,227.802 63.254,227.458 63.394 C 227.115 63.535,226.833 63.719,226.833 63.803 C 226.833 63.887,226.590 63.996,226.292 64.045 C 225.109 64.237,223.833 64.696,223.833 64.928 C 223.833 65.201,221.194 65.284,220.908 65.021 C 220.700 64.828,218.744 64.167,218.384 64.167 C 217.066 64.167,212.658 60.951,212.260 59.700 C 212.197 59.498,212.075 59.333,211.991 59.333 C 211.907 59.333,211.727 59.090,211.591 58.792 C 211.456 58.494,211.174 57.976,210.964 57.642 C 209.933 55.995,209.167 54.614,209.167 54.402 C 209.167 54.273,209.092 54.167,209.000 54.167 C 208.908 54.167,208.833 54.063,208.833 53.937 C 208.833 53.811,208.721 53.614,208.583 53.500 C 208.446 53.386,208.333 53.161,208.333 53.000 C 208.333 52.839,208.217 52.611,208.074 52.492 C 207.931 52.373,207.704 52.046,207.569 51.763 C 207.250 51.095,207.029 50.740,206.373 49.850 C 206.076 49.447,205.833 49.061,205.833 48.994 C 205.833 48.927,205.399 48.420,204.868 47.869 C 203.786 46.746,203.593 46.737,202.275 47.742 C 201.969 47.976,201.630 48.167,201.521 48.167 C 201.412 48.167,201.280 48.279,201.227 48.417 C 201.174 48.554,201.027 48.667,200.899 48.667 C 200.771 48.667,200.667 48.738,200.667 48.824 C 200.667 48.972,200.308 49.206,199.333 49.691 C 199.104 49.806,198.579 50.133,198.167 50.419 C 197.754 50.705,196.460 51.412,195.292 51.991 C 194.123 52.570,193.167 53.100,193.167 53.170 C 193.167 53.239,192.906 53.345,192.588 53.405 C 192.270 53.464,191.912 53.642,191.793 53.798 C 191.508 54.174,190.272 54.833,189.852 54.833 C 189.669 54.833,189.473 54.908,189.417 55.000 C 189.360 55.092,189.166 55.167,188.985 55.167 C 188.804 55.167,188.613 55.280,188.560 55.417 C 188.507 55.555,188.191 55.788,187.857 55.934 C 187.523 56.080,186.872 56.374,186.410 56.588 C 185.948 56.801,185.372 57.026,185.130 57.086 C 184.889 57.147,184.650 57.302,184.601 57.432 C 184.551 57.561,184.363 57.667,184.182 57.667 C 184.001 57.667,183.807 57.742,183.750 57.833 C 183.693 57.925,183.509 58.000,183.341 58.000 C 183.173 58.000,182.992 58.112,182.940 58.250 C 182.887 58.387,182.702 58.500,182.528 58.500 C 182.354 58.500,182.027 58.645,181.801 58.823 C 181.575 59.001,181.195 59.195,180.957 59.255 C 180.719 59.314,180.484 59.469,180.434 59.598 C 180.384 59.728,180.226 59.833,180.083 59.833 C 179.774 59.833,178.973 60.319,178.783 60.621 C 178.710 60.738,178.513 60.833,178.345 60.833 C 178.178 60.833,177.947 60.946,177.833 61.083 C 177.719 61.221,177.448 61.333,177.230 61.333 C 177.012 61.333,176.833 61.400,176.833 61.482 C 176.833 61.564,176.647 61.677,176.419 61.735 C 176.191 61.792,175.882 62.025,175.733 62.253 C 175.584 62.480,175.356 62.667,175.228 62.667 C 174.858 62.667,173.702 63.457,173.402 63.916 C 172.881 64.710,172.569 64.471,171.609 62.542 C 171.118 61.556,170.520 60.413,170.279 60.000 C 170.038 59.587,169.797 59.136,169.744 58.997 C 169.691 58.858,169.393 58.569,169.081 58.355 C 168.770 58.142,168.268 57.714,167.966 57.404 C 166.856 56.266,166.033 56.371,164.000 57.910 C 163.587 58.222,163.119 58.483,162.958 58.489 C 162.798 58.495,162.667 58.578,162.667 58.673 C 162.667 58.768,162.348 58.993,161.958 59.173 C 161.569 59.354,161.025 59.651,160.750 59.832 C 160.475 60.014,160.137 60.207,160.000 60.260 C 159.862 60.314,159.620 60.427,159.461 60.512 C 159.301 60.597,159.054 60.667,158.910 60.667 C 158.766 60.667,158.244 60.892,157.750 61.167 C 157.256 61.442,156.746 61.667,156.617 61.667 C 156.489 61.667,156.211 61.892,156.000 62.167 C 155.710 62.545,155.482 62.667,155.064 62.667 C 154.682 62.667,154.457 62.770,154.333 63.000 C 154.235 63.183,154.063 63.333,153.951 63.333 C 153.839 63.333,153.659 63.474,153.552 63.646 C 153.445 63.817,153.155 64.009,152.908 64.071 C 152.408 64.196,152.119 64.440,151.954 64.875 C 151.883 65.063,151.667 65.167,151.347 65.167 C 151.074 65.167,150.790 65.262,150.717 65.379 C 150.528 65.679,149.727 66.167,149.423 66.167 C 149.282 66.167,149.167 66.235,149.167 66.318 C 149.167 66.478,147.855 67.167,147.551 67.167 C 147.454 67.167,147.273 67.288,147.150 67.437 C 146.873 67.770,142.472 67.706,142.130 67.363 C 142.022 67.255,141.738 67.167,141.500 67.167 C 141.262 67.167,140.995 67.105,140.908 67.030 C 140.821 66.955,140.351 66.797,139.864 66.679 C 138.987 66.466,138.551 66.273,137.583 65.670 C 137.308 65.498,136.933 65.352,136.750 65.344 C 136.444 65.332,136.183 65.020,135.500 63.846 C 135.362 63.610,135.156 63.357,135.042 63.283 C 134.927 63.210,134.833 63.041,134.833 62.908 C 134.833 62.775,134.721 62.667,134.583 62.667 C 134.446 62.667,134.333 62.525,134.333 62.351 C 134.333 62.178,134.227 61.995,134.096 61.945 C 133.965 61.894,133.732 61.586,133.577 61.260 C 133.422 60.934,133.191 60.667,133.064 60.667 C 132.937 60.667,132.833 60.581,132.833 60.477 C 132.833 60.372,132.383 59.852,131.833 59.320 C 131.283 58.789,130.833 58.297,130.833 58.228 C 130.833 58.158,130.636 57.896,130.396 57.645 C 129.938 57.167,129.578 56.618,129.400 56.125 C 129.342 55.965,129.205 55.833,129.095 55.833 C 128.743 55.833,127.276 53.724,127.401 53.398 C 127.449 53.273,127.344 53.095,127.168 53.001 C 126.992 52.906,126.799 52.568,126.739 52.248 C 126.679 51.928,126.577 51.667,126.512 51.667 C 126.349 51.667,125.667 50.358,125.667 50.044 C 125.667 49.903,125.479 50.063,125.250 50.401 C 125.021 50.739,124.833 51.075,124.833 51.148 C 124.833 51.222,124.690 51.411,124.515 51.570 C 124.340 51.728,124.103 52.096,123.988 52.387 C 123.873 52.678,123.688 53.029,123.577 53.167 C 123.467 53.304,123.134 53.858,122.837 54.397 C 122.280 55.412,120.528 57.667,120.298 57.667 C 120.226 57.667,120.167 57.751,120.167 57.854 C 120.167 58.152,117.961 60.137,117.500 60.254 C 117.271 60.313,116.949 60.504,116.785 60.680 C 116.621 60.856,116.389 61.000,116.269 61.000 C 116.150 61.000,115.916 61.150,115.750 61.333 C 115.584 61.517,115.358 61.667,115.249 61.667 C 115.139 61.667,114.831 61.871,114.566 62.122 C 114.301 62.372,113.746 62.755,113.333 62.973 C 112.921 63.191,112.471 63.503,112.333 63.665 C 112.196 63.828,111.800 64.011,111.454 64.072 C 111.108 64.133,110.508 64.395,110.121 64.653 C 109.734 64.911,109.143 65.172,108.808 65.232 C 108.473 65.293,107.851 65.528,107.424 65.754 C 106.998 65.981,106.462 66.167,106.233 66.167 C 106.004 66.167,105.613 66.272,105.365 66.401 C 105.116 66.529,104.538 66.684,104.081 66.745 C 103.624 66.806,103.100 66.917,102.917 66.991 C 102.386 67.205,100.626 67.500,99.875 67.500 C 99.496 67.500,99.134 67.585,99.069 67.689 C 98.914 67.941,89.115 67.801,88.799 67.543 C 88.680 67.446,87.925 67.313,87.120 67.247 C 85.968 67.152,85.611 67.060,85.439 66.814 C 85.318 66.643,85.183 66.539,85.137 66.585 C 85.006 66.716,83.951 66.317,83.583 65.998 C 83.400 65.838,82.969 65.578,82.625 65.418 C 82.281 65.259,82.000 65.064,82.000 64.985 C 82.000 64.906,81.771 64.724,81.492 64.579 C 81.212 64.435,80.716 64.020,80.389 63.658 C 80.062 63.296,79.720 63.000,79.628 63.000 C 78.448 63.000,77.696 59.817,78.502 58.240 C 79.412 56.461,79.992 55.695,80.514 55.580 C 80.779 55.522,81.039 55.405,81.091 55.321 C 81.144 55.236,81.429 55.167,81.727 55.167 C 82.024 55.167,82.339 55.094,82.428 55.005 C 82.517 54.916,84.014 54.759,85.753 54.656 C 87.493 54.554,89.040 54.406,89.190 54.328 C 89.340 54.251,90.127 54.140,90.940 54.081 C 91.752 54.023,92.567 53.916,92.750 53.843 C 92.933 53.771,93.271 53.630,93.500 53.532 C 93.729 53.433,94.457 53.303,95.118 53.243 C 97.190 53.055,97.204 52.620,95.152 52.237 C 94.381 52.093,93.612 51.901,93.444 51.811 C 93.276 51.720,91.790 51.561,90.141 51.458 C 87.538 51.294,87.123 51.229,86.983 50.968 C 86.738 50.510,78.705 50.507,78.026 50.964 C 77.782 51.128,77.288 51.363,76.928 51.486 C 76.568 51.609,76.122 51.850,75.938 52.022 C 75.754 52.193,75.508 52.333,75.391 52.333 C 75.274 52.333,75.104 52.473,75.012 52.644 C 74.921 52.815,74.621 53.048,74.345 53.162 C 74.070 53.276,73.804 53.497,73.754 53.653 C 73.675 53.902,72.646 54.759,71.834 55.251 C 71.682 55.343,71.444 55.531,71.306 55.668 C 70.372 56.593,68.298 58.167,68.010 58.167 C 67.933 58.167,67.826 58.279,67.773 58.417 C 67.720 58.554,67.571 58.667,67.442 58.667 C 67.313 58.667,67.115 58.778,67.002 58.914 C 66.889 59.050,66.461 59.329,66.051 59.534 C 65.642 59.739,65.143 60.064,64.945 60.258 C 64.746 60.452,64.471 60.663,64.333 60.728 C 64.196 60.793,63.896 60.955,63.667 61.087 C 63.438 61.220,63.059 61.330,62.825 61.331 C 62.591 61.332,62.329 61.396,62.242 61.473 C 62.155 61.550,61.633 61.705,61.083 61.817 C 59.946 62.048,59.069 62.288,58.583 62.502 C 58.400 62.583,57.425 62.725,56.417 62.819 C 54.138 63.030,52.486 63.400,52.295 63.740 C 52.215 63.883,52.027 64.000,51.876 64.000 C 51.492 64.000,50.333 64.831,50.333 65.106 C 50.333 65.476,49.375 65.395,49.255 65.015 C 49.199 64.841,49.044 64.655,48.910 64.604 C 48.776 64.553,48.667 64.412,48.667 64.291 C 48.667 64.170,48.292 63.701,47.833 63.250 C 47.375 62.799,47.000 62.331,47.000 62.211 C 47.000 62.092,46.044 61.049,44.875 59.895 C 42.088 57.143,42.185 57.224,41.424 57.019 C 40.702 56.824,40.573 56.907,40.405 57.667 C 40.355 57.896,40.243 58.215,40.157 58.375 C 40.070 58.535,39.930 58.798,39.844 58.958 C 39.759 59.119,39.590 59.506,39.469 59.819 C 39.349 60.132,39.052 60.770,38.811 61.236 C 38.569 61.702,38.084 62.646,37.732 63.333 C 37.380 64.021,37.037 64.623,36.971 64.671 C 36.904 64.720,36.790 64.911,36.717 65.095 C 36.595 65.401,35.899 66.076,33.831 67.894 C 33.428 68.248,32.682 68.735,32.174 68.977 C 31.666 69.219,31.190 69.510,31.117 69.625 C 30.954 69.879,22.381 69.918,20.684 69.673 C 19.638 69.521,18.501 68.785,18.500 68.259 C 18.499 68.162,18.249 67.669,17.944 67.162 C 17.638 66.655,17.334 66.018,17.267 65.745 C 17.201 65.473,16.963 64.970,16.740 64.629 C 16.516 64.287,16.333 63.855,16.333 63.668 C 16.333 63.482,16.176 62.974,15.983 62.540 C 15.448 61.332,15.397 61.191,14.903 59.583 C 14.650 58.758,14.389 58.008,14.322 57.917 C 14.256 57.825,14.036 57.188,13.835 56.500 C 13.486 55.312,13.157 54.434,12.819 53.794 C 12.735 53.635,12.667 53.399,12.667 53.270 C 12.667 53.141,12.554 52.992,12.417 52.940 C 12.279 52.887,12.164 52.710,12.161 52.547 C 12.149 51.874,11.736 51.619,11.426 52.093 C 11.270 52.330,10.848 52.837,10.488 53.220 C 10.128 53.602,9.833 54.004,9.833 54.112 C 9.833 54.221,9.740 54.412,9.625 54.537 C 9.510 54.662,9.342 54.881,9.250 55.024 C 9.158 55.168,8.690 55.864,8.208 56.571 C 7.727 57.279,7.333 57.956,7.333 58.075 C 7.333 58.195,7.226 58.381,7.095 58.490 C 6.885 58.665,6.280 59.708,5.762 60.790 C 5.664 60.996,5.527 61.165,5.458 61.165 C 5.390 61.166,5.333 61.302,5.333 61.467 C 5.333 61.632,5.262 61.838,5.175 61.925 C 4.984 62.116,4.265 63.371,3.911 64.132 C 3.771 64.434,3.546 64.723,3.411 64.775 C 3.277 64.827,3.167 64.955,3.167 65.059 C 3.166 65.164,2.901 65.549,2.576 65.914 C 2.251 66.279,1.756 66.935,1.475 67.372 C 1.195 67.809,0.898 68.167,0.816 68.167 C -0.051 68.167,0.000 66.525,0.000 94.417 L 0.000 120.000 200.000 120.000 L 400.000 120.000 399.996 90.625 L 399.993 61.250 399.371 60.821 C 398.651 60.324,397.271 59.667,396.949 59.667 C 396.827 59.667,396.475 59.442,396.167 59.167 C 395.859 58.892,395.505 58.667,395.381 58.667 C 395.258 58.667,395.106 58.535,395.044 58.375 C 394.983 58.215,394.573 57.738,394.133 57.317 C 393.693 56.895,393.333 56.487,393.333 56.410 C 393.333 56.334,393.012 55.854,392.618 55.344 C 392.225 54.834,391.779 54.220,391.628 53.980 C 391.250 53.377,389.474 51.500,389.283 51.500 C 389.075 51.500,387.833 50.250,387.833 50.040 C 387.833 49.949,387.719 49.780,387.580 49.664 C 387.441 49.549,387.209 49.205,387.064 48.900 C 386.920 48.595,386.546 48.075,386.234 47.745 C 385.922 47.414,385.667 47.052,385.667 46.940 C 385.667 46.829,385.445 46.478,385.173 46.160 C 384.902 45.843,384.677 45.527,384.673 45.458 C 384.670 45.390,384.535 45.197,384.375 45.030 C 384.215 44.863,383.859 44.450,383.584 44.113 C 382.897 43.269,382.897 43.269,382.778 45.359 C 382.703 46.665,382.596 47.301,382.419 47.497 C 382.097 47.853,382.092 48.602,382.411 48.725 C 382.625 48.807,382.625 48.876,382.412 49.284 C 382.278 49.540,382.168 49.832,382.168 49.933 C 382.167 50.033,382.017 50.251,381.833 50.417 C 381.650 50.583,381.500 50.785,381.500 50.865 C 381.500 51.026,380.390 52.132,379.450 52.906 C 378.713 53.514,377.184 54.333,376.786 54.333 C 376.623 54.333,376.446 54.446,376.394 54.583 C 376.286 54.864,374.196 54.952,373.908 54.688 C 373.821 54.608,372.984 54.459,372.049 54.356 C 368.998 54.021,366.790 52.385,365.328 49.375 C 365.139 48.985,364.911 48.667,364.821 48.667 C 364.732 48.667,364.593 48.494,364.512 48.282 C 364.432 48.071,364.182 47.677,363.956 47.407 C 363.730 47.137,363.495 46.755,363.433 46.557 C 363.371 46.359,363.034 45.919,362.684 45.580 C 362.334 45.240,361.948 44.708,361.826 44.397 C 361.704 44.087,361.540 43.833,361.460 43.833 C 361.381 43.833,361.238 43.608,361.142 43.333 C 361.046 43.058,360.910 42.833,360.841 42.833 C 360.771 42.833,360.231 42.472,359.641 42.031 C 359.050 41.589,358.439 41.179,358.283 41.119 C 358.128 41.059,358.000 40.933,358.000 40.839 C 358.000 40.744,357.877 40.667,357.727 40.667 C 357.578 40.667,357.289 40.488,357.087 40.269 C 356.884 40.051,356.576 39.827,356.401 39.771 C 356.226 39.716,355.896 39.500,355.667 39.292 C 355.147 38.820,354.396 38.333,354.187 38.333 C 354.100 38.333,353.631 38.071,353.143 37.750 C 352.656 37.429,352.162 37.167,352.045 37.167 C 351.929 37.167,351.833 37.092,351.833 37.000 C 351.833 36.908,351.689 36.833,351.512 36.833 C 351.335 36.833,351.053 36.659,350.885 36.445 C 350.439 35.877,348.436 34.836,347.778 34.830 C 347.579 34.828,347.229 34.679,347.000 34.500 C 346.535 34.136,342.959 33.996,342.750 34.333 M349.954 34.846 C 350.157 35.058,350.366 35.190,350.417 35.138 C 350.468 35.087,350.302 34.913,350.047 34.752 L 349.583 34.460 349.954 34.846 M386.833 47.416 C 387.048 47.645,387.254 47.801,387.292 47.763 C 387.374 47.681,386.716 47.000,386.554 47.000 C 386.492 47.000,386.618 47.187,386.833 47.416 M240.381 51.550 C 240.584 51.761,240.781 51.911,240.818 51.884 C 240.916 51.815,240.309 51.167,240.147 51.167 C 240.073 51.167,240.178 51.339,240.381 51.550 M8.310 54.792 C 7.831 55.371,7.627 55.667,7.710 55.667 C 7.756 55.667,7.994 55.404,8.239 55.083 C 8.693 54.488,8.748 54.263,8.310 54.792 M69.181 56.397 L 68.779 56.917 69.255 56.463 C 69.518 56.214,69.699 55.980,69.658 55.944 C 69.617 55.907,69.402 56.111,69.181 56.397 M130.929 57.201 C 131.190 57.540,131.441 57.781,131.485 57.737 C 131.530 57.692,131.316 57.415,131.009 57.120 L 130.453 56.583 130.929 57.201 M215.417 61.833 C 215.763 62.108,216.092 62.331,216.148 62.329 C 216.303 62.322,215.105 61.343,214.935 61.338 C 214.854 61.335,215.071 61.558,215.417 61.833 M2.123 65.000 C 1.794 65.367,1.581 65.667,1.651 65.667 C 1.721 65.667,2.019 65.367,2.313 65.000 C 2.608 64.633,2.820 64.333,2.785 64.333 C 2.750 64.333,2.452 64.633,2.123 65.000 " stroke="none" fill="#44649c" fill-rule="evenodd"></path><path id="path1" d="M342.250 33.667 C 342.185 33.772,340.332 33.833,337.240 33.833 C 334.541 33.833,332.333 33.890,332.333 33.960 C 332.333 34.029,331.995 34.059,331.582 34.026 C 330.638 33.951,328.702 34.277,328.214 34.594 C 328.011 34.726,327.732 34.833,327.593 34.833 C 327.287 34.833,326.302 35.413,326.416 35.527 C 326.460 35.571,326.272 35.822,325.998 36.085 C 325.724 36.348,325.500 36.736,325.500 36.948 C 325.500 37.160,325.344 37.489,325.154 37.679 C 324.440 38.393,324.858 40.647,326.252 43.594 C 327.083 45.352,327.940 45.747,327.803 44.310 C 327.769 43.956,327.792 43.667,327.854 43.667 C 327.916 43.667,328.052 43.460,328.156 43.208 C 328.799 41.641,329.541 41.055,331.453 40.605 C 331.983 40.481,332.679 40.231,333.000 40.049 L 333.583 39.720 334.712 40.249 C 335.332 40.540,335.932 40.888,336.045 41.023 C 336.158 41.157,336.587 41.488,337.000 41.759 C 337.412 42.029,337.775 42.306,337.806 42.375 C 337.836 42.444,337.949 42.501,338.056 42.502 C 338.162 42.503,338.562 42.784,338.944 43.127 C 339.325 43.470,339.944 43.971,340.319 44.240 C 340.693 44.510,341.000 44.829,341.000 44.949 C 341.000 45.069,341.125 45.167,341.278 45.167 C 341.431 45.167,341.508 45.214,341.449 45.273 C 341.391 45.331,341.491 45.587,341.672 45.840 C 341.852 46.094,342.000 46.421,342.000 46.567 C 342.000 46.714,342.075 46.833,342.167 46.833 C 342.270 46.833,342.333 47.778,342.333 49.333 C 342.333 50.708,342.268 51.833,342.188 51.833 C 342.108 51.833,342.006 52.211,341.962 52.672 C 341.860 53.731,340.853 55.292,340.186 55.425 C 339.946 55.473,339.520 55.584,339.238 55.672 C 338.957 55.761,337.705 55.833,336.456 55.833 C 335.123 55.833,334.144 55.902,334.083 56.000 C 334.027 56.092,333.689 56.167,333.333 56.167 C 332.977 56.167,332.640 56.242,332.583 56.333 C 332.527 56.425,331.963 56.500,331.332 56.500 C 330.444 56.500,330.149 56.562,330.032 56.771 C 329.856 57.084,323.847 57.028,323.236 56.707 C 323.060 56.615,322.654 56.486,322.333 56.421 C 321.306 56.213,320.351 55.451,318.290 53.193 C 318.068 52.949,317.705 52.590,317.484 52.394 C 317.264 52.198,316.971 51.895,316.833 51.721 C 316.542 51.352,315.257 50.333,315.083 50.333 C 315.018 50.333,314.819 50.148,314.641 49.922 C 314.307 49.497,314.183 49.417,312.603 48.598 C 312.088 48.331,311.667 48.068,311.667 48.015 C 311.667 47.961,310.935 47.542,310.042 47.083 C 309.148 46.625,308.374 46.192,308.321 46.121 C 308.268 46.050,307.994 45.962,307.712 45.927 C 307.429 45.891,307.022 45.750,306.807 45.613 C 306.592 45.477,306.101 45.315,305.715 45.253 C 305.232 45.175,304.982 45.040,304.912 44.820 C 304.798 44.459,300.300 44.316,300.083 44.667 C 300.027 44.758,299.802 44.833,299.583 44.833 C 299.365 44.833,299.137 44.913,299.077 45.010 C 298.960 45.200,298.244 45.528,297.833 45.581 C 297.396 45.636,296.833 45.868,296.833 45.993 C 296.833 46.099,296.066 46.540,295.827 46.571 C 295.777 46.578,295.515 46.755,295.243 46.964 C 294.972 47.173,294.188 47.758,293.500 48.264 C 292.813 48.769,292.226 49.250,292.198 49.332 C 292.169 49.414,292.039 49.440,291.909 49.391 C 291.770 49.337,291.401 49.583,291.016 49.983 C 290.655 50.359,290.277 50.667,290.176 50.667 C 290.074 50.667,289.919 50.858,289.830 51.091 C 289.737 51.338,289.424 51.619,289.084 51.760 C 288.763 51.895,288.500 52.080,288.500 52.173 C 288.500 52.266,288.331 52.418,288.125 52.511 C 287.496 52.796,287.000 53.106,286.552 53.496 C 286.317 53.701,285.876 53.972,285.573 54.098 C 285.271 54.225,284.979 54.399,284.926 54.485 C 284.873 54.571,284.587 54.690,284.290 54.750 C 283.774 54.853,282.488 55.307,281.417 55.762 C 281.142 55.879,280.560 56.065,280.125 56.174 C 279.690 56.283,279.333 56.443,279.333 56.530 C 279.333 56.616,279.264 56.643,279.178 56.590 C 279.093 56.538,278.976 56.571,278.918 56.664 C 278.861 56.757,278.646 56.833,278.442 56.833 C 278.238 56.833,277.776 56.983,277.417 57.167 C 277.057 57.350,276.666 57.500,276.548 57.500 C 276.430 57.500,276.333 57.575,276.333 57.667 C 276.333 57.758,276.127 57.834,275.875 57.834 C 275.623 57.835,275.213 57.941,274.965 58.071 C 274.163 58.490,273.164 57.301,273.174 55.939 C 273.183 54.643,273.402 53.497,273.672 53.330 C 273.787 53.259,273.841 53.047,273.792 52.858 C 273.742 52.670,273.804 52.381,273.929 52.216 C 274.054 52.051,274.158 51.786,274.161 51.626 C 274.164 51.467,274.317 51.242,274.500 51.128 C 274.888 50.886,274.938 50.295,274.596 50.010 C 274.334 49.793,273.167 49.936,273.167 50.185 C 273.167 50.267,273.056 50.333,272.921 50.333 C 272.586 50.333,271.167 51.034,271.167 51.200 C 271.167 51.273,270.979 51.333,270.750 51.333 C 270.521 51.333,270.333 51.413,270.333 51.510 C 270.333 51.607,270.260 51.641,270.170 51.585 C 269.932 51.439,268.647 51.858,268.548 52.115 C 268.502 52.235,268.369 52.333,268.253 52.333 C 268.136 52.333,267.951 52.441,267.842 52.573 C 267.733 52.704,267.416 52.862,267.138 52.923 C 266.622 53.036,266.515 53.124,265.500 54.262 C 264.588 55.286,264.005 56.116,264.118 56.229 C 264.175 56.287,264.135 56.333,264.028 56.333 C 263.921 56.333,263.833 56.438,263.833 56.566 C 263.833 56.693,263.721 56.841,263.583 56.894 C 263.446 56.946,263.333 57.142,263.333 57.328 C 263.333 57.514,263.267 57.648,263.187 57.625 C 263.038 57.583,262.024 58.547,261.739 59.002 C 261.531 59.333,260.232 60.333,260.010 60.333 C 259.913 60.333,259.833 60.408,259.833 60.500 C 259.833 60.592,259.689 60.667,259.512 60.667 C 259.335 60.667,259.082 60.776,258.948 60.909 C 258.815 61.042,258.656 61.100,258.594 61.039 C 258.532 60.977,258.430 61.007,258.366 61.105 C 258.205 61.354,256.180 62.041,255.636 62.031 C 255.390 62.027,255.095 62.135,254.981 62.273 C 254.755 62.545,253.273 62.449,252.887 62.138 C 252.780 62.051,252.592 62.001,252.471 62.027 C 252.212 62.082,250.713 61.711,250.294 61.487 C 250.135 61.403,249.816 61.333,249.586 61.333 C 249.355 61.333,249.167 61.258,249.167 61.167 C 249.167 61.075,248.998 60.998,248.792 60.996 C 248.585 60.994,248.229 60.846,248.000 60.667 C 247.771 60.487,247.508 60.338,247.417 60.334 C 247.101 60.322,244.109 57.280,244.262 57.127 C 244.306 57.083,244.227 56.953,244.087 56.837 C 243.948 56.721,243.833 56.523,243.833 56.396 C 243.833 56.270,243.770 56.167,243.693 56.167 C 243.616 56.167,243.381 55.832,243.170 55.424 C 242.960 55.016,242.649 54.531,242.478 54.348 C 242.307 54.164,242.167 53.968,242.167 53.912 C 242.167 53.724,241.132 52.304,240.584 51.739 C 240.285 51.432,240.070 51.152,240.105 51.117 C 240.170 51.052,239.013 49.888,238.028 49.028 C 237.265 48.362,235.429 47.463,234.965 47.529 C 234.539 47.590,234.319 48.552,234.655 48.888 C 234.952 49.186,234.893 55.357,234.589 55.760 C 234.454 55.938,234.342 56.182,234.339 56.303 C 234.336 56.423,234.154 56.761,233.935 57.053 C 233.716 57.345,233.484 57.829,233.421 58.130 C 233.320 58.604,231.333 60.929,231.333 60.573 C 231.333 60.511,231.090 60.645,230.792 60.872 C 230.494 61.098,229.969 61.375,229.625 61.488 C 229.281 61.600,229.000 61.762,229.000 61.846 C 229.000 61.931,228.890 62.000,228.755 62.000 C 228.620 62.000,228.243 62.150,227.917 62.333 C 227.590 62.517,227.213 62.667,227.078 62.667 C 226.944 62.667,226.693 62.807,226.522 62.978 C 226.351 63.149,225.995 63.331,225.731 63.383 C 224.564 63.612,223.401 64.022,223.219 64.267 C 223.006 64.555,221.433 64.463,221.240 64.151 C 221.189 64.068,221.003 64.000,220.827 64.000 C 218.648 64.000,213.611 60.916,212.865 59.125 C 212.760 58.873,212.597 58.667,212.504 58.667 C 212.410 58.667,212.331 58.535,212.329 58.375 C 212.326 58.215,212.103 57.792,211.833 57.435 C 211.563 57.078,211.390 56.703,211.448 56.602 C 211.506 56.500,211.493 56.471,211.420 56.538 C 211.346 56.604,211.101 56.304,210.876 55.871 C 210.650 55.438,210.366 55.004,210.244 54.906 C 210.122 54.809,209.969 54.509,209.903 54.240 C 209.838 53.970,209.646 53.551,209.476 53.308 C 209.306 53.064,209.167 52.753,209.167 52.617 C 209.167 52.480,208.949 52.136,208.683 51.851 C 208.417 51.566,208.243 51.333,208.296 51.333 C 208.348 51.333,208.215 51.146,208.000 50.917 C 207.785 50.688,207.678 50.498,207.763 50.495 C 207.847 50.492,207.771 50.379,207.593 50.245 C 207.415 50.110,207.333 50.000,207.411 50.000 C 207.488 50.000,207.437 49.869,207.296 49.708 C 207.155 49.548,206.913 49.165,206.757 48.858 C 206.306 47.968,204.431 46.167,203.956 46.167 C 203.369 46.167,202.475 46.509,202.086 46.883 C 201.901 47.061,201.513 47.308,201.224 47.432 C 200.934 47.556,200.559 47.834,200.390 48.048 C 200.222 48.262,199.577 48.676,198.958 48.968 C 198.340 49.261,197.833 49.575,197.833 49.666 C 197.833 49.758,197.753 49.833,197.656 49.833 C 197.558 49.833,197.232 50.020,196.933 50.249 C 196.633 50.478,196.338 50.615,196.277 50.555 C 196.216 50.494,196.167 50.523,196.167 50.619 C 196.167 50.817,195.558 51.048,195.139 51.009 C 194.986 50.995,194.812 51.138,194.752 51.328 C 194.692 51.517,194.582 51.634,194.508 51.588 C 194.352 51.492,193.333 51.969,193.333 52.140 C 193.333 52.263,192.104 52.833,191.839 52.833 C 191.751 52.833,191.545 52.975,191.381 53.147 C 191.218 53.320,190.671 53.629,190.167 53.834 C 188.499 54.512,187.833 54.834,187.833 54.960 C 187.833 55.029,187.590 55.184,187.292 55.304 C 186.994 55.424,186.620 55.592,186.461 55.678 C 186.301 55.763,186.055 55.833,185.914 55.833 C 185.772 55.833,185.616 55.937,185.567 56.065 C 185.519 56.192,185.258 56.340,184.989 56.394 C 184.281 56.536,184.281 56.535,183.917 56.877 C 183.733 57.049,183.379 57.231,183.129 57.282 C 182.879 57.332,182.588 57.477,182.483 57.603 C 182.378 57.730,182.163 57.833,182.005 57.833 C 181.848 57.833,181.583 57.983,181.417 58.167 C 181.250 58.351,180.903 58.500,180.642 58.500 C 180.350 58.500,180.090 58.627,179.961 58.833 C 179.847 59.017,179.668 59.167,179.564 59.167 C 179.459 59.167,179.284 59.275,179.175 59.407 C 179.065 59.539,178.868 59.606,178.737 59.555 C 178.606 59.505,178.368 59.617,178.208 59.805 C 177.884 60.183,176.003 61.233,175.995 61.040 C 175.992 60.972,175.910 61.054,175.812 61.223 C 175.714 61.391,175.163 61.740,174.587 61.999 C 174.011 62.257,173.489 62.550,173.427 62.650 C 173.365 62.750,173.150 62.917,172.949 63.022 C 172.748 63.126,172.632 63.159,172.692 63.095 C 172.812 62.965,171.424 60.076,171.164 59.915 C 171.074 59.859,171.000 59.676,171.000 59.508 C 171.000 59.340,170.888 59.159,170.750 59.106 C 170.613 59.054,170.500 58.912,170.500 58.792 C 170.500 58.672,170.369 58.449,170.208 58.295 C 170.048 58.142,169.842 57.939,169.750 57.845 C 169.658 57.750,169.240 57.390,168.821 57.045 C 166.595 55.209,166.733 55.254,165.556 56.000 C 165.123 56.275,164.689 56.500,164.592 56.500 C 164.496 56.500,164.117 56.769,163.750 57.097 C 163.383 57.425,162.858 57.803,162.583 57.937 C 161.295 58.565,160.500 59.039,160.500 59.179 C 160.500 59.264,160.318 59.333,160.095 59.333 C 159.873 59.333,159.587 59.437,159.461 59.563 C 159.334 59.689,158.997 59.844,158.710 59.907 C 158.424 59.970,158.104 60.125,157.999 60.251 C 157.895 60.377,157.714 60.444,157.598 60.399 C 157.482 60.355,157.291 60.434,157.173 60.576 C 157.055 60.717,156.823 60.833,156.656 60.833 C 156.489 60.833,156.306 60.910,156.248 61.003 C 156.191 61.096,156.080 61.132,156.001 61.084 C 155.923 61.036,155.698 61.222,155.501 61.498 C 155.294 61.790,154.992 62.002,154.780 62.004 C 154.580 62.006,154.229 62.154,154.000 62.333 C 153.771 62.513,153.492 62.661,153.381 62.663 C 153.270 62.665,153.098 62.817,153.000 63.000 C 152.902 63.183,152.653 63.333,152.448 63.333 C 152.242 63.333,151.886 63.548,151.655 63.811 C 151.424 64.074,151.077 64.339,150.883 64.401 C 150.689 64.462,150.489 64.622,150.437 64.756 C 150.386 64.890,150.227 65.000,150.085 65.000 C 149.943 65.000,149.530 65.188,149.167 65.417 C 148.804 65.646,148.471 65.833,148.427 65.833 C 148.384 65.833,147.970 66.056,147.507 66.329 C 146.615 66.855,143.197 67.108,142.397 66.707 C 141.502 66.258,140.859 66.011,140.333 65.915 C 139.543 65.770,138.333 65.317,138.333 65.165 C 138.333 65.097,138.110 64.997,137.838 64.943 C 137.324 64.840,136.000 63.587,136.000 63.204 C 136.000 63.086,135.888 62.946,135.750 62.894 C 135.613 62.841,135.500 62.695,135.500 62.569 C 135.500 62.443,135.242 62.074,134.927 61.749 C 134.611 61.424,134.310 61.021,134.256 60.854 C 134.203 60.686,133.936 60.350,133.663 60.107 C 133.390 59.863,133.167 59.595,133.167 59.510 C 133.167 59.425,133.021 59.309,132.842 59.253 C 132.663 59.196,132.470 59.002,132.413 58.822 C 132.356 58.642,132.243 58.536,132.163 58.586 C 132.083 58.635,131.926 58.505,131.814 58.296 C 131.703 58.088,131.524 57.842,131.417 57.750 C 131.064 57.449,130.000 56.052,130.000 55.891 C 130.000 55.803,129.730 55.474,129.401 55.158 C 129.071 54.842,128.733 54.433,128.651 54.250 C 128.568 54.067,128.426 53.785,128.334 53.625 C 127.941 52.939,127.822 52.714,127.511 52.069 C 127.331 51.694,127.071 51.295,126.935 51.182 C 126.798 51.068,126.727 50.869,126.777 50.739 C 126.827 50.609,126.752 50.458,126.611 50.404 C 126.470 50.350,126.394 50.203,126.442 50.078 C 126.490 49.952,126.470 49.753,126.397 49.635 C 126.325 49.518,126.286 49.183,126.311 48.892 C 126.413 47.710,125.131 48.135,124.885 49.365 C 124.834 49.622,124.726 49.833,124.646 49.833 C 124.566 49.833,124.500 49.929,124.500 50.045 C 124.500 50.162,124.289 50.518,124.031 50.837 C 123.773 51.156,123.463 51.679,123.342 52.000 C 123.220 52.321,122.973 52.715,122.792 52.875 C 122.611 53.035,122.513 53.167,122.573 53.167 C 122.634 53.167,122.492 53.417,122.258 53.724 C 122.025 54.031,121.833 54.357,121.833 54.449 C 121.833 54.540,121.683 54.789,121.500 55.000 C 121.317 55.211,121.167 55.485,121.167 55.609 C 121.167 55.732,121.110 55.835,121.042 55.837 C 120.973 55.839,120.698 56.136,120.431 56.497 C 120.165 56.858,119.883 57.114,119.806 57.067 C 119.730 57.019,119.667 57.060,119.667 57.157 C 119.667 57.254,119.367 57.642,119.000 58.020 C 118.633 58.398,118.333 58.644,118.333 58.566 C 118.333 58.489,118.216 58.594,118.072 58.798 C 117.929 59.003,117.498 59.330,117.114 59.524 C 116.730 59.718,116.357 59.979,116.283 60.105 C 116.210 60.231,116.048 60.333,115.923 60.333 C 115.638 60.333,114.333 61.178,114.333 61.363 C 114.333 61.438,114.267 61.481,114.187 61.458 C 114.106 61.435,113.847 61.623,113.611 61.875 C 113.376 62.127,113.032 62.333,112.847 62.333 C 112.663 62.333,112.265 62.549,111.964 62.812 C 111.663 63.075,111.183 63.342,110.898 63.404 C 110.612 63.466,110.226 63.658,110.040 63.832 C 109.854 64.005,109.663 64.108,109.616 64.060 C 109.568 64.012,109.354 64.083,109.139 64.217 C 108.925 64.351,108.525 64.509,108.250 64.569 C 107.975 64.628,107.450 64.818,107.083 64.991 C 106.384 65.319,105.290 65.640,104.375 65.784 C 104.077 65.831,103.833 65.934,103.833 66.013 C 103.833 66.092,103.724 66.114,103.590 66.063 C 103.456 66.011,103.107 66.089,102.814 66.235 C 102.522 66.381,101.919 66.500,101.474 66.500 C 101.030 66.500,100.667 66.575,100.667 66.667 C 100.667 66.758,100.253 66.833,99.748 66.833 C 99.242 66.833,98.686 66.922,98.512 67.031 C 98.117 67.278,89.323 66.919,89.156 66.650 C 89.099 66.557,88.646 66.494,88.151 66.509 C 87.121 66.541,85.784 66.269,85.697 66.009 C 85.665 65.912,85.426 65.833,85.166 65.833 C 84.905 65.833,84.475 65.651,84.210 65.427 C 83.945 65.204,83.525 64.971,83.278 64.909 C 83.030 64.847,82.695 64.627,82.533 64.420 C 82.370 64.214,82.071 63.992,81.869 63.928 C 81.666 63.864,81.500 63.746,81.500 63.666 C 81.500 63.481,80.299 62.337,80.102 62.335 C 79.917 62.333,79.177 61.545,79.272 61.451 C 79.310 61.412,79.227 61.286,79.087 61.170 C 78.760 60.898,78.762 59.891,79.090 59.261 C 79.231 58.992,79.307 58.671,79.260 58.548 C 79.212 58.425,79.322 58.197,79.503 58.042 C 79.685 57.886,79.833 57.686,79.833 57.597 C 79.833 57.008,80.732 56.178,81.476 56.080 C 81.902 56.023,82.400 55.912,82.583 55.833 C 83.114 55.604,83.991 55.498,85.277 55.508 C 85.940 55.513,86.518 55.439,86.578 55.342 C 86.640 55.242,87.290 55.167,88.093 55.167 C 88.867 55.167,89.500 55.107,89.500 55.033 C 89.500 54.960,89.754 54.930,90.064 54.966 C 90.374 55.002,90.678 54.950,90.740 54.849 C 90.804 54.745,91.351 54.667,92.010 54.667 C 92.713 54.667,93.167 54.597,93.167 54.490 C 93.167 54.393,93.245 54.362,93.341 54.421 C 93.436 54.480,93.605 54.455,93.716 54.365 C 93.826 54.275,94.292 54.166,94.750 54.124 C 95.691 54.037,97.555 53.507,97.639 53.302 C 97.669 53.227,97.857 53.166,98.056 53.164 C 99.425 53.154,98.632 52.184,97.025 51.902 C 96.690 51.844,96.251 51.692,96.048 51.565 C 95.845 51.437,95.353 51.333,94.956 51.333 C 94.558 51.333,94.157 51.257,94.065 51.165 C 93.972 51.072,93.038 50.953,91.990 50.901 C 90.941 50.850,89.924 50.731,89.730 50.637 C 89.535 50.543,88.960 50.493,88.452 50.525 C 87.710 50.572,87.491 50.526,87.346 50.292 C 87.098 49.894,78.340 49.844,77.555 50.236 C 77.296 50.365,76.783 50.609,76.417 50.777 C 76.050 50.946,75.202 51.515,74.532 52.042 C 73.862 52.569,73.239 53.000,73.147 53.000 C 73.055 53.000,73.027 53.075,73.083 53.167 C 73.140 53.258,73.110 53.333,73.017 53.333 C 72.924 53.333,72.526 53.632,72.132 53.998 C 71.739 54.363,71.358 54.663,71.287 54.665 C 71.141 54.667,70.231 55.477,69.460 56.292 C 69.177 56.590,68.860 56.833,68.753 56.833 C 68.647 56.833,68.158 57.133,67.667 57.500 C 67.175 57.867,66.697 58.167,66.604 58.167 C 66.511 58.167,66.243 58.346,66.009 58.566 C 65.775 58.786,65.289 59.121,64.930 59.310 C 64.571 59.500,64.233 59.714,64.180 59.786 C 63.936 60.115,62.651 60.656,61.667 60.842 C 61.071 60.955,60.508 61.104,60.417 61.172 C 60.325 61.240,59.856 61.349,59.375 61.414 C 58.894 61.478,58.464 61.590,58.419 61.662 C 58.375 61.734,57.531 61.847,56.544 61.914 C 55.557 61.980,54.675 62.093,54.583 62.165 C 54.492 62.237,54.080 62.351,53.669 62.419 C 53.008 62.528,52.116 62.913,50.183 63.921 C 49.608 64.220,48.990 63.920,49.265 63.475 C 49.313 63.397,49.253 63.333,49.130 63.333 C 48.884 63.333,48.333 62.757,48.333 62.498 C 48.333 62.407,48.235 62.333,48.114 62.333 C 47.915 62.333,47.284 61.268,47.377 61.089 C 47.399 61.048,47.192 60.842,46.917 60.632 C 46.642 60.422,45.769 59.594,44.978 58.792 C 44.187 57.990,43.456 57.333,43.353 57.333 C 43.251 57.333,43.167 57.266,43.167 57.183 C 43.167 56.998,42.065 56.333,41.758 56.333 C 41.636 56.333,41.491 56.216,41.435 56.072 C 41.188 55.427,40.442 55.868,39.884 56.988 C 39.591 57.578,39.384 58.114,39.424 58.179 C 39.465 58.245,39.386 58.341,39.249 58.394 C 39.112 58.447,39.000 58.589,39.000 58.710 C 39.000 58.831,38.850 59.224,38.667 59.583 C 38.483 59.943,38.333 60.336,38.333 60.458 C 38.333 60.733,37.830 61.538,37.546 61.717 C 37.429 61.790,37.333 61.962,37.333 62.098 C 37.333 62.427,36.376 64.257,36.072 64.509 C 35.941 64.618,35.828 64.792,35.822 64.895 C 35.816 64.999,35.366 65.458,34.822 65.917 C 34.279 66.375,33.621 66.938,33.360 67.167 C 32.517 67.908,32.196 68.141,32.121 68.066 C 32.081 68.025,31.953 68.106,31.837 68.246 C 31.721 68.386,31.411 68.500,31.148 68.500 C 30.850 68.500,30.591 68.626,30.461 68.833 C 30.227 69.209,21.667 69.372,21.667 69.000 C 21.667 68.908,21.292 68.833,20.833 68.833 C 20.375 68.833,20.000 68.763,20.000 68.678 C 20.000 68.592,19.847 68.474,19.660 68.414 C 19.455 68.349,19.280 68.108,19.219 67.806 C 19.164 67.530,19.018 67.266,18.894 67.218 C 18.770 67.171,18.715 67.056,18.772 66.964 C 18.829 66.872,18.810 66.748,18.730 66.690 C 18.649 66.631,18.422 66.246,18.225 65.833 C 17.240 63.770,17.005 63.208,16.924 62.733 C 16.876 62.448,16.639 61.862,16.398 61.429 C 16.156 60.997,15.958 60.461,15.958 60.238 C 15.958 60.016,15.888 59.833,15.803 59.833 C 15.717 59.833,15.687 59.768,15.736 59.689 C 15.786 59.609,15.688 59.260,15.519 58.913 C 15.350 58.565,15.246 58.148,15.289 57.984 C 15.332 57.821,15.247 57.516,15.100 57.307 C 14.953 57.097,14.833 56.799,14.833 56.643 C 14.833 56.488,14.753 56.334,14.656 56.302 C 14.558 56.269,14.436 55.926,14.384 55.538 C 14.332 55.150,14.233 54.833,14.164 54.833 C 14.031 54.833,13.781 54.181,13.822 53.940 C 13.858 53.723,12.675 51.495,12.323 51.117 C 11.960 50.727,11.123 50.959,10.815 51.534 C 10.720 51.711,10.273 52.264,9.821 52.763 C 9.370 53.262,8.999 53.763,8.999 53.877 C 8.998 53.990,8.623 54.566,8.165 55.155 C 7.708 55.745,7.333 56.320,7.333 56.433 C 7.333 56.546,7.277 56.664,7.208 56.694 C 7.140 56.725,6.903 57.106,6.682 57.542 C 6.461 57.977,6.205 58.333,6.113 58.333 C 6.020 58.333,5.992 58.381,6.051 58.440 C 6.109 58.498,5.990 58.779,5.787 59.064 C 5.583 59.348,5.261 59.882,5.071 60.249 C 3.813 62.677,3.114 63.924,2.984 63.972 C 2.901 64.003,2.833 64.115,2.833 64.222 C 2.832 64.390,1.910 65.516,1.093 66.347 C 0.950 66.493,0.833 66.686,0.833 66.777 C 0.833 66.868,0.646 67.118,0.417 67.333 C 0.163 67.572,-0.000 67.909,-0.000 68.196 C 0.000 68.696,0.279 68.836,0.440 68.417 C 0.492 68.279,0.632 68.167,0.750 68.167 C 0.869 68.167,1.195 67.809,1.475 67.372 C 1.756 66.935,2.251 66.279,2.576 65.914 C 2.901 65.549,3.166 65.164,3.167 65.059 C 3.167 64.955,3.277 64.827,3.411 64.775 C 3.546 64.723,3.771 64.434,3.911 64.132 C 4.265 63.371,4.984 62.116,5.175 61.925 C 5.262 61.838,5.333 61.632,5.333 61.467 C 5.333 61.302,5.390 61.166,5.458 61.165 C 5.527 61.165,5.664 60.996,5.762 60.790 C 6.280 59.708,6.885 58.665,7.095 58.490 C 7.226 58.381,7.333 58.195,7.333 58.075 C 7.333 57.956,7.727 57.279,8.208 56.571 C 8.690 55.864,9.158 55.168,9.250 55.024 C 9.342 54.881,9.510 54.662,9.625 54.537 C 9.740 54.412,9.833 54.221,9.833 54.112 C 9.833 54.004,10.128 53.602,10.488 53.220 C 10.848 52.837,11.270 52.330,11.426 52.093 C 11.736 51.619,12.149 51.874,12.161 52.547 C 12.164 52.710,12.279 52.887,12.417 52.940 C 12.554 52.992,12.667 53.141,12.667 53.270 C 12.667 53.399,12.735 53.635,12.819 53.794 C 13.157 54.434,13.486 55.312,13.835 56.500 C 14.036 57.188,14.256 57.825,14.322 57.917 C 14.389 58.008,14.650 58.758,14.903 59.583 C 15.397 61.191,15.448 61.332,15.983 62.540 C 16.176 62.974,16.333 63.482,16.333 63.668 C 16.333 63.855,16.516 64.287,16.740 64.629 C 16.963 64.970,17.201 65.473,17.267 65.745 C 17.334 66.018,17.638 66.655,17.944 67.162 C 18.249 67.669,18.499 68.162,18.500 68.259 C 18.501 68.785,19.638 69.521,20.684 69.673 C 22.381 69.918,30.954 69.879,31.117 69.625 C 31.190 69.510,31.666 69.219,32.174 68.977 C 32.682 68.735,33.428 68.248,33.831 67.894 C 35.899 66.076,36.595 65.401,36.717 65.095 C 36.790 64.911,36.904 64.720,36.971 64.671 C 37.037 64.623,37.380 64.021,37.732 63.333 C 38.084 62.646,38.569 61.702,38.811 61.236 C 39.052 60.770,39.349 60.132,39.469 59.819 C 39.590 59.506,39.770 59.100,39.870 58.917 C 40.258 58.205,40.316 58.070,40.405 57.667 C 40.573 56.907,40.702 56.824,41.424 57.019 C 42.185 57.224,42.088 57.143,44.875 59.895 C 46.044 61.049,47.000 62.092,47.000 62.211 C 47.000 62.331,47.375 62.799,47.833 63.250 C 48.292 63.701,48.667 64.170,48.667 64.291 C 48.667 64.412,48.776 64.553,48.910 64.604 C 49.044 64.655,49.199 64.841,49.255 65.015 C 49.375 65.395,50.333 65.476,50.333 65.106 C 50.333 64.831,51.492 64.000,51.876 64.000 C 52.027 64.000,52.215 63.883,52.295 63.740 C 52.486 63.400,54.138 63.030,56.417 62.819 C 57.425 62.725,58.400 62.583,58.583 62.502 C 59.069 62.288,59.946 62.048,61.083 61.817 C 61.633 61.705,62.155 61.550,62.242 61.473 C 62.329 61.396,62.591 61.332,62.825 61.331 C 63.059 61.330,63.438 61.220,63.667 61.087 C 63.896 60.955,64.196 60.793,64.333 60.728 C 64.471 60.663,64.746 60.452,64.945 60.258 C 65.143 60.064,65.642 59.739,66.051 59.534 C 66.461 59.329,66.889 59.050,67.002 58.914 C 67.115 58.778,67.313 58.667,67.442 58.667 C 67.571 58.667,67.720 58.554,67.773 58.417 C 67.826 58.279,67.933 58.167,68.010 58.167 C 68.298 58.167,70.372 56.593,71.306 55.668 C 71.444 55.531,71.682 55.343,71.834 55.251 C 72.646 54.759,73.675 53.902,73.754 53.653 C 73.804 53.497,74.070 53.276,74.345 53.162 C 74.621 53.048,74.921 52.815,75.012 52.644 C 75.104 52.473,75.274 52.333,75.391 52.333 C 75.508 52.333,75.754 52.193,75.938 52.022 C 76.122 51.850,76.568 51.609,76.928 51.486 C 77.288 51.363,77.782 51.128,78.026 50.964 C 78.705 50.507,86.738 50.510,86.983 50.968 C 87.123 51.229,87.538 51.294,90.141 51.458 C 91.790 51.561,93.276 51.720,93.444 51.811 C 93.612 51.901,94.381 52.093,95.152 52.237 C 97.204 52.620,97.190 53.055,95.118 53.243 C 94.457 53.303,93.729 53.433,93.500 53.532 C 93.271 53.630,92.933 53.771,92.750 53.843 C 92.567 53.916,91.752 54.023,90.940 54.081 C 90.127 54.140,89.340 54.251,89.190 54.328 C 89.040 54.406,87.493 54.554,85.753 54.656 C 84.014 54.759,82.517 54.916,82.428 55.005 C 82.339 55.094,82.024 55.167,81.727 55.167 C 81.429 55.167,81.144 55.236,81.091 55.321 C 81.039 55.405,80.779 55.522,80.514 55.580 C 79.992 55.695,79.412 56.461,78.502 58.240 C 77.696 59.817,78.448 63.000,79.628 63.000 C 79.720 63.000,80.062 63.296,80.389 63.658 C 80.716 64.020,81.212 64.435,81.492 64.579 C 81.771 64.724,82.000 64.906,82.000 64.985 C 82.000 65.064,82.281 65.259,82.625 65.418 C 82.969 65.578,83.400 65.838,83.583 65.998 C 83.951 66.317,85.006 66.716,85.137 66.585 C 85.183 66.539,85.318 66.643,85.439 66.814 C 85.611 67.060,85.968 67.152,87.120 67.247 C 87.925 67.313,88.680 67.446,88.799 67.543 C 89.115 67.801,98.914 67.941,99.069 67.689 C 99.134 67.585,99.496 67.500,99.875 67.500 C 100.626 67.500,102.386 67.205,102.917 66.991 C 103.100 66.917,103.624 66.806,104.081 66.745 C 104.538 66.684,105.116 66.529,105.365 66.401 C 105.613 66.272,106.004 66.167,106.233 66.167 C 106.462 66.167,106.998 65.981,107.424 65.754 C 107.851 65.528,108.473 65.293,108.808 65.232 C 109.143 65.172,109.734 64.911,110.121 64.653 C 110.508 64.395,111.108 64.133,111.454 64.072 C 111.800 64.011,112.196 63.828,112.333 63.665 C 112.471 63.503,112.921 63.191,113.333 62.973 C 113.746 62.755,114.301 62.372,114.566 62.122 C 114.831 61.871,115.139 61.667,115.249 61.667 C 115.358 61.667,115.584 61.517,115.750 61.333 C 115.916 61.150,116.150 61.000,116.269 61.000 C 116.389 61.000,116.621 60.856,116.785 60.680 C 116.949 60.504,117.271 60.313,117.500 60.254 C 117.961 60.137,120.167 58.152,120.167 57.854 C 120.167 57.751,120.226 57.667,120.298 57.667 C 120.528 57.667,122.280 55.412,122.837 54.397 C 123.134 53.858,123.467 53.304,123.577 53.167 C 123.688 53.029,123.873 52.678,123.988 52.387 C 124.103 52.096,124.340 51.728,124.515 51.570 C 124.690 51.411,124.833 51.222,124.833 51.148 C 124.833 51.075,125.021 50.739,125.250 50.401 C 125.479 50.063,125.667 49.903,125.667 50.044 C 125.667 50.358,126.349 51.667,126.512 51.667 C 126.577 51.667,126.679 51.928,126.739 52.248 C 126.799 52.568,126.992 52.906,127.168 53.001 C 127.344 53.095,127.449 53.273,127.401 53.398 C 127.276 53.724,128.743 55.833,129.095 55.833 C 129.205 55.833,129.342 55.965,129.400 56.125 C 129.578 56.618,129.938 57.167,130.396 57.645 C 130.636 57.896,130.833 58.158,130.833 58.228 C 130.833 58.297,131.283 58.789,131.833 59.320 C 132.383 59.852,132.833 60.372,132.833 60.477 C 132.833 60.581,132.937 60.667,133.064 60.667 C 133.191 60.667,133.422 60.934,133.577 61.260 C 133.732 61.586,133.965 61.894,134.096 61.945 C 134.227 61.995,134.333 62.178,134.333 62.351 C 134.333 62.525,134.446 62.667,134.583 62.667 C 134.721 62.667,134.833 62.775,134.833 62.908 C 134.833 63.041,134.927 63.210,135.042 63.283 C 135.156 63.357,135.362 63.610,135.500 63.846 C 136.183 65.020,136.444 65.332,136.750 65.344 C 136.933 65.352,137.308 65.498,137.583 65.670 C 138.551 66.273,138.987 66.466,139.864 66.679 C 140.351 66.797,140.821 66.955,140.908 67.030 C 140.995 67.105,141.262 67.167,141.500 67.167 C 141.738 67.167,142.022 67.255,142.130 67.363 C 142.472 67.706,146.873 67.770,147.150 67.437 C 147.273 67.288,147.454 67.167,147.551 67.167 C 147.855 67.167,149.167 66.478,149.167 66.318 C 149.167 66.235,149.282 66.167,149.423 66.167 C 149.727 66.167,150.528 65.679,150.717 65.379 C 150.790 65.262,151.074 65.167,151.347 65.167 C 151.667 65.167,151.883 65.063,151.954 64.875 C 152.119 64.440,152.408 64.196,152.908 64.071 C 153.155 64.009,153.445 63.817,153.552 63.646 C 153.659 63.474,153.839 63.333,153.951 63.333 C 154.063 63.333,154.235 63.183,154.333 63.000 C 154.457 62.770,154.682 62.667,155.064 62.667 C 155.482 62.667,155.710 62.545,156.000 62.167 C 156.211 61.892,156.489 61.667,156.617 61.667 C 156.746 61.667,157.256 61.442,157.750 61.167 C 158.244 60.892,158.766 60.667,158.910 60.667 C 159.054 60.667,159.301 60.597,159.461 60.512 C 159.620 60.427,159.862 60.314,160.000 60.260 C 160.137 60.207,160.475 60.014,160.750 59.832 C 161.025 59.651,161.569 59.354,161.958 59.173 C 162.348 58.993,162.667 58.768,162.667 58.673 C 162.667 58.578,162.798 58.495,162.958 58.489 C 163.119 58.483,163.587 58.222,164.000 57.910 C 166.033 56.371,166.856 56.266,167.966 57.404 C 168.268 57.714,168.770 58.142,169.081 58.355 C 169.393 58.569,169.691 58.858,169.744 58.997 C 169.797 59.136,170.038 59.587,170.279 60.000 C 170.520 60.413,171.118 61.556,171.609 62.542 C 172.569 64.471,172.881 64.710,173.402 63.916 C 173.702 63.457,174.858 62.667,175.228 62.667 C 175.356 62.667,175.584 62.480,175.733 62.253 C 175.882 62.025,176.191 61.792,176.419 61.735 C 176.647 61.677,176.833 61.564,176.833 61.482 C 176.833 61.400,177.012 61.333,177.230 61.333 C 177.448 61.333,177.719 61.221,177.833 61.083 C 177.947 60.946,178.178 60.833,178.345 60.833 C 178.513 60.833,178.710 60.738,178.783 60.621 C 178.973 60.319,179.774 59.833,180.083 59.833 C 180.226 59.833,180.384 59.728,180.434 59.598 C 180.484 59.469,180.719 59.314,180.957 59.255 C 181.195 59.195,181.575 59.001,181.801 58.823 C 182.027 58.645,182.354 58.500,182.528 58.500 C 182.702 58.500,182.887 58.387,182.940 58.250 C 182.992 58.112,183.173 58.000,183.341 58.000 C 183.509 58.000,183.693 57.925,183.750 57.833 C 183.807 57.742,184.001 57.667,184.182 57.667 C 184.363 57.667,184.551 57.561,184.601 57.432 C 184.650 57.302,184.889 57.147,185.130 57.086 C 185.372 57.026,185.948 56.801,186.410 56.588 C 186.872 56.374,187.523 56.080,187.857 55.934 C 188.191 55.788,188.507 55.555,188.560 55.417 C 188.613 55.280,188.804 55.167,188.985 55.167 C 189.166 55.167,189.360 55.092,189.417 55.000 C 189.473 54.908,189.669 54.833,189.852 54.833 C 190.272 54.833,191.508 54.174,191.793 53.798 C 191.912 53.642,192.270 53.464,192.588 53.405 C 192.906 53.345,193.167 53.239,193.167 53.170 C 193.167 53.100,194.123 52.570,195.292 51.991 C 196.460 51.412,197.754 50.705,198.167 50.419 C 198.579 50.133,199.104 49.806,199.333 49.691 C 200.308 49.206,200.667 48.972,200.667 48.824 C 200.667 48.738,200.771 48.667,200.899 48.667 C 201.027 48.667,201.174 48.554,201.227 48.417 C 201.280 48.279,201.412 48.167,201.521 48.167 C 201.630 48.167,201.969 47.976,202.275 47.742 C 203.593 46.737,203.786 46.746,204.868 47.869 C 205.399 48.420,205.833 48.927,205.833 48.994 C 205.833 49.061,206.076 49.447,206.373 49.850 C 207.029 50.740,207.250 51.095,207.569 51.763 C 207.704 52.046,207.931 52.373,208.074 52.492 C 208.217 52.611,208.333 52.839,208.333 53.000 C 208.333 53.161,208.446 53.386,208.583 53.500 C 208.721 53.614,208.833 53.811,208.833 53.937 C 208.833 54.063,208.908 54.167,209.000 54.167 C 209.092 54.167,209.167 54.273,209.167 54.402 C 209.167 54.614,209.933 55.995,210.964 57.642 C 211.174 57.976,211.456 58.494,211.591 58.792 C 211.727 59.090,211.907 59.333,211.991 59.333 C 212.075 59.333,212.197 59.498,212.260 59.700 C 212.658 60.951,217.066 64.167,218.384 64.167 C 218.744 64.167,220.700 64.828,220.908 65.021 C 221.194 65.284,223.833 65.201,223.833 64.928 C 223.833 64.696,225.109 64.237,226.292 64.045 C 226.590 63.996,226.833 63.887,226.833 63.803 C 226.833 63.719,227.115 63.535,227.458 63.394 C 227.802 63.254,228.458 62.966,228.917 62.756 C 229.375 62.545,230.027 62.250,230.366 62.100 C 231.171 61.742,233.333 60.016,233.333 59.730 C 233.333 59.608,233.521 59.385,233.750 59.235 C 233.979 59.085,234.167 58.849,234.167 58.711 C 234.167 58.573,234.484 57.776,234.873 56.939 L 235.579 55.417 235.635 52.042 C 235.672 49.814,235.751 48.667,235.868 48.667 C 236.499 48.667,239.441 51.360,240.418 52.833 C 240.692 53.246,240.953 53.621,241.000 53.667 C 241.246 53.912,242.333 55.633,242.333 55.778 C 242.333 55.872,242.484 56.085,242.668 56.251 C 242.852 56.418,243.104 56.748,243.229 56.985 C 243.790 58.056,243.988 58.316,245.048 59.372 C 246.502 60.821,247.781 61.629,249.243 62.024 C 249.889 62.199,250.567 62.407,250.750 62.487 C 250.933 62.568,251.630 62.729,252.299 62.845 C 252.968 62.961,253.554 63.119,253.601 63.195 C 253.762 63.456,255.306 63.353,255.463 63.071 C 255.548 62.920,255.921 62.774,256.347 62.725 C 257.130 62.636,257.160 62.625,258.833 61.863 C 259.429 61.592,260.071 61.324,260.261 61.267 C 260.802 61.105,264.500 57.419,264.500 57.041 C 264.500 56.955,264.650 56.749,264.833 56.583 C 265.017 56.417,265.169 56.162,265.172 56.016 C 265.179 55.675,265.563 55.167,265.814 55.167 C 265.920 55.167,266.093 54.979,266.197 54.750 C 266.301 54.521,266.487 54.333,266.610 54.333 C 266.733 54.333,266.833 54.265,266.833 54.182 C 266.833 54.098,267.391 53.724,268.072 53.350 C 268.754 52.976,269.358 52.594,269.416 52.502 C 269.473 52.409,269.759 52.332,270.052 52.331 C 270.344 52.329,271.179 52.029,271.907 51.664 C 272.635 51.299,273.287 51.000,273.356 51.000 C 273.508 51.000,273.033 52.684,272.818 52.908 C 272.735 52.995,272.667 53.310,272.667 53.607 C 272.667 53.904,272.592 54.193,272.500 54.250 C 272.104 54.495,272.305 57.249,272.750 57.667 C 272.979 57.882,273.167 58.159,273.167 58.283 C 273.167 58.407,273.347 58.577,273.567 58.661 C 273.787 58.744,274.017 58.892,274.077 58.990 C 274.243 59.258,275.333 59.213,275.333 58.938 C 275.333 58.803,275.590 58.667,275.958 58.607 C 276.302 58.550,277.029 58.281,277.574 58.008 C 278.118 57.736,278.793 57.463,279.074 57.402 C 279.354 57.341,279.731 57.188,279.912 57.062 C 280.093 56.936,280.482 56.833,280.777 56.833 C 281.072 56.833,281.359 56.760,281.414 56.671 C 281.469 56.582,281.867 56.401,282.299 56.270 C 282.730 56.138,283.421 55.884,283.833 55.705 C 284.804 55.282,285.224 55.116,285.361 55.098 C 285.422 55.090,285.528 55.027,285.597 54.958 C 285.666 54.890,285.860 54.833,286.028 54.833 C 286.196 54.833,286.499 54.668,286.701 54.466 C 287.081 54.086,288.324 53.195,289.708 52.311 C 290.144 52.032,290.500 51.699,290.500 51.569 C 290.500 51.439,290.585 51.333,290.689 51.333 C 290.792 51.333,291.125 51.071,291.427 50.750 C 291.730 50.429,292.028 50.167,292.090 50.167 C 292.152 50.167,292.486 49.942,292.833 49.667 C 293.181 49.392,293.530 49.167,293.609 49.167 C 293.688 49.167,293.847 49.016,293.962 48.833 C 294.076 48.649,294.555 48.314,295.025 48.087 C 295.495 47.860,295.986 47.523,296.116 47.337 C 296.246 47.152,296.461 47.000,296.595 47.000 C 296.729 47.000,296.968 46.930,297.127 46.845 C 297.802 46.484,298.953 46.000,299.136 46.000 C 299.245 46.000,299.333 45.941,299.333 45.868 C 299.333 45.368,304.414 45.082,304.602 45.571 C 304.652 45.702,304.987 45.858,305.346 45.919 C 305.705 45.979,306.041 46.097,306.092 46.181 C 306.144 46.265,306.305 46.333,306.451 46.333 C 306.596 46.333,307.257 46.594,307.920 46.913 C 308.582 47.231,309.303 47.573,309.520 47.671 C 309.738 47.770,310.217 48.034,310.583 48.259 C 310.950 48.484,311.381 48.714,311.542 48.770 C 311.702 48.826,311.833 48.938,311.833 49.019 C 311.833 49.100,311.937 49.167,312.063 49.167 C 312.189 49.167,312.386 49.279,312.500 49.417 C 312.614 49.554,312.843 49.667,313.008 49.667 C 313.174 49.667,313.521 49.918,313.780 50.226 C 314.038 50.533,314.475 50.927,314.750 51.101 C 315.449 51.543,316.107 52.118,316.991 53.059 C 319.632 55.871,320.680 56.806,321.311 56.913 C 321.660 56.972,322.165 57.134,322.432 57.273 C 323.627 57.897,330.465 58.086,330.618 57.500 C 330.694 57.212,330.846 57.167,331.736 57.167 C 332.303 57.167,332.842 57.091,332.934 57.000 C 333.026 56.908,334.522 56.753,336.259 56.657 C 337.996 56.560,339.547 56.410,339.706 56.324 C 339.865 56.237,340.165 56.164,340.373 56.161 C 341.257 56.149,342.478 54.426,342.762 52.790 C 342.822 52.445,342.938 52.122,343.019 52.072 C 343.296 51.901,343.201 46.569,342.917 46.333 C 342.779 46.219,342.667 46.064,342.667 45.988 C 342.667 45.591,340.928 43.333,340.622 43.333 C 340.457 43.333,338.949 42.156,338.861 41.958 C 338.831 41.890,338.712 41.833,338.597 41.833 C 338.483 41.833,338.170 41.610,337.903 41.338 C 337.635 41.066,337.331 40.841,337.227 40.838 C 337.122 40.835,336.747 40.573,336.393 40.254 C 336.040 39.935,335.631 39.673,335.486 39.671 C 335.341 39.668,335.171 39.615,335.108 39.552 C 334.581 39.026,333.217 38.903,332.667 39.333 C 332.438 39.513,332.048 39.661,331.802 39.663 C 331.555 39.665,331.307 39.742,331.250 39.833 C 331.193 39.925,331.044 40.000,330.918 40.000 C 330.792 40.000,330.477 40.087,330.219 40.193 C 329.961 40.300,329.667 40.374,329.566 40.358 C 329.356 40.326,327.667 41.939,327.667 42.172 C 327.667 42.256,327.526 42.556,327.355 42.838 L 327.043 43.351 326.713 42.791 C 326.531 42.483,326.331 41.957,326.268 41.622 C 326.206 41.288,326.045 40.805,325.911 40.549 C 325.638 40.025,325.580 38.407,325.829 38.253 C 325.918 38.198,326.073 37.837,326.174 37.451 C 326.275 37.066,326.450 36.675,326.564 36.583 C 326.678 36.492,326.814 36.300,326.868 36.158 C 326.921 36.015,327.291 35.794,327.691 35.666 C 328.090 35.539,328.679 35.305,329.000 35.148 C 329.590 34.859,336.189 34.498,340.865 34.499 C 341.874 34.500,342.692 34.428,342.750 34.333 C 342.959 33.996,346.535 34.136,347.000 34.500 C 347.229 34.679,347.579 34.828,347.778 34.830 C 348.436 34.836,350.439 35.877,350.885 36.445 C 351.053 36.659,351.335 36.833,351.512 36.833 C 351.689 36.833,351.833 36.908,351.833 37.000 C 351.833 37.092,351.929 37.167,352.045 37.167 C 352.162 37.167,352.656 37.429,353.143 37.750 C 353.631 38.071,354.100 38.333,354.187 38.333 C 354.396 38.333,355.147 38.820,355.667 39.292 C 355.896 39.500,356.226 39.716,356.401 39.771 C 356.576 39.827,356.884 40.051,357.087 40.269 C 357.289 40.488,357.570 40.667,357.710 40.667 C 357.850 40.667,358.008 40.779,358.060 40.917 C 358.113 41.054,358.230 41.167,358.320 41.167 C 358.411 41.167,358.986 41.542,359.600 42.000 C 360.213 42.458,360.771 42.833,360.841 42.833 C 360.910 42.833,361.046 43.058,361.142 43.333 C 361.238 43.608,361.381 43.833,361.460 43.833 C 361.540 43.833,361.704 44.087,361.826 44.397 C 361.948 44.708,362.334 45.240,362.684 45.580 C 363.034 45.919,363.371 46.359,363.433 46.557 C 363.495 46.755,363.730 47.137,363.956 47.407 C 364.182 47.677,364.432 48.071,364.512 48.282 C 364.593 48.494,364.732 48.667,364.821 48.667 C 364.911 48.667,365.139 48.985,365.328 49.375 C 366.790 52.385,368.998 54.021,372.049 54.356 C 372.984 54.459,373.821 54.608,373.908 54.688 C 374.196 54.952,376.286 54.864,376.394 54.583 C 376.446 54.446,376.623 54.333,376.786 54.333 C 377.184 54.333,378.713 53.514,379.450 52.906 C 380.390 52.132,381.500 51.026,381.500 50.865 C 381.500 50.785,381.650 50.583,381.833 50.417 C 382.017 50.251,382.167 50.033,382.168 49.933 C 382.168 49.832,382.278 49.540,382.412 49.284 C 382.625 48.876,382.625 48.807,382.411 48.725 C 382.092 48.602,382.097 47.853,382.419 47.497 C 382.596 47.301,382.703 46.665,382.778 45.359 C 382.897 43.269,382.897 43.269,383.584 44.113 C 383.859 44.450,384.215 44.863,384.375 45.030 C 384.535 45.197,384.670 45.390,384.673 45.458 C 384.677 45.527,384.902 45.843,385.173 46.160 C 385.445 46.478,385.667 46.829,385.667 46.940 C 385.667 47.052,385.922 47.414,386.234 47.745 C 386.546 48.075,386.920 48.595,387.064 48.900 C 387.209 49.205,387.441 49.549,387.580 49.664 C 387.719 49.780,387.833 49.949,387.833 50.040 C 387.833 50.250,389.075 51.500,389.283 51.500 C 389.474 51.500,391.250 53.377,391.628 53.980 C 391.779 54.220,392.225 54.834,392.618 55.344 C 393.012 55.854,393.333 56.334,393.333 56.410 C 393.333 56.487,393.693 56.895,394.133 57.317 C 394.573 57.738,394.983 58.215,395.044 58.375 C 395.106 58.535,395.258 58.667,395.381 58.667 C 395.505 58.667,395.859 58.892,396.167 59.167 C 396.475 59.442,396.830 59.667,396.957 59.667 C 397.291 59.667,399.278 60.649,399.510 60.929 C 399.803 61.282,400.000 61.218,400.000 60.770 C 400.000 60.366,398.979 59.410,398.771 59.618 C 398.713 59.675,398.667 59.635,398.667 59.528 C 398.667 59.421,398.521 59.333,398.343 59.333 C 398.165 59.333,397.977 59.265,397.926 59.181 C 397.874 59.097,397.476 58.857,397.041 58.647 C 395.993 58.141,393.333 55.440,393.333 54.881 C 393.333 54.804,393.183 54.632,393.000 54.500 C 392.817 54.368,392.667 54.196,392.667 54.119 C 392.667 53.768,390.091 50.953,389.609 50.777 C 389.440 50.715,389.264 50.522,389.219 50.348 C 389.173 50.174,388.993 49.993,388.818 49.948 C 388.643 49.902,388.500 49.750,388.500 49.609 C 388.500 49.469,388.275 49.108,388.000 48.806 C 387.725 48.505,387.500 48.208,387.500 48.146 C 387.500 48.084,387.237 47.770,386.916 47.449 C 386.539 47.073,386.368 46.770,386.434 46.599 C 386.491 46.450,386.451 46.333,386.343 46.333 C 386.237 46.333,386.047 46.090,385.922 45.792 C 385.797 45.494,385.383 44.913,385.000 44.500 C 384.618 44.087,383.955 43.357,383.528 42.876 C 382.710 41.957,382.356 41.820,381.979 42.277 C 381.800 42.493,381.796 42.570,381.958 42.624 C 382.214 42.710,382.252 45.261,382.000 45.417 C 381.908 45.473,381.833 45.811,381.833 46.167 C 381.833 46.523,381.758 46.860,381.667 46.917 C 381.575 46.973,381.500 47.579,381.500 48.262 C 381.500 49.610,381.139 50.444,380.378 50.853 C 380.173 50.963,379.962 51.191,379.908 51.360 C 379.855 51.529,379.759 51.667,379.695 51.667 C 379.632 51.667,379.393 51.838,379.165 52.046 C 378.562 52.598,377.667 53.209,377.667 53.069 C 377.667 53.003,377.535 53.060,377.375 53.196 C 376.418 54.008,375.125 54.118,372.024 53.648 C 371.023 53.497,368.482 52.451,368.361 52.141 C 368.330 52.062,368.011 51.692,367.652 51.318 C 367.294 50.945,367.000 50.545,367.000 50.429 C 367.000 50.313,366.842 50.075,366.649 49.901 C 366.456 49.726,366.161 49.316,365.994 48.989 C 365.828 48.662,365.574 48.297,365.431 48.178 C 365.287 48.059,365.208 47.902,365.253 47.828 C 365.299 47.754,365.204 47.565,365.043 47.407 C 364.767 47.137,364.427 46.656,362.975 44.480 C 362.641 43.979,362.247 43.469,362.100 43.347 C 361.953 43.226,361.833 43.028,361.833 42.907 C 361.833 42.787,361.477 42.403,361.042 42.053 C 360.606 41.703,360.212 41.367,360.167 41.307 C 360.021 41.117,358.347 40.000,358.208 40.000 C 358.134 40.000,357.824 39.772,357.518 39.492 C 357.213 39.213,356.884 39.011,356.788 39.043 C 356.692 39.075,356.344 38.846,356.015 38.534 C 355.686 38.222,354.892 37.716,354.250 37.408 C 352.627 36.630,351.806 36.143,351.417 35.727 C 351.233 35.531,350.896 35.316,350.667 35.249 C 350.438 35.182,350.117 35.011,349.955 34.868 C 348.785 33.840,342.727 32.895,342.250 33.667 " stroke="none" fill="#2c1404" fill-rule="evenodd"></path></g></svg>