<svg id="svg" version="1.1" xmlns="http://www.w3.org/2000/svg" xmlns:xlink="http://www.w3.org/1999/xlink" width="400" height="120" viewBox="0, 0, 400,120"><g id="svgg"><path id="path0" d="M342.250 33.667 C 342.185 33.772,340.332 33.833,337.240 33.833 C 334.541 33.833,332.333 33.890,332.333 33.960 C 332.333 34.029,331.995 34.059,331.582 34.026 C 330.638 33.951,328.702 34.277,328.214 34.594 C 328.011 34.726,327.736 34.833,327.603 34.833 C 327.253 34.833,326.336 35.385,326.334 35.596 C 326.334 35.695,326.146 35.951,325.917 36.167 C 325.688 36.382,325.500 36.733,325.500 36.946 C 325.500 37.159,325.344 37.489,325.154 37.679 C 324.440 38.393,324.873 40.731,326.250 43.598 C 327.094 45.357,327.939 45.744,327.803 44.310 C 327.769 43.956,327.784 43.667,327.836 43.667 C 327.888 43.667,328.141 43.250,328.399 42.741 C 328.968 41.618,329.717 41.080,331.289 40.667 C 331.915 40.503,332.688 40.222,333.005 40.044 L 333.583 39.720 334.712 40.249 C 335.332 40.540,335.932 40.888,336.045 41.023 C 336.158 41.157,336.587 41.488,337.000 41.759 C 337.412 42.029,337.775 42.306,337.806 42.375 C 337.836 42.444,337.949 42.501,338.056 42.502 C 338.162 42.503,338.562 42.784,338.944 43.127 C 339.325 43.470,339.944 43.971,340.319 44.240 C 340.693 44.510,341.000 44.829,341.000 44.949 C 341.000 45.069,341.125 45.167,341.278 45.167 C 341.431 45.167,341.508 45.214,341.449 45.273 C 341.391 45.331,341.491 45.587,341.672 45.840 C 341.852 46.094,342.000 46.417,342.000 46.558 C 342.000 46.698,342.075 46.860,342.167 46.917 C 342.265 46.978,342.333 48.002,342.333 49.427 C 342.333 50.920,342.270 51.833,342.167 51.833 C 342.075 51.833,342.000 52.117,342.000 52.465 C 342.000 53.068,341.628 54.013,341.193 54.515 C 341.080 54.644,340.893 54.889,340.776 55.058 C 340.460 55.516,339.360 55.711,336.667 55.785 C 335.337 55.821,334.179 55.922,334.092 56.009 C 334.005 56.096,333.653 56.167,333.310 56.167 C 332.967 56.167,332.640 56.242,332.583 56.333 C 332.527 56.425,331.963 56.500,331.332 56.500 C 330.436 56.500,330.149 56.561,330.029 56.776 C 329.890 57.024,329.552 57.042,326.799 56.956 C 321.958 56.803,321.311 56.515,318.240 53.143 C 317.959 52.835,317.584 52.455,317.406 52.298 C 317.229 52.140,316.927 51.840,316.737 51.631 C 315.936 50.751,313.893 49.256,312.542 48.562 C 312.060 48.315,311.667 48.061,311.667 47.998 C 311.667 47.935,311.160 47.630,310.542 47.321 C 309.923 47.012,309.071 46.551,308.648 46.296 C 308.226 46.042,307.682 45.833,307.440 45.833 C 307.198 45.833,307.000 45.762,307.000 45.675 C 307.000 45.588,306.557 45.430,306.015 45.323 C 305.288 45.180,305.007 45.047,304.947 44.815 C 304.854 44.458,300.298 44.319,300.083 44.667 C 300.027 44.758,299.802 44.833,299.583 44.833 C 299.365 44.833,299.137 44.913,299.077 45.010 C 298.947 45.220,298.151 45.570,297.926 45.516 C 297.737 45.471,297.004 45.834,296.696 46.125 C 296.575 46.240,296.369 46.333,296.238 46.333 C 296.107 46.333,296.000 46.408,296.000 46.500 C 296.000 46.592,295.941 46.648,295.870 46.625 C 295.798 46.602,295.517 46.755,295.245 46.964 C 293.575 48.250,292.021 49.333,291.845 49.333 C 291.732 49.333,291.352 49.633,291.000 50.000 C 290.648 50.367,290.277 50.667,290.176 50.667 C 290.074 50.667,289.925 50.843,289.843 51.058 C 289.761 51.273,289.426 51.576,289.097 51.732 C 288.769 51.888,288.500 52.089,288.500 52.179 C 288.500 52.268,288.331 52.418,288.125 52.511 C 287.496 52.796,287.000 53.106,286.552 53.496 C 286.317 53.701,285.876 53.972,285.573 54.098 C 285.271 54.225,284.979 54.399,284.926 54.485 C 284.873 54.571,284.587 54.690,284.290 54.750 C 283.774 54.853,282.488 55.307,281.417 55.762 C 281.142 55.879,280.560 56.065,280.125 56.174 C 279.690 56.283,279.333 56.443,279.333 56.530 C 279.333 56.616,279.264 56.643,279.178 56.590 C 279.093 56.538,278.976 56.571,278.918 56.664 C 278.861 56.757,278.646 56.833,278.442 56.833 C 278.238 56.833,277.776 56.983,277.417 57.167 C 277.057 57.350,276.666 57.500,276.548 57.500 C 276.430 57.500,276.333 57.575,276.333 57.667 C 276.333 57.758,276.127 57.834,275.875 57.834 C 275.623 57.835,275.213 57.941,274.965 58.071 C 274.163 58.490,273.164 57.301,273.174 55.939 C 273.183 54.643,273.402 53.497,273.672 53.330 C 273.787 53.259,273.843 53.056,273.797 52.879 C 273.751 52.702,273.815 52.417,273.940 52.247 C 274.065 52.076,274.167 51.801,274.167 51.636 C 274.167 51.471,274.317 51.242,274.500 51.128 C 274.888 50.886,274.938 50.295,274.596 50.010 C 274.334 49.793,273.167 49.936,273.167 50.185 C 273.167 50.267,273.056 50.333,272.921 50.333 C 272.586 50.333,271.167 51.034,271.167 51.200 C 271.167 51.273,270.979 51.333,270.750 51.333 C 270.521 51.333,270.333 51.413,270.333 51.510 C 270.333 51.607,270.260 51.641,270.170 51.585 C 269.932 51.439,268.647 51.858,268.548 52.115 C 268.502 52.235,268.369 52.333,268.253 52.333 C 268.136 52.333,267.951 52.441,267.842 52.573 C 267.733 52.704,267.416 52.862,267.138 52.923 C 266.622 53.036,266.515 53.124,265.500 54.262 C 264.588 55.286,264.005 56.116,264.118 56.229 C 264.175 56.287,264.135 56.333,264.028 56.333 C 263.921 56.333,263.833 56.438,263.833 56.566 C 263.833 56.693,263.721 56.841,263.583 56.894 C 263.446 56.946,263.333 57.142,263.333 57.328 C 263.333 57.514,263.267 57.648,263.187 57.625 C 263.038 57.583,262.024 58.547,261.739 59.002 C 261.531 59.333,260.232 60.333,260.010 60.333 C 259.913 60.333,259.833 60.408,259.833 60.500 C 259.833 60.592,259.689 60.667,259.512 60.667 C 259.335 60.667,259.082 60.776,258.948 60.909 C 258.815 61.042,258.656 61.100,258.594 61.039 C 258.532 60.977,258.430 61.007,258.366 61.105 C 258.213 61.341,256.198 62.035,255.667 62.035 C 255.438 62.035,255.127 62.144,254.978 62.276 C 254.686 62.534,253.081 62.432,252.903 62.145 C 252.854 62.065,252.612 61.997,252.365 61.993 C 251.831 61.984,250.399 61.622,250.230 61.453 C 250.165 61.387,249.899 61.333,249.639 61.333 C 249.379 61.333,249.167 61.258,249.167 61.167 C 249.167 61.075,248.998 60.998,248.792 60.996 C 248.585 60.994,248.229 60.846,248.000 60.667 C 247.771 60.487,247.508 60.338,247.417 60.334 C 247.134 60.323,244.291 57.475,244.172 57.083 C 244.043 56.657,243.768 56.167,243.659 56.167 C 243.592 56.167,243.410 55.897,243.254 55.568 C 242.988 55.008,241.084 52.183,240.849 52.000 C 240.790 51.954,240.481 51.580,240.162 51.168 C 239.844 50.757,239.358 50.219,239.083 49.973 C 238.808 49.728,238.334 49.305,238.028 49.035 C 237.274 48.367,235.434 47.463,234.965 47.529 C 234.539 47.590,234.319 48.552,234.655 48.888 C 234.952 49.186,234.893 55.357,234.589 55.760 C 234.454 55.938,234.342 56.182,234.339 56.303 C 234.336 56.423,234.154 56.761,233.935 57.053 C 233.716 57.345,233.485 57.828,233.421 58.128 C 233.323 58.590,231.333 60.909,231.333 60.562 C 231.333 60.506,231.090 60.645,230.792 60.872 C 230.494 61.098,229.969 61.375,229.625 61.488 C 229.281 61.600,229.000 61.762,229.000 61.846 C 229.000 61.931,228.890 62.000,228.755 62.000 C 228.620 62.000,228.243 62.150,227.917 62.333 C 227.590 62.517,227.213 62.667,227.078 62.667 C 226.944 62.667,226.693 62.807,226.522 62.978 C 226.351 63.149,225.995 63.331,225.731 63.383 C 224.564 63.612,223.401 64.022,223.219 64.267 C 223.006 64.555,221.433 64.463,221.240 64.151 C 221.189 64.068,220.931 64.000,220.667 64.000 C 220.402 64.000,220.147 63.936,220.098 63.857 C 220.049 63.779,219.558 63.618,219.005 63.501 C 218.452 63.384,218.000 63.223,218.000 63.144 C 218.000 63.065,217.884 63.000,217.741 63.000 C 217.450 63.000,216.113 62.317,216.028 62.125 C 215.997 62.056,215.900 62.000,215.812 62.000 C 215.623 62.000,215.453 61.862,214.202 60.695 C 213.678 60.207,213.269 59.738,213.292 59.654 C 213.315 59.569,213.258 59.500,213.167 59.500 C 213.075 59.500,213.000 59.388,213.000 59.251 C 213.000 59.115,212.850 58.909,212.667 58.795 C 212.483 58.680,212.333 58.480,212.333 58.351 C 212.333 58.221,212.146 57.869,211.917 57.569 C 211.688 57.268,211.500 56.905,211.500 56.761 C 211.500 56.618,211.444 56.500,211.375 56.500 C 211.306 56.500,211.039 56.125,210.782 55.666 C 210.525 55.208,210.249 54.833,210.170 54.833 C 210.091 54.833,209.974 54.590,209.909 54.292 C 209.845 53.994,209.651 53.551,209.479 53.308 C 209.307 53.064,209.167 52.740,209.167 52.586 C 209.167 52.433,208.947 52.088,208.679 51.821 C 208.412 51.553,208.237 51.333,208.292 51.333 C 208.347 51.333,208.215 51.146,208.000 50.917 C 207.785 50.688,207.678 50.498,207.763 50.495 C 207.847 50.492,207.780 50.386,207.614 50.260 C 207.447 50.134,207.306 49.967,207.299 49.890 C 207.285 49.737,207.010 49.266,206.348 48.263 C 204.947 46.139,203.385 45.633,202.086 46.883 C 201.901 47.061,201.513 47.308,201.224 47.432 C 200.934 47.556,200.559 47.834,200.390 48.048 C 200.222 48.262,199.577 48.676,198.958 48.968 C 198.340 49.261,197.833 49.575,197.833 49.666 C 197.833 49.758,197.753 49.833,197.656 49.833 C 197.558 49.833,197.232 50.020,196.933 50.249 C 196.633 50.478,196.338 50.615,196.277 50.555 C 196.216 50.494,196.167 50.523,196.167 50.619 C 196.167 50.817,195.558 51.048,195.139 51.009 C 194.986 50.995,194.812 51.138,194.752 51.328 C 194.692 51.517,194.582 51.634,194.508 51.588 C 194.352 51.492,193.333 51.969,193.333 52.140 C 193.333 52.263,192.104 52.833,191.839 52.833 C 191.751 52.833,191.545 52.975,191.381 53.147 C 191.218 53.320,190.671 53.629,190.167 53.834 C 188.499 54.512,187.833 54.834,187.833 54.960 C 187.833 55.029,187.590 55.184,187.292 55.304 C 186.994 55.424,186.620 55.592,186.461 55.678 C 186.301 55.763,186.055 55.833,185.914 55.833 C 185.772 55.833,185.616 55.937,185.567 56.065 C 185.519 56.192,185.258 56.340,184.989 56.394 C 184.281 56.536,184.281 56.535,183.917 56.877 C 183.733 57.049,183.379 57.231,183.129 57.282 C 182.879 57.332,182.588 57.477,182.483 57.603 C 182.378 57.730,182.163 57.833,182.005 57.833 C 181.848 57.833,181.583 57.983,181.417 58.167 C 181.250 58.351,180.903 58.500,180.642 58.500 C 180.350 58.500,180.090 58.627,179.961 58.833 C 179.847 59.017,179.668 59.167,179.564 59.167 C 179.459 59.167,179.284 59.275,179.175 59.407 C 179.065 59.539,178.868 59.606,178.737 59.555 C 178.606 59.505,178.368 59.617,178.208 59.805 C 177.884 60.183,176.003 61.233,175.995 61.040 C 175.992 60.972,175.910 61.054,175.812 61.223 C 175.714 61.391,175.163 61.740,174.587 61.999 C 174.011 62.257,173.489 62.550,173.427 62.650 C 173.365 62.750,173.150 62.917,172.949 63.022 C 172.748 63.126,172.632 63.159,172.692 63.095 C 172.812 62.965,171.424 60.076,171.164 59.915 C 171.074 59.859,171.000 59.666,171.000 59.485 C 171.000 59.304,170.887 59.113,170.750 59.060 C 170.612 59.008,170.500 58.877,170.500 58.769 C 170.500 58.662,170.369 58.449,170.208 58.295 C 170.048 58.142,169.842 57.939,169.750 57.845 C 169.658 57.750,169.240 57.390,168.821 57.045 C 166.595 55.209,166.733 55.254,165.556 56.000 C 165.123 56.275,164.689 56.500,164.592 56.500 C 164.496 56.500,164.117 56.769,163.750 57.097 C 163.383 57.425,162.858 57.803,162.583 57.937 C 161.295 58.565,160.500 59.039,160.500 59.179 C 160.500 59.264,160.318 59.333,160.095 59.333 C 159.873 59.333,159.587 59.437,159.461 59.563 C 159.334 59.689,158.997 59.844,158.710 59.907 C 158.424 59.970,158.104 60.125,157.999 60.251 C 157.895 60.377,157.714 60.444,157.598 60.399 C 157.482 60.355,157.291 60.434,157.173 60.576 C 157.055 60.717,156.831 60.833,156.674 60.833 C 156.517 60.833,156.333 60.890,156.264 60.958 C 156.195 61.027,156.077 61.083,156.002 61.083 C 155.927 61.083,155.674 61.290,155.441 61.542 C 155.207 61.794,154.881 62.002,154.716 62.004 C 154.551 62.006,154.229 62.154,154.000 62.333 C 153.771 62.513,153.492 62.661,153.381 62.663 C 153.270 62.665,153.098 62.817,153.000 63.000 C 152.902 63.183,152.653 63.333,152.448 63.333 C 152.242 63.333,151.886 63.548,151.655 63.811 C 151.424 64.074,151.077 64.339,150.883 64.401 C 150.689 64.462,150.489 64.622,150.437 64.756 C 150.386 64.890,150.227 65.000,150.085 65.000 C 149.943 65.000,149.530 65.188,149.167 65.417 C 148.804 65.646,148.471 65.833,148.427 65.833 C 148.384 65.833,147.966 66.058,147.500 66.333 C 146.620 66.852,143.188 67.092,142.373 66.691 C 141.365 66.196,140.839 66.001,140.250 65.902 C 139.883 65.840,139.508 65.735,139.417 65.668 C 139.325 65.601,139.044 65.497,138.792 65.436 C 138.540 65.376,138.333 65.253,138.333 65.163 C 138.333 65.074,138.220 65.000,138.081 65.000 C 137.521 65.000,136.013 63.696,136.004 63.203 C 136.002 63.086,135.888 62.946,135.750 62.894 C 135.613 62.841,135.500 62.674,135.500 62.523 C 135.500 62.371,135.246 62.014,134.935 61.729 C 134.624 61.444,134.320 61.052,134.258 60.859 C 134.197 60.667,133.976 60.374,133.767 60.210 C 133.557 60.045,133.297 59.743,133.187 59.539 C 133.078 59.334,132.887 59.167,132.764 59.167 C 132.640 59.167,132.498 59.009,132.447 58.817 C 132.397 58.624,132.279 58.514,132.185 58.572 C 132.091 58.630,131.900 58.457,131.761 58.187 C 131.621 57.917,131.448 57.671,131.376 57.640 C 131.167 57.550,130.000 56.066,130.000 55.891 C 130.000 55.803,129.730 55.474,129.401 55.158 C 129.071 54.842,128.733 54.433,128.651 54.250 C 128.568 54.067,128.437 53.804,128.360 53.667 C 128.282 53.529,128.128 53.242,128.017 53.029 C 127.906 52.816,127.664 52.353,127.480 51.999 C 127.296 51.645,127.042 51.270,126.916 51.166 C 126.790 51.061,126.727 50.869,126.777 50.739 C 126.827 50.609,126.752 50.458,126.611 50.404 C 126.470 50.350,126.394 50.203,126.442 50.078 C 126.490 49.952,126.470 49.753,126.397 49.635 C 126.325 49.518,126.286 49.183,126.311 48.892 C 126.413 47.710,125.131 48.135,124.885 49.365 C 124.834 49.622,124.726 49.833,124.646 49.833 C 124.566 49.833,124.500 49.929,124.500 50.045 C 124.500 50.162,124.289 50.518,124.031 50.837 C 123.773 51.156,123.463 51.679,123.342 52.000 C 123.220 52.321,122.973 52.715,122.792 52.875 C 122.611 53.035,122.513 53.167,122.573 53.167 C 122.634 53.167,122.492 53.417,122.258 53.724 C 122.025 54.031,121.833 54.357,121.833 54.449 C 121.833 54.540,121.683 54.789,121.500 55.000 C 121.317 55.211,121.167 55.485,121.167 55.609 C 121.167 55.732,121.110 55.835,121.042 55.837 C 120.973 55.839,120.698 56.136,120.431 56.497 C 120.165 56.858,119.883 57.114,119.806 57.067 C 119.730 57.019,119.667 57.060,119.667 57.157 C 119.667 57.254,119.367 57.642,119.000 58.020 C 118.633 58.398,118.333 58.644,118.333 58.566 C 118.333 58.489,118.216 58.594,118.072 58.798 C 117.929 59.003,117.498 59.330,117.114 59.524 C 116.730 59.718,116.357 59.979,116.283 60.105 C 116.210 60.231,116.048 60.333,115.923 60.333 C 115.638 60.333,114.333 61.178,114.333 61.363 C 114.333 61.438,114.267 61.481,114.187 61.458 C 114.106 61.435,113.847 61.623,113.611 61.875 C 113.376 62.127,113.032 62.333,112.847 62.333 C 112.663 62.333,112.265 62.549,111.964 62.812 C 111.663 63.075,111.183 63.342,110.898 63.404 C 110.612 63.466,110.226 63.658,110.040 63.832 C 109.854 64.005,109.663 64.108,109.616 64.060 C 109.568 64.012,109.354 64.083,109.139 64.217 C 108.925 64.351,108.525 64.509,108.250 64.569 C 107.975 64.628,107.450 64.818,107.083 64.991 C 106.384 65.319,105.290 65.640,104.375 65.784 C 104.077 65.831,103.833 65.934,103.833 66.013 C 103.833 66.092,103.724 66.114,103.590 66.063 C 103.456 66.011,103.107 66.089,102.814 66.235 C 102.522 66.381,101.919 66.500,101.474 66.500 C 101.030 66.500,100.667 66.575,100.667 66.667 C 100.667 66.758,100.253 66.833,99.748 66.833 C 99.242 66.833,98.688 66.921,98.516 67.029 C 98.125 67.273,89.321 66.916,89.156 66.649 C 89.099 66.557,88.646 66.485,88.151 66.490 C 86.919 66.502,86.049 66.344,85.819 66.066 C 85.713 65.938,85.416 65.833,85.159 65.833 C 84.902 65.833,84.480 65.656,84.221 65.439 C 83.962 65.223,83.590 64.995,83.394 64.934 C 83.198 64.873,82.844 64.643,82.607 64.424 C 82.371 64.205,82.025 63.977,81.839 63.918 C 81.652 63.859,81.500 63.746,81.500 63.666 C 81.500 63.474,80.297 62.338,80.083 62.328 C 79.291 62.290,78.605 60.192,79.084 59.273 C 79.221 59.010,79.333 58.616,79.333 58.398 C 79.333 58.179,79.412 58.000,79.508 58.000 C 79.604 58.000,79.773 57.794,79.884 57.542 C 80.350 56.477,80.666 56.187,81.472 56.080 C 81.900 56.023,82.400 55.912,82.583 55.833 C 83.114 55.604,83.991 55.498,85.277 55.508 C 85.940 55.513,86.518 55.439,86.578 55.342 C 86.640 55.242,87.290 55.167,88.093 55.167 C 88.867 55.167,89.500 55.107,89.500 55.033 C 89.500 54.960,89.754 54.930,90.064 54.966 C 90.374 55.002,90.678 54.950,90.740 54.849 C 90.804 54.745,91.351 54.667,92.010 54.667 C 92.713 54.667,93.167 54.597,93.167 54.490 C 93.167 54.393,93.245 54.362,93.341 54.421 C 93.436 54.480,93.605 54.455,93.716 54.365 C 93.826 54.275,94.292 54.166,94.750 54.124 C 95.691 54.037,97.555 53.507,97.639 53.302 C 97.669 53.227,97.857 53.166,98.056 53.164 C 98.659 53.160,98.936 52.907,98.677 52.596 C 98.557 52.452,98.356 52.333,98.230 52.333 C 98.103 52.333,98.000 52.267,98.000 52.186 C 98.000 52.104,97.644 51.986,97.208 51.923 C 96.773 51.859,96.251 51.701,96.048 51.570 C 95.845 51.440,95.353 51.333,94.956 51.333 C 94.558 51.333,94.157 51.257,94.065 51.165 C 93.972 51.072,93.038 50.953,91.990 50.901 C 90.941 50.850,89.924 50.731,89.730 50.637 C 89.535 50.543,88.953 50.493,88.436 50.525 C 87.655 50.573,87.480 50.534,87.403 50.292 C 87.277 49.893,78.343 49.842,77.555 50.236 C 77.296 50.365,76.783 50.609,76.417 50.777 C 76.050 50.946,75.202 51.515,74.532 52.042 C 73.862 52.569,73.239 53.000,73.147 53.000 C 73.055 53.000,73.027 53.075,73.083 53.167 C 73.140 53.258,73.110 53.333,73.017 53.333 C 72.924 53.333,72.526 53.632,72.132 53.998 C 71.739 54.363,71.358 54.663,71.287 54.665 C 71.141 54.667,70.231 55.477,69.460 56.292 C 69.177 56.590,68.860 56.833,68.753 56.833 C 68.647 56.833,68.158 57.133,67.667 57.500 C 67.175 57.867,66.697 58.167,66.604 58.167 C 66.511 58.167,66.243 58.346,66.009 58.566 C 65.775 58.786,65.289 59.121,64.930 59.310 C 64.571 59.500,64.233 59.714,64.180 59.786 C 63.936 60.115,62.651 60.656,61.667 60.842 C 61.071 60.955,60.508 61.104,60.417 61.172 C 60.325 61.240,59.856 61.349,59.375 61.414 C 58.894 61.478,58.464 61.590,58.419 61.662 C 58.375 61.734,57.531 61.847,56.544 61.914 C 55.557 61.980,54.675 62.093,54.583 62.165 C 54.492 62.237,54.079 62.350,53.667 62.416 C 53.005 62.522,52.129 62.900,50.194 63.914 C 49.641 64.204,49.407 64.141,49.304 63.675 C 49.274 63.542,48.907 63.092,48.487 62.675 C 47.714 61.906,47.060 61.000,47.279 61.000 C 47.344 61.000,47.175 60.831,46.902 60.625 C 46.629 60.419,45.775 59.594,45.003 58.792 C 44.231 57.990,43.503 57.333,43.383 57.333 C 43.264 57.333,43.167 57.266,43.167 57.183 C 43.167 56.998,42.065 56.333,41.758 56.333 C 41.636 56.333,41.492 56.221,41.440 56.083 C 41.306 55.736,40.628 55.770,40.311 56.141 C 40.012 56.490,39.462 57.846,39.535 58.053 C 39.562 58.129,39.452 58.264,39.292 58.353 C 39.131 58.443,39.000 58.609,39.000 58.723 C 39.000 58.837,38.850 59.224,38.667 59.583 C 38.483 59.943,38.333 60.336,38.333 60.458 C 38.333 60.733,37.830 61.538,37.546 61.717 C 37.429 61.790,37.333 61.962,37.333 62.098 C 37.333 62.427,36.376 64.257,36.072 64.509 C 35.941 64.618,35.828 64.792,35.822 64.895 C 35.816 64.999,35.366 65.458,34.822 65.917 C 34.279 66.375,33.621 66.938,33.360 67.167 C 32.517 67.908,32.196 68.141,32.121 68.066 C 32.081 68.025,31.953 68.106,31.837 68.246 C 31.721 68.386,31.411 68.500,31.148 68.500 C 30.850 68.500,30.591 68.626,30.461 68.833 C 30.227 69.209,21.667 69.372,21.667 69.000 C 21.667 68.908,21.329 68.833,20.915 68.833 C 20.134 68.833,19.167 68.218,19.167 67.720 C 19.167 67.511,18.856 66.856,18.667 66.667 C 18.621 66.621,18.460 66.321,18.309 66.000 C 17.265 63.780,17.000 63.155,17.000 62.913 C 17.000 62.762,16.742 62.114,16.426 61.474 C 16.111 60.834,15.894 60.202,15.944 60.072 C 15.995 59.941,15.948 59.833,15.841 59.833 C 15.734 59.833,15.687 59.768,15.736 59.689 C 15.786 59.609,15.688 59.260,15.519 58.913 C 15.350 58.565,15.246 58.148,15.289 57.984 C 15.332 57.821,15.247 57.516,15.100 57.307 C 14.953 57.097,14.833 56.793,14.833 56.630 C 14.833 56.467,14.763 56.333,14.677 56.333 C 14.591 56.333,14.470 55.996,14.408 55.583 C 14.346 55.171,14.238 54.833,14.167 54.833 C 14.037 54.833,13.851 54.354,13.748 53.750 C 13.648 53.168,12.287 50.833,12.047 50.833 C 11.727 50.833,10.833 51.312,10.833 51.483 C 10.833 51.561,10.421 52.087,9.917 52.652 C 9.413 53.217,8.999 53.770,8.999 53.881 C 8.998 53.992,8.623 54.566,8.165 55.155 C 7.708 55.745,7.333 56.320,7.333 56.433 C 7.333 56.546,7.277 56.664,7.208 56.694 C 7.140 56.725,6.903 57.106,6.682 57.542 C 6.461 57.977,6.205 58.333,6.113 58.333 C 6.020 58.333,5.992 58.381,6.051 58.440 C 6.109 58.498,5.990 58.779,5.787 59.064 C 5.583 59.348,5.261 59.882,5.071 60.249 C 3.813 62.677,3.114 63.924,2.984 63.972 C 2.901 64.003,2.833 64.115,2.833 64.222 C 2.832 64.390,1.910 65.516,1.093 66.347 C 0.950 66.493,0.833 66.686,0.833 66.777 C 0.833 66.868,0.646 67.118,0.417 67.333 C 0.163 67.572,-0.000 67.909,-0.000 68.196 C 0.000 68.696,0.279 68.836,0.440 68.417 C 0.492 68.279,0.628 68.167,0.740 68.167 C 0.853 68.167,1.238 67.739,1.597 67.216 C 1.956 66.694,2.456 66.040,2.708 65.763 C 2.960 65.486,3.167 65.181,3.167 65.086 C 3.167 64.991,3.317 64.820,3.500 64.705 C 3.683 64.591,3.833 64.391,3.833 64.261 C 3.833 64.132,4.011 63.814,4.227 63.554 C 4.444 63.295,4.678 62.896,4.748 62.667 C 4.817 62.438,4.948 62.158,5.038 62.045 C 5.128 61.933,5.426 61.408,5.700 60.879 C 6.561 59.216,6.742 58.923,7.042 58.699 C 7.202 58.579,7.333 58.341,7.333 58.169 C 7.333 57.857,8.245 56.390,9.283 55.029 C 9.586 54.632,9.833 54.218,9.833 54.108 C 9.833 53.998,10.194 53.535,10.634 53.079 C 11.075 52.623,11.489 52.107,11.556 51.933 C 11.702 51.548,12.152 52.004,12.161 52.547 C 12.164 52.710,12.279 52.887,12.417 52.940 C 12.554 52.992,12.667 53.141,12.667 53.270 C 12.667 53.399,12.735 53.635,12.819 53.794 C 13.157 54.434,13.486 55.312,13.835 56.500 C 14.036 57.188,14.256 57.825,14.322 57.917 C 14.389 58.008,14.650 58.758,14.903 59.583 C 15.397 61.191,15.448 61.332,15.983 62.540 C 16.176 62.974,16.333 63.482,16.333 63.668 C 16.333 63.855,16.516 64.287,16.740 64.629 C 16.963 64.970,17.201 65.473,17.267 65.745 C 17.334 66.018,17.638 66.655,17.944 67.162 C 18.249 67.669,18.499 68.162,18.500 68.259 C 18.501 68.785,19.638 69.521,20.684 69.673 C 22.381 69.918,30.954 69.879,31.117 69.625 C 31.190 69.510,31.666 69.219,32.174 68.977 C 33.071 68.550,33.446 68.259,35.573 66.338 C 36.665 65.352,36.641 65.386,37.659 63.417 C 38.397 61.990,38.695 61.466,38.843 61.333 C 38.894 61.288,39.033 60.987,39.151 60.667 C 39.466 59.815,39.683 59.293,39.879 58.917 C 39.974 58.733,40.111 58.471,40.183 58.333 C 40.254 58.196,40.355 57.896,40.405 57.667 C 40.573 56.907,40.702 56.824,41.424 57.019 C 42.185 57.224,42.088 57.143,44.875 59.895 C 46.044 61.049,47.000 62.092,47.000 62.211 C 47.000 62.331,47.375 62.799,47.833 63.250 C 48.292 63.701,48.667 64.170,48.667 64.291 C 48.667 64.412,48.776 64.553,48.910 64.604 C 49.044 64.655,49.199 64.841,49.255 65.015 C 49.375 65.395,50.333 65.476,50.333 65.106 C 50.333 64.831,51.492 64.000,51.876 64.000 C 52.027 64.000,52.215 63.883,52.295 63.740 C 52.487 63.399,54.145 63.029,56.417 62.822 C 57.425 62.730,58.380 62.582,58.539 62.494 C 58.699 62.406,58.943 62.333,59.083 62.333 C 59.223 62.333,59.468 62.266,59.627 62.185 C 59.786 62.103,60.404 61.947,61.000 61.838 C 61.596 61.730,62.155 61.572,62.242 61.487 C 62.329 61.403,62.591 61.332,62.825 61.331 C 63.059 61.330,63.438 61.220,63.667 61.087 C 63.896 60.955,64.196 60.795,64.333 60.732 C 64.471 60.669,64.771 60.448,65.000 60.241 C 65.229 60.033,65.730 59.702,66.114 59.504 C 66.497 59.306,66.900 59.037,67.009 58.906 C 67.118 58.774,67.307 58.667,67.429 58.667 C 67.551 58.667,67.710 58.567,67.783 58.446 C 67.857 58.324,68.029 58.171,68.167 58.106 C 68.861 57.775,70.284 56.670,71.304 55.668 C 71.443 55.531,71.682 55.343,71.834 55.251 C 72.666 54.747,73.676 53.899,73.760 53.636 C 73.812 53.470,74.039 53.288,74.264 53.232 C 74.488 53.175,74.802 52.969,74.961 52.773 C 75.120 52.577,75.456 52.310,75.708 52.180 C 75.960 52.050,76.167 51.893,76.167 51.832 C 76.167 51.770,76.485 51.617,76.875 51.492 C 77.265 51.366,77.808 51.130,78.083 50.966 C 78.850 50.509,86.738 50.511,86.983 50.968 C 87.123 51.229,87.538 51.294,90.141 51.458 C 91.790 51.561,93.276 51.720,93.444 51.811 C 93.612 51.901,94.381 52.093,95.152 52.237 C 97.204 52.620,97.190 53.055,95.118 53.243 C 94.457 53.303,93.729 53.433,93.500 53.532 C 93.271 53.630,92.933 53.771,92.750 53.843 C 92.567 53.916,91.752 54.023,90.940 54.081 C 90.127 54.140,89.340 54.251,89.190 54.328 C 89.040 54.406,87.493 54.554,85.753 54.656 C 84.014 54.759,82.517 54.916,82.428 55.005 C 82.339 55.094,82.024 55.167,81.727 55.167 C 81.429 55.167,81.145 55.233,81.095 55.315 C 81.044 55.396,80.800 55.514,80.552 55.576 C 80.009 55.713,79.375 56.361,79.233 56.924 C 79.177 57.149,79.077 57.333,79.012 57.333 C 78.644 57.333,78.167 59.000,78.174 60.262 C 78.180 61.572,78.939 63.000,79.628 63.000 C 79.720 63.000,80.062 63.296,80.389 63.658 C 80.716 64.020,81.212 64.435,81.492 64.579 C 81.771 64.724,82.000 64.907,82.000 64.986 C 82.000 65.065,82.323 65.282,82.718 65.467 C 83.112 65.653,83.534 65.923,83.654 66.068 C 83.774 66.213,84.182 66.413,84.561 66.514 C 84.940 66.615,85.362 66.795,85.500 66.914 C 85.638 67.034,86.388 67.185,87.167 67.251 C 87.946 67.316,88.680 67.449,88.799 67.545 C 89.116 67.802,98.915 67.939,99.069 67.689 C 99.134 67.585,99.496 67.500,99.875 67.500 C 100.632 67.500,102.392 67.204,102.917 66.989 C 103.100 66.914,103.662 66.801,104.167 66.739 C 104.671 66.676,105.231 66.522,105.412 66.396 C 105.593 66.270,105.945 66.167,106.195 66.167 C 106.445 66.167,107.004 65.978,107.438 65.747 C 107.872 65.516,108.532 65.280,108.905 65.223 C 109.278 65.165,109.849 64.910,110.173 64.656 C 110.497 64.403,111.059 64.143,111.423 64.078 C 111.786 64.014,112.196 63.828,112.333 63.665 C 112.471 63.503,112.941 63.183,113.378 62.955 C 113.815 62.727,114.369 62.344,114.609 62.103 C 114.849 61.863,115.112 61.667,115.193 61.667 C 115.401 61.667,116.724 60.794,116.876 60.556 C 116.945 60.448,117.208 60.313,117.459 60.256 C 117.943 60.147,120.167 58.174,120.167 57.854 C 120.167 57.751,120.227 57.667,120.300 57.667 C 120.537 57.667,122.264 55.447,122.828 54.417 C 123.130 53.867,123.467 53.304,123.577 53.167 C 123.688 53.029,123.875 52.673,123.993 52.375 C 124.111 52.077,124.277 51.833,124.362 51.833 C 124.447 51.833,124.621 51.584,124.749 51.278 C 124.876 50.973,125.098 50.627,125.240 50.508 C 125.383 50.389,125.506 50.170,125.513 50.021 C 125.524 49.797,125.541 49.793,125.609 50.000 C 125.791 50.550,126.393 51.667,126.508 51.667 C 126.575 51.667,126.679 51.928,126.739 52.248 C 126.799 52.568,126.992 52.906,127.168 53.001 C 127.344 53.095,127.449 53.273,127.401 53.398 C 127.276 53.724,128.743 55.833,129.095 55.833 C 129.205 55.833,129.342 55.965,129.400 56.125 C 129.578 56.618,129.938 57.167,130.396 57.645 C 130.636 57.896,130.833 58.158,130.833 58.228 C 130.833 58.297,131.283 58.789,131.833 59.320 C 132.383 59.852,132.833 60.372,132.833 60.477 C 132.833 60.581,132.937 60.667,133.064 60.667 C 133.191 60.667,133.422 60.934,133.577 61.260 C 133.732 61.586,133.965 61.894,134.096 61.945 C 134.227 61.995,134.333 62.178,134.333 62.351 C 134.333 62.525,134.446 62.667,134.583 62.667 C 134.721 62.667,134.838 62.760,134.844 62.875 C 134.850 62.990,135.113 63.421,135.428 63.833 C 135.743 64.246,136.087 64.752,136.194 64.958 C 136.300 65.165,136.544 65.339,136.735 65.346 C 136.927 65.352,137.308 65.498,137.583 65.670 C 138.551 66.273,138.987 66.466,139.864 66.679 C 140.351 66.797,140.821 66.955,140.908 67.030 C 140.995 67.105,141.262 67.167,141.500 67.167 C 141.738 67.167,142.022 67.255,142.130 67.363 C 142.472 67.706,146.873 67.770,147.150 67.437 C 147.273 67.288,147.454 67.167,147.551 67.167 C 147.855 67.167,149.167 66.478,149.167 66.318 C 149.167 66.235,149.271 66.167,149.398 66.167 C 149.708 66.167,150.384 65.807,150.737 65.454 C 150.895 65.296,151.197 65.167,151.409 65.167 C 151.640 65.167,151.908 64.994,152.077 64.736 C 152.232 64.499,152.619 64.197,152.937 64.064 C 153.255 63.931,153.557 63.713,153.608 63.578 C 153.660 63.443,153.804 63.333,153.929 63.333 C 154.053 63.333,154.235 63.183,154.333 63.000 C 154.454 62.775,154.685 62.665,155.048 62.662 C 155.418 62.659,155.734 62.504,156.069 62.162 C 156.337 61.890,156.689 61.667,156.851 61.667 C 157.014 61.667,157.189 61.599,157.239 61.517 C 157.372 61.303,158.631 60.667,158.924 60.667 C 159.060 60.667,159.301 60.597,159.461 60.512 C 159.620 60.427,159.862 60.314,160.000 60.260 C 160.137 60.207,160.475 60.014,160.750 59.832 C 161.025 59.651,161.550 59.349,161.917 59.162 C 162.708 58.758,162.895 58.645,164.417 57.654 C 166.508 56.291,166.895 56.274,168.062 57.487 C 168.325 57.761,168.789 58.155,169.094 58.364 C 169.399 58.573,169.691 58.858,169.744 58.997 C 169.797 59.136,170.038 59.587,170.279 60.000 C 170.520 60.413,171.118 61.556,171.609 62.542 C 172.569 64.471,172.881 64.710,173.402 63.916 C 173.702 63.457,174.858 62.667,175.228 62.667 C 175.356 62.667,175.584 62.480,175.733 62.253 C 175.882 62.025,176.191 61.792,176.419 61.735 C 176.647 61.677,176.833 61.564,176.833 61.482 C 176.833 61.400,177.012 61.333,177.230 61.333 C 177.448 61.333,177.719 61.221,177.833 61.083 C 177.947 60.946,178.178 60.833,178.345 60.833 C 178.513 60.833,178.710 60.738,178.783 60.621 C 178.993 60.288,179.787 59.833,180.161 59.833 C 180.347 59.833,180.500 59.729,180.500 59.601 C 180.500 59.474,180.702 59.319,180.948 59.257 C 181.195 59.195,181.600 58.999,181.849 58.822 C 182.098 58.645,182.423 58.500,182.573 58.500 C 182.722 58.500,182.887 58.387,182.940 58.250 C 182.992 58.112,183.173 58.000,183.341 58.000 C 183.509 58.000,183.693 57.925,183.750 57.833 C 183.807 57.742,184.001 57.667,184.182 57.667 C 184.363 57.667,184.551 57.561,184.601 57.432 C 184.650 57.302,184.889 57.147,185.130 57.086 C 185.372 57.026,185.948 56.801,186.410 56.588 C 186.872 56.374,187.523 56.080,187.857 55.934 C 188.191 55.788,188.507 55.555,188.560 55.417 C 188.613 55.280,188.804 55.167,188.985 55.167 C 189.166 55.167,189.360 55.092,189.417 55.000 C 189.473 54.908,189.669 54.833,189.852 54.833 C 190.272 54.833,191.508 54.174,191.793 53.798 C 191.912 53.642,192.270 53.464,192.588 53.405 C 192.906 53.345,193.167 53.239,193.167 53.170 C 193.167 53.100,194.123 52.570,195.292 51.991 C 196.460 51.412,197.754 50.705,198.167 50.419 C 198.579 50.133,199.104 49.806,199.333 49.691 C 200.308 49.206,200.667 48.972,200.667 48.824 C 200.667 48.738,200.747 48.667,200.844 48.667 C 200.942 48.667,201.268 48.479,201.569 48.250 C 201.869 48.021,202.201 47.833,202.307 47.833 C 202.413 47.833,202.500 47.755,202.500 47.659 C 202.500 47.562,202.814 47.343,203.197 47.171 L 203.895 46.859 204.864 47.865 C 205.397 48.419,205.833 48.927,205.833 48.994 C 205.833 49.061,206.076 49.447,206.373 49.850 C 207.029 50.740,207.250 51.095,207.569 51.763 C 207.704 52.046,207.931 52.373,208.074 52.492 C 208.217 52.611,208.333 52.839,208.333 53.000 C 208.333 53.161,208.446 53.386,208.583 53.500 C 208.721 53.614,208.833 53.811,208.833 53.937 C 208.833 54.063,208.908 54.167,209.000 54.167 C 209.092 54.167,209.167 54.273,209.167 54.402 C 209.167 54.614,209.933 55.995,210.964 57.642 C 211.174 57.976,211.456 58.494,211.591 58.792 C 211.727 59.090,211.907 59.333,211.991 59.333 C 212.075 59.333,212.197 59.498,212.260 59.700 C 212.658 60.951,217.066 64.167,218.384 64.167 C 218.744 64.167,220.700 64.828,220.908 65.021 C 221.199 65.289,223.833 65.201,223.833 64.923 C 223.833 64.685,224.109 64.583,225.917 64.153 C 226.375 64.043,226.905 63.814,227.094 63.644 C 227.283 63.473,227.498 63.333,227.570 63.333 C 227.643 63.333,228.163 63.120,228.726 62.858 C 229.289 62.597,230.027 62.258,230.366 62.105 C 231.179 61.737,233.333 60.013,233.333 59.730 C 233.333 59.608,233.521 59.385,233.750 59.235 C 233.979 59.085,234.167 58.854,234.167 58.722 C 234.167 58.473,234.620 57.407,235.217 56.250 C 235.524 55.655,235.568 55.214,235.628 52.125 C 235.672 49.875,235.757 48.667,235.870 48.667 C 236.499 48.667,239.443 51.363,240.418 52.833 C 240.692 53.246,240.953 53.621,241.000 53.667 C 241.246 53.912,242.333 55.633,242.333 55.778 C 242.333 55.872,242.484 56.085,242.668 56.251 C 242.852 56.418,243.104 56.748,243.229 56.985 C 243.353 57.223,243.559 57.604,243.686 57.834 C 243.960 58.328,246.652 61.000,246.876 61.000 C 246.962 61.000,247.249 61.155,247.514 61.343 C 247.780 61.532,248.541 61.834,249.207 62.014 C 249.872 62.194,250.567 62.407,250.750 62.487 C 250.933 62.568,251.630 62.729,252.299 62.845 C 252.968 62.961,253.554 63.119,253.601 63.195 C 253.762 63.456,255.306 63.353,255.463 63.071 C 255.548 62.920,255.921 62.774,256.347 62.725 C 257.130 62.636,257.160 62.625,258.833 61.863 C 259.429 61.592,260.093 61.317,260.309 61.251 C 260.759 61.116,264.500 57.401,264.500 57.090 C 264.500 56.977,264.650 56.749,264.833 56.583 C 265.017 56.417,265.169 56.162,265.172 56.016 C 265.179 55.675,265.563 55.167,265.814 55.167 C 265.920 55.167,266.093 54.979,266.197 54.750 C 266.301 54.521,266.487 54.333,266.610 54.333 C 266.733 54.333,266.833 54.255,266.833 54.159 C 266.833 54.063,267.204 53.813,267.656 53.603 C 268.109 53.394,268.728 53.034,269.031 52.804 C 269.335 52.573,269.883 52.343,270.250 52.291 C 270.898 52.200,271.466 51.974,272.667 51.329 C 272.987 51.157,273.302 51.012,273.366 51.008 C 273.512 50.998,273.023 52.694,272.818 52.908 C 272.735 52.995,272.667 53.310,272.667 53.607 C 272.667 53.904,272.592 54.193,272.500 54.250 C 272.104 54.495,272.305 57.249,272.750 57.667 C 272.979 57.882,273.167 58.159,273.167 58.283 C 273.167 58.407,273.347 58.577,273.567 58.661 C 273.787 58.744,274.017 58.892,274.077 58.990 C 274.243 59.258,275.333 59.213,275.333 58.938 C 275.333 58.803,275.590 58.667,275.958 58.607 C 276.302 58.550,277.029 58.281,277.574 58.008 C 278.118 57.736,278.793 57.463,279.074 57.402 C 279.354 57.341,279.731 57.188,279.912 57.062 C 280.093 56.936,280.515 56.833,280.850 56.833 C 281.185 56.833,281.545 56.730,281.650 56.603 C 281.755 56.477,282.081 56.325,282.375 56.267 C 282.668 56.208,283.210 56.015,283.579 55.839 C 284.340 55.474,285.196 55.118,285.361 55.097 C 285.422 55.090,285.528 55.027,285.597 54.958 C 285.666 54.890,285.860 54.833,286.027 54.833 C 286.195 54.833,286.614 54.582,286.958 54.274 C 287.561 53.735,288.004 53.420,289.708 52.317 C 290.144 52.035,290.500 51.699,290.500 51.569 C 290.500 51.439,290.609 51.333,290.742 51.333 C 290.875 51.333,291.043 51.227,291.117 51.096 C 291.292 50.785,292.761 49.667,292.995 49.667 C 293.095 49.667,293.220 49.554,293.273 49.417 C 293.326 49.279,293.455 49.167,293.561 49.167 C 293.667 49.167,293.847 49.016,293.962 48.833 C 294.076 48.649,294.555 48.314,295.025 48.087 C 295.495 47.860,295.986 47.523,296.116 47.337 C 296.246 47.152,296.461 47.000,296.595 47.000 C 296.729 47.000,296.968 46.930,297.127 46.845 C 297.286 46.760,297.754 46.545,298.167 46.367 C 298.579 46.190,299.217 45.903,299.583 45.730 C 300.495 45.301,304.446 45.165,304.597 45.558 C 304.649 45.696,304.987 45.858,305.346 45.919 C 305.705 45.979,306.041 46.097,306.092 46.181 C 306.144 46.265,306.305 46.333,306.450 46.333 C 306.699 46.333,309.299 47.491,309.833 47.839 C 309.971 47.929,310.271 48.093,310.500 48.204 C 310.729 48.315,311.149 48.577,311.432 48.786 C 311.716 48.995,312.026 49.167,312.120 49.167 C 312.215 49.167,312.386 49.279,312.500 49.417 C 312.614 49.554,312.843 49.667,313.008 49.667 C 313.174 49.667,313.521 49.918,313.780 50.226 C 314.038 50.533,314.475 50.927,314.750 51.101 C 315.452 51.544,316.109 52.119,316.991 53.060 C 319.635 55.884,320.666 56.804,321.304 56.912 C 321.658 56.971,322.165 57.134,322.432 57.273 C 323.627 57.897,330.465 58.086,330.618 57.500 C 330.694 57.212,330.846 57.167,331.736 57.167 C 332.303 57.167,332.839 57.094,332.927 57.006 C 333.016 56.918,334.512 56.763,336.252 56.662 C 337.993 56.561,339.547 56.409,339.706 56.323 C 339.865 56.237,340.165 56.164,340.373 56.161 C 341.139 56.151,342.664 54.183,342.668 53.200 C 342.668 53.044,342.781 52.702,342.918 52.439 C 343.281 51.743,343.280 46.635,342.917 46.333 C 342.779 46.219,342.667 46.064,342.667 45.988 C 342.667 45.532,340.916 43.333,340.554 43.333 C 340.434 43.333,340.242 43.183,340.128 43.000 C 340.013 42.817,339.843 42.667,339.750 42.667 C 339.656 42.667,339.392 42.492,339.162 42.279 C 338.932 42.066,338.521 41.749,338.247 41.575 C 337.974 41.401,337.690 41.162,337.617 41.046 C 337.543 40.929,337.388 40.833,337.272 40.833 C 337.156 40.833,336.766 40.571,336.405 40.250 C 336.045 39.929,335.668 39.667,335.567 39.667 C 335.467 39.667,335.150 39.550,334.864 39.407 C 333.949 38.950,333.247 38.920,332.695 39.313 C 332.422 39.508,332.008 39.667,331.776 39.667 C 331.543 39.667,331.307 39.742,331.250 39.833 C 331.193 39.925,331.044 40.000,330.918 40.000 C 330.792 40.000,330.477 40.087,330.219 40.193 C 329.961 40.300,329.667 40.374,329.566 40.358 C 329.356 40.326,327.667 41.939,327.667 42.172 C 327.667 42.256,327.523 42.562,327.347 42.850 L 327.028 43.375 326.701 42.729 C 326.521 42.374,326.320 41.835,326.255 41.530 C 326.189 41.226,326.030 40.776,325.902 40.530 C 325.645 40.037,325.579 38.333,325.817 38.333 C 325.899 38.333,326.058 37.953,326.170 37.487 C 326.281 37.022,326.469 36.604,326.587 36.559 C 326.704 36.514,326.835 36.346,326.877 36.185 C 326.925 36.001,327.313 35.781,327.935 35.587 C 328.475 35.419,329.067 35.187,329.250 35.073 C 329.585 34.865,337.003 34.498,340.865 34.499 C 341.874 34.500,342.692 34.428,342.750 34.333 C 342.959 33.996,346.535 34.136,347.000 34.500 C 347.229 34.679,347.579 34.828,347.778 34.830 C 348.443 34.836,350.383 35.855,350.881 36.458 C 351.052 36.665,351.335 36.833,351.512 36.833 C 351.689 36.833,351.833 36.908,351.833 37.000 C 351.833 37.092,351.929 37.167,352.045 37.167 C 352.162 37.167,352.656 37.429,353.143 37.750 C 353.631 38.071,354.116 38.335,354.223 38.338 C 354.329 38.340,354.861 38.678,355.404 39.088 C 355.947 39.498,356.457 39.833,356.537 39.833 C 356.617 39.833,356.856 40.021,357.069 40.250 C 357.281 40.479,357.570 40.667,357.710 40.667 C 357.850 40.667,358.008 40.779,358.060 40.917 C 358.113 41.054,358.230 41.167,358.320 41.167 C 358.411 41.167,358.986 41.542,359.600 42.000 C 360.213 42.458,360.771 42.833,360.841 42.833 C 360.910 42.833,361.046 43.058,361.142 43.333 C 361.238 43.608,361.381 43.833,361.460 43.833 C 361.540 43.833,361.704 44.087,361.826 44.397 C 361.948 44.708,362.334 45.240,362.684 45.580 C 363.034 45.919,363.371 46.359,363.433 46.557 C 363.495 46.755,363.730 47.137,363.956 47.407 C 364.182 47.677,364.432 48.071,364.512 48.282 C 364.593 48.494,364.732 48.667,364.821 48.667 C 364.911 48.667,365.139 48.985,365.328 49.375 C 366.790 52.385,368.998 54.021,372.049 54.356 C 372.984 54.459,373.821 54.608,373.908 54.688 C 374.196 54.952,376.286 54.864,376.394 54.583 C 376.446 54.446,376.623 54.333,376.786 54.333 C 377.184 54.333,378.713 53.514,379.450 52.906 C 380.390 52.132,381.500 51.026,381.500 50.865 C 381.500 50.785,381.650 50.583,381.833 50.417 C 382.017 50.251,382.167 50.033,382.168 49.933 C 382.168 49.832,382.278 49.540,382.412 49.284 C 382.625 48.876,382.625 48.807,382.411 48.725 C 382.092 48.602,382.097 47.853,382.419 47.497 C 382.596 47.301,382.703 46.665,382.778 45.359 C 382.897 43.269,382.897 43.269,383.584 44.113 C 383.859 44.450,384.215 44.863,384.375 45.030 C 384.535 45.197,384.670 45.390,384.673 45.458 C 384.677 45.527,384.902 45.843,385.173 46.160 C 385.445 46.478,385.667 46.830,385.667 46.943 C 385.667 47.056,385.929 47.434,386.250 47.782 C 386.570 48.131,386.944 48.650,387.080 48.935 C 387.216 49.221,387.441 49.549,387.580 49.664 C 387.719 49.780,387.833 49.949,387.833 50.040 C 387.833 50.250,389.075 51.500,389.283 51.500 C 389.474 51.500,391.250 53.377,391.628 53.980 C 391.779 54.220,392.225 54.834,392.618 55.344 C 393.012 55.854,393.333 56.334,393.333 56.410 C 393.333 56.487,393.693 56.895,394.133 57.317 C 394.573 57.738,394.983 58.215,395.044 58.375 C 395.106 58.535,395.258 58.667,395.381 58.667 C 395.505 58.667,395.859 58.892,396.167 59.167 C 396.475 59.442,396.830 59.667,396.957 59.667 C 397.291 59.667,399.278 60.649,399.510 60.929 C 399.815 61.296,400.001 61.212,399.994 60.708 C 399.988 60.234,398.865 59.333,398.280 59.333 C 398.137 59.333,397.978 59.267,397.928 59.185 C 397.877 59.103,397.442 58.832,396.960 58.582 C 395.934 58.051,393.333 55.400,393.333 54.885 C 393.333 54.806,393.183 54.632,393.000 54.500 C 392.817 54.368,392.667 54.192,392.667 54.110 C 392.667 54.028,392.460 53.718,392.208 53.421 C 391.320 52.375,391.195 52.194,391.291 52.097 C 391.345 52.044,391.309 52.000,391.211 52.000 C 391.113 52.000,390.782 51.751,390.475 51.447 C 390.168 51.143,389.778 50.843,389.609 50.780 C 389.440 50.717,389.264 50.522,389.219 50.348 C 389.173 50.174,388.993 49.993,388.818 49.948 C 388.643 49.902,388.498 49.726,388.495 49.557 C 388.493 49.388,388.268 49.031,387.995 48.764 C 387.723 48.497,387.500 48.210,387.500 48.128 C 387.500 48.046,387.275 47.789,387.000 47.558 C 386.699 47.305,386.500 46.977,386.500 46.735 C 386.500 46.514,386.426 46.333,386.336 46.333 C 386.245 46.333,386.068 46.090,385.942 45.792 C 385.815 45.494,385.446 44.970,385.120 44.628 C 384.795 44.287,384.136 43.555,383.656 43.003 C 383.176 42.452,382.654 42.000,382.495 42.000 C 382.113 42.000,381.662 42.525,381.958 42.624 C 382.214 42.710,382.252 45.261,382.000 45.417 C 381.908 45.473,381.833 45.811,381.833 46.167 C 381.833 46.523,381.758 46.860,381.667 46.917 C 381.575 46.973,381.500 47.573,381.500 48.248 C 381.500 49.581,381.134 50.429,380.378 50.847 C 380.173 50.961,379.962 51.191,379.908 51.360 C 379.855 51.529,379.759 51.667,379.695 51.667 C 379.632 51.667,379.393 51.838,379.165 52.046 C 378.562 52.598,377.667 53.209,377.667 53.069 C 377.667 53.003,377.535 53.060,377.375 53.196 C 376.131 54.252,372.408 54.141,369.885 52.973 C 368.762 52.454,367.000 50.903,367.000 50.435 C 367.000 50.316,366.842 50.076,366.650 49.901 C 366.457 49.727,366.185 49.359,366.046 49.084 C 365.907 48.809,365.675 48.448,365.530 48.284 C 365.386 48.119,365.251 47.874,365.231 47.739 C 365.211 47.604,365.027 47.319,364.822 47.105 C 364.616 46.892,364.291 46.456,364.099 46.138 C 363.633 45.365,362.854 44.267,362.292 43.590 C 362.040 43.287,361.833 42.961,361.833 42.864 C 361.833 42.768,361.477 42.403,361.042 42.053 C 360.606 41.703,360.175 41.333,360.083 41.232 C 359.841 40.962,358.381 40.000,358.215 40.000 C 358.138 40.000,357.824 39.772,357.518 39.492 C 357.213 39.213,356.884 39.011,356.788 39.043 C 356.692 39.075,356.344 38.849,356.015 38.540 C 355.686 38.231,354.779 37.661,354.000 37.272 C 352.165 36.356,351.823 36.154,351.418 35.743 C 351.234 35.556,350.858 35.297,350.583 35.167 C 350.308 35.037,349.983 34.856,349.859 34.765 C 348.533 33.787,342.697 32.944,342.250 33.667 " stroke="none" fill="#2d1505" fill-rule="evenodd"></path><path id="path1" d="M342.750 34.333 C 342.692 34.428,341.874 34.500,340.865 34.499 C 337.003 34.498,329.585 34.865,329.250 35.073 C 329.067 35.187,328.475 35.419,327.935 35.587 C 327.313 35.781,326.925 36.001,326.877 36.185 C 326.835 36.346,326.704 36.514,326.587 36.559 C 326.469 36.604,326.281 37.022,326.170 37.487 C 326.058 37.953,325.899 38.333,325.817 38.333 C 325.579 38.333,325.645 40.037,325.902 40.530 C 326.030 40.776,326.189 41.226,326.255 41.530 C 326.320 41.835,326.521 42.374,326.701 42.729 L 327.028 43.375 327.347 42.850 C 327.523 42.562,327.667 42.256,327.667 42.172 C 327.667 41.939,329.356 40.326,329.566 40.358 C 329.667 40.374,329.961 40.300,330.219 40.193 C 330.477 40.087,330.792 40.000,330.918 40.000 C 331.044 40.000,331.193 39.925,331.250 39.833 C 331.307 39.742,331.543 39.667,331.776 39.667 C 332.008 39.667,332.422 39.508,332.695 39.313 C 333.247 38.920,333.949 38.950,334.864 39.407 C 335.150 39.550,335.467 39.667,335.567 39.667 C 335.668 39.667,336.045 39.929,336.405 40.250 C 336.766 40.571,337.156 40.833,337.272 40.833 C 337.388 40.833,337.543 40.929,337.617 41.046 C 337.690 41.162,337.974 41.401,338.247 41.575 C 338.521 41.749,338.932 42.066,339.162 42.279 C 339.392 42.492,339.656 42.667,339.750 42.667 C 339.843 42.667,340.013 42.817,340.128 43.000 C 340.242 43.183,340.434 43.333,340.554 43.333 C 340.916 43.333,342.667 45.532,342.667 45.988 C 342.667 46.064,342.779 46.219,342.917 46.333 C 343.280 46.635,343.281 51.743,342.918 52.439 C 342.781 52.702,342.668 53.044,342.668 53.200 C 342.664 54.183,341.139 56.151,340.373 56.161 C 340.165 56.164,339.865 56.237,339.706 56.323 C 339.547 56.409,337.993 56.561,336.252 56.662 C 334.512 56.763,333.016 56.918,332.927 57.006 C 332.839 57.094,332.303 57.167,331.736 57.167 C 330.846 57.167,330.694 57.212,330.618 57.500 C 330.465 58.086,323.627 57.897,322.432 57.273 C 322.165 57.134,321.658 56.971,321.304 56.912 C 320.666 56.804,319.635 55.884,316.991 53.060 C 316.109 52.119,315.452 51.544,314.750 51.101 C 314.475 50.927,314.038 50.533,313.780 50.226 C 313.521 49.918,313.174 49.667,313.008 49.667 C 312.843 49.667,312.614 49.554,312.500 49.417 C 312.386 49.279,312.215 49.167,312.120 49.167 C 312.026 49.167,311.716 48.995,311.432 48.786 C 311.149 48.577,310.729 48.315,310.500 48.204 C 310.271 48.093,309.971 47.929,309.833 47.839 C 309.299 47.491,306.699 46.333,306.450 46.333 C 306.305 46.333,306.144 46.265,306.092 46.181 C 306.041 46.097,305.705 45.979,305.346 45.919 C 304.987 45.858,304.649 45.696,304.597 45.558 C 304.446 45.165,300.495 45.301,299.583 45.730 C 299.217 45.903,298.579 46.190,298.167 46.367 C 297.754 46.545,297.286 46.760,297.127 46.845 C 296.968 46.930,296.729 47.000,296.595 47.000 C 296.461 47.000,296.246 47.152,296.116 47.337 C 295.986 47.523,295.495 47.860,295.025 48.087 C 294.555 48.314,294.076 48.649,293.962 48.833 C 293.847 49.016,293.667 49.167,293.561 49.167 C 293.455 49.167,293.326 49.279,293.273 49.417 C 293.220 49.554,293.095 49.667,292.995 49.667 C 292.761 49.667,291.292 50.785,291.117 51.096 C 291.043 51.227,290.875 51.333,290.742 51.333 C 290.609 51.333,290.500 51.439,290.500 51.569 C 290.500 51.699,290.144 52.035,289.708 52.317 C 288.004 53.420,287.561 53.735,286.958 54.274 C 286.614 54.582,286.195 54.833,286.027 54.833 C 285.860 54.833,285.666 54.890,285.597 54.958 C 285.528 55.027,285.422 55.090,285.361 55.097 C 285.196 55.118,284.340 55.474,283.579 55.839 C 283.210 56.015,282.668 56.208,282.375 56.267 C 282.081 56.325,281.755 56.477,281.650 56.603 C 281.545 56.730,281.185 56.833,280.850 56.833 C 280.515 56.833,280.093 56.936,279.912 57.062 C 279.731 57.188,279.354 57.341,279.074 57.402 C 278.793 57.463,278.118 57.736,277.574 58.008 C 277.029 58.281,276.302 58.550,275.958 58.607 C 275.590 58.667,275.333 58.803,275.333 58.938 C 275.333 59.213,274.243 59.258,274.077 58.990 C 274.017 58.892,273.787 58.744,273.567 58.661 C 273.347 58.577,273.167 58.407,273.167 58.283 C 273.167 58.159,272.979 57.882,272.750 57.667 C 272.305 57.249,272.104 54.495,272.500 54.250 C 272.592 54.193,272.667 53.904,272.667 53.607 C 272.667 53.310,272.735 52.995,272.818 52.908 C 273.023 52.694,273.512 50.998,273.366 51.008 C 273.302 51.012,272.987 51.157,272.667 51.329 C 271.466 51.974,270.898 52.200,270.250 52.291 C 269.883 52.343,269.335 52.573,269.031 52.804 C 268.728 53.034,268.109 53.394,267.656 53.603 C 267.204 53.813,266.833 54.063,266.833 54.159 C 266.833 54.255,266.733 54.333,266.610 54.333 C 266.487 54.333,266.301 54.521,266.197 54.750 C 266.093 54.979,265.920 55.167,265.814 55.167 C 265.563 55.167,265.179 55.675,265.172 56.016 C 265.169 56.162,265.017 56.417,264.833 56.583 C 264.650 56.749,264.500 56.977,264.500 57.090 C 264.500 57.401,260.759 61.116,260.309 61.251 C 260.093 61.317,259.429 61.592,258.833 61.863 C 257.160 62.625,257.130 62.636,256.347 62.725 C 255.921 62.774,255.548 62.920,255.463 63.071 C 255.306 63.353,253.762 63.456,253.601 63.195 C 253.554 63.119,252.968 62.961,252.299 62.845 C 251.630 62.729,250.933 62.568,250.750 62.487 C 250.567 62.407,249.872 62.194,249.207 62.014 C 248.541 61.834,247.780 61.532,247.514 61.343 C 247.249 61.155,246.962 61.000,246.876 61.000 C 246.652 61.000,243.960 58.328,243.686 57.834 C 243.559 57.604,243.353 57.223,243.229 56.985 C 243.104 56.748,242.852 56.418,242.668 56.251 C 242.484 56.085,242.333 55.872,242.333 55.778 C 242.333 55.633,241.246 53.912,241.000 53.667 C 240.953 53.621,240.692 53.246,240.418 52.833 C 239.443 51.363,236.499 48.667,235.870 48.667 C 235.757 48.667,235.672 49.875,235.628 52.125 C 235.568 55.214,235.524 55.655,235.217 56.250 C 234.620 57.407,234.167 58.473,234.167 58.722 C 234.167 58.854,233.979 59.085,233.750 59.235 C 233.521 59.385,233.333 59.608,233.333 59.730 C 233.333 60.013,231.179 61.737,230.366 62.105 C 230.027 62.258,229.289 62.597,228.726 62.858 C 228.163 63.120,227.643 63.333,227.570 63.333 C 227.498 63.333,227.283 63.473,227.094 63.644 C 226.905 63.814,226.375 64.043,225.917 64.153 C 224.109 64.583,223.833 64.685,223.833 64.923 C 223.833 65.201,221.199 65.289,220.908 65.021 C 220.700 64.828,218.744 64.167,218.384 64.167 C 217.066 64.167,212.658 60.951,212.260 59.700 C 212.197 59.498,212.075 59.333,211.991 59.333 C 211.907 59.333,211.727 59.090,211.591 58.792 C 211.456 58.494,211.174 57.976,210.964 57.642 C 209.933 55.995,209.167 54.614,209.167 54.402 C 209.167 54.273,209.092 54.167,209.000 54.167 C 208.908 54.167,208.833 54.063,208.833 53.937 C 208.833 53.811,208.721 53.614,208.583 53.500 C 208.446 53.386,208.333 53.161,208.333 53.000 C 208.333 52.839,208.217 52.611,208.074 52.492 C 207.931 52.373,207.704 52.046,207.569 51.763 C 207.250 51.095,207.029 50.740,206.373 49.850 C 206.076 49.447,205.833 49.061,205.833 48.994 C 205.833 48.927,205.397 48.419,204.864 47.865 L 203.895 46.859 203.197 47.171 C 202.814 47.343,202.500 47.562,202.500 47.659 C 202.500 47.755,202.413 47.833,202.307 47.833 C 202.201 47.833,201.869 48.021,201.569 48.250 C 201.268 48.479,200.942 48.667,200.844 48.667 C 200.747 48.667,200.667 48.738,200.667 48.824 C 200.667 48.972,200.308 49.206,199.333 49.691 C 199.104 49.806,198.579 50.133,198.167 50.419 C 197.754 50.705,196.460 51.412,195.292 51.991 C 194.123 52.570,193.167 53.100,193.167 53.170 C 193.167 53.239,192.906 53.345,192.588 53.405 C 192.270 53.464,191.912 53.642,191.793 53.798 C 191.508 54.174,190.272 54.833,189.852 54.833 C 189.669 54.833,189.473 54.908,189.417 55.000 C 189.360 55.092,189.166 55.167,188.985 55.167 C 188.804 55.167,188.613 55.280,188.560 55.417 C 188.507 55.555,188.191 55.788,187.857 55.934 C 187.523 56.080,186.872 56.374,186.410 56.588 C 185.948 56.801,185.372 57.026,185.130 57.086 C 184.889 57.147,184.650 57.302,184.601 57.432 C 184.551 57.561,184.363 57.667,184.182 57.667 C 184.001 57.667,183.807 57.742,183.750 57.833 C 183.693 57.925,183.509 58.000,183.341 58.000 C 183.173 58.000,182.992 58.112,182.940 58.250 C 182.887 58.387,182.722 58.500,182.573 58.500 C 182.423 58.500,182.098 58.645,181.849 58.822 C 181.600 58.999,181.195 59.195,180.948 59.257 C 180.702 59.319,180.500 59.474,180.500 59.601 C 180.500 59.729,180.347 59.833,180.161 59.833 C 179.787 59.833,178.993 60.288,178.783 60.621 C 178.710 60.738,178.513 60.833,178.345 60.833 C 178.178 60.833,177.947 60.946,177.833 61.083 C 177.719 61.221,177.448 61.333,177.230 61.333 C 177.012 61.333,176.833 61.400,176.833 61.482 C 176.833 61.564,176.647 61.677,176.419 61.735 C 176.191 61.792,175.882 62.025,175.733 62.253 C 175.584 62.480,175.356 62.667,175.228 62.667 C 174.858 62.667,173.702 63.457,173.402 63.916 C 172.881 64.710,172.569 64.471,171.609 62.542 C 171.118 61.556,170.520 60.413,170.279 60.000 C 170.038 59.587,169.797 59.136,169.744 58.997 C 169.691 58.858,169.399 58.573,169.094 58.364 C 168.789 58.155,168.325 57.761,168.062 57.487 C 166.895 56.274,166.508 56.291,164.417 57.654 C 162.895 58.645,162.708 58.758,161.917 59.162 C 161.550 59.349,161.025 59.651,160.750 59.832 C 160.475 60.014,160.137 60.207,160.000 60.260 C 159.862 60.314,159.620 60.427,159.461 60.512 C 159.301 60.597,159.060 60.667,158.924 60.667 C 158.631 60.667,157.372 61.303,157.239 61.517 C 157.189 61.599,157.014 61.667,156.851 61.667 C 156.689 61.667,156.337 61.890,156.069 62.162 C 155.734 62.504,155.418 62.659,155.048 62.662 C 154.685 62.665,154.454 62.775,154.333 63.000 C 154.235 63.183,154.053 63.333,153.929 63.333 C 153.804 63.333,153.660 63.443,153.608 63.578 C 153.557 63.713,153.255 63.931,152.937 64.064 C 152.619 64.197,152.232 64.499,152.077 64.736 C 151.908 64.994,151.640 65.167,151.409 65.167 C 151.197 65.167,150.895 65.296,150.737 65.454 C 150.384 65.807,149.708 66.167,149.398 66.167 C 149.271 66.167,149.167 66.235,149.167 66.318 C 149.167 66.478,147.855 67.167,147.551 67.167 C 147.454 67.167,147.273 67.288,147.150 67.437 C 146.873 67.770,142.472 67.706,142.130 67.363 C 142.022 67.255,141.738 67.167,141.500 67.167 C 141.262 67.167,140.995 67.105,140.908 67.030 C 140.821 66.955,140.351 66.797,139.864 66.679 C 138.987 66.466,138.551 66.273,137.583 65.670 C 137.308 65.498,136.927 65.352,136.735 65.346 C 136.544 65.339,136.300 65.165,136.194 64.958 C 136.087 64.752,135.743 64.246,135.428 63.833 C 135.113 63.421,134.850 62.990,134.844 62.875 C 134.838 62.760,134.721 62.667,134.583 62.667 C 134.446 62.667,134.333 62.525,134.333 62.351 C 134.333 62.178,134.227 61.995,134.096 61.945 C 133.965 61.894,133.732 61.586,133.577 61.260 C 133.422 60.934,133.191 60.667,133.064 60.667 C 132.937 60.667,132.833 60.581,132.833 60.477 C 132.833 60.372,132.383 59.852,131.833 59.320 C 131.283 58.789,130.833 58.297,130.833 58.228 C 130.833 58.158,130.636 57.896,130.396 57.645 C 129.938 57.167,129.578 56.618,129.400 56.125 C 129.342 55.965,129.205 55.833,129.095 55.833 C 128.743 55.833,127.276 53.724,127.401 53.398 C 127.449 53.273,127.344 53.095,127.168 53.001 C 126.992 52.906,126.799 52.568,126.739 52.248 C 126.679 51.928,126.575 51.667,126.508 51.667 C 126.393 51.667,125.791 50.550,125.609 50.000 C 125.541 49.793,125.524 49.797,125.513 50.021 C 125.506 50.170,125.383 50.389,125.240 50.508 C 125.098 50.627,124.876 50.973,124.749 51.278 C 124.621 51.584,124.447 51.833,124.362 51.833 C 124.277 51.833,124.111 52.077,123.993 52.375 C 123.875 52.673,123.688 53.029,123.577 53.167 C 123.467 53.304,123.130 53.867,122.828 54.417 C 122.264 55.447,120.537 57.667,120.300 57.667 C 120.227 57.667,120.167 57.751,120.167 57.854 C 120.167 58.174,117.943 60.147,117.459 60.256 C 117.208 60.313,116.945 60.448,116.876 60.556 C 116.724 60.794,115.401 61.667,115.193 61.667 C 115.112 61.667,114.849 61.863,114.609 62.103 C 114.369 62.344,113.815 62.727,113.378 62.955 C 112.941 63.183,112.471 63.503,112.333 63.665 C 112.196 63.828,111.786 64.014,111.423 64.078 C 111.059 64.143,110.497 64.403,110.173 64.656 C 109.849 64.910,109.278 65.165,108.905 65.223 C 108.532 65.280,107.872 65.516,107.438 65.747 C 107.004 65.978,106.445 66.167,106.195 66.167 C 105.945 66.167,105.593 66.270,105.412 66.396 C 105.231 66.522,104.671 66.676,104.167 66.739 C 103.662 66.801,103.100 66.914,102.917 66.989 C 102.392 67.204,100.632 67.500,99.875 67.500 C 99.496 67.500,99.134 67.585,99.069 67.689 C 98.915 67.939,89.116 67.802,88.799 67.545 C 88.680 67.449,87.946 67.316,87.167 67.251 C 86.388 67.185,85.638 67.034,85.500 66.914 C 85.362 66.795,84.940 66.615,84.561 66.514 C 84.182 66.413,83.774 66.213,83.654 66.068 C 83.534 65.923,83.112 65.653,82.718 65.467 C 82.323 65.282,82.000 65.065,82.000 64.986 C 82.000 64.907,81.771 64.724,81.492 64.579 C 81.212 64.435,80.716 64.020,80.389 63.658 C 80.062 63.296,79.720 63.000,79.628 63.000 C 78.939 63.000,78.180 61.572,78.174 60.262 C 78.167 59.000,78.644 57.333,79.012 57.333 C 79.077 57.333,79.177 57.149,79.233 56.924 C 79.375 56.361,80.009 55.713,80.552 55.576 C 80.800 55.514,81.044 55.396,81.095 55.315 C 81.145 55.233,81.429 55.167,81.727 55.167 C 82.024 55.167,82.339 55.094,82.428 55.005 C 82.517 54.916,84.014 54.759,85.753 54.656 C 87.493 54.554,89.040 54.406,89.190 54.328 C 89.340 54.251,90.127 54.140,90.940 54.081 C 91.752 54.023,92.567 53.916,92.750 53.843 C 92.933 53.771,93.271 53.630,93.500 53.532 C 93.729 53.433,94.457 53.303,95.118 53.243 C 97.190 53.055,97.204 52.620,95.152 52.237 C 94.381 52.093,93.612 51.901,93.444 51.811 C 93.276 51.720,91.790 51.561,90.141 51.458 C 87.538 51.294,87.123 51.229,86.983 50.968 C 86.738 50.511,78.850 50.509,78.083 50.966 C 77.808 51.130,77.265 51.366,76.875 51.492 C 76.485 51.617,76.167 51.770,76.167 51.832 C 76.167 51.893,75.960 52.050,75.708 52.180 C 75.456 52.310,75.120 52.577,74.961 52.773 C 74.802 52.969,74.488 53.175,74.264 53.232 C 74.039 53.288,73.812 53.470,73.760 53.636 C 73.676 53.899,72.666 54.747,71.834 55.251 C 71.682 55.343,71.443 55.531,71.304 55.668 C 70.284 56.670,68.861 57.775,68.167 58.106 C 68.029 58.171,67.857 58.324,67.783 58.446 C 67.710 58.567,67.551 58.667,67.429 58.667 C 67.307 58.667,67.118 58.774,67.009 58.906 C 66.900 59.037,66.497 59.306,66.114 59.504 C 65.730 59.702,65.229 60.033,65.000 60.241 C 64.771 60.448,64.471 60.669,64.333 60.732 C 64.196 60.795,63.896 60.955,63.667 61.087 C 63.438 61.220,63.059 61.330,62.825 61.331 C 62.591 61.332,62.329 61.403,62.242 61.487 C 62.155 61.572,61.596 61.730,61.000 61.838 C 60.404 61.947,59.786 62.103,59.627 62.185 C 59.468 62.266,59.223 62.333,59.083 62.333 C 58.943 62.333,58.699 62.406,58.539 62.494 C 58.380 62.582,57.425 62.730,56.417 62.822 C 54.145 63.029,52.487 63.399,52.295 63.740 C 52.215 63.883,52.027 64.000,51.876 64.000 C 51.492 64.000,50.333 64.831,50.333 65.106 C 50.333 65.476,49.375 65.395,49.255 65.015 C 49.199 64.841,49.044 64.655,48.910 64.604 C 48.776 64.553,48.667 64.412,48.667 64.291 C 48.667 64.170,48.292 63.701,47.833 63.250 C 47.375 62.799,47.000 62.331,47.000 62.211 C 47.000 62.092,46.044 61.049,44.875 59.895 C 42.088 57.143,42.185 57.224,41.424 57.019 C 40.702 56.824,40.573 56.907,40.405 57.667 C 40.355 57.896,40.243 58.215,40.157 58.375 C 39.738 59.154,39.562 59.557,39.151 60.667 C 39.033 60.987,38.894 61.288,38.843 61.333 C 38.695 61.466,38.397 61.990,37.659 63.417 C 36.641 65.386,36.665 65.352,35.573 66.338 C 33.446 68.259,33.071 68.550,32.174 68.977 C 31.666 69.219,31.190 69.510,31.117 69.625 C 30.954 69.879,22.381 69.918,20.684 69.673 C 19.638 69.521,18.501 68.785,18.500 68.259 C 18.499 68.162,18.249 67.669,17.944 67.162 C 17.638 66.655,17.334 66.018,17.267 65.745 C 17.201 65.473,16.963 64.970,16.740 64.629 C 16.516 64.287,16.333 63.855,16.333 63.668 C 16.333 63.482,16.176 62.974,15.983 62.540 C 15.448 61.332,15.397 61.191,14.903 59.583 C 14.650 58.758,14.389 58.008,14.322 57.917 C 14.256 57.825,14.036 57.188,13.835 56.500 C 13.486 55.312,13.157 54.434,12.819 53.794 C 12.735 53.635,12.667 53.399,12.667 53.270 C 12.667 53.141,12.554 52.992,12.417 52.940 C 12.279 52.887,12.164 52.710,12.161 52.547 C 12.152 52.004,11.702 51.548,11.556 51.933 C 11.489 52.107,11.075 52.623,10.634 53.079 C 10.194 53.535,9.833 53.998,9.833 54.108 C 9.833 54.218,9.586 54.632,9.283 55.029 C 8.245 56.390,7.333 57.857,7.333 58.169 C 7.333 58.341,7.202 58.579,7.042 58.699 C 6.742 58.923,6.561 59.216,5.700 60.879 C 5.426 61.408,5.128 61.933,5.038 62.045 C 4.948 62.158,4.817 62.438,4.748 62.667 C 4.678 62.896,4.444 63.295,4.227 63.554 C 4.011 63.814,3.833 64.132,3.833 64.261 C 3.833 64.391,3.683 64.591,3.500 64.705 C 3.317 64.820,3.167 64.991,3.167 65.086 C 3.167 65.181,2.960 65.486,2.708 65.763 C 2.456 66.040,1.956 66.694,1.597 67.216 C 1.238 67.739,0.882 68.167,0.806 68.167 C -0.049 68.167,0.000 66.560,0.000 94.417 L 0.000 120.000 200.000 120.000 L 400.000 120.000 399.996 90.625 L 399.993 61.250 399.371 60.821 C 398.651 60.324,397.271 59.667,396.949 59.667 C 396.827 59.667,396.475 59.442,396.167 59.167 C 395.859 58.892,395.505 58.667,395.381 58.667 C 395.258 58.667,395.106 58.535,395.044 58.375 C 394.983 58.215,394.573 57.738,394.133 57.317 C 393.693 56.895,393.333 56.487,393.333 56.410 C 393.333 56.334,393.012 55.854,392.618 55.344 C 392.225 54.834,391.779 54.220,391.628 53.980 C 391.250 53.377,389.474 51.500,389.283 51.500 C 389.075 51.500,387.833 50.250,387.833 50.040 C 387.833 49.949,387.719 49.780,387.580 49.664 C 387.441 49.549,387.216 49.221,387.080 48.935 C 386.944 48.650,386.570 48.131,386.250 47.782 C 385.929 47.434,385.667 47.056,385.667 46.943 C 385.667 46.830,385.445 46.478,385.173 46.160 C 384.902 45.843,384.677 45.527,384.673 45.458 C 384.670 45.390,384.535 45.197,384.375 45.030 C 384.215 44.863,383.859 44.450,383.584 44.113 C 382.897 43.269,382.897 43.269,382.778 45.359 C 382.703 46.665,382.596 47.301,382.419 47.497 C 382.097 47.853,382.092 48.602,382.411 48.725 C 382.625 48.807,382.625 48.876,382.412 49.284 C 382.278 49.540,382.168 49.832,382.168 49.933 C 382.167 50.033,382.017 50.251,381.833 50.417 C 381.650 50.583,381.500 50.785,381.500 50.865 C 381.500 51.026,380.390 52.132,379.450 52.906 C 378.713 53.514,377.184 54.333,376.786 54.333 C 376.623 54.333,376.446 54.446,376.394 54.583 C 376.286 54.864,374.196 54.952,373.908 54.688 C 373.821 54.608,372.984 54.459,372.049 54.356 C 368.998 54.021,366.790 52.385,365.328 49.375 C 365.139 48.985,364.911 48.667,364.821 48.667 C 364.732 48.667,364.593 48.494,364.512 48.282 C 364.432 48.071,364.182 47.677,363.956 47.407 C 363.730 47.137,363.495 46.755,363.433 46.557 C 363.371 46.359,363.034 45.919,362.684 45.580 C 362.334 45.240,361.948 44.708,361.826 44.397 C 361.704 44.087,361.540 43.833,361.460 43.833 C 361.381 43.833,361.238 43.608,361.142 43.333 C 361.046 43.058,360.910 42.833,360.841 42.833 C 360.771 42.833,360.231 42.472,359.641 42.031 C 359.050 41.589,358.439 41.179,358.283 41.119 C 358.128 41.059,358.000 40.933,358.000 40.839 C 358.000 40.744,357.877 40.667,357.727 40.667 C 357.578 40.667,357.281 40.479,357.069 40.250 C 356.856 40.021,356.617 39.833,356.537 39.833 C 356.457 39.833,355.947 39.498,355.404 39.088 C 354.861 38.678,354.329 38.340,354.223 38.338 C 354.116 38.335,353.631 38.071,353.143 37.750 C 352.656 37.429,352.162 37.167,352.045 37.167 C 351.929 37.167,351.833 37.092,351.833 37.000 C 351.833 36.908,351.689 36.833,351.512 36.833 C 351.335 36.833,351.052 36.665,350.881 36.458 C 350.383 35.855,348.443 34.836,347.778 34.830 C 347.579 34.828,347.229 34.679,347.000 34.500 C 346.535 34.136,342.959 33.996,342.750 34.333 M386.833 47.416 C 387.048 47.645,387.254 47.801,387.292 47.763 C 387.374 47.681,386.716 47.000,386.554 47.000 C 386.492 47.000,386.618 47.187,386.833 47.416 M8.310 54.792 C 7.831 55.371,7.627 55.667,7.710 55.667 C 7.756 55.667,7.994 55.404,8.239 55.083 C 8.693 54.488,8.748 54.263,8.310 54.792 M69.181 56.397 L 68.779 56.917 69.255 56.463 C 69.518 56.214,69.699 55.980,69.658 55.944 C 69.617 55.907,69.402 56.111,69.181 56.397 M130.834 57.083 C 131.063 57.358,131.269 57.615,131.292 57.653 C 131.315 57.691,131.370 57.686,131.415 57.641 C 131.460 57.596,131.254 57.340,130.957 57.071 L 130.418 56.583 130.834 57.083 M2.123 65.000 C 1.794 65.367,1.581 65.667,1.651 65.667 C 1.721 65.667,2.019 65.367,2.313 65.000 C 2.608 64.633,2.820 64.333,2.785 64.333 C 2.750 64.333,2.452 64.633,2.123 65.000 " stroke="none" fill="#e48474" fill-rule="evenodd"></path></g></svg>